<svg width="309" height="240" viewBox="0 0 309 240" fill="none" xmlns="http://www.w3.org/2000/svg">
<g filter="url(#filter0_b_797_1387)">
<rect x="0.5" width="308" height="240" rx="8" fill="url(#paint0_linear_797_1387)"/>
<rect x="1" y="0.5" width="307" height="239" rx="7.5" stroke="#454645"/>
<path d="M39.5 38.5C40.42 38.5 41.2 38.82 41.86 39.46C42.5 40.1 42.82 40.88 42.82 41.8C42.82 42.72 42.5 43.5 41.86 44.16C41.2 44.8 40.42 45.12 39.5 45.12C38.58 45.12 37.8 44.8 37.16 44.16C36.52 43.5 36.2 42.72 36.2 41.8C36.2 40.88 36.52 40.1 37.16 39.46C37.8 38.82 38.58 38.5 39.5 38.5ZM60.24 38.38C61.72 38.38 62.8 38.76 63.52 39.54C64.12 40.22 64.44 41.16 64.44 42.36V49H62.94V47.26C62.54 47.82 62 48.28 61.36 48.64C60.6 49.06 59.74 49.28 58.78 49.28C57.74 49.28 56.92 49.02 56.3 48.5C55.66 47.96 55.34 47.26 55.34 46.42C55.34 45.24 55.8 44.36 56.76 43.76C57.6 43.2 58.8 42.9 60.36 42.88L62.84 42.84V42.3C62.84 40.56 61.94 39.7 60.14 39.7C59.38 39.7 58.76 39.84 58.28 40.16C57.74 40.48 57.4 40.98 57.24 41.64L55.66 41.52C55.88 40.44 56.42 39.62 57.26 39.1C58.02 38.62 59 38.38 60.24 38.38ZM62.84 44.04L60.46 44.08C58.14 44.12 56.98 44.88 56.98 46.38C56.98 46.86 57.16 47.24 57.56 47.56C57.96 47.86 58.48 48.02 59.12 48.02C60.1 48.02 60.96 47.7 61.72 47.06C62.46 46.44 62.84 45.72 62.84 44.92V44.04ZM66.7719 34.72H77.1719V36.08L68.2919 47.58H77.6519V49H66.1719V47.66L75.0719 36.14H66.7719V34.72ZM83.6523 38.38C85.3123 38.38 86.5723 38.94 87.4123 40.06C88.1723 41.06 88.5723 42.48 88.6123 44.28H80.4523C80.5323 45.44 80.8323 46.34 81.3923 46.98C81.9523 47.62 82.7323 47.94 83.7123 47.94C84.5523 47.94 85.2523 47.72 85.7723 47.3C86.2123 46.94 86.5523 46.4 86.8123 45.68H88.4123C88.1723 46.68 87.7123 47.48 87.0123 48.12C86.1523 48.88 85.0523 49.28 83.7123 49.28C82.2323 49.28 81.0323 48.78 80.1523 47.82C79.2323 46.82 78.7923 45.5 78.7923 43.82C78.7923 42.3 79.2123 41.02 80.0923 40C80.9723 38.92 82.1523 38.38 83.6523 38.38ZM83.6923 39.72C82.7723 39.72 82.0323 40.02 81.4723 40.62C80.9123 41.22 80.5923 42.02 80.4923 43.04H86.9523C86.7523 40.82 85.6523 39.72 83.6923 39.72ZM95.3261 38.38C97.8861 38.38 99.1861 39.8 99.1861 42.64V49H97.5861V42.76C97.5861 40.74 96.6661 39.74 94.8661 39.74C94.1461 39.74 93.5261 40 93.0061 40.52C92.4461 41.08 92.1461 41.82 92.0861 42.76V49H90.4861V38.66H92.0861V40.18C92.4461 39.6 92.9061 39.16 93.4661 38.86C94.0261 38.54 94.6461 38.38 95.3261 38.38ZM114.678 34.44C116.258 34.44 117.598 34.86 118.678 35.7C119.758 36.54 120.398 37.68 120.598 39.1H119.018C118.818 38.06 118.298 37.26 117.498 36.7C116.718 36.16 115.778 35.9 114.658 35.9C112.998 35.9 111.718 36.48 110.818 37.64C109.978 38.72 109.558 40.14 109.558 41.92C109.558 43.7 109.958 45.12 110.798 46.16C111.678 47.26 112.938 47.82 114.618 47.82C115.758 47.82 116.718 47.52 117.518 46.92C118.358 46.28 118.938 45.34 119.218 44.1H120.798C120.478 45.76 119.738 47.06 118.558 47.98C117.458 48.84 116.138 49.28 114.618 49.28C112.398 49.28 110.698 48.54 109.518 47.08C108.438 45.76 107.918 44.04 107.918 41.92C107.918 39.8 108.458 38.06 109.558 36.7C110.758 35.18 112.478 34.44 114.678 34.44ZM127.489 38.38C129.029 38.38 130.269 38.9 131.189 39.98C132.069 41 132.509 42.28 132.509 43.84C132.509 45.38 132.069 46.66 131.209 47.66C130.269 48.74 129.029 49.28 127.489 49.28C125.929 49.28 124.709 48.74 123.789 47.66C122.909 46.66 122.469 45.38 122.469 43.84C122.469 42.28 122.909 41 123.789 39.98C124.709 38.9 125.929 38.38 127.489 38.38ZM127.489 39.72C126.389 39.72 125.529 40.14 124.929 40.98C124.369 41.74 124.109 42.68 124.109 43.84C124.109 44.98 124.369 45.92 124.929 46.68C125.529 47.52 126.389 47.94 127.489 47.94C128.569 47.94 129.429 47.52 130.069 46.68C130.609 45.92 130.889 44.96 130.889 43.84C130.889 42.68 130.609 41.74 130.069 40.98C129.429 40.14 128.569 39.72 127.489 39.72ZM139.428 38.38C141.988 38.38 143.288 39.8 143.288 42.64V49H141.688V42.76C141.688 40.74 140.768 39.74 138.968 39.74C138.248 39.74 137.628 40 137.108 40.52C136.548 41.08 136.248 41.82 136.188 42.76V49H134.588V38.66H136.188V40.18C136.548 39.6 137.008 39.16 137.568 38.86C138.128 38.54 138.748 38.38 139.428 38.38ZM150.6 38.38C153.16 38.38 154.46 39.8 154.46 42.64V49H152.86V42.76C152.86 40.74 151.94 39.74 150.14 39.74C149.42 39.74 148.8 40 148.28 40.52C147.72 41.08 147.42 41.82 147.36 42.76V49H145.76V38.66H147.36V40.18C147.72 39.6 148.18 39.16 148.74 38.86C149.3 38.54 149.92 38.38 150.6 38.38ZM161.191 38.38C162.851 38.38 164.111 38.94 164.951 40.06C165.711 41.06 166.111 42.48 166.151 44.28H157.991C158.071 45.44 158.371 46.34 158.931 46.98C159.491 47.62 160.271 47.94 161.251 47.94C162.091 47.94 162.791 47.72 163.311 47.3C163.751 46.94 164.091 46.4 164.351 45.68H165.951C165.711 46.68 165.251 47.48 164.551 48.12C163.691 48.88 162.591 49.28 161.251 49.28C159.771 49.28 158.571 48.78 157.691 47.82C156.771 46.82 156.331 45.5 156.331 43.82C156.331 42.3 156.751 41.02 157.631 40C158.511 38.92 159.691 38.38 161.191 38.38ZM161.231 39.72C160.311 39.72 159.571 40.02 159.011 40.62C158.451 41.22 158.131 42.02 158.031 43.04H164.491C164.291 40.82 163.191 39.72 161.231 39.72ZM172.485 38.38C173.765 38.38 174.785 38.68 175.565 39.28C176.365 39.9 176.845 40.84 177.025 42.1H175.445C175.305 41.3 174.985 40.7 174.485 40.3C173.965 39.9 173.305 39.72 172.485 39.72C171.485 39.72 170.685 40.1 170.105 40.86C169.545 41.6 169.265 42.6 169.265 43.86C169.265 45.12 169.525 46.12 170.085 46.84C170.625 47.56 171.425 47.94 172.465 47.94C174.225 47.94 175.245 47.04 175.485 45.26H177.085C176.845 46.58 176.345 47.6 175.545 48.28C174.765 48.94 173.745 49.28 172.465 49.28C170.905 49.28 169.705 48.76 168.845 47.72C168.025 46.74 167.625 45.46 167.625 43.88C167.625 42.3 168.025 41.02 168.845 40.02C169.725 38.92 170.945 38.38 172.485 38.38ZM181.723 35.32V38.66H184.283V40H181.723V46.58C181.723 46.96 181.783 47.24 181.943 47.4C182.083 47.56 182.343 47.66 182.703 47.66H184.023V49H182.463C181.623 49 181.003 48.78 180.643 48.34C180.303 47.94 180.143 47.36 180.143 46.58V40H178.063V38.66H180.143V35.98L181.723 35.32ZM192.492 43.14H202.592V44.5H192.492V43.14ZM215.882 34.72H217.782L223.402 49H221.622L220.102 45H213.542L212.022 49H210.262L215.882 34.72ZM214.062 43.62H219.582L216.882 36.48H216.802L214.062 43.62ZM229.486 38.38C232.046 38.38 233.346 39.8 233.346 42.64V49H231.746V42.76C231.746 40.74 230.826 39.74 229.026 39.74C228.306 39.74 227.686 40 227.166 40.52C226.606 41.08 226.306 41.82 226.246 42.76V49H224.646V38.66H226.246V40.18C226.606 39.6 227.066 39.16 227.626 38.86C228.186 38.54 228.806 38.38 229.486 38.38ZM243.458 34.44H245.058V49H243.558V47.3C242.838 48.62 241.678 49.28 240.118 49.28C238.598 49.28 237.418 48.72 236.578 47.64C235.798 46.64 235.418 45.36 235.418 43.8C235.418 42.28 235.798 41.04 236.578 40.04C237.418 38.92 238.558 38.38 240.038 38.38C241.518 38.38 242.658 39.1 243.458 40.56V34.44ZM240.378 39.7C239.238 39.7 238.378 40.1 237.818 40.9C237.298 41.6 237.058 42.56 237.058 43.8C237.058 45.04 237.298 46.02 237.798 46.74C238.358 47.54 239.198 47.96 240.318 47.96C241.358 47.96 242.158 47.56 242.738 46.76C243.238 46.04 243.498 45.1 243.498 43.94V43.74C243.498 42.54 243.198 41.56 242.638 40.82C242.058 40.06 241.298 39.7 240.378 39.7ZM252.077 38.38C252.637 38.38 253.117 38.46 253.497 38.62V40.22C252.977 40.06 252.457 40 251.957 40C251.157 40 250.477 40.34 249.937 41.06C249.377 41.74 249.117 42.56 249.117 43.52V49H247.537V38.66H249.117V40.46C249.397 39.86 249.757 39.38 250.197 39.04C250.737 38.6 251.357 38.38 252.077 38.38ZM259.462 38.38C261.002 38.38 262.242 38.9 263.162 39.98C264.042 41 264.482 42.28 264.482 43.84C264.482 45.38 264.042 46.66 263.182 47.66C262.242 48.74 261.002 49.28 259.462 49.28C257.902 49.28 256.682 48.74 255.762 47.66C254.882 46.66 254.442 45.38 254.442 43.84C254.442 42.28 254.882 41 255.762 39.98C256.682 38.9 257.902 38.38 259.462 38.38ZM259.462 39.72C258.362 39.72 257.502 40.14 256.902 40.98C256.342 41.74 256.082 42.68 256.082 43.84C256.082 44.98 256.342 45.92 256.902 46.68C257.502 47.52 258.362 47.94 259.462 47.94C260.542 47.94 261.402 47.52 262.042 46.68C262.582 45.92 262.862 44.96 262.862 43.84C262.862 42.68 262.582 41.74 262.042 40.98C261.402 40.14 260.542 39.72 259.462 39.72ZM267.88 34.76C268.22 34.76 268.5 34.86 268.74 35.1C268.98 35.3 269.1 35.58 269.1 35.94C269.1 36.28 268.98 36.56 268.74 36.8C268.5 37.02 268.22 37.14 267.88 37.14C267.54 37.14 267.26 37.02 267.02 36.8C266.78 36.56 266.68 36.28 266.68 35.94C266.68 35.58 266.78 35.3 267.02 35.1C267.26 34.86 267.54 34.76 267.88 34.76ZM267.08 38.66H268.68V49H267.08V38.66ZM279.318 34.44H280.918V49H279.418V47.3C278.698 48.62 277.538 49.28 275.978 49.28C274.458 49.28 273.278 48.72 272.438 47.64C271.658 46.64 271.278 45.36 271.278 43.8C271.278 42.28 271.658 41.04 272.438 40.04C273.278 38.92 274.418 38.38 275.898 38.38C277.378 38.38 278.518 39.1 279.318 40.56V34.44ZM276.238 39.7C275.098 39.7 274.238 40.1 273.678 40.9C273.158 41.6 272.918 42.56 272.918 43.8C272.918 45.04 273.158 46.02 273.658 46.74C274.218 47.54 275.058 47.96 276.178 47.96C277.218 47.96 278.018 47.56 278.598 46.76C279.098 46.04 279.358 45.1 279.358 43.94V43.74C279.358 42.54 279.058 41.56 278.498 40.82C277.918 40.06 277.158 39.7 276.238 39.7ZM60.24 90.38C61.72 90.38 62.8 90.76 63.52 91.54C64.12 92.22 64.44 93.16 64.44 94.36V101H62.94V99.26C62.54 99.82 62 100.28 61.36 100.64C60.6 101.06 59.74 101.28 58.78 101.28C57.74 101.28 56.92 101.02 56.3 100.5C55.66 99.96 55.34 99.26 55.34 98.42C55.34 97.24 55.8 96.36 56.76 95.76C57.6 95.2 58.8 94.9 60.36 94.88L62.84 94.84V94.3C62.84 92.56 61.94 91.7 60.14 91.7C59.38 91.7 58.76 91.84 58.28 92.16C57.74 92.48 57.4 92.98 57.24 93.64L55.66 93.52C55.88 92.44 56.42 91.62 57.26 91.1C58.02 90.62 59 90.38 60.24 90.38ZM62.84 96.04L60.46 96.08C58.14 96.12 56.98 96.88 56.98 98.38C56.98 98.86 57.16 99.24 57.56 99.56C57.96 99.86 58.48 100.02 59.12 100.02C60.1 100.02 60.96 99.7 61.72 99.06C62.46 98.44 62.84 97.72 62.84 96.92V96.04ZM71.7519 90.38C74.3119 90.38 75.6119 91.8 75.6119 94.64V101H74.0119V94.76C74.0119 92.74 73.0919 91.74 71.2919 91.74C70.5719 91.74 69.9519 92 69.4319 92.52C68.8719 93.08 68.5719 93.82 68.5119 94.76V101H66.9119V90.66H68.5119V92.18C68.8719 91.6 69.3319 91.16 69.8919 90.86C70.4519 90.54 71.0719 90.38 71.7519 90.38ZM85.7238 86.44H87.3238V101H85.8238V99.3C85.1038 100.62 83.9438 101.28 82.3838 101.28C80.8638 101.28 79.6838 100.72 78.8438 99.64C78.0638 98.64 77.6838 97.36 77.6838 95.8C77.6838 94.28 78.0638 93.04 78.8438 92.04C79.6838 90.92 80.8238 90.38 82.3038 90.38C83.7838 90.38 84.9238 91.1 85.7238 92.56V86.44ZM82.6438 91.7C81.5038 91.7 80.6438 92.1 80.0838 92.9C79.5638 93.6 79.3238 94.56 79.3238 95.8C79.3238 97.04 79.5638 98.02 80.0638 98.74C80.6238 99.54 81.4638 99.96 82.5838 99.96C83.6238 99.96 84.4238 99.56 85.0038 98.76C85.5038 98.04 85.7638 97.1 85.7638 95.94V95.74C85.7638 94.54 85.4638 93.56 84.9038 92.82C84.3238 92.06 83.5638 91.7 82.6438 91.7ZM96.7827 86.72H98.4027V101H96.7827V86.72ZM107.649 86.44C109.769 86.44 111.469 87.14 112.709 88.58C113.869 89.94 114.469 91.7 114.469 93.88C114.469 96.04 113.869 97.78 112.709 99.14C111.469 100.56 109.769 101.28 107.629 101.28C105.489 101.28 103.809 100.56 102.569 99.14C101.389 97.78 100.809 96.02 100.809 93.88C100.809 91.72 101.389 89.96 102.569 88.6C103.809 87.16 105.489 86.44 107.649 86.44ZM107.649 87.9C106.009 87.9 104.709 88.46 103.769 89.6C102.889 90.68 102.449 92.1 102.449 93.88C102.449 95.64 102.889 97.06 103.769 98.14C104.689 99.26 105.989 99.82 107.629 99.82C109.269 99.82 110.569 99.26 111.489 98.18C112.369 97.1 112.829 95.68 112.829 93.88C112.829 92.06 112.369 90.62 111.489 89.54C110.569 88.44 109.289 87.9 107.649 87.9ZM121.541 86.44C123.141 86.44 124.421 86.8 125.341 87.54C126.301 88.3 126.841 89.44 126.981 90.94H125.361C125.181 89.9 124.781 89.14 124.161 88.64C123.521 88.12 122.621 87.88 121.461 87.88C120.401 87.88 119.581 88.04 118.981 88.4C118.301 88.8 117.961 89.4 117.961 90.22C117.961 90.94 118.361 91.52 119.181 91.96C119.541 92.16 120.421 92.46 121.801 92.86C123.681 93.42 124.921 93.88 125.521 94.24C126.701 94.96 127.301 95.96 127.301 97.26C127.301 98.5 126.801 99.5 125.801 100.22C124.801 100.92 123.461 101.28 121.761 101.28C120.081 101.28 118.761 100.92 117.801 100.2C116.681 99.34 116.061 98.04 115.941 96.28H117.561C117.701 97.52 118.141 98.44 118.861 99.02C119.521 99.54 120.481 99.82 121.761 99.82C122.921 99.82 123.881 99.6 124.601 99.16C125.321 98.72 125.681 98.12 125.681 97.36C125.681 96.46 125.201 95.76 124.261 95.26C123.861 95.02 122.841 94.68 121.241 94.22C119.521 93.7 118.421 93.3 117.961 93.06C116.861 92.42 116.321 91.5 116.321 90.3C116.321 89.06 116.841 88.08 117.901 87.4C118.841 86.76 120.061 86.44 121.541 86.44ZM140.378 90.38C140.938 90.38 141.418 90.46 141.798 90.62V92.22C141.278 92.06 140.758 92 140.258 92C139.458 92 138.778 92.34 138.238 93.06C137.678 93.74 137.418 94.56 137.418 95.52V101H135.838V90.66H137.418V92.46C137.698 91.86 138.058 91.38 138.498 91.04C139.038 90.6 139.658 90.38 140.378 90.38ZM147.402 90.38C149.062 90.38 150.322 90.94 151.162 92.06C151.922 93.06 152.322 94.48 152.362 96.28H144.202C144.282 97.44 144.582 98.34 145.142 98.98C145.702 99.62 146.482 99.94 147.462 99.94C148.302 99.94 149.002 99.72 149.522 99.3C149.962 98.94 150.302 98.4 150.562 97.68H152.162C151.922 98.68 151.462 99.48 150.762 100.12C149.902 100.88 148.802 101.28 147.462 101.28C145.982 101.28 144.782 100.78 143.902 99.82C142.982 98.82 142.542 97.5 142.542 95.82C142.542 94.3 142.962 93.02 143.842 92C144.722 90.92 145.902 90.38 147.402 90.38ZM147.442 91.72C146.522 91.72 145.782 92.02 145.222 92.62C144.662 93.22 144.342 94.02 144.242 95.04H150.702C150.502 92.82 149.402 91.72 147.442 91.72ZM154.556 86.44H156.136V101H154.556V86.44ZM163.203 90.38C164.863 90.38 166.123 90.94 166.963 92.06C167.723 93.06 168.123 94.48 168.163 96.28H160.003C160.083 97.44 160.383 98.34 160.943 98.98C161.503 99.62 162.283 99.94 163.263 99.94C164.103 99.94 164.803 99.72 165.323 99.3C165.763 98.94 166.103 98.4 166.363 97.68H167.963C167.723 98.68 167.263 99.48 166.563 100.12C165.703 100.88 164.603 101.28 163.263 101.28C161.783 101.28 160.583 100.78 159.703 99.82C158.783 98.82 158.343 97.5 158.343 95.82C158.343 94.3 158.763 93.02 159.643 92C160.523 90.92 161.703 90.38 163.203 90.38ZM163.243 91.72C162.323 91.72 161.583 92.02 161.023 92.62C160.463 93.22 160.143 94.02 160.043 95.04H166.503C166.303 92.82 165.203 91.72 163.243 91.72ZM174.537 90.38C176.017 90.38 177.097 90.76 177.817 91.54C178.417 92.22 178.737 93.16 178.737 94.36V101H177.237V99.26C176.837 99.82 176.297 100.28 175.657 100.64C174.897 101.06 174.037 101.28 173.077 101.28C172.037 101.28 171.217 101.02 170.597 100.5C169.957 99.96 169.637 99.26 169.637 98.42C169.637 97.24 170.097 96.36 171.057 95.76C171.897 95.2 173.097 94.9 174.657 94.88L177.137 94.84V94.3C177.137 92.56 176.237 91.7 174.437 91.7C173.677 91.7 173.057 91.84 172.577 92.16C172.037 92.48 171.697 92.98 171.537 93.64L169.957 93.52C170.177 92.44 170.717 91.62 171.557 91.1C172.317 90.62 173.297 90.38 174.537 90.38ZM177.137 96.04L174.757 96.08C172.437 96.12 171.277 96.88 171.277 98.38C171.277 98.86 171.457 99.24 171.857 99.56C172.257 99.86 172.777 100.02 173.417 100.02C174.397 100.02 175.257 99.7 176.017 99.06C176.757 98.44 177.137 97.72 177.137 96.92V96.04ZM184.869 90.38C187.429 90.38 188.829 91.44 189.109 93.6H187.549C187.409 92.96 187.149 92.48 186.749 92.2C186.309 91.88 185.669 91.72 184.849 91.72C184.129 91.72 183.569 91.84 183.169 92.12C182.729 92.38 182.509 92.74 182.509 93.2C182.509 93.64 182.789 94.02 183.389 94.32C183.769 94.5 184.489 94.72 185.529 95C186.769 95.3 187.649 95.62 188.189 95.96C189.009 96.48 189.429 97.18 189.429 98.08C189.429 100.2 187.969 101.28 185.049 101.28C182.329 101.28 180.849 100.08 180.609 97.7H182.169C182.289 98.52 182.589 99.1 183.029 99.46C183.469 99.78 184.129 99.94 185.009 99.94C186.849 99.94 187.789 99.34 187.789 98.18C187.789 97.6 187.449 97.16 186.809 96.84C186.469 96.68 185.729 96.46 184.609 96.18C183.389 95.88 182.529 95.58 182.049 95.26C181.249 94.78 180.869 94.12 180.869 93.24C180.869 92.36 181.249 91.68 182.029 91.16C182.749 90.64 183.709 90.38 184.869 90.38ZM195.566 90.38C197.226 90.38 198.486 90.94 199.326 92.06C200.086 93.06 200.486 94.48 200.526 96.28H192.366C192.446 97.44 192.746 98.34 193.306 98.98C193.866 99.62 194.646 99.94 195.626 99.94C196.466 99.94 197.166 99.72 197.686 99.3C198.126 98.94 198.466 98.4 198.726 97.68H200.326C200.086 98.68 199.626 99.48 198.926 100.12C198.066 100.88 196.966 101.28 195.626 101.28C194.146 101.28 192.946 100.78 192.066 99.82C191.146 98.82 190.706 97.5 190.706 95.82C190.706 94.3 191.126 93.02 192.006 92C192.886 90.92 194.066 90.38 195.566 90.38ZM195.606 91.72C194.686 91.72 193.946 92.02 193.386 92.62C192.826 93.22 192.506 94.02 192.406 95.04H198.866C198.666 92.82 197.566 91.72 195.606 91.72ZM39.5 142.5C40.42 142.5 41.2 142.82 41.86 143.46C42.5 144.1 42.82 144.88 42.82 145.8C42.82 146.72 42.5 147.5 41.86 148.16C41.2 148.8 40.42 149.12 39.5 149.12C38.58 149.12 37.8 148.8 37.16 148.16C36.52 147.5 36.2 146.72 36.2 145.8C36.2 144.88 36.52 144.1 37.16 143.46C37.8 142.82 38.58 142.5 39.5 142.5ZM60.24 142.38C61.72 142.38 62.8 142.76 63.52 143.54C64.12 144.22 64.44 145.16 64.44 146.36V153H62.94V151.26C62.54 151.82 62 152.28 61.36 152.64C60.6 153.06 59.74 153.28 58.78 153.28C57.74 153.28 56.92 153.02 56.3 152.5C55.66 151.96 55.34 151.26 55.34 150.42C55.34 149.24 55.8 148.36 56.76 147.76C57.6 147.2 58.8 146.9 60.36 146.88L62.84 146.84V146.3C62.84 144.56 61.94 143.7 60.14 143.7C59.38 143.7 58.76 143.84 58.28 144.16C57.74 144.48 57.4 144.98 57.24 145.64L55.66 145.52C55.88 144.44 56.42 143.62 57.26 143.1C58.02 142.62 59 142.38 60.24 142.38ZM62.84 148.04L60.46 148.08C58.14 148.12 56.98 148.88 56.98 150.38C56.98 150.86 57.16 151.24 57.56 151.56C57.96 151.86 58.48 152.02 59.12 152.02C60.1 152.02 60.96 151.7 61.72 151.06C62.46 150.44 62.84 149.72 62.84 148.92V148.04ZM66.7719 138.72H77.1719V140.08L68.2919 151.58H77.6519V153H66.1719V151.66L75.0719 140.14H66.7719V138.72ZM83.6523 142.38C85.3123 142.38 86.5723 142.94 87.4123 144.06C88.1723 145.06 88.5723 146.48 88.6123 148.28H80.4523C80.5323 149.44 80.8323 150.34 81.3923 150.98C81.9523 151.62 82.7323 151.94 83.7123 151.94C84.5523 151.94 85.2523 151.72 85.7723 151.3C86.2123 150.94 86.5523 150.4 86.8123 149.68H88.4123C88.1723 150.68 87.7123 151.48 87.0123 152.12C86.1523 152.88 85.0523 153.28 83.7123 153.28C82.2323 153.28 81.0323 152.78 80.1523 151.82C79.2323 150.82 78.7923 149.5 78.7923 147.82C78.7923 146.3 79.2123 145.02 80.0923 144C80.9723 142.92 82.1523 142.38 83.6523 142.38ZM83.6923 143.72C82.7723 143.72 82.0323 144.02 81.4723 144.62C80.9123 145.22 80.5923 146.02 80.4923 147.04H86.9523C86.7523 144.82 85.6523 143.72 83.6923 143.72ZM95.3261 142.38C97.8861 142.38 99.1861 143.8 99.1861 146.64V153H97.5861V146.76C97.5861 144.74 96.6661 143.74 94.8661 143.74C94.1461 143.74 93.5261 144 93.0061 144.52C92.4461 145.08 92.1461 145.82 92.0861 146.76V153H90.4861V142.66H92.0861V144.18C92.4461 143.6 92.9061 143.16 93.4661 142.86C94.0261 142.54 94.6461 142.38 95.3261 142.38ZM114.678 138.44C116.258 138.44 117.598 138.86 118.678 139.7C119.758 140.54 120.398 141.68 120.598 143.1H119.018C118.818 142.06 118.298 141.26 117.498 140.7C116.718 140.16 115.778 139.9 114.658 139.9C112.998 139.9 111.718 140.48 110.818 141.64C109.978 142.72 109.558 144.14 109.558 145.92C109.558 147.7 109.958 149.12 110.798 150.16C111.678 151.26 112.938 151.82 114.618 151.82C115.758 151.82 116.718 151.52 117.518 150.92C118.358 150.28 118.938 149.34 119.218 148.1H120.798C120.478 149.76 119.738 151.06 118.558 151.98C117.458 152.84 116.138 153.28 114.618 153.28C112.398 153.28 110.698 152.54 109.518 151.08C108.438 149.76 107.918 148.04 107.918 145.92C107.918 143.8 108.458 142.06 109.558 140.7C110.758 139.18 112.478 138.44 114.678 138.44ZM127.489 142.38C129.029 142.38 130.269 142.9 131.189 143.98C132.069 145 132.509 146.28 132.509 147.84C132.509 149.38 132.069 150.66 131.209 151.66C130.269 152.74 129.029 153.28 127.489 153.28C125.929 153.28 124.709 152.74 123.789 151.66C122.909 150.66 122.469 149.38 122.469 147.84C122.469 146.28 122.909 145 123.789 143.98C124.709 142.9 125.929 142.38 127.489 142.38ZM127.489 143.72C126.389 143.72 125.529 144.14 124.929 144.98C124.369 145.74 124.109 146.68 124.109 147.84C124.109 148.98 124.369 149.92 124.929 150.68C125.529 151.52 126.389 151.94 127.489 151.94C128.569 151.94 129.429 151.52 130.069 150.68C130.609 149.92 130.889 148.96 130.889 147.84C130.889 146.68 130.609 145.74 130.069 144.98C129.429 144.14 128.569 143.72 127.489 143.72ZM139.428 142.38C141.988 142.38 143.288 143.8 143.288 146.64V153H141.688V146.76C141.688 144.74 140.768 143.74 138.968 143.74C138.248 143.74 137.628 144 137.108 144.52C136.548 145.08 136.248 145.82 136.188 146.76V153H134.588V142.66H136.188V144.18C136.548 143.6 137.008 143.16 137.568 142.86C138.128 142.54 138.748 142.38 139.428 142.38ZM150.6 142.38C153.16 142.38 154.46 143.8 154.46 146.64V153H152.86V146.76C152.86 144.74 151.94 143.74 150.14 143.74C149.42 143.74 148.8 144 148.28 144.52C147.72 145.08 147.42 145.82 147.36 146.76V153H145.76V142.66H147.36V144.18C147.72 143.6 148.18 143.16 148.74 142.86C149.3 142.54 149.92 142.38 150.6 142.38ZM161.191 142.38C162.851 142.38 164.111 142.94 164.951 144.06C165.711 145.06 166.111 146.48 166.151 148.28H157.991C158.071 149.44 158.371 150.34 158.931 150.98C159.491 151.62 160.271 151.94 161.251 151.94C162.091 151.94 162.791 151.72 163.311 151.3C163.751 150.94 164.091 150.4 164.351 149.68H165.951C165.711 150.68 165.251 151.48 164.551 152.12C163.691 152.88 162.591 153.28 161.251 153.28C159.771 153.28 158.571 152.78 157.691 151.82C156.771 150.82 156.331 149.5 156.331 147.82C156.331 146.3 156.751 145.02 157.631 144C158.511 142.92 159.691 142.38 161.191 142.38ZM161.231 143.72C160.311 143.72 159.571 144.02 159.011 144.62C158.451 145.22 158.131 146.02 158.031 147.04H164.491C164.291 144.82 163.191 143.72 161.231 143.72ZM172.485 142.38C173.765 142.38 174.785 142.68 175.565 143.28C176.365 143.9 176.845 144.84 177.025 146.1H175.445C175.305 145.3 174.985 144.7 174.485 144.3C173.965 143.9 173.305 143.72 172.485 143.72C171.485 143.72 170.685 144.1 170.105 144.86C169.545 145.6 169.265 146.6 169.265 147.86C169.265 149.12 169.525 150.12 170.085 150.84C170.625 151.56 171.425 151.94 172.465 151.94C174.225 151.94 175.245 151.04 175.485 149.26H177.085C176.845 150.58 176.345 151.6 175.545 152.28C174.765 152.94 173.745 153.28 172.465 153.28C170.905 153.28 169.705 152.76 168.845 151.72C168.025 150.74 167.625 149.46 167.625 147.88C167.625 146.3 168.025 145.02 168.845 144.02C169.725 142.92 170.945 142.38 172.485 142.38ZM181.723 139.32V142.66H184.283V144H181.723V150.58C181.723 150.96 181.783 151.24 181.943 151.4C182.083 151.56 182.343 151.66 182.703 151.66H184.023V153H182.463C181.623 153 181.003 152.78 180.643 152.34C180.303 151.94 180.143 151.36 180.143 150.58V144H178.063V142.66H180.143V139.98L181.723 139.32ZM192.492 147.14H202.592V148.5H192.492V147.14ZM211.702 138.72H217.542C220.822 138.72 222.462 140.12 222.462 142.92C222.462 145.74 220.802 147.16 217.522 147.16H213.342V153H211.702V138.72ZM213.342 140.14V145.74H217.442C218.602 145.74 219.442 145.5 220.002 145.04C220.542 144.58 220.822 143.88 220.822 142.92C220.822 141.96 220.542 141.26 219.982 140.84C219.422 140.36 218.582 140.14 217.442 140.14H213.342ZM228.834 142.38C230.314 142.38 231.394 142.76 232.114 143.54C232.714 144.22 233.034 145.16 233.034 146.36V153H231.534V151.26C231.134 151.82 230.594 152.28 229.954 152.64C229.194 153.06 228.334 153.28 227.374 153.28C226.334 153.28 225.514 153.02 224.894 152.5C224.254 151.96 223.934 151.26 223.934 150.42C223.934 149.24 224.394 148.36 225.354 147.76C226.194 147.2 227.394 146.9 228.954 146.88L231.434 146.84V146.3C231.434 144.56 230.534 143.7 228.734 143.7C227.974 143.7 227.354 143.84 226.874 144.16C226.334 144.48 225.994 144.98 225.834 145.64L224.254 145.52C224.474 144.44 225.014 143.62 225.854 143.1C226.614 142.62 227.594 142.38 228.834 142.38ZM231.434 148.04L229.054 148.08C226.734 148.12 225.574 148.88 225.574 150.38C225.574 150.86 225.754 151.24 226.154 151.56C226.554 151.86 227.074 152.02 227.714 152.02C228.694 152.02 229.554 151.7 230.314 151.06C231.054 150.44 231.434 149.72 231.434 148.92V148.04ZM240.046 142.38C240.606 142.38 241.086 142.46 241.466 142.62V144.22C240.946 144.06 240.426 144 239.926 144C239.126 144 238.446 144.34 237.906 145.06C237.346 145.74 237.086 146.56 237.086 147.52V153H235.506V142.66H237.086V144.46C237.366 143.86 237.726 143.38 238.166 143.04C238.706 142.6 239.326 142.38 240.046 142.38ZM245.57 139.32V142.66H248.13V144H245.57V150.58C245.57 150.96 245.63 151.24 245.79 151.4C245.93 151.56 246.19 151.66 246.55 151.66H247.87V153H246.31C245.47 153 244.85 152.78 244.49 152.34C244.15 151.94 243.99 151.36 243.99 150.58V144H241.91V142.66H243.99V139.98L245.57 139.32ZM251.24 138.76C251.58 138.76 251.86 138.86 252.1 139.1C252.34 139.3 252.46 139.58 252.46 139.94C252.46 140.28 252.34 140.56 252.1 140.8C251.86 141.02 251.58 141.14 251.24 141.14C250.9 141.14 250.62 141.02 250.38 140.8C250.14 140.56 250.04 140.28 250.04 139.94C250.04 139.58 250.14 139.3 250.38 139.1C250.62 138.86 250.9 138.76 251.24 138.76ZM250.44 142.66H252.04V153H250.44V142.66ZM259.497 142.38C260.777 142.38 261.797 142.68 262.577 143.28C263.377 143.9 263.857 144.84 264.037 146.1H262.457C262.317 145.3 261.997 144.7 261.497 144.3C260.977 143.9 260.317 143.72 259.497 143.72C258.497 143.72 257.697 144.1 257.117 144.86C256.557 145.6 256.277 146.6 256.277 147.86C256.277 149.12 256.537 150.12 257.097 150.84C257.637 151.56 258.437 151.94 259.477 151.94C261.237 151.94 262.257 151.04 262.497 149.26H264.097C263.857 150.58 263.357 151.6 262.557 152.28C261.777 152.94 260.757 153.28 259.477 153.28C257.917 153.28 256.717 152.76 255.857 151.72C255.037 150.74 254.637 149.46 254.637 147.88C254.637 146.3 255.037 145.02 255.857 144.02C256.737 142.92 257.957 142.38 259.497 142.38ZM266.294 138.44H267.874V153H266.294V138.44ZM274.941 142.38C276.601 142.38 277.861 142.94 278.701 144.06C279.461 145.06 279.861 146.48 279.901 148.28H271.741C271.821 149.44 272.121 150.34 272.681 150.98C273.241 151.62 274.021 151.94 275.001 151.94C275.841 151.94 276.541 151.72 277.061 151.3C277.501 150.94 277.841 150.4 278.101 149.68H279.701C279.461 150.68 279.001 151.48 278.301 152.12C277.441 152.88 276.341 153.28 275.001 153.28C273.521 153.28 272.321 152.78 271.441 151.82C270.521 150.82 270.081 149.5 270.081 147.82C270.081 146.3 270.501 145.02 271.381 144C272.261 142.92 273.441 142.38 274.941 142.38ZM274.981 143.72C274.061 143.72 273.321 144.02 272.761 144.62C272.201 145.22 271.881 146.02 271.781 147.04H278.241C278.041 144.82 276.941 143.72 274.981 143.72ZM54.6 190.72H56.44L59.58 202.7H59.66L62.92 190.72H64.7L67.94 202.7H68.02L71.16 190.72H73L68.9 205H67.08L63.84 193.1H63.78L60.52 205H58.7L54.6 190.72ZM78.8338 194.38C80.3138 194.38 81.3938 194.76 82.1138 195.54C82.7138 196.22 83.0338 197.16 83.0338 198.36V205H81.5338V203.26C81.1338 203.82 80.5938 204.28 79.9538 204.64C79.1938 205.06 78.3338 205.28 77.3738 205.28C76.3338 205.28 75.5138 205.02 74.8938 204.5C74.2538 203.96 73.9338 203.26 73.9338 202.42C73.9338 201.24 74.3938 200.36 75.3538 199.76C76.1938 199.2 77.3938 198.9 78.9538 198.88L81.4338 198.84V198.3C81.4338 196.56 80.5338 195.7 78.7338 195.7C77.9738 195.7 77.3538 195.84 76.8738 196.16C76.3338 196.48 75.9938 196.98 75.8338 197.64L74.2538 197.52C74.4738 196.44 75.0138 195.62 75.8538 195.1C76.6138 194.62 77.5938 194.38 78.8338 194.38ZM81.4338 200.04L79.0538 200.08C76.7338 200.12 75.5738 200.88 75.5738 202.38C75.5738 202.86 75.7538 203.24 76.1538 203.56C76.5538 203.86 77.0738 204.02 77.7138 204.02C78.6938 204.02 79.5538 203.7 80.3138 203.06C81.0538 202.44 81.4338 201.72 81.4338 200.92V200.04ZM85.8256 190.44H87.4056V205H85.8256V190.44ZM90.5327 190.44H92.1127V205H90.5327V190.44ZM99.1797 194.38C100.84 194.38 102.1 194.94 102.94 196.06C103.7 197.06 104.1 198.48 104.14 200.28H95.9797C96.0597 201.44 96.3597 202.34 96.9197 202.98C97.4797 203.62 98.2597 203.94 99.2397 203.94C100.08 203.94 100.78 203.72 101.3 203.3C101.74 202.94 102.08 202.4 102.34 201.68H103.94C103.7 202.68 103.24 203.48 102.54 204.12C101.68 204.88 100.58 205.28 99.2397 205.28C97.7597 205.28 96.5597 204.78 95.6797 203.82C94.7597 202.82 94.3197 201.5 94.3197 199.82C94.3197 198.3 94.7397 197.02 95.6197 196C96.4997 194.92 97.6797 194.38 99.1797 194.38ZM99.2197 195.72C98.2997 195.72 97.5597 196.02 96.9997 196.62C96.4397 197.22 96.1197 198.02 96.0197 199.04H102.48C102.28 196.82 101.18 195.72 99.2197 195.72ZM108.773 191.32V194.66H111.333V196H108.773V202.58C108.773 202.96 108.833 203.24 108.993 203.4C109.133 203.56 109.393 203.66 109.753 203.66H111.073V205H109.513C108.673 205 108.053 204.78 107.693 204.34C107.353 203.94 107.193 203.36 107.193 202.58V196H105.113V194.66H107.193V191.98L108.773 191.32ZM120.103 190.72H121.723V205H120.103V190.72ZM129.369 194.38C131.929 194.38 133.229 195.8 133.229 198.64V205H131.629V198.76C131.629 196.74 130.709 195.74 128.909 195.74C128.189 195.74 127.569 196 127.049 196.52C126.489 197.08 126.189 197.82 126.129 198.76V205H124.529V194.66H126.129V196.18C126.489 195.6 126.949 195.16 127.509 194.86C128.069 194.54 128.689 194.38 129.369 194.38ZM138.461 191.32V194.66H141.021V196H138.461V202.58C138.461 202.96 138.521 203.24 138.681 203.4C138.821 203.56 139.081 203.66 139.441 203.66H140.761V205H139.201C138.361 205 137.741 204.78 137.381 204.34C137.041 203.94 136.881 203.36 136.881 202.58V196H134.801V194.66H136.881V191.98L138.461 191.32ZM147.07 194.38C148.73 194.38 149.99 194.94 150.83 196.06C151.59 197.06 151.99 198.48 152.03 200.28H143.87C143.95 201.44 144.25 202.34 144.81 202.98C145.37 203.62 146.15 203.94 147.13 203.94C147.97 203.94 148.67 203.72 149.19 203.3C149.63 202.94 149.97 202.4 150.23 201.68H151.83C151.59 202.68 151.13 203.48 150.43 204.12C149.57 204.88 148.47 205.28 147.13 205.28C145.65 205.28 144.45 204.78 143.57 203.82C142.65 202.82 142.21 201.5 142.21 199.82C142.21 198.3 142.63 197.02 143.51 196C144.39 194.92 145.57 194.38 147.07 194.38ZM147.11 195.72C146.19 195.72 145.45 196.02 144.89 196.62C144.33 197.22 144.01 198.02 143.91 199.04H150.37C150.17 196.82 149.07 195.72 147.11 195.72ZM158.164 194.38C159.724 194.38 160.884 195.06 161.644 196.44V194.66H163.244V204.28C163.244 207.58 161.664 209.24 158.524 209.24C157.124 209.24 156.044 208.96 155.324 208.4C154.584 207.84 154.124 207 153.944 205.88H155.544C155.664 206.58 155.964 207.1 156.424 207.42C156.884 207.76 157.584 207.94 158.524 207.94C160.604 207.94 161.644 206.78 161.644 204.5V202.68C160.884 204.06 159.724 204.76 158.164 204.76C156.724 204.76 155.584 204.26 154.744 203.28C153.904 202.32 153.504 201.1 153.504 199.6C153.504 198.08 153.904 196.86 154.744 195.9C155.584 194.88 156.724 194.38 158.164 194.38ZM158.404 195.7C157.364 195.7 156.564 196.06 155.984 196.82C155.424 197.5 155.144 198.44 155.144 199.6C155.144 200.68 155.384 201.58 155.884 202.26C156.444 203.02 157.264 203.42 158.384 203.42C159.424 203.42 160.224 203.06 160.824 202.34C161.384 201.64 161.664 200.72 161.664 199.6C161.664 198.44 161.384 197.5 160.824 196.82C160.224 196.06 159.424 195.7 158.404 195.7ZM170.26 194.38C170.82 194.38 171.3 194.46 171.68 194.62V196.22C171.16 196.06 170.64 196 170.14 196C169.34 196 168.66 196.34 168.12 197.06C167.56 197.74 167.3 198.56 167.3 199.52V205H165.72V194.66H167.3V196.46C167.58 195.86 167.94 195.38 168.38 195.04C168.92 194.6 169.54 194.38 170.26 194.38ZM177.525 194.38C179.005 194.38 180.085 194.76 180.805 195.54C181.405 196.22 181.725 197.16 181.725 198.36V205H180.225V203.26C179.825 203.82 179.285 204.28 178.645 204.64C177.885 205.06 177.025 205.28 176.065 205.28C175.025 205.28 174.205 205.02 173.585 204.5C172.945 203.96 172.625 203.26 172.625 202.42C172.625 201.24 173.085 200.36 174.045 199.76C174.885 199.2 176.085 198.9 177.645 198.88L180.125 198.84V198.3C180.125 196.56 179.225 195.7 177.425 195.7C176.665 195.7 176.045 195.84 175.565 196.16C175.025 196.48 174.685 196.98 174.525 197.64L172.945 197.52C173.165 196.44 173.705 195.62 174.545 195.1C175.305 194.62 176.285 194.38 177.525 194.38ZM180.125 200.04L177.745 200.08C175.425 200.12 174.265 200.88 174.265 202.38C174.265 202.86 174.445 203.24 174.845 203.56C175.245 203.86 175.765 204.02 176.405 204.02C177.385 204.02 178.245 203.7 179.005 203.06C179.745 202.44 180.125 201.72 180.125 200.92V200.04ZM186.957 191.32V194.66H189.517V196H186.957V202.58C186.957 202.96 187.017 203.24 187.177 203.4C187.317 203.56 187.577 203.66 187.937 203.66H189.257V205H187.697C186.857 205 186.237 204.78 185.877 204.34C185.537 203.94 185.377 203.36 185.377 202.58V196H183.297V194.66H185.377V191.98L186.957 191.32ZM192.626 190.76C192.966 190.76 193.246 190.86 193.486 191.1C193.726 191.3 193.846 191.58 193.846 191.94C193.846 192.28 193.726 192.56 193.486 192.8C193.246 193.02 192.966 193.14 192.626 193.14C192.286 193.14 192.006 193.02 191.766 192.8C191.526 192.56 191.426 192.28 191.426 191.94C191.426 191.58 191.526 191.3 191.766 191.1C192.006 190.86 192.286 190.76 192.626 190.76ZM191.826 194.66H193.426V205H191.826V194.66ZM201.044 194.38C202.584 194.38 203.824 194.9 204.744 195.98C205.624 197 206.064 198.28 206.064 199.84C206.064 201.38 205.624 202.66 204.764 203.66C203.824 204.74 202.584 205.28 201.044 205.28C199.484 205.28 198.264 204.74 197.344 203.66C196.464 202.66 196.024 201.38 196.024 199.84C196.024 198.28 196.464 197 197.344 195.98C198.264 194.9 199.484 194.38 201.044 194.38ZM201.044 195.72C199.944 195.72 199.084 196.14 198.484 196.98C197.924 197.74 197.664 198.68 197.664 199.84C197.664 200.98 197.924 201.92 198.484 202.68C199.084 203.52 199.944 203.94 201.044 203.94C202.124 203.94 202.984 203.52 203.624 202.68C204.164 201.92 204.444 200.96 204.444 199.84C204.444 198.68 204.164 197.74 203.624 196.98C202.984 196.14 202.124 195.72 201.044 195.72ZM212.982 194.38C215.542 194.38 216.842 195.8 216.842 198.64V205H215.242V198.76C215.242 196.74 214.322 195.74 212.522 195.74C211.802 195.74 211.182 196 210.662 196.52C210.102 197.08 209.802 197.82 209.742 198.76V205H208.142V194.66H209.742V196.18C210.102 195.6 210.562 195.16 211.122 194.86C211.682 194.54 212.302 194.38 212.982 194.38Z" fill="white"/>
</g>
<defs>
<filter id="filter0_b_797_1387" x="-23.5" y="-24" width="356" height="288" filterUnits="userSpaceOnUse" color-interpolation-filters="sRGB">
<feFlood flood-opacity="0" result="BackgroundImageFix"/>
<feGaussianBlur in="BackgroundImageFix" stdDeviation="12"/>
<feComposite in2="SourceAlpha" operator="in" result="effect1_backgroundBlur_797_1387"/>
<feBlend mode="normal" in="SourceGraphic" in2="effect1_backgroundBlur_797_1387" result="shape"/>
</filter>
<linearGradient id="paint0_linear_797_1387" x1="154.5" y1="0" x2="154.5" y2="212.174" gradientUnits="userSpaceOnUse">
<stop stop-color="#101211" stop-opacity="0"/>
<stop offset="1" stop-color="#0F1110"/>
</linearGradient>
</defs>
</svg>
