<svg width="390" height="79" viewBox="0 0 390 79" fill="none" xmlns="http://www.w3.org/2000/svg">
<path d="M0 44L493 44" stroke="#C0EE02" stroke-width="2"/>
<g filter="url(#filter0_b_797_1389)">
<rect x="172.5" y="11" width="68" height="68" rx="34" fill="#C0EE02"/>
<rect x="173" y="11.5" width="67" height="67" rx="33.5" stroke="#454645"/>
</g>
<path d="M202.24 37.44C204.42 37.44 206.14 38.14 207.4 39.56C208.6 40.9 209.2 42.68 209.2 44.88C209.2 47.02 208.62 48.76 207.5 50.08C208.02 50.76 208.56 51.48 209.08 52.24L207.56 53.56C207.02 52.78 206.5 52.04 205.98 51.36C204.94 51.96 203.68 52.28 202.24 52.28C200.04 52.28 198.32 51.56 197.08 50.16C195.88 48.8 195.3 47.04 195.3 44.88C195.3 42.7 195.88 40.94 197.08 39.58C198.32 38.14 200.04 37.44 202.24 37.44ZM202.24 39.5C200.76 39.5 199.62 40 198.8 41C198.02 41.96 197.64 43.24 197.64 44.88C197.64 46.5 198.02 47.78 198.8 48.74C199.6 49.72 200.76 50.22 202.24 50.22C203.18 50.22 203.98 50.02 204.66 49.64C203.94 48.76 203.26 47.98 202.6 47.28L203.96 45.96C204.66 46.7 205.36 47.48 206.04 48.28C206.56 47.4 206.84 46.26 206.84 44.88C206.84 43.2 206.44 41.88 205.66 40.92C204.86 39.96 203.72 39.5 202.24 39.5ZM214.648 37.72H216.408V52H214.068V40.54C213.208 41.32 212.128 41.9 210.808 42.28V39.96C211.448 39.8 212.128 39.52 212.848 39.12C213.568 38.68 214.168 38.22 214.648 37.72Z" fill="#080B0E"/>
<path d="M25.33 7.16C27.4 7.16 29.11 7.76 30.46 8.96C31.78 10.16 32.44 11.69 32.44 13.61C32.44 15.47 31.72 17.15 30.34 18.68C29.5 19.58 28 20.72 25.9 22.13C23.71 23.57 22.39 24.83 21.91 25.91H32.47V29H17.53C17.53 26.81 18.22 24.92 19.66 23.3C20.44 22.4 22.09 21.08 24.58 19.37C25.96 18.41 26.92 17.6 27.52 16.97C28.45 15.92 28.93 14.78 28.93 13.58C28.93 12.41 28.6 11.54 28 10.97C27.37 10.4 26.44 10.13 25.21 10.13C23.89 10.13 22.9 10.58 22.24 11.48C21.58 12.32 21.22 13.61 21.16 15.29H17.65C17.68 12.89 18.37 10.97 19.75 9.5C21.16 7.94 23.02 7.16 25.33 7.16ZM42.9883 7.16C45.4783 7.16 47.4283 8.18 48.8383 10.28C50.1583 12.26 50.8183 14.93 50.8183 18.29C50.8183 21.65 50.1583 24.32 48.8383 26.3C47.4283 28.37 45.4783 29.42 42.9883 29.42C40.4683 29.42 38.5183 28.37 37.1383 26.3C35.8183 24.32 35.1583 21.65 35.1583 18.29C35.1583 14.93 35.8183 12.26 37.1383 10.28C38.5183 8.18 40.4683 7.16 42.9883 7.16ZM42.9883 10.13C41.2783 10.13 40.0783 11.06 39.3883 12.98C38.9083 14.27 38.6683 16.04 38.6683 18.29C38.6683 20.51 38.9083 22.28 39.3883 23.6C40.0783 25.49 41.2783 26.45 42.9883 26.45C44.6683 26.45 45.8683 25.49 46.5883 23.6C47.0683 22.28 47.3083 20.51 47.3083 18.29C47.3083 16.04 47.0683 14.27 46.5883 12.98C45.8683 11.06 44.6683 10.13 42.9883 10.13ZM61.3066 7.16C63.3766 7.16 65.0866 7.76 66.4366 8.96C67.7566 10.16 68.4166 11.69 68.4166 13.61C68.4166 15.47 67.6966 17.15 66.3166 18.68C65.4766 19.58 63.9766 20.72 61.8766 22.13C59.6866 23.57 58.3666 24.83 57.8866 25.91H68.4466V29H53.5066C53.5066 26.81 54.1966 24.92 55.6366 23.3C56.4166 22.4 58.0666 21.08 60.5566 19.37C61.9366 18.41 62.8966 17.6 63.4966 16.97C64.4266 15.92 64.9066 14.78 64.9066 13.58C64.9066 12.41 64.5766 11.54 63.9766 10.97C63.3466 10.4 62.4166 10.13 61.1866 10.13C59.8666 10.13 58.8766 10.58 58.2166 11.48C57.5566 12.32 57.1966 13.61 57.1366 15.29H53.6266C53.6566 12.89 54.3466 10.97 55.7266 9.5C57.1366 7.94 58.9966 7.16 61.3066 7.16ZM81.0048 7.58H84.2148V21.62H87.3948V24.41H84.2148V29H80.8848V24.41H70.5348V21.08L81.0048 7.58ZM80.7948 12.02L73.3848 21.62H80.8848V12.02H80.7948Z" fill="#C0EE02"/>
<circle cx="52.5" cy="44" r="4" fill="#C0EE02"/>
<defs>
<filter id="filter0_b_797_1389" x="148.5" y="-13" width="116" height="116" filterUnits="userSpaceOnUse" color-interpolation-filters="sRGB">
<feFlood flood-opacity="0" result="BackgroundImageFix"/>
<feGaussianBlur in="BackgroundImageFix" stdDeviation="12"/>
<feComposite in2="SourceAlpha" operator="in" result="effect1_backgroundBlur_797_1389"/>
<feBlend mode="normal" in="SourceGraphic" in2="effect1_backgroundBlur_797_1389" result="shape"/>
</filter>
</defs>
</svg>
