<svg width="284" height="50" viewBox="0 0 284 50" fill="none" xmlns="http://www.w3.org/2000/svg">
<mask id="mask0_390_1745" style="mask-type:alpha" maskUnits="userSpaceOnUse" x="0" y="0" width="284" height="50">
<rect width="284" height="50" fill="#D9D9D9"/>
</mask>
<g mask="url(#mask0_390_1745)">
</g>
<g clip-path="url(#clip0_390_1745)">
<path d="M118.075 22.7003V1.92822H123.67V22.7003H118.075ZM140.927 22.7003L133.72 10.3657V22.7003H128.301V1.92822H134.63L141.104 13.2076V1.92822H146.552V22.7003H140.927ZM160.966 7.11388V22.7003H155.459V7.11388H149.483V1.92822H166.973V7.11388H160.968H160.966ZM169.902 22.7003V1.92822H183.203V6.67455H175.352V9.9558H182.501V14.5256H175.352V17.8657H183.262V22.7003H169.902ZM187.157 22.7003V1.92822H195.916C200.135 1.92822 202.889 4.74072 202.889 8.60837C202.889 11.4209 201.336 13.5018 199.051 14.4098L202.977 22.7003H197.03L193.749 15.1709H192.606V22.7003H187.157ZM194.893 10.9521C196.534 10.9521 197.383 10.0146 197.383 8.6966C197.383 7.37859 196.534 6.4705 194.893 6.4705H192.608V10.9521H194.893ZM219.093 22.7003L211.885 10.3657V22.7003H206.464V1.92822H212.793L219.268 13.2076V1.92822H224.716V22.7003H219.091H219.093ZM229.347 22.7003V1.92822H242.648V6.67455H234.797V9.9558H241.946V14.5256H234.797V17.8657H242.707V22.7003H229.347ZM257.304 7.11388V22.7003H251.797V7.11388H245.821V1.92822H263.312V7.11388H257.306H257.304ZM122.065 38.6966C122.065 42.1543 124.527 44.1451 127.045 44.1451C129.916 44.1451 131.146 42.3584 131.586 40.8933L136.742 42.3878C135.922 45.4631 133.168 49.5073 127.016 49.5073C121.244 49.5073 116.382 45.3179 116.382 38.726C116.382 32.1341 121.334 27.8565 126.959 27.8565C132.935 27.8565 135.661 31.4889 136.51 34.5955L131.442 36.3234C131.062 34.9466 129.948 33.1304 127.018 33.1304C124.674 33.1304 122.067 34.9172 122.067 38.6966H122.065ZM149.165 27.8565C154.878 27.8565 159.828 31.9576 159.828 38.6966C159.828 45.4356 154.876 49.5367 149.165 49.5367C143.453 49.5367 138.501 45.4356 138.501 38.6966C138.501 31.9576 143.453 27.8565 149.165 27.8565ZM149.165 44.2334C151.597 44.2334 154.174 42.5054 154.174 38.6672C154.174 34.829 151.595 33.1598 149.165 33.1598C146.734 33.1598 144.155 34.8878 144.155 38.6672C144.155 42.4466 146.734 44.2334 149.165 44.2334ZM181.552 49.0679V36.2058L177.012 49.0679H172.676L168.165 36.3529V49.0679H162.95V28.2959H170.246L174.904 40.9521L179.358 28.2959H186.858V49.0679H181.554H181.552ZM196.933 41.9797V49.0698H191.484V28.2977H199.775C204.111 28.2977 207.071 31.1396 207.071 35.1525C207.071 39.1654 204.111 41.9797 199.775 41.9797H196.933ZM199.071 37.4393C200.507 37.4393 201.562 36.59 201.562 35.1837C201.562 33.7775 200.507 32.8988 199.071 32.8988H196.961V37.4393H199.071ZM209.911 41.4521V28.2977H215.389V41.2775C215.389 43.329 216.444 44.4117 218.26 44.4117C220.076 44.4117 221.102 43.3271 221.102 41.2775V28.2977H226.58V41.4521C226.58 46.6672 223.093 49.5385 218.26 49.5385C213.427 49.5385 209.911 46.6672 209.911 41.4521ZM240.995 33.4834V49.0698H235.488V33.4834H229.512V28.2977H247.003V33.4834H240.997H240.995ZM249.931 49.0679V28.2959H263.233V33.0422H255.382V36.3234H262.53V40.8933H255.382V44.2334H263.291V49.0679H249.931ZM267.371 49.0679V28.2959H276.13C280.348 28.2959 283.102 31.1084 283.102 34.976C283.102 37.7885 281.549 39.8694 279.264 40.7775L283.19 49.0679H277.244L273.962 41.5385H272.819V49.0679H267.371ZM275.106 37.3198C276.747 37.3198 277.597 36.3823 277.597 35.0643C277.597 33.7462 276.747 32.8381 275.106 32.8381H272.821V37.3198H275.106Z" fill="white"/>
<path d="M87.9494 41.5441C80.7215 41.5441 73.0891 36.8199 69.3428 33.3897C65.2472 29.6379 53.9917 17.432 53.9421 17.3768C46.5616 9.13971 36.6369 0 26.7362 0C14.8116 0 4.41267 8.25735 1.70679 19.1985C1.91451 18.4779 5.70311 8.45588 19.9347 8.45588C27.1627 8.45588 34.795 13.1801 38.5413 16.6103C42.6369 20.3621 53.8925 32.568 53.9421 32.6232C61.3226 40.8585 71.2472 49.9982 81.148 49.9982C93.0726 49.9982 103.471 41.7408 106.177 30.7996C105.97 31.5202 102.181 41.5423 87.9494 41.5423V41.5441Z" fill="#00ACE5"/>
<path d="M53.9437 32.6249C53.918 32.5955 50.6772 29.0808 47.043 25.2463C45.0798 27.5771 42.2489 30.7536 38.9952 33.6047C32.9327 38.919 28.9915 40.033 26.7379 40.033C18.2342 40.033 11.2985 33.2885 11.2985 24.9999C11.2985 16.7113 18.2268 10.0183 26.7379 9.96684C27.0467 9.96684 27.4198 9.99809 27.8739 10.079C25.3169 9.09736 22.6 8.45581 19.9364 8.45581C5.71028 8.45581 1.918 18.4724 1.71028 19.1966C1.24068 21.0947 1.00364 23.0428 1.0044 24.9981C1.0044 38.783 12.3757 49.9981 26.5559 49.9981C32.4676 49.9981 39.089 46.9668 45.9088 40.9907C49.1331 38.1654 51.929 35.1433 54.0283 32.7132C54.0007 32.6838 53.9731 32.6525 53.9474 32.6231L53.9437 32.6249Z" fill="url(#paint0_linear_390_1745)"/>
<path d="M53.9417 17.375C53.9675 17.4044 57.2083 20.9191 60.8425 24.7537C62.8057 22.4228 65.6366 19.2463 68.8903 16.3952C74.9528 11.0809 78.8939 9.96691 81.1476 9.96691C89.6513 9.96691 96.5869 16.7114 96.5869 25C96.5869 33.2426 89.6586 39.9816 81.1476 40.0331C80.8388 40.0331 80.4656 40.0018 80.0116 39.921C82.5686 40.9026 85.2855 41.5441 87.9491 41.5441C102.175 41.5441 105.967 31.5276 106.175 30.8033C106.637 28.9393 106.881 26.9963 106.881 25.0018C106.883 11.2151 95.3278 0 81.1476 0C75.2358 0 68.7983 3.03125 61.9785 9.00735C58.7542 11.8327 55.9583 14.8548 53.859 17.2849C53.8866 17.3143 53.9142 17.3456 53.9399 17.375H53.9417Z" fill="url(#paint1_linear_390_1745)"/>
</g>
<defs>
<linearGradient id="paint0_linear_390_1745" x1="40.0798" y1="46.7297" x2="5.2544" y2="10.6672" gradientUnits="userSpaceOnUse">
<stop offset="0.22" stop-color="#FF0079"/>
<stop offset="0.89" stop-color="#592489"/>
</linearGradient>
<linearGradient id="paint1_linear_390_1745" x1="67.7836" y1="3.29228" x2="102.609" y2="39.3529" gradientUnits="userSpaceOnUse">
<stop offset="0.21" stop-color="#FF4B00"/>
<stop offset="0.68" stop-color="#FFAB00"/>
</linearGradient>
<clipPath id="clip0_390_1745">
<rect width="282.191" height="50" fill="white" transform="translate(1)"/>
</clipPath>
</defs>
</svg>
