<svg width="120" height="50" viewBox="0 0 120 50" fill="none" xmlns="http://www.w3.org/2000/svg">
<mask id="mask0_390_1752" style="mask-type:alpha" maskUnits="userSpaceOnUse" x="0" y="0" width="120" height="50">
<rect width="120" height="50" fill="#D9D9D9"/>
</mask>
<g mask="url(#mask0_390_1752)">
</g>
<g clip-path="url(#clip0_390_1752)">
<path d="M15.6633 22.502V32.504L11.3327 35.0011V20.0015L15.6633 22.502Z" fill="#FFA534"/>
<path d="M50.3078 12.502V37.502L45.9772 40.0025L45.9755 20.0018L41.6466 22.5006V42.503L28.6548 50.0011V25.0028L32.9854 22.5023V42.503L37.316 40.0025V20.0018L50.3078 12.502Z" fill="#FFA534"/>
<path d="M19.9954 9.99951L15.6648 12.5L19.9954 15.0005V9.99951Z" fill="#FFA534"/>
<path d="M28.6554 5.00024L24.3248 7.50075L28.6554 9.99957V5.00024Z" fill="#FFA534"/>
<path d="M50.307 12.5018L45.9764 15.0006L28.654 5.0003L24.3234 7.50081V7.5025L28.654 9.99962L41.6458 17.5011L37.3169 20.0017H37.3152V20L19.9945 9.99962L15.6639 12.5001L32.9846 22.5022L28.654 25.0027L7.00269 12.5001L28.6523 0.000976562H28.654L50.307 12.5018Z" fill="white"/>
<path d="M24.3228 37.5018V42.5028L11.3327 35.0013L15.6633 32.5042L24.3228 37.5018Z" fill="white"/>
<path d="M32.9848 42.5027L37.3154 40.0022L32.9848 37.5017V42.5027Z" fill="white"/>
<path d="M7.00269 12.5V37.5017L28.654 50.0008V24.9992L7.00269 12.5ZM24.3234 42.5027L11.3316 35.0012V20.0015L24.3234 27.503V42.5027Z" fill="#FF6C2D"/>
<path d="M45.9775 40.0021L41.6469 37.5016V22.5003L45.9758 20.0015L45.9775 40.0021Z" fill="#FF6C2D"/>
<path d="M45.9772 15.0006L41.6466 17.5011L28.6548 9.99957V5.00024L45.9772 15.0006Z" fill="#FF6C2D"/>
<path d="M19.9948 9.99951V15.0005L32.9849 22.5021V37.5017L37.3155 40.0022V20.0015L19.9948 9.99951Z" fill="#FF6C2D"/>
<path d="M58.9343 12.6067H65.7451V14.276H60.8525V16.7663H64.7784V18.4356H60.8525V21.1748H65.906V22.8593H58.9343V12.6067Z" fill="white"/>
<path d="M66.4919 17.7329C66.4919 14.716 68.6894 12.4897 71.6774 12.4897C74.6655 12.4897 76.8477 14.716 76.8477 17.7329C76.8477 20.7497 74.6367 22.976 71.6774 22.976C68.7181 22.976 66.4919 20.7497 66.4919 17.7329ZM71.6622 21.2915C73.5363 21.2915 74.8991 19.783 74.8991 17.7329C74.8991 15.6827 73.5363 14.159 71.6622 14.159C69.7881 14.159 68.4405 15.6827 68.4405 17.7329C68.4405 19.783 69.7881 21.2915 71.6622 21.2915Z" fill="white"/>
<path d="M77.713 19.4173H79.5736C79.6768 20.5601 80.437 21.2914 81.6678 21.2914C82.7665 21.2914 83.5283 20.8513 83.5283 19.9439C83.5283 17.7464 78.0211 19.2701 78.0211 15.3441C78.0211 13.6596 79.4703 12.488 81.551 12.488C83.6316 12.488 85.1841 13.7324 85.2721 15.6522H83.4268C83.3387 14.7583 82.6362 14.159 81.5527 14.159C80.542 14.159 79.9122 14.6279 79.9122 15.3458C79.9122 17.616 85.4922 15.9163 85.4922 19.9151C85.4922 21.8197 83.9245 22.976 81.6695 22.976C79.4144 22.976 77.818 21.5691 77.7147 19.4173H77.713Z" fill="white"/>
<path d="M58.9343 27.3167H61.015L65.4675 34.5524V27.3167H67.3856V37.5692H65.305L60.8525 30.3487V37.5692H58.9343V27.3167Z" fill="white"/>
<path d="M68.4829 33.85C68.4829 31.9014 69.6832 30.0713 72.1008 30.0713C74.5183 30.0713 75.6899 31.8726 75.6899 33.6299C75.6899 33.8788 75.6746 34.0989 75.6611 34.2444H70.2131C70.3452 35.4312 71.107 36.193 72.2498 36.193C73.1724 36.193 73.7734 35.8121 73.963 35.1096H75.7203C75.4427 36.6772 74.0646 37.6879 72.2498 37.6879C69.8322 37.6879 68.4863 35.7834 68.4863 33.85H68.4829ZM73.8869 33.0594C73.8141 32.1215 73.169 31.4189 72.0991 31.4189C71.0884 31.4189 70.4434 31.9454 70.2537 33.0594H73.8869Z" fill="white"/>
<path d="M79.4821 27.9619V30.1881H81.5323V31.6966H79.4821V34.9183C79.4821 35.6649 79.8783 36.0458 80.5521 36.0458H81.534V37.5695H80.3472C78.7355 37.5695 77.6825 36.6316 77.6825 34.9911V31.6949H76.2333V30.1865H77.6825V27.9602H79.4838L79.4821 27.9619Z" fill="white"/>
<path d="M81.9277 30.188H83.729L85.0919 35.123L86.5411 30.188H88.1968L89.6324 35.123L90.9952 30.188H92.7966L90.4383 37.5693H88.8418L87.3621 32.6038L85.8825 37.5693H84.286L81.9277 30.188Z" fill="white"/>
<path d="M93.0001 33.8788C93.0001 31.6813 94.6118 30.0713 96.8668 30.0713C99.1218 30.0713 100.718 31.683 100.718 33.8788C100.718 36.0745 99.1066 37.6862 96.8668 37.6862C94.627 37.6862 93.0001 36.0745 93.0001 33.8788ZM96.8668 36.1338C98.0823 36.1338 98.9034 35.2111 98.9034 33.8788C98.9034 32.5464 98.0823 31.6237 96.8668 31.6237C95.6512 31.6237 94.8166 32.5464 94.8166 33.8788C94.8166 35.2111 95.636 36.1338 96.8668 36.1338Z" fill="white"/>
<path d="M103.457 34.0835V37.5693H101.656V30.188H103.457V31.4916C103.823 30.5537 104.395 30.188 105.346 30.188H106.21V31.6964H105.054C103.897 31.6964 103.457 32.6783 103.457 34.0835Z" fill="white"/>
<path d="M107.147 27.0239H108.963V32.868L111.775 30.1881H114.061L111.058 33.0729L114.31 37.5694H112.143L109.829 34.2732L108.965 35.1078V37.5677H107.149V27.0222L107.147 27.0239Z" fill="white"/>
</g>
<defs>
<clipPath id="clip0_390_1752">
<rect width="107.307" height="50" fill="white" transform="translate(7)"/>
</clipPath>
</defs>
</svg>
