<svg width="240" height="50" viewBox="0 0 240 50" fill="none" xmlns="http://www.w3.org/2000/svg">
<mask id="mask0_390_1786" style="mask-type:alpha" maskUnits="userSpaceOnUse" x="0" y="0" width="240" height="50">
<rect width="240" height="50" fill="#D9D9D9"/>
</mask>
<g mask="url(#mask0_390_1786)">
</g>
<path d="M28.2549 8.49783C29.7505 8.49783 30.9628 7.28546 30.9628 5.78993C30.9628 4.2944 29.7505 3.08203 28.2549 3.08203C26.7594 3.08203 25.547 4.2944 25.547 5.78993C25.547 7.28546 26.7594 8.49783 28.2549 8.49783Z" fill="white"/>
<path d="M21.1186 50C15.0323 46.4865 9.11755 43.0769 3.06245 39.579C4.47617 39.0904 4.69967 38.1185 4.69447 36.9023C4.66328 28.9397 4.66848 20.9823 4.68927 13.0198C4.69447 11.8711 4.52295 10.8888 3.00528 10.447C5.77035 8.85135 8.32753 7.38046 11.1134 5.76923C11.1134 6.71518 11.1134 7.38046 11.1134 8.04574C11.1186 17.5728 11.1186 27.1102 11.1186 36.6268C11.1082 38.0821 11.4928 38.8358 12.7922 39.5634C13.8473 40.1507 14.0032 40.2079 14.8088 40.6601C14.8088 40.0052 14.814 39.6102 14.8088 39.1476C14.8088 27.7755 14.8296 16.5593 14.8088 4.97401C14.8036 4.01247 15.0271 3.42516 15.9107 2.96258C17.6259 2.0738 19.2787 1.05509 21.1186 0V50Z" fill="#33CC99"/>
<path fill-rule="evenodd" clip-rule="evenodd" d="M39.1281 41.9075C34.4607 44.5998 29.835 47.2713 25.1052 50V0C25.651 0.317048 26.1863 0.628898 26.7061 0.930353C27.9379 1.65281 29.1073 2.33888 30.3131 2.96258C31.1967 3.41996 31.4202 4.00728 31.415 4.97401C31.3994 12.7027 31.4046 20.2599 31.4098 27.8118C31.4098 31.5852 31.415 35.3586 31.415 39.1476C31.4098 39.4439 31.415 39.7089 31.415 40.0364C31.415 40.2235 31.415 40.4262 31.415 40.6653C31.7996 40.4522 32.0335 40.3274 32.2882 40.1923C32.5689 40.0416 32.8755 39.8805 33.4316 39.5738C34.7362 38.8462 35.1156 38.0873 35.1052 36.6372V36.6112C35.1052 27.0998 35.1052 17.5728 35.1104 8.05613V5.76923C36.2695 6.43971 37.3921 7.0842 38.5044 7.72869C40.0637 8.62786 41.6021 9.51663 43.2185 10.447C41.7009 10.894 41.5294 11.8711 41.5345 13.0198C41.5553 20.9823 41.5605 28.9397 41.5293 36.9023C41.5242 38.1185 41.7476 39.0904 43.1614 39.579L39.1281 41.9075ZM28.967 4.95842L28.2601 3.52391L27.5533 4.95842L25.968 5.18711L27.1115 6.30457L26.8412 7.88462L28.2601 7.14137L29.679 7.88462L29.4088 6.30457L30.5522 5.18711L28.967 4.95842Z" fill="url(#paint0_linear_390_1786)"/>
<path d="M65.6299 26.9282C65.6299 28.3627 65.5104 29.527 65.2661 30.4158C64.9439 31.554 64.3617 32.5467 63.5301 33.3887C62.0385 34.9064 60.0738 35.6704 57.6362 35.6704C56.4511 35.6704 55.3545 35.4989 54.3565 35.1559C53.2235 34.7661 52.2983 34.1891 51.5759 33.4199C50.6871 32.4844 50.0946 31.4812 49.7983 30.4158C49.6684 29.9324 49.5748 29.3918 49.5229 28.7889C49.4865 28.3056 49.4657 27.6871 49.4657 26.9282V14.1943H54.8451V26.9282C54.8451 27.4844 54.8711 27.9625 54.9283 28.3627C55.001 28.8721 55.1258 29.3035 55.3025 29.6569C55.7287 30.5197 56.4875 30.9511 57.5842 30.9511C58.7173 30.9511 59.4761 30.5301 59.8659 29.6881C60.0218 29.3451 60.1362 28.9189 60.1985 28.4095C60.2349 28.0405 60.2557 27.5467 60.2557 26.9334V14.1995H65.6299V26.9282Z" fill="#20B486"/>
<path d="M68.9252 35.2703V31.0863C69.6217 30.6341 70.1986 30.2495 70.6612 29.9325C71.2745 29.5167 71.8255 29.1165 72.314 28.7371C73.4835 27.8379 74.497 26.9127 75.3598 25.9564C75.7132 25.577 76.0354 25.1975 76.3317 24.8181C76.6955 24.3556 77.0074 23.9034 77.2776 23.472C77.9377 22.3857 78.2652 21.4242 78.2652 20.5822C78.2652 19.2204 77.5999 18.5395 76.2745 18.5395C75.4013 18.5395 74.7672 18.8982 74.3722 19.6102C74.076 20.1404 73.9045 20.8888 73.8577 21.8608H68.7277C68.7537 20.842 68.8473 20 69.0032 19.3452C69.1903 18.5136 69.5126 17.7391 69.9751 17.0219C70.6612 15.9668 71.602 15.156 72.7974 14.5894C73.9097 14.0697 75.1311 13.8098 76.4668 13.8098C77.9117 13.8098 79.2059 14.1061 80.3442 14.6986C81.5968 15.3483 82.5115 16.2838 83.0988 17.5052C83.4627 18.3212 83.6394 19.1269 83.6394 19.9221C83.6394 21.0084 83.4211 22.0842 82.9845 23.1497C82.6051 24.0957 82.0489 25.052 81.3161 26.0136C80.7132 26.8088 79.9647 27.6508 79.0656 28.5292C78.7018 28.8826 78.2963 29.262 77.8442 29.6674C77.5271 29.9637 77.1269 30.3223 76.6331 30.7381H83.7797V35.2703H68.9252Z" fill="#20B486"/>
<path d="M103.083 26.9282C103.083 28.3627 102.964 29.527 102.719 30.4158C102.397 31.554 101.815 32.5467 100.983 33.3887C99.4918 34.9064 97.5271 35.6704 95.0895 35.6704C93.9045 35.6704 92.8078 35.4989 91.8099 35.1559C90.6768 34.7661 89.7516 34.1891 89.0292 33.4199C88.1404 32.4844 87.5479 31.4812 87.2516 30.4158C87.1217 29.9324 87.0281 29.3918 86.9762 28.7889C86.9398 28.3056 86.919 27.6871 86.919 26.9282V14.1943H92.2932V26.9282C92.2932 27.4844 92.3192 27.9625 92.3764 28.3627C92.4491 28.8721 92.5739 29.3035 92.7506 29.6569C93.1768 30.5197 93.9356 30.9511 95.0323 30.9511C96.1654 30.9511 96.9242 30.5301 97.314 29.6881C97.4699 29.3451 97.5843 28.9189 97.6467 28.4095C97.683 28.0405 97.7038 27.5467 97.7038 26.9334V14.1995H103.083V26.9282Z" fill="#20B486"/>
<path d="M128.717 35.2702L120.697 22.4532L120.63 22.4792L120.781 35.2702H115.625V14.1943H120.266L128.411 27.4428L128.468 27.3856L128.234 14.1943H133.39V35.2702H128.717Z" fill="#20B486"/>
<path d="M152.688 28.8047H140.843C141.139 30.7953 142.371 31.7932 144.544 31.7932C145.677 31.7932 146.633 31.3047 147.423 30.3171H152.262C151.555 31.9596 150.547 33.2641 149.232 34.2361C147.834 35.2652 146.269 35.7797 144.549 35.7797C142.241 35.7797 140.271 34.9585 138.639 33.3213C136.997 31.6893 136.181 29.7194 136.181 27.4117C136.181 25.0937 136.981 23.1082 138.587 21.445C140.209 19.7558 142.168 18.9138 144.466 18.9138C146.856 18.9138 148.852 19.7558 150.458 21.445C152.023 23.103 152.808 25.1404 152.808 27.5469C152.797 28.0095 152.761 28.4253 152.688 28.8047ZM148.073 25.6238C147.683 23.8151 146.487 22.9107 144.486 22.9107C142.485 22.9107 141.29 23.8151 140.9 25.6238H148.073Z" fill="#20B486"/>
<path d="M161.082 23.0509V35.2702H156.357V23.0509H154.024V19.4646H156.357V14.1943H161.082V19.4646H163.364V23.0509H161.082Z" fill="#20B486"/>
<path d="M182.855 35.2702H178.473L175.822 25.0519H175.765L173.125 35.2702H168.733L163.894 19.4646H168.79L171.155 29.2931H171.212L173.811 19.4646H177.787L180.417 29.2931H180.474L182.839 19.4646H187.704L182.855 35.2702Z" fill="#20B486"/>
<path d="M203.431 33.3627C201.81 34.9583 199.783 35.7536 197.355 35.7536C194.928 35.7536 192.906 34.9583 191.295 33.3627C189.663 31.7671 188.847 29.766 188.847 27.3544C188.847 24.9375 189.663 22.9313 191.295 21.3357C192.906 19.74 194.928 18.9448 197.355 18.9448C199.783 18.9448 201.81 19.74 203.431 21.3357C205.063 22.9313 205.879 24.9375 205.879 27.3544C205.879 29.7712 205.063 31.7723 203.431 33.3627ZM200.079 24.5633C199.346 23.7681 198.436 23.3679 197.355 23.3679C196.279 23.3679 195.375 23.7681 194.642 24.5633C193.93 25.3326 193.571 26.2629 193.571 27.3596C193.571 28.4459 193.93 29.3762 194.642 30.1558C195.375 30.9459 196.279 31.3357 197.355 31.3357C198.442 31.3357 199.346 30.9407 200.079 30.1558C200.791 29.3762 201.149 28.4459 201.149 27.3596C201.149 26.2681 200.791 25.3326 200.079 24.5633Z" fill="#20B486"/>
<path d="M216.955 23.6746C215.739 23.711 214.861 23.8981 214.315 24.2307C213.592 24.6777 213.229 25.4573 213.229 26.58V35.2702H208.504V19.4646H212.938V21.1486H213.005C213.754 19.6673 215.074 18.9241 216.955 18.9241V23.6746Z" fill="#20B486"/>
<path d="M227.87 26.4137L233.655 35.2702H228.301L223.826 27.6663H223.769V35.2702H219.044V14.1943H223.769V25.1923H223.826L228.208 19.4646H233.821L227.87 26.4137Z" fill="#20B486"/>
<defs>
<linearGradient id="paint0_linear_390_1786" x1="25.106" y1="25" x2="43.2232" y2="25" gradientUnits="userSpaceOnUse">
<stop stop-color="#07806D"/>
<stop offset="1" stop-color="#035663"/>
</linearGradient>
</defs>
</svg>
