<svg width="300" height="296" viewBox="0 0 300 296" fill="none" xmlns="http://www.w3.org/2000/svg">
<g filter="url(#filter0_f_797_1282)">
<path d="M30.0273 8H237.306L228.045 218.366H51.6373L30.0273 8Z" fill="url(#paint0_linear_797_1282)" fill-opacity="0.2"/>
</g>
<g opacity="0.4" filter="url(#filter1_f_797_1282)">
<ellipse cx="83.7702" cy="22.1982" rx="83.7702" ry="22.1982" transform="matrix(-1 0 0 1 210.081 216.082)" fill="url(#paint1_linear_797_1282)"/>
</g>
<path fill-rule="evenodd" clip-rule="evenodd" d="M123.391 95.9785L137.725 87.985L138.467 89.1856C171.065 79.3466 210.653 96.9635 232.338 133.124C253.531 168.463 250.734 210.02 227.758 233.727L228.68 235.22L222.019 238.935C219.761 240.732 217.355 242.382 214.803 243.869C180.44 263.881 132.579 246.745 107.902 205.595C83.709 165.253 90.7793 116.807 123.443 96.0634L123.391 95.9785Z" fill="url(#paint2_linear_797_1282)"/>
<ellipse cx="70.7471" cy="86.7951" rx="70.7471" ry="86.7951" transform="matrix(-0.859133 0.5134 0.522122 0.851835 197.756 51.8337)" fill="url(#paint3_linear_797_1282)"/>
<ellipse cx="63.2115" cy="81.1947" rx="63.2115" ry="81.1947" transform="matrix(-0.859213 0.513265 0.522272 0.851743 195.897 59.308)" fill="url(#paint4_linear_797_1282)"/>
<path fill-rule="evenodd" clip-rule="evenodd" d="M134.69 96.6219C134.918 96.4846 135.147 96.3488 135.377 96.2147C165.708 78.5447 209.01 95.3843 232.095 133.827C253.133 168.863 250.118 209.751 226.458 230.099C256.19 212.146 261.802 167.056 238.893 128.905C215.809 90.4625 172.507 73.6228 142.175 91.2928C139.487 92.8588 136.991 94.6432 134.69 96.6219Z" fill="url(#paint5_linear_797_1282)"/>
<path d="M192.196 136.529C183.203 129.049 174.962 124.54 174.617 124.358C171.047 122.415 166.795 122.669 164.232 125.15C163.988 125.383 158.195 131.053 153.177 139.573C146.052 151.652 143.889 163.29 146.774 174.162C151.668 192.611 170.808 206.393 190.032 204.733C209.256 203.073 220.511 187.218 215.748 169.26C212.779 158.069 204.851 147.06 192.2 136.542L192.197 136.533L192.196 136.529ZM187.827 196.421C173.353 197.67 159.074 187.223 155.411 173.417C149.777 152.179 171.114 131.418 171.114 131.418C171.114 131.418 182.733 137.723 192.948 147.841C181.519 144.629 170.706 147.316 164.606 154.947C159.258 161.616 159.018 170.75 164.047 178.75C175.833 197.469 204.131 190.792 200.738 172.88C199.004 163.752 189.86 160.23 183.012 162.484C175.278 165.039 175.199 173.527 182.99 175.677C181.135 168.568 190.64 167.41 192.279 173.589C193.411 177.855 189.456 180.855 185.532 181.614C173.745 183.887 164.649 169.827 172.037 160.574C180.544 149.973 202.093 154.451 207.162 170.235C211.195 182.792 202.125 195.186 187.814 196.422L187.823 196.421L187.827 196.421Z" fill="white"/>
<path fill-rule="evenodd" clip-rule="evenodd" d="M97.3093 170.823L91.2736 167.457L90.8578 168.13C72.5209 162.594 50.2518 172.504 38.0535 192.845C26.1324 212.724 27.7062 236.1 40.631 249.436L40.1113 250.277L43.8691 252.372C45.1357 253.38 46.4856 254.305 47.9173 255.139C67.246 266.395 94.1679 256.756 108.049 233.609C121.657 210.918 117.681 183.668 99.3085 171.999L99.3368 171.953L97.9474 171.178C97.7356 171.057 97.5229 170.939 97.3093 170.823Z" fill="url(#paint6_linear_797_1282)"/>
<ellipse cx="39.793" cy="48.825" rx="39.793" ry="48.825" transform="matrix(0.85918 0.513428 -0.522092 0.851786 57.5076 147.119)" fill="url(#paint7_linear_797_1282)"/>
<ellipse cx="35.5545" cy="45.6746" rx="35.5545" ry="45.6746" transform="matrix(0.85926 0.513293 -0.522242 0.851694 58.553 151.319)" fill="url(#paint8_linear_797_1282)"/>
<path fill-rule="evenodd" clip-rule="evenodd" d="M92.9644 172.303C92.8426 172.23 92.7201 172.157 92.5968 172.085C75.5354 162.146 51.178 171.618 38.193 193.242C26.3537 212.959 28.0564 235.97 41.3814 247.41C24.6406 237.319 21.4766 211.945 34.3677 190.477C47.3527 168.853 71.7101 159.381 88.7715 169.32C90.2768 170.197 91.675 171.196 92.9644 172.303Z" fill="url(#paint9_linear_797_1282)"/>
<path d="M60.6369 194.756C65.6956 190.549 70.3314 188.012 70.5256 187.909C72.5338 186.816 74.9251 186.96 76.3667 188.355C76.504 188.486 79.7625 191.675 82.5855 196.468C86.5931 203.262 87.8096 209.808 86.1871 215.924C83.4341 226.302 72.6675 234.054 61.8542 233.12C51.0409 232.187 44.7095 223.268 47.3893 213.167C49.0592 206.872 53.5184 200.68 60.635 194.763L60.6363 194.758L60.6369 194.756ZM63.0946 228.445C71.2361 229.148 79.2683 223.271 81.3285 215.505C84.4977 203.559 72.496 191.881 72.496 191.881C72.496 191.881 65.9602 195.427 60.2141 201.119C66.6428 199.312 72.7251 200.823 76.1565 205.116C79.1645 208.867 79.2996 214.005 76.4712 218.505C69.8415 229.035 53.9238 225.279 55.8324 215.204C56.8073 210.069 61.9512 208.088 65.8029 209.355C70.1537 210.793 70.1979 215.567 65.8156 216.776C66.8587 212.778 61.5124 212.126 60.5903 215.602C59.9537 218.002 62.1783 219.689 64.3856 220.116C71.0155 221.394 76.1325 213.486 71.9765 208.281C67.1916 202.318 55.0702 204.837 52.2188 213.715C49.9502 220.779 55.0521 227.751 63.102 228.445L63.0971 228.445L63.0946 228.445Z" fill="white"/>
<defs>
<filter id="filter0_f_797_1282" x="22.0273" y="0" width="223.279" height="226.366" filterUnits="userSpaceOnUse" color-interpolation-filters="sRGB">
<feFlood flood-opacity="0" result="BackgroundImageFix"/>
<feBlend mode="normal" in="SourceGraphic" in2="BackgroundImageFix" result="shape"/>
<feGaussianBlur stdDeviation="4" result="effect1_foregroundBlur_797_1282"/>
</filter>
<filter id="filter1_f_797_1282" x="37.9948" y="211.536" width="176.631" height="53.4873" filterUnits="userSpaceOnUse" color-interpolation-filters="sRGB">
<feFlood flood-opacity="0" result="BackgroundImageFix"/>
<feBlend mode="normal" in="SourceGraphic" in2="BackgroundImageFix" result="shape"/>
<feGaussianBlur stdDeviation="2.27273" result="effect1_foregroundBlur_797_1282"/>
</filter>
<linearGradient id="paint0_linear_797_1282" x1="133.667" y1="8" x2="133.667" y2="198.52" gradientUnits="userSpaceOnUse">
<stop stop-color="#E3FF57" stop-opacity="0"/>
<stop offset="1" stop-color="#BBEB36"/>
</linearGradient>
<linearGradient id="paint1_linear_797_1282" x1="83.9111" y1="57.8545" x2="37.7997" y2="13.3913" gradientUnits="userSpaceOnUse">
<stop stop-color="#BBEB36"/>
<stop offset="1" stop-color="#4C5828"/>
</linearGradient>
<linearGradient id="paint2_linear_797_1282" x1="123.891" y1="95.5777" x2="217.84" y2="241.946" gradientUnits="userSpaceOnUse">
<stop stop-color="#CDEC0B"/>
<stop offset="1" stop-color="#69AC04"/>
</linearGradient>
<linearGradient id="paint3_linear_797_1282" x1="82.5623" y1="169.981" x2="39.3473" y2="14.5463" gradientUnits="userSpaceOnUse">
<stop stop-color="#A8ED07"/>
<stop offset="1" stop-color="#F9FD41"/>
</linearGradient>
<linearGradient id="paint4_linear_797_1282" x1="88.8873" y1="18.3519" x2="0.576996" y2="81.996" gradientUnits="userSpaceOnUse">
<stop stop-color="#C7EE00"/>
<stop offset="1" stop-color="#92EC0B"/>
</linearGradient>
<linearGradient id="paint5_linear_797_1282" x1="160.732" y1="78.962" x2="248.04" y2="214.385" gradientUnits="userSpaceOnUse">
<stop stop-color="#C1E50B"/>
<stop offset="0.359375" stop-color="#77D72C"/>
<stop offset="1" stop-color="#60CF1C"/>
</linearGradient>
<linearGradient id="paint6_linear_797_1282" x1="99.0538" y1="171.727" x2="46.2074" y2="254.059" gradientUnits="userSpaceOnUse">
<stop stop-color="#CDEC0B"/>
<stop offset="1" stop-color="#69AC04"/>
</linearGradient>
<linearGradient id="paint7_linear_797_1282" x1="46.4387" y1="95.6197" x2="22.1266" y2="8.18419" gradientUnits="userSpaceOnUse">
<stop stop-color="#A8ED07"/>
<stop offset="1" stop-color="#F9FD41"/>
</linearGradient>
<linearGradient id="paint8_linear_797_1282" x1="49.9964" y1="10.3236" x2="0.320712" y2="46.1201" gradientUnits="userSpaceOnUse">
<stop stop-color="#C7EE00"/>
<stop offset="1" stop-color="#92EC0B"/>
</linearGradient>
<linearGradient id="paint9_linear_797_1282" x1="78.3225" y1="162.378" x2="29.2119" y2="238.553" gradientUnits="userSpaceOnUse">
<stop stop-color="#C1E50B"/>
<stop offset="0.359375" stop-color="#77D72C"/>
<stop offset="1" stop-color="#60CF1C"/>
</linearGradient>
</defs>
</svg>
