<svg width="220" height="48" viewBox="0 0 220 48" fill="none" xmlns="http://www.w3.org/2000/svg">
<rect width="220" height="48" rx="8" fill="url(#paint0_linear_797_1225)"/>
<g clip-path="url(#clip0_797_1225)">
<path d="M68.873 17.9003C68.914 16.893 69.2275 16.0083 69.8061 15.2686C70.3876 14.5253 71.3489 13.9972 72.6647 13.698C72.6735 13.7346 72.6826 13.7712 72.692 13.8076V13.999C72.692 14.433 72.5754 14.9307 72.3453 15.478C72.1041 16.008 71.7271 16.5068 71.2265 16.957C70.7582 17.3537 70.325 17.6163 69.9422 17.735C69.8158 17.7691 69.6425 17.8027 69.4332 17.8329C69.247 17.859 69.0603 17.8816 68.873 17.9003Z" fill="#080B0E"/>
<path d="M69.0921 19.3952C67.6057 19.3952 66.5738 18.2085 65.1076 18.2085C63.6415 18.2085 60.6211 19.4251 60.6211 23.6252C60.6211 27.8252 63.3033 30.5314 63.6033 30.8474C63.9032 31.1634 64.597 31.9756 65.6719 31.9756C66.7468 31.9756 67.9235 31.2041 69.0921 31.2041C70.2606 31.2041 71.7314 31.9756 72.6916 31.9756C73.6518 31.9756 74.0467 31.6222 74.7002 31.0127C75.3537 30.4032 76.6001 28.5432 77.0354 27.4268C76.3184 27.0415 74.418 25.9955 74.418 23.6252C74.418 22.045 75.0577 20.7322 76.337 19.6869C75.4977 18.7013 74.5243 18.2085 73.4168 18.2085C71.7554 18.2085 70.5784 19.3952 69.0921 19.3952Z" fill="#080B0E" stroke="#080B0E" stroke-width="1.375" stroke-linejoin="bevel"/>
</g>
<path d="M90.13 11.074H92.47C93.505 11.074 94.288 11.362 94.828 11.947C95.332 12.487 95.584 13.27 95.584 14.287C95.584 15.295 95.323 16.078 94.81 16.636C94.27 17.212 93.487 17.5 92.452 17.5H90.13V11.074ZM91.111 11.911V16.663H92.272C93.082 16.663 93.685 16.465 94.063 16.078C94.432 15.691 94.621 15.097 94.621 14.287C94.621 13.459 94.432 12.865 94.072 12.487C93.694 12.1 93.1 11.911 92.29 11.911H91.111ZM98.6332 12.721C99.3352 12.721 99.9022 12.955 100.325 13.423C100.739 13.882 100.955 14.467 100.955 15.178C100.955 15.88 100.748 16.465 100.334 16.915C99.9022 17.383 99.3352 17.626 98.6332 17.626C97.9312 17.626 97.3642 17.383 96.9322 16.915C96.5182 16.465 96.3112 15.88 96.3112 15.178C96.3112 14.467 96.5182 13.882 96.9412 13.423C97.3642 12.955 97.9312 12.721 98.6332 12.721ZM98.6332 13.504C98.1922 13.504 97.8502 13.675 97.6072 14.026C97.3912 14.323 97.2922 14.71 97.2922 15.178C97.2922 15.646 97.3912 16.024 97.6072 16.321C97.8502 16.663 98.1922 16.843 98.6332 16.843C99.0742 16.843 99.4162 16.663 99.6682 16.321C99.8842 16.015 99.9922 15.637 99.9922 15.178C99.9922 14.71 99.8842 14.323 99.6682 14.026C99.4162 13.675 99.0742 13.504 98.6332 13.504ZM101.366 12.847H102.419L103.4 16.366L104.354 12.847H105.236L106.19 16.366L107.171 12.847H108.224L106.649 17.5H105.767L104.795 14.017L103.823 17.5H102.941L101.366 12.847ZM111.171 12.721C112.323 12.721 112.908 13.351 112.908 14.629V17.5H111.954V14.71C111.954 13.918 111.585 13.522 110.865 13.522C110.595 13.522 110.352 13.612 110.154 13.81C109.938 14.026 109.803 14.323 109.767 14.701V17.5H108.813V12.847H109.767V13.423C109.947 13.189 110.154 13.018 110.388 12.901C110.622 12.775 110.883 12.721 111.171 12.721ZM114.107 10.948H115.061V17.5H114.107V10.948ZM118.391 12.721C119.093 12.721 119.66 12.955 120.083 13.423C120.497 13.882 120.713 14.467 120.713 15.178C120.713 15.88 120.506 16.465 120.092 16.915C119.66 17.383 119.093 17.626 118.391 17.626C117.689 17.626 117.122 17.383 116.69 16.915C116.276 16.465 116.069 15.88 116.069 15.178C116.069 14.467 116.276 13.882 116.699 13.423C117.122 12.955 117.689 12.721 118.391 12.721ZM118.391 13.504C117.95 13.504 117.608 13.675 117.365 14.026C117.149 14.323 117.05 14.71 117.05 15.178C117.05 15.646 117.149 16.024 117.365 16.321C117.608 16.663 117.95 16.843 118.391 16.843C118.832 16.843 119.174 16.663 119.426 16.321C119.642 16.015 119.75 15.637 119.75 15.178C119.75 14.71 119.642 14.323 119.426 14.026C119.174 13.675 118.832 13.504 118.391 13.504ZM123.716 12.721C124.4 12.721 124.904 12.892 125.228 13.234C125.507 13.531 125.651 13.963 125.651 14.53V17.5H124.769V16.843C124.589 17.077 124.364 17.266 124.094 17.401C123.788 17.545 123.428 17.626 123.014 17.626C122.528 17.626 122.15 17.5 121.88 17.257C121.583 17.014 121.439 16.699 121.439 16.312C121.439 15.79 121.646 15.385 122.06 15.106C122.438 14.836 122.978 14.701 123.662 14.683L124.706 14.656V14.467C124.706 13.819 124.355 13.495 123.653 13.495C123.356 13.495 123.113 13.549 122.933 13.657C122.717 13.783 122.582 13.972 122.528 14.233L121.583 14.152C121.682 13.648 121.934 13.27 122.33 13.036C122.672 12.82 123.14 12.721 123.716 12.721ZM124.706 15.349L123.725 15.376C122.852 15.394 122.42 15.7 122.42 16.276C122.42 16.456 122.492 16.6 122.645 16.717C122.789 16.834 122.987 16.897 123.23 16.897C123.635 16.897 123.977 16.771 124.265 16.528C124.553 16.285 124.706 15.979 124.706 15.619V15.349ZM130.091 10.948H131.045V17.5H130.154V16.942C129.83 17.392 129.344 17.626 128.714 17.626C128.03 17.626 127.49 17.383 127.103 16.897C126.743 16.447 126.563 15.862 126.563 15.151C126.563 14.467 126.734 13.9 127.094 13.45C127.472 12.964 128.003 12.721 128.669 12.721C129.236 12.721 129.713 12.991 130.091 13.54V10.948ZM128.885 13.495C128.417 13.495 128.066 13.648 127.841 13.972C127.643 14.242 127.544 14.638 127.544 15.151C127.544 15.664 127.634 16.06 127.823 16.348C128.039 16.681 128.39 16.852 128.858 16.852C129.272 16.852 129.587 16.681 129.821 16.357C130.019 16.06 130.118 15.682 130.118 15.214V15.133C130.118 14.629 129.992 14.224 129.758 13.918C129.524 13.63 129.236 13.495 128.885 13.495ZM137.261 12.721C137.963 12.721 138.53 12.955 138.953 13.423C139.367 13.882 139.583 14.467 139.583 15.178C139.583 15.88 139.376 16.465 138.962 16.915C138.53 17.383 137.963 17.626 137.261 17.626C136.559 17.626 135.992 17.383 135.56 16.915C135.146 16.465 134.939 15.88 134.939 15.178C134.939 14.467 135.146 13.882 135.569 13.423C135.992 12.955 136.559 12.721 137.261 12.721ZM137.261 13.504C136.82 13.504 136.478 13.675 136.235 14.026C136.019 14.323 135.92 14.71 135.92 15.178C135.92 15.646 136.019 16.024 136.235 16.321C136.478 16.663 136.82 16.843 137.261 16.843C137.702 16.843 138.044 16.663 138.296 16.321C138.512 16.015 138.62 15.637 138.62 15.178C138.62 14.71 138.512 14.323 138.296 14.026C138.044 13.675 137.702 13.504 137.261 13.504ZM142.847 12.721C143.999 12.721 144.584 13.351 144.584 14.629V17.5H143.63V14.71C143.63 13.918 143.261 13.522 142.541 13.522C142.271 13.522 142.028 13.612 141.83 13.81C141.614 14.026 141.479 14.323 141.443 14.701V17.5H140.489V12.847H141.443V13.423C141.623 13.189 141.83 13.018 142.064 12.901C142.298 12.775 142.559 12.721 142.847 12.721ZM150.085 11.344V12.847H151.147V13.639H150.085V16.339C150.085 16.465 150.112 16.555 150.166 16.618C150.22 16.672 150.301 16.708 150.418 16.708H151.03V17.5H150.265C149.869 17.5 149.572 17.392 149.392 17.185C149.212 16.987 149.131 16.708 149.131 16.339V13.639H148.267V12.847H149.131V11.74L150.085 11.344ZM151.915 10.948H152.869V13.504C153.04 13.234 153.256 13.027 153.517 12.901C153.751 12.775 154.012 12.721 154.309 12.721C154.867 12.721 155.29 12.883 155.578 13.216C155.848 13.531 155.983 13.999 155.983 14.611V17.5H155.029V14.773C155.029 14.359 154.939 14.053 154.777 13.837C154.597 13.612 154.318 13.504 153.958 13.504C153.634 13.504 153.373 13.63 153.175 13.891C152.968 14.152 152.869 14.485 152.869 14.89V17.5H151.915V10.948ZM159.036 12.721C159.792 12.721 160.377 12.973 160.773 13.495C161.133 13.963 161.322 14.611 161.331 15.439H157.803C157.839 15.889 157.956 16.24 158.172 16.483C158.388 16.717 158.685 16.843 159.063 16.843C159.396 16.843 159.666 16.762 159.873 16.609C160.035 16.483 160.17 16.276 160.296 16.006H161.25C161.142 16.438 160.935 16.807 160.611 17.095C160.206 17.446 159.693 17.626 159.072 17.626C158.388 17.626 157.839 17.41 157.443 16.987C157.011 16.537 156.795 15.934 156.795 15.169C156.795 14.476 156.993 13.9 157.407 13.432C157.803 12.955 158.352 12.721 159.036 12.721ZM159.063 13.504C158.703 13.504 158.424 13.603 158.208 13.819C158.01 14.026 157.875 14.323 157.821 14.719H160.332C160.242 13.909 159.819 13.504 159.063 13.504Z" fill="#1D1E20"/>
<path d="M93.35 23.504H95.086L98.936 33.5H97.298L96.36 30.924H92.062L91.124 33.5H89.5L93.35 23.504ZM92.524 29.664H95.898L94.246 25.142H94.19L92.524 29.664ZM103.4 26.066C104.464 26.066 105.29 26.444 105.906 27.2C106.466 27.9 106.746 28.796 106.746 29.916C106.746 30.98 106.466 31.862 105.92 32.562C105.332 33.318 104.506 33.696 103.47 33.696C102.574 33.696 101.846 33.276 101.258 32.436V36.272H99.7736V26.262H101.16V27.13C101.664 26.416 102.42 26.066 103.4 26.066ZM103.176 27.27C102.532 27.27 102.028 27.522 101.678 28.04C101.37 28.488 101.216 29.09 101.216 29.832V29.958C101.216 30.728 101.398 31.358 101.79 31.834C102.126 32.268 102.574 32.492 103.134 32.492C103.862 32.492 104.394 32.254 104.744 31.778C105.052 31.33 105.22 30.714 105.22 29.916C105.22 29.118 105.066 28.502 104.786 28.054C104.436 27.522 103.904 27.27 103.176 27.27ZM111.767 26.066C112.831 26.066 113.657 26.444 114.273 27.2C114.833 27.9 115.113 28.796 115.113 29.916C115.113 30.98 114.833 31.862 114.287 32.562C113.699 33.318 112.873 33.696 111.837 33.696C110.941 33.696 110.213 33.276 109.625 32.436V36.272H108.141V26.262H109.527V27.13C110.031 26.416 110.787 26.066 111.767 26.066ZM111.543 27.27C110.899 27.27 110.395 27.522 110.045 28.04C109.737 28.488 109.583 29.09 109.583 29.832V29.958C109.583 30.728 109.765 31.358 110.157 31.834C110.493 32.268 110.941 32.492 111.501 32.492C112.229 32.492 112.761 32.254 113.111 31.778C113.419 31.33 113.587 30.714 113.587 29.916C113.587 29.118 113.433 28.502 113.153 28.054C112.803 27.522 112.271 27.27 111.543 27.27ZM124.81 23.308C125.972 23.308 126.882 23.546 127.54 24.05C128.24 24.568 128.632 25.366 128.73 26.458H127.218C127.078 25.814 126.826 25.338 126.434 25.058C126.042 24.764 125.482 24.624 124.726 24.624C124.068 24.624 123.564 24.722 123.214 24.918C122.78 25.142 122.57 25.506 122.57 26.01C122.57 26.458 122.808 26.808 123.312 27.074C123.536 27.2 124.11 27.41 125.048 27.69C126.392 28.11 127.274 28.432 127.666 28.67C128.52 29.188 128.954 29.902 128.954 30.826C128.954 31.722 128.604 32.422 127.904 32.94C127.204 33.444 126.224 33.696 124.964 33.696C123.746 33.696 122.794 33.444 122.108 32.968C121.282 32.38 120.834 31.456 120.75 30.196H122.262C122.374 30.98 122.654 31.554 123.102 31.89C123.508 32.198 124.124 32.352 124.964 32.352C125.72 32.352 126.322 32.212 126.77 31.96C127.218 31.708 127.442 31.358 127.442 30.91C127.442 30.35 127.12 29.916 126.49 29.594C126.266 29.482 125.608 29.258 124.502 28.922C123.27 28.53 122.514 28.264 122.206 28.096C121.436 27.634 121.058 26.962 121.058 26.094C121.058 25.212 121.422 24.526 122.164 24.022C122.864 23.546 123.746 23.308 124.81 23.308ZM132.433 23.924V26.262H134.085V27.494H132.433V31.694C132.433 31.89 132.475 32.03 132.559 32.128C132.643 32.212 132.769 32.268 132.951 32.268H133.903V33.5H132.713C132.097 33.5 131.635 33.332 131.355 33.01C131.075 32.702 130.949 32.268 130.949 31.694V27.494H129.605V26.262H130.949V24.54L132.433 23.924ZM138.611 26.066C139.703 26.066 140.585 26.43 141.243 27.158C141.887 27.872 142.223 28.782 142.223 29.888C142.223 30.98 141.901 31.89 141.257 32.59C140.585 33.318 139.703 33.696 138.611 33.696C137.519 33.696 136.637 33.318 135.965 32.59C135.321 31.89 134.999 30.98 134.999 29.888C134.999 28.782 135.321 27.872 135.979 27.158C136.637 26.43 137.519 26.066 138.611 26.066ZM138.611 27.284C137.925 27.284 137.393 27.55 137.015 28.096C136.679 28.558 136.525 29.16 136.525 29.888C136.525 30.616 136.679 31.204 137.015 31.666C137.393 32.198 137.925 32.478 138.611 32.478C139.297 32.478 139.829 32.198 140.221 31.666C140.557 31.19 140.725 30.602 140.725 29.888C140.725 29.16 140.557 28.558 140.221 28.096C139.829 27.55 139.297 27.284 138.611 27.284ZM146.993 26.066C147.357 26.066 147.679 26.122 147.931 26.248V27.732C147.567 27.62 147.217 27.578 146.881 27.578C146.433 27.578 146.027 27.76 145.677 28.124C145.299 28.516 145.117 29.034 145.117 29.664V33.5H143.633V26.262H145.117V27.354C145.299 26.962 145.537 26.668 145.817 26.472C146.153 26.192 146.545 26.066 146.993 26.066ZM151.908 26.066C153.084 26.066 153.994 26.458 154.61 27.27C155.17 27.998 155.464 29.006 155.478 30.294H149.99C150.046 30.994 150.228 31.54 150.564 31.918C150.9 32.282 151.362 32.478 151.95 32.478C152.468 32.478 152.888 32.352 153.21 32.114C153.462 31.918 153.672 31.596 153.868 31.176H155.352C155.184 31.848 154.862 32.422 154.358 32.87C153.728 33.416 152.93 33.696 151.964 33.696C150.9 33.696 150.046 33.36 149.43 32.702C148.758 32.002 148.422 31.064 148.422 29.874C148.422 28.796 148.73 27.9 149.374 27.172C149.99 26.43 150.844 26.066 151.908 26.066ZM151.95 27.284C151.39 27.284 150.956 27.438 150.62 27.774C150.312 28.096 150.102 28.558 150.018 29.174H153.924C153.784 27.914 153.126 27.284 151.95 27.284Z" fill="#080B0E"/>
<defs>
<linearGradient id="paint0_linear_797_1225" x1="7.72965e-07" y1="42.5455" x2="220.742" y2="4.2785" gradientUnits="userSpaceOnUse">
<stop stop-color="#C0EE02"/>
<stop offset="1" stop-color="#90FF6B"/>
</linearGradient>
<clipPath id="clip0_797_1225">
<rect width="24" height="24" fill="white" transform="translate(57.5 12)"/>
</clipPath>
</defs>
</svg>
