<svg width="220" height="48" viewBox="0 0 220 48" fill="none" xmlns="http://www.w3.org/2000/svg">
<rect width="220" height="48" rx="8" fill="white"/>
<path d="M70.1667 23.096L60.9697 13.875L72.6697 20.592L70.1657 23.096H70.1667Z" fill="#34A853"/>
<path d="M58.571 13.333C58.031 13.617 57.668 14.133 57.668 14.804V33.192C57.668 33.862 58.03 34.379 58.572 34.662L69.264 23.996L58.571 13.333Z" fill="#4285F4"/>
<path d="M76.2887 22.733L73.8337 21.313L71.0967 24L73.8337 26.687L76.3387 25.267C77.0887 24.671 77.0887 23.329 76.2887 22.733Z" fill="#FBBC04"/>
<path d="M60.9697 34.1248L72.6697 27.4078L70.1667 24.9038L60.9697 34.1248Z" fill="#EA4335"/>
<path d="M94.79 11.3714C95.7 11.3714 96.42 11.5714 96.95 11.9914C97.46 12.3914 97.78 12.9814 97.91 13.7814H96.81C96.71 13.3014 96.49 12.9414 96.15 12.7014C95.81 12.4514 95.35 12.3314 94.79 12.3314C94.1 12.3314 93.55 12.5614 93.14 13.0414C92.7 13.5414 92.49 14.2314 92.49 15.1114C92.49 15.9714 92.68 16.6314 93.08 17.0914C93.5 17.5914 94.16 17.8414 95.05 17.8414C95.4 17.8414 95.73 17.7914 96.04 17.7114C96.34 17.6314 96.6 17.5114 96.84 17.3614V15.8114H94.87V14.8814H97.93V17.8814C97.56 18.1714 97.13 18.3914 96.64 18.5514C96.12 18.7114 95.55 18.7914 94.93 18.7914C93.79 18.7914 92.91 18.4314 92.28 17.7114C91.69 17.0414 91.4 16.1714 91.4 15.1114C91.4 14.0414 91.69 13.1614 92.28 12.4714C92.9 11.7314 93.74 11.3714 94.79 11.3714ZM99.2391 11.5114H104.369V12.4414H100.329V14.5214H104.129V15.4514H100.329V17.7214H104.539V18.6514H99.2391V11.5114ZM105.095 11.5114H110.945V12.4414H108.565V18.6514H107.485V12.4414H105.095V11.5114ZM115.158 11.5114H116.238V18.6514H115.158V11.5114ZM117.107 11.5114H122.957V12.4414H120.577V18.6514H119.497V12.4414H117.107V11.5114ZM130.309 11.3714C131.389 11.3714 132.249 11.7214 132.879 12.4314C133.479 13.1014 133.779 13.9914 133.779 15.0914C133.779 16.1814 133.479 17.0614 132.879 17.7414C132.249 18.4414 131.389 18.7914 130.309 18.7914C129.219 18.7914 128.359 18.4314 127.739 17.7314C127.139 17.0514 126.849 16.1714 126.849 15.0914C126.849 14.0014 127.139 13.1214 127.739 12.4414C128.359 11.7214 129.219 11.3714 130.309 11.3714ZM130.309 12.3314C129.549 12.3314 128.959 12.5814 128.539 13.1014C128.139 13.5914 127.939 14.2514 127.939 15.0914C127.939 15.9214 128.139 16.5814 128.539 17.0714C128.959 17.5714 129.549 17.8314 130.309 17.8314C131.069 17.8314 131.659 17.5814 132.069 17.0914C132.469 16.6114 132.679 15.9414 132.679 15.0914C132.679 14.2314 132.469 13.5614 132.069 13.0714C131.659 12.5714 131.069 12.3314 130.309 12.3314ZM134.884 11.5114H135.984L139.634 16.8214H139.674V11.5114H140.764V18.6514H139.704L136.014 13.2814H135.974V18.6514H134.884V11.5114Z" fill="black"/>
<path d="M148.518 36.758H150.147V25.7465H148.518V36.758ZM163.189 29.713L161.322 34.4872H161.266L159.328 29.713H157.573L160.479 36.3854L158.823 40.0973H160.521L165 29.713H163.189ZM153.952 35.5072C153.418 35.5072 152.674 35.2386 152.674 34.5718C152.674 33.7226 153.6 33.3967 154.401 33.3967C155.116 33.3967 155.454 33.5526 155.889 33.7649C155.762 34.7849 154.892 35.5072 153.952 35.5072ZM154.148 29.4725C152.969 29.4725 151.747 29.9966 151.242 31.1585L152.688 31.7671C152.997 31.1585 153.572 30.9594 154.176 30.9594C155.019 30.9594 155.875 31.4694 155.889 32.3767V32.4894C155.594 32.3194 154.963 32.0649 154.19 32.0649C152.632 32.0649 151.045 32.929 151.045 34.5436C151.045 36.0172 152.323 36.9668 153.755 36.9668C154.85 36.9668 155.454 36.4709 155.833 35.8895H155.889V36.7395H157.461V32.5176C157.461 30.563 156.015 29.4725 154.148 29.4725ZM144.082 31.0537H141.765V27.2792H144.082C145.3 27.2792 145.991 28.2966 145.991 29.166C145.991 30.0195 145.3 31.0537 144.082 31.0537ZM144.04 25.7465H140.138V36.758H141.765V32.5863H144.04C145.845 32.5863 147.62 31.2668 147.62 29.166C147.62 27.0652 145.845 25.7465 144.04 25.7465ZM122.758 35.509C121.633 35.509 120.691 34.5586 120.691 33.2531C120.691 31.9336 121.633 30.9682 122.758 30.9682C123.869 30.9682 124.741 31.9336 124.741 33.2531C124.741 34.5586 123.869 35.509 122.758 35.509ZM124.629 30.3296H124.572C124.206 29.8901 123.504 29.4928 122.618 29.4928C120.761 29.4928 119.06 31.1382 119.06 33.2531C119.06 35.3531 120.761 36.9853 122.618 36.9853C123.504 36.9853 124.206 36.588 124.572 36.1335H124.629V36.6735C124.629 38.1066 123.869 38.873 122.646 38.873C121.647 38.873 121.028 38.1489 120.775 37.5385L119.355 38.1348C119.763 39.1284 120.846 40.3484 122.646 40.3484C124.558 40.3484 126.176 39.213 126.176 36.4462V29.7192H124.629V30.3296ZM127.301 36.758H128.932V25.7457H127.301V36.758ZM131.336 33.1254C131.294 31.6782 132.447 30.94 133.277 30.94C133.924 30.94 134.472 31.2659 134.655 31.7346L131.336 33.1254ZM136.399 31.8764C136.09 31.0396 135.147 29.4928 133.221 29.4928C131.308 29.4928 129.72 31.0105 129.72 33.239C129.72 35.339 131.294 36.9853 133.403 36.9853C135.105 36.9853 136.09 35.9353 136.498 35.3249L135.232 34.4731C134.81 35.0976 134.233 35.509 133.403 35.509C132.574 35.509 131.983 35.1258 131.603 34.3745L136.567 32.3018L136.399 31.8764ZM96.8501 30.6423V32.2314H100.618C100.506 33.1254 100.211 33.7781 99.7612 34.2318C99.2121 34.7858 98.3541 35.3962 96.8501 35.3962C94.5291 35.3962 92.7152 33.5086 92.7152 31.1673C92.7152 28.8251 94.5291 26.9383 96.8501 26.9383C98.1018 26.9383 99.0157 27.4351 99.6905 28.0737L100.802 26.9524C99.8589 26.0443 98.6081 25.3484 96.8501 25.3484C93.6719 25.3484 91 27.9601 91 31.1673C91 34.3745 93.6719 36.9853 96.8501 36.9853C98.5653 36.9853 99.8589 36.4172 100.871 35.3531C101.913 34.3031 102.236 32.8277 102.236 31.635C102.236 31.2659 102.208 30.9259 102.151 30.6423H96.8501ZM106.521 35.509C105.396 35.509 104.425 34.5727 104.425 33.239C104.425 31.8905 105.396 30.9682 106.521 30.9682C107.645 30.9682 108.616 31.8905 108.616 33.239C108.616 34.5727 107.645 35.509 106.521 35.509ZM106.521 29.4928C104.467 29.4928 102.794 31.0677 102.794 33.239C102.794 35.3962 104.467 36.9853 106.521 36.9853C108.574 36.9853 110.247 35.3962 110.247 33.239C110.247 31.0677 108.574 29.4928 106.521 29.4928ZM114.65 35.509C113.525 35.509 112.554 34.5727 112.554 33.239C112.554 31.8905 113.525 30.9682 114.65 30.9682C115.775 30.9682 116.745 31.8905 116.745 33.239C116.745 34.5727 115.775 35.509 114.65 35.509ZM114.65 29.4928C112.597 29.4928 110.924 31.0677 110.924 33.239C110.924 35.3962 112.597 36.9853 114.65 36.9853C116.703 36.9853 118.376 35.3962 118.376 33.239C118.376 31.0677 116.703 29.4928 114.65 29.4928Z" fill="black"/>
</svg>
