<svg width="220" height="48" viewBox="0 0 220 48" fill="none" xmlns="http://www.w3.org/2000/svg">
<rect x="0.5" y="0.5" width="219" height="47" rx="7.5" stroke="white"/>
<path d="M84.7098 15.6546C84.7098 15.6546 86.6524 14.8973 86.4911 16.7373C86.4378 17.4946 85.9511 20.1466 85.5738 23.0133L84.2791 31.508C84.2791 31.508 84.1711 32.752 83.2004 32.9693C82.2284 33.1853 80.7724 32.212 80.5018 31.996C80.2858 31.8333 76.4551 29.3986 75.1058 28.208C74.7284 27.884 74.2964 27.2346 75.1591 26.476L80.8258 21.0653C81.4738 20.416 82.1204 18.9013 79.4231 20.7413L71.8671 25.8813C71.8671 25.8813 71.0031 26.4226 69.3844 25.936L65.8778 24.8533C65.8778 24.8533 64.5831 24.0413 66.7951 23.2306C72.1911 20.6866 78.8284 18.0893 84.7098 15.6546Z" fill="white"/>
<path d="M96.15 10.36H102V11.29H99.62V17.5H98.54V11.29H96.15V10.36ZM104.952 12.19C105.792 12.19 106.442 12.47 106.882 13.05C107.282 13.57 107.492 14.29 107.502 15.21H103.582C103.622 15.71 103.752 16.1 103.992 16.37C104.232 16.63 104.562 16.77 104.982 16.77C105.352 16.77 105.652 16.68 105.882 16.51C106.062 16.37 106.212 16.14 106.352 15.84H107.412C107.292 16.32 107.062 16.73 106.702 17.05C106.252 17.44 105.682 17.64 104.992 17.64C104.232 17.64 103.622 17.4 103.182 16.93C102.702 16.43 102.462 15.76 102.462 14.91C102.462 14.14 102.682 13.5 103.142 12.98C103.582 12.45 104.192 12.19 104.952 12.19ZM104.982 13.06C104.582 13.06 104.272 13.17 104.032 13.41C103.812 13.64 103.662 13.97 103.602 14.41H106.392C106.292 13.51 105.822 13.06 104.982 13.06ZM108.527 10.22H109.587V17.5H108.527V10.22ZM113.097 12.19C113.937 12.19 114.587 12.47 115.027 13.05C115.427 13.57 115.637 14.29 115.647 15.21H111.727C111.767 15.71 111.897 16.1 112.137 16.37C112.377 16.63 112.707 16.77 113.127 16.77C113.497 16.77 113.797 16.68 114.027 16.51C114.207 16.37 114.357 16.14 114.497 15.84H115.557C115.437 16.32 115.207 16.73 114.847 17.05C114.397 17.44 113.827 17.64 113.137 17.64C112.377 17.64 111.767 17.4 111.327 16.93C110.847 16.43 110.607 15.76 110.607 14.91C110.607 14.14 110.827 13.5 111.287 12.98C111.727 12.45 112.337 12.19 113.097 12.19ZM113.127 13.06C112.727 13.06 112.417 13.17 112.177 13.41C111.957 13.64 111.807 13.97 111.747 14.41H114.537C114.437 13.51 113.967 13.06 113.127 13.06ZM118.701 12.19C119.381 12.19 119.901 12.46 120.281 13.02V12.33H121.341V17.16C121.341 18.8 120.531 19.62 118.931 19.62C118.211 19.62 117.661 19.48 117.281 19.21C116.901 18.93 116.671 18.51 116.571 17.94H117.631C117.691 18.24 117.811 18.46 118.011 18.59C118.201 18.71 118.511 18.78 118.931 18.78C119.831 18.78 120.281 18.29 120.281 17.32V16.52C119.901 17.09 119.381 17.38 118.701 17.38C118.001 17.38 117.431 17.14 117.001 16.67C116.561 16.2 116.351 15.58 116.351 14.8C116.351 14.02 116.561 13.4 117.001 12.92C117.431 12.43 118.001 12.19 118.701 12.19ZM118.861 13.05C118.411 13.05 118.061 13.2 117.821 13.52C117.561 13.82 117.441 14.25 117.441 14.8C117.441 15.3 117.541 15.7 117.741 15.99C117.971 16.33 118.341 16.51 118.861 16.51C119.311 16.51 119.661 16.36 119.921 16.06C120.161 15.75 120.291 15.33 120.291 14.8C120.291 14.26 120.161 13.83 119.921 13.52C119.661 13.2 119.311 13.05 118.861 13.05ZM124.938 12.19C125.198 12.19 125.428 12.23 125.608 12.32V13.38C125.348 13.3 125.098 13.27 124.858 13.27C124.538 13.27 124.248 13.4 123.998 13.66C123.728 13.94 123.598 14.31 123.598 14.76V17.5H122.538V12.33H123.598V13.11C123.728 12.83 123.898 12.62 124.098 12.48C124.338 12.28 124.618 12.19 124.938 12.19ZM128.588 12.19C129.348 12.19 129.908 12.38 130.268 12.76C130.578 13.09 130.738 13.57 130.738 14.2V17.5H129.758V16.77C129.558 17.03 129.308 17.24 129.008 17.39C128.668 17.55 128.268 17.64 127.808 17.64C127.268 17.64 126.848 17.5 126.548 17.23C126.218 16.96 126.058 16.61 126.058 16.18C126.058 15.6 126.288 15.15 126.748 14.84C127.168 14.54 127.768 14.39 128.528 14.37L129.688 14.34V14.13C129.688 13.41 129.298 13.05 128.518 13.05C128.188 13.05 127.918 13.11 127.718 13.23C127.478 13.37 127.328 13.58 127.268 13.87L126.218 13.78C126.328 13.22 126.608 12.8 127.048 12.54C127.428 12.3 127.948 12.19 128.588 12.19ZM129.688 15.11L128.598 15.14C127.628 15.16 127.148 15.5 127.148 16.14C127.148 16.34 127.228 16.5 127.398 16.63C127.558 16.76 127.778 16.83 128.048 16.83C128.498 16.83 128.878 16.69 129.198 16.42C129.518 16.15 129.688 15.81 129.688 15.41V15.11ZM134.432 12.19C135.192 12.19 135.742 12.48 136.062 13.06C136.292 12.74 136.542 12.51 136.802 12.38C137.042 12.25 137.332 12.19 137.682 12.19C138.212 12.19 138.652 12.36 139.002 12.72C139.342 13.07 139.522 13.53 139.522 14.11V17.5H138.462V14.29C138.462 13.87 138.372 13.56 138.192 13.37C138.012 13.17 137.712 13.08 137.312 13.08C137.012 13.08 136.772 13.19 136.572 13.41C136.372 13.63 136.272 13.94 136.272 14.32V17.5H135.212V14.3C135.212 13.48 134.852 13.08 134.152 13.08C133.812 13.08 133.532 13.21 133.332 13.47C133.112 13.72 133.012 14.03 133.012 14.39V17.5H131.952V12.33H133.012V12.9C133.432 12.42 133.912 12.19 134.432 12.19Z" fill="#D4D8DB"/>
<path d="M96.98 23.504H98.786L102.272 31.512H102.314L105.786 23.504H107.592V33.5H106.066V26.36H106.01L102.944 33.5H101.628L98.562 26.36H98.506V33.5H96.98V23.504ZM110.468 23.364C110.762 23.364 111.014 23.448 111.21 23.644C111.406 23.826 111.504 24.064 111.504 24.358C111.504 24.652 111.392 24.89 111.196 25.086C111 25.268 110.748 25.366 110.468 25.366C110.174 25.366 109.936 25.268 109.74 25.086C109.544 24.89 109.446 24.638 109.446 24.358C109.446 24.064 109.544 23.826 109.74 23.644C109.936 23.448 110.174 23.364 110.468 23.364ZM109.726 26.262H111.21V33.5H109.726V26.262ZM116.887 26.066C118.679 26.066 119.589 27.046 119.589 29.034V33.5H118.105V29.16C118.105 27.928 117.531 27.312 116.411 27.312C115.991 27.312 115.613 27.452 115.305 27.76C114.969 28.096 114.759 28.558 114.703 29.146V33.5H113.219V26.262H114.703V27.158C114.983 26.794 115.305 26.528 115.669 26.346C116.033 26.15 116.439 26.066 116.887 26.066ZM122.335 23.364C122.629 23.364 122.881 23.448 123.077 23.644C123.273 23.826 123.371 24.064 123.371 24.358C123.371 24.652 123.259 24.89 123.063 25.086C122.867 25.268 122.615 25.366 122.335 25.366C122.041 25.366 121.803 25.268 121.607 25.086C121.411 24.89 121.313 24.638 121.313 24.358C121.313 24.064 121.411 23.826 121.607 23.644C121.803 23.448 122.041 23.364 122.335 23.364ZM121.593 26.262H123.077V33.5H121.593V26.262ZM132.758 23.504H134.494L138.344 33.5H136.706L135.768 30.924H131.47L130.532 33.5H128.908L132.758 23.504ZM131.932 29.664H135.306L133.654 25.142H133.598L131.932 29.664ZM142.808 26.066C143.872 26.066 144.698 26.444 145.314 27.2C145.874 27.9 146.154 28.796 146.154 29.916C146.154 30.98 145.874 31.862 145.328 32.562C144.74 33.318 143.914 33.696 142.878 33.696C141.982 33.696 141.254 33.276 140.666 32.436V36.272H139.182V26.262H140.568V27.13C141.072 26.416 141.828 26.066 142.808 26.066ZM142.584 27.27C141.94 27.27 141.436 27.522 141.086 28.04C140.778 28.488 140.624 29.09 140.624 29.832V29.958C140.624 30.728 140.806 31.358 141.198 31.834C141.534 32.268 141.982 32.492 142.542 32.492C143.27 32.492 143.802 32.254 144.152 31.778C144.46 31.33 144.628 30.714 144.628 29.916C144.628 29.118 144.474 28.502 144.194 28.054C143.844 27.522 143.312 27.27 142.584 27.27ZM151.175 26.066C152.239 26.066 153.065 26.444 153.681 27.2C154.241 27.9 154.521 28.796 154.521 29.916C154.521 30.98 154.241 31.862 153.695 32.562C153.107 33.318 152.281 33.696 151.245 33.696C150.349 33.696 149.621 33.276 149.033 32.436V36.272H147.549V26.262H148.935V27.13C149.439 26.416 150.195 26.066 151.175 26.066ZM150.951 27.27C150.307 27.27 149.803 27.522 149.453 28.04C149.145 28.488 148.991 29.09 148.991 29.832V29.958C148.991 30.728 149.173 31.358 149.565 31.834C149.901 32.268 150.349 32.492 150.909 32.492C151.637 32.492 152.169 32.254 152.519 31.778C152.827 31.33 152.995 30.714 152.995 29.916C152.995 29.118 152.841 28.502 152.561 28.054C152.211 27.522 151.679 27.27 150.951 27.27Z" fill="white"/>
</svg>
