<svg width="179" height="50" viewBox="0 0 179 50" fill="none" xmlns="http://www.w3.org/2000/svg">
<mask id="mask0_390_1362" style="mask-type:alpha" maskUnits="userSpaceOnUse" x="0" y="0" width="179" height="50">
<rect x="0.616455" width="178" height="50" fill="#D9D9D9"/>
</mask>
<g mask="url(#mask0_390_1362)">
<path fill-rule="evenodd" clip-rule="evenodd" d="M139.818 30.5571C138.657 30.3148 139.345 29.9404 139.163 28.9769C139.004 28.1235 138.233 27.2866 138.255 26.6589C138.321 24.952 140.501 25.0787 141.828 25.6017C142.147 25.7999 142.417 26.0697 142.615 26.3891C143.221 27.2645 143.942 28.5419 143.001 29.544C142.175 30.3754 141.002 30.7663 139.846 30.6012" fill="white"/>
<path fill-rule="evenodd" clip-rule="evenodd" d="M126.642 28.785L126.532 28.7354V28.3665C127.744 27.6727 128.916 26.9129 130.045 26.087C131.009 25.4428 131.719 24.4793 132.038 23.3671C129.781 24.1104 127.645 25.7346 125.31 25.9329C124.407 25.6245 123.543 25.2281 122.722 24.7436V24.6169C121.483 23.8296 121.373 22.7724 122.722 22.3209C125.09 22.844 128.669 21.1592 130.888 20.3168C131.713 20.0415 132.495 19.645 133.206 19.133C133.729 16.0331 133.387 12.9167 133.569 9.94901C134.356 7.79617 135.667 9.25526 136.994 10.3344C137.087 10.5051 137.39 10.7033 137.654 11.1218H137.787C138.348 12.0193 138.502 12.4322 137.627 13.2691C137.027 14.7722 136.757 16.3855 136.84 18.0043C138.42 17.773 139.427 16.3635 141.305 16.3304C141.811 17.0958 141.619 18.1254 140.87 18.6595C139.504 19.3147 138.023 19.8983 136.476 20.5976C136.146 22.3154 135.43 23.9342 134.384 25.3327C134.043 25.7181 133.674 26.0815 133.272 26.4064C132.341 27.0561 131.334 27.5847 130.271 27.9866C129.104 28.3995 127.887 28.6638 126.648 28.7739" fill="white"/>
<path fill-rule="evenodd" clip-rule="evenodd" d="M97.6316 34.0757C96.5248 33.4095 95.5888 32.49 94.8951 31.3998C94.9997 31.1025 95.0988 30.7996 95.2199 30.5188C97.9013 28.6523 100.451 26.5986 102.84 24.3687C103.567 23.2565 104.503 22.0947 105.285 20.999C105.323 20.9715 105.373 20.955 105.417 20.9495C105.417 20.9109 105.417 20.8724 105.417 20.8283C106.089 20.3053 106.37 20.1676 106.942 21.0265C106.992 21.7533 105.698 22.5187 105.296 23.1959C104.789 24.4843 104.217 25.7892 103.561 27.1437C103.16 27.6337 102.802 28.1623 102.504 28.7239C101.651 29.5333 100.957 30.4968 100.462 31.565C99.6743 32.044 99.2778 33.5141 98.2757 34.0261C98.0665 34.0372 97.8518 34.0592 97.6426 34.0977" fill="white"/>
<path fill-rule="evenodd" clip-rule="evenodd" d="M113.164 24.8546C111.54 24.783 111.083 23.7479 110.196 22.8009C110.196 22.3769 110.427 22.1236 110.466 21.8208C110.697 21.7878 110.923 21.7052 111.121 21.5785C111.798 21.4849 112.046 21.5235 112.779 21.4739C113.72 21.2592 116.11 19.6129 116.914 20.3232C117.029 22.2943 114.887 24.271 113.164 24.8546Z" fill="white"/>
<path fill-rule="evenodd" clip-rule="evenodd" d="M100.698 21.7463C100.082 21.2012 99.9552 18.6905 99.9111 17.9031C100.368 16.5046 101.783 16.4496 102.956 17.3581C103.897 18.5914 104.536 19.1035 103.545 20.513C102.78 21.2563 101.761 21.6858 100.698 21.7188" fill="white"/>
<path fill-rule="evenodd" clip-rule="evenodd" d="M112.762 20.5317C112.597 19.7443 113.643 18.1641 113.346 17.7457C112.949 17.8007 112.558 17.9494 112.14 17.9769C111.16 17.5034 110.086 16.3141 110.482 15.3946C111.198 14.6073 110.923 14.789 112.063 14.7174C113.136 14.2384 114.21 13.7703 115.3 13.3023C117.123 12.961 117.96 13.9631 118.07 15.747C117.673 16.8592 117.046 17.8668 116.225 18.7147C115.262 19.2433 114.386 19.8269 113.511 20.405C113.263 20.4216 113.015 20.4656 112.778 20.5317" fill="white"/>
<path fill-rule="evenodd" clip-rule="evenodd" d="M102.763 15.3777C102.378 15.0363 102.532 14.8546 102.763 14.5077C102.714 13.7589 102.268 13.1477 102.218 12.432C102.46 11.105 102.218 10.626 103.308 9.9873C104.162 10.3672 107.129 11.8814 106.463 13.5442C105.5 14.5628 104.217 15.207 102.824 15.3721" fill="white"/>
<path fill-rule="evenodd" clip-rule="evenodd" d="M64.337 35.3459C62.5696 34.6687 61.0334 31.1724 63.1587 30.3134C63.2248 29.9941 63.4395 29.7298 63.7368 29.6032C63.7368 29.5591 63.7368 29.5151 63.7368 29.471C65.4492 27.8137 66.5669 25.5232 68.015 23.6732C68.3839 22.9795 68.5821 22.3077 69.3694 22.093C69.7714 22.4399 69.6282 23.2383 69.5181 23.8439C69.6943 24.0036 70.3054 23.8825 70.6688 23.7723C71.8581 22.7372 73.4163 21.8397 74.6166 20.7606C74.6772 20.232 74.7323 19.7034 74.8203 19.1804C73.9834 19.3786 71.2635 20.0173 71.9187 18.4811C72.9373 18.0792 74.49 17.2037 75.0736 16.1135C75.3324 14.9958 75.1837 13.746 75.7509 12.9586C76.8961 12.3695 78.2506 13.812 78.4818 15.0509C78.9388 15.8382 80.3759 14.8527 78.5919 17.3689C78.212 17.6442 78.2285 18.1562 78.3001 18.7674H78.6966C79.7372 17.9966 80.8164 17.2808 81.9341 16.6201C82.1323 15.1169 82.5838 13.6579 83.2775 12.3034C84.3897 11.516 85.8984 12.364 86.9775 13.2339C87.7649 13.1513 88.5082 12.8154 89.0918 12.2814C89.3671 12.1933 89.659 12.1657 89.9453 12.1933C90.1765 12.6227 90.2976 13.1018 90.2921 13.5918C89.7636 15.2326 85.0615 15.7722 85.9699 17.6772C86.7573 17.6222 87.0656 16.7302 87.374 16.097C88.288 15.607 90.2756 16.2016 91.2337 16.8844C92.3073 18.1838 91.4759 18.6298 90.2921 19.4501C90.1655 19.6263 90.0499 19.808 89.9453 19.9787C89.8939 21.7259 89.8939 23.7833 89.9453 26.1509C89.6259 26.9823 89.1359 27.7311 88.5082 28.3588V28.4689H88.31C87.853 29.2563 86.7298 30.0491 86.0856 29.2563C86.0856 26.3381 86.2342 23.3153 86.1351 20.5789C86.0856 20.5844 86.036 20.6009 85.992 20.6284C85.7772 22.049 84.3567 24.7139 83.1454 25.5893C82.0992 25.6719 81.1302 25.0442 80.7778 24.0586C80.8934 23.7668 81.1082 23.7008 81.3449 23.497C81.9781 22.2031 81.7854 19.819 81.7854 18.5472C80.8714 18.6793 79.3408 20.7385 78.6305 21.5039C78.1735 21.8728 77.7055 22.2362 77.2595 22.6106C76.9346 23.6897 76.6814 24.7579 76.4006 25.9142C76.1583 26.4262 75.9105 26.9713 75.6573 27.4944H75.5306C75.1067 28.2102 73.7247 30.0987 72.9043 28.9149V28.4469C73.6035 27.4008 74.022 26.1895 74.1101 24.9341C72.9979 25.303 72.2546 26.3216 71.1369 26.3932C70.5422 26.2886 69.9696 26.1014 69.4245 25.8426C69.4245 25.7985 69.4245 25.76 69.4245 25.7159C69.1492 25.5453 68.8739 25.3085 68.7087 25.3691C68.505 25.9912 68.3068 26.6465 68.1196 27.2962C66.9853 29.6858 66.0658 32.1689 65.3666 34.7182C65.1133 35.0321 64.7554 35.2413 64.359 35.3129" fill="white"/>
<path fill-rule="evenodd" clip-rule="evenodd" d="M66.5338 21.428C66.1869 20.9215 66.6109 20.2663 66.6274 19.6827C66.0823 18.0309 65.6473 16.803 66.699 15.4155L67.2055 15.366C68.1525 16.1258 68.9894 17.0067 69.7052 17.9868C70.4926 19.958 67.9598 20.8444 66.5503 21.417" fill="white"/>
<path fill-rule="evenodd" clip-rule="evenodd" d="M68.1196 15.0483C67.7011 14.9051 67.7066 14.8115 67.6295 14.6684C67.8277 14.2664 68.0149 14.0297 67.9379 13.6167C66.9303 12.0365 66.9853 9.67446 68.7252 8.93115C69.2373 8.99172 69.2483 9.42669 69.5126 10.1204C70.6468 11.2271 72.7611 12.5926 70.7569 14.0627C69.9145 14.4316 68.995 14.7234 68.1526 15.0153" fill="white"/>
<path fill-rule="evenodd" clip-rule="evenodd" d="M152.389 21.0973C150.808 20.6073 151.1 18.014 151.37 16.9623C152.521 16.23 154.035 17.7497 154.123 19.1097C153.826 20.6018 153.837 20.822 152.389 21.0973Z" fill="white"/>
<path fill-rule="evenodd" clip-rule="evenodd" d="M160.928 33.0748L160.796 32.9977C158.847 33.1519 156.881 32.9096 155.026 32.2874C154.954 32.1663 154.921 32.0231 154.932 31.8855C155.995 31.2633 157.503 31.434 158.324 30.3053C158.473 29.5234 158.522 28.7306 158.467 27.9377C156.463 28.0588 155.389 29.5179 153.803 30.052C152.449 30.1291 150.026 28.9013 149.63 27.8166C149.63 26.0712 149.993 26.853 151.86 26.7429C154.084 26.3465 156.309 25.0636 158.462 24.1221C158.671 23.9294 158.913 23.7752 159.177 23.6706C159.651 22.217 159.965 21.9582 161.495 21.6664C161.888 21.4682 162.661 21.0204 163.813 20.3229C163.852 20.1467 163.901 19.9761 163.962 19.8109C161.341 20.1247 159.227 22.25 157.135 23.643C156.292 23.8908 155.389 23.8137 154.602 23.4283C154.145 23.4944 151.541 23.9569 152.801 22.9163C153.589 22.6189 154.167 22.0573 154.987 21.6939C156.953 20.378 159.227 19.2383 161.347 18.0269C161.341 17.8122 161.27 17.603 161.143 17.4268C161.143 17.0744 161.22 16.733 161.358 16.4082C160.961 16.5513 160.851 16.5183 160.774 16.8211C159.519 17.3717 158.985 18.517 157.933 17.3112C157.74 18.3793 156.848 19.1777 155.764 19.2493C154.64 18.6711 154.613 16.7936 154.415 15.9292C154.338 15.8191 154.178 15.0923 153.87 14.2499C153.357 13.2147 152.416 12.0585 153.044 11.0949C153.831 10.6049 154.167 10.4232 154.844 11.5024C155.56 12.0199 156.199 12.6311 156.744 13.3193H156.87C157.228 14.2719 158.104 15.5272 158.005 16.7441C158.594 16.3972 159.431 15.7199 159.001 14.9711C158.032 14.4481 158.583 13.5451 159.26 13.2092C159.629 13.2368 159.998 13.2257 160.367 13.1707C160.378 13.033 160.323 12.8899 160.218 12.8018C159.431 12.5155 159.563 12.3283 159.777 11.6675C158.985 11.4253 158.539 10.5884 158.775 9.80102C158.792 9.74596 158.814 9.6854 158.836 9.63034C160.668 9.17151 162.009 8.80628 162.861 8.53465C163.714 7.472 164.639 4.59237 166.297 5.09341C166.891 5.84773 167.172 6.80027 167.084 7.7528C166.825 8.14923 166.627 8.5842 166.5 9.0412H166.996C168.141 8.47408 168.67 7.79685 169.363 9.49819C170.476 10.0983 170.872 9.93867 170.454 11.5519C169.666 13.1707 168.78 14.8996 167.888 16.5238C167.877 16.5954 167.877 16.6725 167.888 16.7441C168.091 16.7826 168.301 16.8266 168.504 16.8872C168.62 17.7186 168.659 18.561 168.62 19.4034C167.932 20.422 167.04 20.422 165.966 20.5652C164.568 21.259 163.312 21.8371 162.024 22.6189C161.991 22.9107 162.024 23.2026 162.112 23.4779H164.144C164.892 23.9679 164.832 25.3334 164.364 26.1262C163.698 26.1703 163.048 26.3575 162.464 26.6768C162.393 27.0457 162.321 27.4256 162.261 27.8111C162.31 29.2646 163.048 32.7719 160.912 33.1023M165.195 15.2024C165.889 14.6408 166.291 13.7929 166.286 12.9009C165.658 12.4824 164.904 12.2952 164.155 12.3723C163.951 12.9064 163.687 13.4184 163.367 13.8975L163.582 13.9911C163.511 14.0076 163.444 14.0406 163.384 14.0792C163.389 14.1232 163.406 14.1673 163.422 14.2058C163.681 14.1948 163.918 14.0406 164.028 13.8039C165.085 13.6277 165.107 14.0076 165.03 15.1363C165.08 15.1528 165.124 15.1804 165.162 15.2079" fill="white"/>
<path d="M67.4258 42.0311L70.5257 38.2044H67.6681V37.6042H71.3791V38.1879L68.2792 42.02H71.3791V42.6257H67.4258V42.0311Z" fill="white"/>
<path d="M72.9263 37.6042H73.6035V39.6635H76.2243V37.6042H76.9126V42.6312H76.2243V40.2636H73.6035V42.6312H72.9263V37.6042Z" fill="white"/>
<path d="M78.7405 42.6312V37.6042H82.4185V38.2044H79.4178V39.7406H82.1542V40.3407H79.4178V42.02H82.4461V42.6257H78.7405V42.6312Z" fill="white"/>
<path d="M85.9369 37.6042H86.6141V41.2162C86.6416 41.6346 86.5095 42.0421 86.2342 42.3614C85.9589 42.6422 85.5735 42.7909 85.1771 42.7633C84.7751 42.7909 84.3842 42.6532 84.0869 42.3834C83.8226 42.1081 83.6959 41.7282 83.7345 41.3483V41.0014H84.3732V41.3483C84.3567 41.5741 84.4282 41.7943 84.5714 41.965C84.7145 42.1191 84.9238 42.2017 85.133 42.1852C85.3587 42.1852 85.5735 42.0916 85.7221 41.9264C85.8708 41.7227 85.9479 41.4694 85.9369 41.2162V37.6042Z" fill="white"/>
<path d="M88.4861 37.6042H89.1633V42.6312H88.4861V37.6042Z" fill="white"/>
<path d="M92.4945 37.6042H93.2818L95.0878 42.6202H94.3555L93.8269 41.1666H91.8227L91.2942 42.6202H90.5949L92.4945 37.6042ZM92.043 40.572H93.6177L92.8303 38.3365L92.043 40.572Z" fill="white"/>
<path d="M97.0534 42.6312H96.3982V37.6042H97.2131L99.7293 41.6842V37.6042H100.385V42.6312H99.6412L97.0534 38.5293V42.6312Z" fill="white"/>
<path d="M104.569 42.7651C103.919 42.7872 103.297 42.5174 102.873 42.0328C102.433 41.4988 102.201 40.816 102.235 40.1223C102.196 39.4175 102.433 38.7293 102.89 38.1952C103.727 37.3307 105.076 37.2151 106.045 37.9254C106.43 38.2062 106.683 38.6357 106.738 39.1092H106.083C106.039 38.7898 105.863 38.5035 105.604 38.3218C105.301 38.1291 104.949 38.0355 104.597 38.052C104.129 38.041 103.688 38.2502 103.407 38.6191C102.807 39.5331 102.807 40.7114 103.407 41.6254C103.71 41.9888 104.173 42.187 104.646 42.1595C105.131 42.1705 105.593 41.9613 105.902 41.5924C105.951 41.5318 105.995 41.4712 106.034 41.4052C106.1 41.2895 106.149 41.1629 106.177 41.0363C106.215 40.8876 106.232 40.7389 106.232 40.5848V40.5187H104.652V39.9461H106.843V42.6055H106.419L106.259 41.9723C105.863 42.4568 105.263 42.7266 104.635 42.7046" fill="white"/>
<path d="M115.476 40.7893C115.57 41.7859 114.838 42.6779 113.841 42.7715C113.731 42.7825 113.615 42.7825 113.505 42.7715C112.966 42.8045 112.437 42.6228 112.03 42.2649C111.666 41.863 111.485 41.3289 111.523 40.7893V37.6289H112.2V40.7838C112.173 41.1693 112.288 41.5492 112.531 41.852C113.081 42.3365 113.913 42.3365 114.463 41.852C114.706 41.5492 114.821 41.1693 114.794 40.7838V37.6289H115.471V40.7838L115.476 40.7893Z" fill="white"/>
<path d="M118.059 42.6312H117.398V37.6042H118.218L120.735 41.6842V37.6042H121.39V42.6312H120.647L118.059 38.5293V42.6312Z" fill="white"/>
<path d="M123.256 37.6042H123.934V42.6312H123.256V37.6042Z" fill="white"/>
<path d="M125.261 37.6042H126.02L127.463 41.8989L128.9 37.6042H129.66L127.832 42.6312H127.1L125.266 37.6042H125.261Z" fill="white"/>
<path d="M130.954 42.6312V37.6042H134.621V38.2044H131.631V39.7406H134.362V40.3407H131.631V42.02H134.659V42.6257H130.954V42.6312Z" fill="white"/>
<path d="M136.482 37.6048H138.849C139.284 37.5717 139.714 37.6984 140.066 37.9516C140.358 38.2049 140.512 38.5848 140.485 38.9702C140.507 39.4658 140.248 39.9283 139.813 40.1595L139.928 40.2146C140.237 40.4018 140.418 40.7377 140.402 41.0956V42.0095C140.402 42.1252 140.418 42.2353 140.468 42.3399C140.512 42.417 140.584 42.472 140.666 42.5051V42.6152H139.829C139.796 42.5106 139.774 42.4005 139.774 42.2903C139.774 42.0976 139.769 41.9049 139.736 41.7122V41.3158C139.747 41.0735 139.664 40.8313 139.505 40.6441C139.301 40.4954 139.048 40.4238 138.794 40.4458H137.214V42.6097H136.537L136.482 37.5938V37.6048ZM137.159 39.8677H138.838C139.086 39.8897 139.334 39.8127 139.532 39.664C139.692 39.4823 139.769 39.2455 139.747 39.0088C139.769 38.7775 139.686 38.5463 139.516 38.3756C139.306 38.2159 139.048 38.1443 138.789 38.1719H137.153V39.8677H137.159Z" fill="white"/>
<path d="M145.352 39.058C145.335 38.7717 145.198 38.5019 144.972 38.3257C144.713 38.144 144.405 38.0559 144.091 38.0724C143.783 38.0504 143.474 38.1275 143.216 38.2927C143.017 38.4468 142.907 38.6891 142.918 38.9369C142.907 39.1076 142.984 39.2727 143.122 39.3718C143.37 39.5095 143.634 39.6031 143.909 39.6582L144.785 39.8729C145.159 39.9335 145.506 40.1041 145.787 40.3629C146.002 40.6217 146.106 40.9521 146.084 41.2879C146.101 41.7119 145.902 42.1138 145.561 42.3671C145.154 42.6534 144.664 42.7966 144.163 42.769C143.612 42.8021 143.067 42.6369 142.626 42.301C142.263 41.9927 142.059 41.5357 142.081 41.0622V41.0236H142.737C142.737 41.354 142.885 41.6623 143.138 41.8661C143.447 42.0808 143.821 42.1799 144.196 42.1579C144.526 42.1854 144.856 42.1083 145.143 41.9431C145.352 41.8055 145.478 41.5632 145.467 41.31C145.484 41.1062 145.401 40.908 145.253 40.7759C144.994 40.6162 144.702 40.5061 144.399 40.451L143.524 40.2363C143.171 40.1812 142.841 40.0271 142.571 39.8013C142.379 39.5866 142.274 39.3003 142.296 39.014C142.274 38.579 142.456 38.155 142.786 37.8687C143.16 37.5714 143.634 37.4227 144.113 37.4503C144.598 37.4227 145.077 37.5714 145.462 37.8687C145.798 38.166 145.991 38.59 145.996 39.036L145.346 39.0525L145.352 39.058Z" fill="white"/>
<path d="M147.763 37.6042H148.441V42.6312H147.763V37.6042Z" fill="white"/>
<path d="M151.574 38.2044H149.867V37.6042H153.947V38.2044H152.251V42.6312H151.574V38.2044Z" fill="white"/>
<path d="M157.024 40.616L155.13 37.6042H155.918L157.36 40.0434L158.803 37.6042H159.59L157.696 40.627V42.6312H157.019V40.6215L157.024 40.616Z" fill="white"/>
<path d="M30.9982 3C43.3647 3 53.3855 13.0209 53.3855 25.3818C53.3855 37.7427 43.3647 47.7636 31.0037 47.7636C18.6428 47.7636 8.61646 37.7482 8.61646 25.3818C8.61646 13.0209 18.6373 3 30.9982 3ZM30.9982 3.89197C19.1329 3.89197 9.50842 13.5164 9.50842 25.3818C9.50842 37.2472 19.1329 46.8716 30.9982 46.8716C42.8636 46.8716 52.4881 37.2472 52.4881 25.3818C52.4936 13.5164 42.8691 3.89197 30.9982 3.89197Z" fill="white"/>
<path d="M23.1358 34.9241C21.7262 33.7513 20.5865 32.2813 19.8046 30.6185C16.9085 24.4352 19.5734 17.0682 25.7566 14.1721C31.9398 11.276 39.3068 13.9409 42.2029 20.1241C44.598 25.2446 43.2216 31.3342 38.8553 34.9241L38.5965 34.5607C43.673 30.3707 44.3943 22.866 40.2043 17.7895C36.0142 12.713 28.5096 11.9917 23.4331 16.1818C19.2375 19.645 17.9161 25.5144 20.2286 30.4368C20.9774 32.028 22.0676 33.4375 23.4166 34.5607L23.1302 34.9241H23.1358Z" fill="white"/>
<path fill-rule="evenodd" clip-rule="evenodd" d="M11.8374 32.8531L10.995 30.5901L11.452 30.4304L15.3172 31.0251L14.7335 29.4338L15.1905 29.2742L15.9614 31.3499L15.4933 31.5096L11.6337 30.915L12.2944 32.6989L11.8374 32.8586V32.8531Z" fill="white"/>
<path fill-rule="evenodd" clip-rule="evenodd" d="M13.302 35.9483L13.0762 35.4913L14.8932 34.5608L14.3151 33.4321L12.4981 34.3736L12.2614 33.9221L16.1486 31.918L16.3853 32.375L14.7445 33.2119L15.3227 34.3296L16.9635 33.4927L17.1947 33.9442L13.302 35.9483Z" fill="white"/>
<path fill-rule="evenodd" clip-rule="evenodd" d="M15.152 38.4111L13.7701 36.4785L17.415 34.2156L18.7309 36.0546L18.329 36.2968L17.3269 34.8983L16.1927 35.6031L17.1177 36.8915L16.7157 37.1448L15.7907 35.8564L14.4858 36.6712L15.5485 38.1634L15.1465 38.4166L15.152 38.4111Z" fill="white"/>
<path fill-rule="evenodd" clip-rule="evenodd" d="M18.2519 41.4381L17.7839 41.0527L20.4763 37.7546L20.9333 38.1401L18.2519 41.4381Z" fill="white"/>
<path fill-rule="evenodd" clip-rule="evenodd" d="M20.3332 42.892L20.8783 41.7247L20.2176 41.2457L19.221 42.2092L18.764 41.8623L21.9189 38.7515L22.5576 39.1369L20.8673 43.2388L20.3277 42.892H20.3332ZM21.1206 41.1576L21.7758 39.6489L21.7152 39.5939L20.581 40.7556L21.1261 41.1576H21.1206Z" fill="white"/>
<path fill-rule="evenodd" clip-rule="evenodd" d="M23.4826 44.4216L22.921 44.1518L23.2513 41.1235L22.007 43.6728L21.4399 43.414L23.411 39.5103L23.9231 39.747L23.6863 42.6266L24.9747 40.2536L25.4482 40.4518L23.4826 44.4271V44.4216Z" fill="white"/>
<path fill-rule="evenodd" clip-rule="evenodd" d="M26.4228 45.2998L26.0539 45.1786V44.8318C25.9548 44.9144 25.8336 44.9584 25.707 44.9749C25.5638 44.9969 25.4152 44.9859 25.283 44.9364C24.9582 44.8208 24.7104 44.5565 24.6113 44.2261C24.4571 43.703 24.4902 43.1469 24.6994 42.6459C24.8205 42.0843 25.0958 41.5612 25.4867 41.1373C25.8501 40.8179 26.3567 40.7133 26.8137 40.8675C27.2872 41.0161 27.601 41.5942 27.4579 42.3926L26.8908 42.3541C26.9844 42.0072 26.9403 41.4731 26.6045 41.3685C26.3237 41.2694 26.0153 41.352 25.8171 41.5722C25.5528 41.9411 25.3656 42.3541 25.261 42.7945C25.1068 43.1855 25.0573 43.6094 25.1289 44.0279C25.1674 44.2481 25.3216 44.4298 25.5308 44.5069C25.7015 44.573 25.8887 44.5454 26.0373 44.4353C26.2245 44.2702 26.3512 44.0499 26.4062 43.8021L26.4833 43.5489L25.8116 43.3341L25.9437 42.8937L27.0504 43.2571L26.4283 45.2888L26.4228 45.2998Z" fill="white"/>
<path fill-rule="evenodd" clip-rule="evenodd" d="M32.2371 44.3327C32.2481 44.6686 32.1325 44.9989 31.9233 45.2577C31.6865 45.4945 31.3507 45.6101 31.0148 45.566C30.6734 45.5826 30.3486 45.4449 30.1228 45.1861C29.9301 44.9108 29.842 44.575 29.8696 44.2391L29.9632 41.2659H30.4862L30.3926 44.2611C30.3706 44.4814 30.4257 44.7071 30.5578 44.8833C30.6789 45.0154 30.8496 45.098 31.0313 45.098C31.213 45.109 31.3837 45.043 31.5103 44.9163C31.6535 44.7456 31.7251 44.5309 31.7141 44.3107L31.8077 41.3374H32.3362L32.2316 44.3327H32.2371Z" fill="white"/>
<path fill-rule="evenodd" clip-rule="evenodd" d="M35.2268 45.1262L34.7533 45.2033L33.2777 42.3567L33.5089 45.4126L32.9473 45.4896L32.6225 41.206L33.2612 41.1509L34.4835 43.1441L34.2577 40.9968L34.7257 40.9197L35.2268 45.1262Z" fill="white"/>
<path fill-rule="evenodd" clip-rule="evenodd" d="M36.8236 44.6818L36.2785 44.847L35.1333 40.7946L35.6839 40.6294L36.8236 44.6818Z" fill="white"/>
<path fill-rule="evenodd" clip-rule="evenodd" d="M38.3047 39.5507L38.9985 44.0215L38.4644 44.2913L36.0913 40.4867L36.6144 40.2664L38.2607 42.8598L37.8037 39.7654L38.3102 39.5452L38.3047 39.5507Z" fill="white"/>
<path fill-rule="evenodd" clip-rule="evenodd" d="M42.7094 42.0783L40.7163 43.1574L38.5359 39.4189L40.4355 38.3948L40.6722 38.8132L39.2187 39.5951L39.8959 40.7568L41.2283 40.0411L41.4706 40.4485L40.1382 41.1698L40.909 42.5022L42.4562 41.6653L42.7039 42.0783H42.7094Z" fill="white"/>
<path fill-rule="evenodd" clip-rule="evenodd" d="M44.9889 40.4838L44.5485 40.8527L42.9683 39.5753L42.5663 39.9387L43.618 41.3592L43.1775 41.8273L40.6117 38.2208L41.399 37.6372C41.6578 37.4335 41.9827 37.3344 42.313 37.3509C42.9352 37.3619 43.4363 37.874 43.4252 38.4961C43.4252 38.5347 43.4252 38.5677 43.4197 38.6063C43.4197 38.81 43.3867 39.0082 43.3261 39.2009L44.9889 40.4838ZM42.2194 37.9455C41.8946 37.8574 41.6413 38.1107 41.4321 38.2924L42.2855 39.4211C42.5278 39.289 42.726 39.0908 42.8636 38.854C42.9627 38.4631 42.726 38.0612 42.3296 37.9621C42.302 37.9566 42.2745 37.951 42.247 37.9455" fill="white"/>
<path fill-rule="evenodd" clip-rule="evenodd" d="M46.371 37.0049C46.9381 37.3793 47.0923 38.1447 46.7179 38.7118C46.5252 38.9981 46.2223 39.1963 45.881 39.2458C45.5892 39.2844 45.2973 39.2348 45.0386 39.0972L45.2368 38.6402C45.4185 38.7063 45.6167 38.7338 45.8149 38.7173C46.1893 38.6732 46.4591 38.3319 46.4151 37.9519C46.393 37.7482 46.2719 37.561 46.1012 37.4509C45.936 37.3463 45.7378 37.3077 45.5396 37.3408C45.0275 37.3958 44.6972 37.7813 44.1301 37.8198C43.5464 37.8749 43.0289 37.4454 42.9683 36.8673C42.9132 36.5589 42.9793 36.2451 43.15 35.9863C43.4969 35.4743 44.1961 35.3421 44.7082 35.689C44.7137 35.689 44.7247 35.7 44.7302 35.7055L44.532 36.1735C44.2182 36.0028 43.8327 36.0579 43.585 36.3167C43.4859 36.4488 43.4473 36.6195 43.4804 36.7847C43.5024 37.0875 43.7667 37.3188 44.0695 37.2967C44.086 37.2967 44.097 37.2967 44.1136 37.2967C44.6642 37.2252 45.0386 36.7682 45.5892 36.7902C45.881 36.7957 46.1618 36.8728 46.4151 37.0214" fill="white"/>
<path fill-rule="evenodd" clip-rule="evenodd" d="M48.2539 36.4546L47.9401 36.851L44.2456 34.5385L44.5704 34.1421L48.2539 36.4546Z" fill="white"/>
<path fill-rule="evenodd" clip-rule="evenodd" d="M46.393 31.781L45.9911 32.5408L49.4708 34.5945L49.2341 35.0295L45.7543 32.9868L45.3469 33.7356L44.9119 33.4823L45.9635 31.5332L46.3985 31.7865L46.393 31.781Z" fill="white"/>
<path fill-rule="evenodd" clip-rule="evenodd" d="M47.0316 28.9125L49.1514 30.8065L50.572 31.4232L50.4013 31.8967L49.0908 31.3902L46.0626 31.3186L46.2112 30.8286L48.3255 30.8616L46.8224 29.4851L47.0261 28.907L47.0316 28.9125Z" fill="white"/>
<path fill-rule="evenodd" clip-rule="evenodd" d="M17.9271 39.537C17.6573 39.8564 17.2829 40.0601 16.8699 40.1152C16.5341 40.1207 16.2147 39.983 15.989 39.7297C15.7577 39.504 15.6311 39.1902 15.6311 38.8708C15.6311 38.6891 15.6862 38.5129 15.7743 38.3588L16.2533 38.6506C16.2147 38.7222 16.1927 38.8047 16.1927 38.8873C16.1817 39.0525 16.2368 39.2122 16.3524 39.3278C16.479 39.4765 16.6662 39.5646 16.8644 39.5591C17.1177 39.4985 17.349 39.3608 17.5141 39.1571L19.667 37.0483L20.0634 37.4503L17.9326 39.5425L17.9271 39.537Z" fill="white"/>
<path fill-rule="evenodd" clip-rule="evenodd" d="M25.1839 38.7935L23.6697 37.8685L23.8019 37.6373L24.3525 37.9786L25.2334 36.3984L24.6828 36.057L24.804 35.8533C24.9581 35.9579 25.1288 36.0295 25.3105 36.068C25.4372 36.0846 25.5583 36.024 25.6244 35.9194L25.9712 36.1341L24.7819 38.2099L25.327 38.5512L25.1839 38.7935ZM29.6272 37.852C29.6492 37.7309 29.5997 37.6042 29.5006 37.5271C29.3574 37.417 29.1922 37.3509 29.0105 37.3399C28.8398 37.3014 28.6637 37.3014 28.4985 37.3399C28.3773 37.3785 28.2837 37.4776 28.2562 37.5987C28.2397 37.6813 28.2562 37.7694 28.3113 37.8355C28.3829 37.9236 28.4709 37.9951 28.5701 38.0392C28.6196 38.0392 28.6967 38.1108 28.8068 38.1603C28.9059 38.2099 29.0105 38.2539 29.1151 38.287C29.2528 38.2484 29.3794 38.1823 29.484 38.0887C29.5556 38.0117 29.6052 37.9181 29.6272 37.8134M29.429 39.1459C29.4565 39.0523 29.44 38.9587 29.3904 38.8761C29.2913 38.7715 29.1757 38.6834 29.0436 38.6228L28.8123 38.5182L28.482 38.3751C28.3333 38.4081 28.1956 38.4687 28.08 38.5623C27.9864 38.6448 27.9204 38.7495 27.8928 38.8706C27.8598 39.0303 27.9148 39.1954 28.0415 39.2945C28.1846 39.4322 28.3718 39.5148 28.5701 39.5313C28.7573 39.5698 28.95 39.5643 29.1317 39.5148C29.2803 39.4597 29.3849 39.3276 29.407 39.1734M28.482 39.8286C28.3003 39.8066 28.1186 39.7626 27.9479 39.6965C27.8047 39.6469 27.6671 39.5698 27.5515 39.4652C27.4578 39.3882 27.3863 39.2945 27.3367 39.1789C27.3037 39.0743 27.3037 38.9587 27.3367 38.8541C27.3587 38.7054 27.4358 38.5733 27.5515 38.4852C27.7221 38.3695 27.9148 38.298 28.1186 38.2704C27.9699 38.1934 27.8323 38.0887 27.7221 37.9621C27.6451 37.863 27.612 37.7309 27.6395 37.6097C27.7001 37.3895 27.8708 37.2188 28.091 37.1582C28.3884 37.0536 28.7022 37.0261 29.016 37.0811C29.3244 37.1087 29.6217 37.2188 29.875 37.395C30.0512 37.5051 30.1448 37.7143 30.1117 37.9236C30.0787 38.0557 29.9961 38.1713 29.8805 38.2539C29.7263 38.364 29.5446 38.4356 29.3574 38.4576C29.5391 38.5402 29.7043 38.6559 29.8474 38.799C29.9466 38.9146 29.9851 39.0743 29.9521 39.223C29.886 39.4652 29.6988 39.6579 29.4565 39.735C29.1372 39.8562 28.7903 39.8892 28.4544 39.8286M33.6135 38.1934C33.619 38.0447 33.5915 37.8905 33.5364 37.7529C33.4924 37.6483 33.4263 37.5547 33.3327 37.4831C33.2611 37.428 33.1786 37.3895 33.0905 37.362C33.0024 37.3509 32.9143 37.3509 32.8317 37.362C32.6445 37.3509 32.4573 37.406 32.3031 37.5216C32.171 37.6317 32.0939 37.8024 32.1049 37.9786C32.0994 38.0777 32.1214 38.1768 32.171 38.2649C32.2205 38.3475 32.2976 38.4136 32.3857 38.4521C32.4573 38.4907 32.5344 38.5127 32.6169 38.5237C32.8317 38.5347 33.0519 38.5237 33.2611 38.4742C33.3823 38.4521 33.4979 38.4191 33.608 38.3695C33.608 38.3475 33.608 38.32 33.608 38.298C33.608 38.2649 33.608 38.2319 33.608 38.1934M31.5433 37.9621C31.5433 37.83 31.5818 37.6978 31.6479 37.5822C31.7195 37.4666 31.8131 37.3675 31.9232 37.2904C32.0498 37.2078 32.1875 37.1417 32.3306 37.1032C32.4903 37.0646 32.6555 37.0426 32.8207 37.0426C32.9914 37.0426 33.162 37.0646 33.3272 37.1087C33.4649 37.1472 33.597 37.2078 33.7126 37.2904C33.8503 37.384 33.9659 37.5161 34.0375 37.6703C34.1201 37.863 34.1641 38.0667 34.1586 38.2759C34.1586 38.4907 34.1201 38.7054 34.0485 38.9091C33.9769 39.0963 33.8613 39.267 33.7181 39.4047C33.553 39.5478 33.3658 39.6524 33.1565 39.7185C32.9033 39.7956 32.6335 39.8341 32.3692 39.8286H31.9122V39.4818C31.9783 39.5093 32.0498 39.5258 32.1269 39.5368H32.4132C32.7106 39.5533 33.0024 39.4707 33.2501 39.3001C33.4539 39.1404 33.5805 38.8981 33.5915 38.6393C33.4594 38.6999 33.3217 38.7495 33.1841 38.7825C33.0464 38.8155 32.9033 38.832 32.7601 38.832C32.6225 38.8431 32.4848 38.8431 32.3527 38.832C32.226 38.81 32.1049 38.766 31.9893 38.7054C31.8571 38.6448 31.7415 38.5512 31.6589 38.4301C31.5873 38.3035 31.5488 38.1658 31.5488 38.0227M37.3961 35.7322L37.2915 38.4907L36.8731 38.7605V36.1506L35.2929 36.938L35.1497 36.6297L37.1759 35.5725L37.3906 35.7267L37.3961 35.7322Z" fill="white"/>
<path fill-rule="evenodd" clip-rule="evenodd" d="M38.3047 13.3463C37.9743 13.1866 38.2 13.126 38.2276 12.8232C38.2551 12.5204 38.0679 12.2561 38.123 12.0744C38.2661 11.5788 38.9103 11.7661 39.2517 12.0193C39.3288 12.1019 39.3838 12.201 39.4169 12.3111C39.538 12.614 39.6536 13.0379 39.3067 13.2582C39.0039 13.4399 38.635 13.4729 38.3047 13.3463Z" fill="white"/>
<path fill-rule="evenodd" clip-rule="evenodd" d="M34.5441 11.8693C34.5441 11.8362 34.5441 11.8032 34.5441 11.7647C34.9516 11.649 35.3535 11.5059 35.7444 11.3407C36.0803 11.2306 36.3611 10.9938 36.5318 10.6855C35.8215 10.8617 35.0947 10.9498 34.3624 10.9553C34.1202 10.7956 33.8944 10.6194 33.6852 10.4212C33.3824 10.0963 33.4264 9.78251 33.8614 9.74947C34.5166 10.0743 35.7004 9.83757 36.4106 9.74947C36.6804 9.73295 36.9502 9.67239 37.198 9.56777C37.5118 8.68682 37.7761 7.79485 37.9853 6.88636C38.3653 6.30824 38.6571 6.8313 38.9709 7.24976C38.9709 7.30482 39.059 7.3819 39.1141 7.52506C39.2187 7.83339 39.2352 7.96003 38.9159 8.14723C38.6295 8.54917 38.4313 9.00617 38.3377 9.49069C38.8278 9.54024 39.2187 9.18786 39.7748 9.32001C39.8739 9.57879 39.7418 9.8706 39.483 9.97522C39.026 10.0798 38.5525 10.1404 38.0404 10.234C37.8257 10.7185 37.4953 11.148 37.0879 11.4894C36.9557 11.5775 36.8126 11.6545 36.6694 11.7206C36.3501 11.8417 36.0142 11.9298 35.6728 11.9739C35.2984 12.0234 34.9185 12.0234 34.5441 11.9739" fill="white"/>
<path fill-rule="evenodd" clip-rule="evenodd" d="M23.6092 15.0555C23.1963 14.9839 22.8108 14.8132 22.475 14.5654C22.4695 14.4608 22.4695 14.3617 22.475 14.2571C23.0641 13.3761 23.5872 12.4566 24.0552 11.5041C24.1433 11.0857 24.2865 10.6232 24.3966 10.2047C24.5397 9.96794 24.6113 9.89086 24.8756 10.0781C24.9802 10.2928 24.6774 10.6782 24.6388 10.9315C24.6498 11.394 24.6278 11.8565 24.5783 12.3135C24.5232 12.5172 24.4792 12.7209 24.4516 12.9302C24.292 13.277 24.1984 13.6459 24.1763 14.0258C23.9781 14.2681 24.0497 14.7526 23.8074 15.0279L23.6257 15.1215" fill="white"/>
<path fill-rule="evenodd" clip-rule="evenodd" d="M27.2267 10.4332C26.7311 10.6039 26.4393 10.3451 26.0924 10.1744C26.0319 10.0478 26.0924 9.93769 26.0924 9.84408C26.1585 9.81105 26.2191 9.76149 26.2576 9.69542C26.4558 9.5853 26.5329 9.56878 26.7477 9.46417C26.9624 9.35956 27.535 8.51164 27.8599 8.62726C28.036 9.29349 27.8048 9.99825 27.2707 10.4332" fill="white"/>
<path fill-rule="evenodd" clip-rule="evenodd" d="M23.1027 10.9763C22.8494 10.8827 22.519 10.1889 22.4089 9.91363C22.4089 9.44012 22.8053 9.25291 23.2623 9.38506C23.6863 9.64384 23.9506 9.72643 23.8239 10.277C23.6808 10.5909 23.422 10.8386 23.1082 10.9763" fill="white"/>
<path fill-rule="evenodd" clip-rule="evenodd" d="M26.5825 9.18517C26.4393 8.97043 26.5825 8.39781 26.4228 8.27668C26.3127 8.33725 26.2081 8.43636 26.0924 8.49142C25.7346 8.49142 25.3051 8.23263 25.3051 7.90778C25.3051 7.58293 25.3601 7.67102 25.6905 7.51135L26.4779 6.71849C26.9844 6.40465 27.3533 6.59736 27.5956 7.12593C27.6066 7.50585 27.535 7.88576 27.3918 8.23814C27.1606 8.50793 26.9734 8.78874 26.7752 9.02549C26.7036 9.06404 26.6375 9.10808 26.5715 9.15213" fill="white"/>
<path fill-rule="evenodd" clip-rule="evenodd" d="M22.9706 8.80942C22.8219 8.75436 22.8219 8.68278 22.866 8.52311C22.7559 8.30287 22.5522 8.17623 22.453 7.9615C22.365 7.52652 22.2328 7.41641 22.453 7.09155C22.7614 7.09155 23.835 7.21268 23.813 7.79632C23.6478 8.21477 23.3395 8.56715 22.9376 8.77638" fill="white"/>
<path fill-rule="evenodd" clip-rule="evenodd" d="M17.4701 23.5596C17.0021 23.8845 15.8899 23.6698 16.033 23.009C15.9615 22.932 15.9284 22.8273 15.956 22.7227C15.7688 22.0345 15.532 21.3573 15.2567 20.6965C15.1466 20.4928 15.0144 20.3276 15.097 20.0964C15.2567 20.0578 15.4219 20.2285 15.554 20.3552C15.6146 20.3552 15.6972 20.168 15.7247 20.0523C15.6752 19.5953 15.7247 19.0558 15.6476 18.5877C15.5265 18.4831 15.4109 18.384 15.3007 18.2739C15.2071 18.5107 14.9043 19.2925 14.64 18.8741C14.7446 18.4886 14.7226 18.0757 14.585 17.6958C14.3482 17.4535 14.0234 17.2773 13.9243 17.002C13.9628 16.6166 14.5574 16.5285 14.8933 16.6772C15.1686 16.6772 15.1686 16.1816 15.4769 17.0461C15.4769 17.1782 15.6201 17.2773 15.7798 17.3489L15.8513 17.2608C15.8293 16.8754 15.8293 16.49 15.8513 16.099C15.5155 15.8017 15.2292 15.4438 15.0144 15.0474C15.0144 14.6455 15.4714 14.4087 15.8679 14.26C15.9835 14.0508 16.022 13.8141 15.989 13.5828C16.0165 13.5002 16.0606 13.4231 16.1156 13.3516C16.2588 13.3736 16.3964 13.4286 16.5176 13.5112C16.8314 13.9132 16.1707 15.1575 16.7929 15.2621C16.914 15.0474 16.7433 14.8272 16.6497 14.6565C16.6497 14.3481 17.1563 13.9627 17.4921 13.8691C17.9877 13.8196 17.9601 14.1059 17.9656 14.5298L18.0372 14.7005C18.4593 15.0052 18.9622 15.3557 19.5459 15.7522C19.6945 15.9724 19.7991 16.2202 19.8487 16.479C19.9698 16.7212 19.9753 17.1342 19.6725 17.1672C18.9567 16.6882 18.2464 16.1321 17.5417 15.6861C17.5417 15.7026 17.5417 15.7191 17.5417 15.7356C17.9381 16.1596 18.1969 16.6992 18.285 17.2718C18.1253 17.5471 17.8005 17.6793 17.4976 17.5967C17.4646 17.5251 17.4536 17.448 17.4591 17.3654C17.1453 16.98 16.7598 16.6607 16.3249 16.4184C16.1982 16.6607 16.446 17.3874 16.5231 17.6903V18.2133C16.7378 18.4721 16.947 18.7199 17.1838 19.0007L17.4536 19.4522V19.4907C17.5582 19.711 17.7839 20.3662 17.36 20.3717C17.3159 20.3497 17.2774 20.3221 17.2389 20.2946C17.1012 19.9367 16.87 19.6229 16.5671 19.3861C16.4625 19.7165 16.5671 20.0744 16.4185 20.3552C16.2918 20.4818 16.1542 20.5919 16 20.6855C15.9174 20.6855 15.8348 20.7296 15.7963 20.8067C15.9174 20.9553 16.0385 21.1205 16.1652 21.2692C16.5671 21.9519 17.0241 22.5961 17.5307 23.1962C17.5747 23.3064 17.5747 23.433 17.5307 23.5431" fill="white"/>
<path fill-rule="evenodd" clip-rule="evenodd" d="M14.4308 20.6792C14.2435 20.6792 14.1555 20.4644 14.0123 20.3653C13.5168 20.2222 13.1424 20.1231 12.9772 19.633L13.0488 19.5009C13.4011 19.3963 13.77 19.3412 14.1389 19.3247C14.7611 19.4679 14.5464 20.2387 14.4528 20.6847" fill="white"/>
<path fill-rule="evenodd" clip-rule="evenodd" d="M13.1314 19.2214C13.0212 19.2985 13.0047 19.2765 12.9497 19.2765C12.8946 19.2765 12.8616 19.0727 12.7459 19.0232C12.2008 19.0232 11.6337 18.5992 11.7273 18.0376C11.8319 17.9165 11.9421 17.9881 12.1458 18.0376C12.6138 17.944 13.3075 17.6577 13.3296 18.401C13.28 18.6653 13.2139 18.9296 13.1314 19.1884" fill="white"/>
<path d="M41.5091 19.9259H36.0637C34.4835 19.9259 33.6962 21.5061 33.0575 22.8826L32.1435 20.8234L33.6797 20.2563C32.7822 19.4028 29.9686 18.9293 29.5997 20.2177L28.939 22.8826C28.4159 21.6823 27.6781 19.9259 26.0098 19.9259H20.4873C21.2031 21.1978 21.8914 21.6548 24.4296 21.5447L24.76 22.4201H21.9739C22.7613 23.9343 23.2734 23.9948 25.5143 23.9343L25.9878 24.9859L23.7964 25.063C24.2699 26.1366 24.7655 26.5936 26.643 26.5055L27.0119 27.4581H25.2665C25.9217 28.5372 26.2466 29.0383 27.6341 28.9117L28.003 29.9192H26.7862C27.056 30.7231 27.8103 31.2627 28.6582 31.2517C29.3189 31.3563 29.4456 32.6007 28.6582 33.0026L31.0258 36.8072L33.3933 33.0026C32.606 32.6007 32.7161 31.3563 33.3933 31.2517C34.2413 31.2627 34.9956 30.7231 35.2654 29.9192H33.9715L34.3404 28.9117C35.7224 29.0328 36.0472 28.5428 36.7079 27.4581H34.9625L35.3314 26.5331C37.209 26.6212 37.699 26.1532 38.1725 25.0905L35.9867 25.0134L36.4602 23.9618C38.7011 24.0223 39.1746 23.9618 40.0005 22.4476H37.209L37.5504 21.5722C40.0886 21.6823 40.7769 21.2253 41.4981 19.9534" fill="white"/>
<path d="M49.8012 17.3187V17.2692C49.8783 17.0709 49.8728 16.9939 49.8563 16.9608C49.7847 16.9058 49.7021 16.8672 49.614 16.8507H49.4158V16.7956C49.3882 16.7681 49.3607 16.7406 49.3277 16.7186L49.2231 16.68L49.3552 16.5754C49.4378 16.5038 49.5369 16.4488 49.6415 16.4102H49.6966C49.8893 16.2395 50.0159 15.9973 50.0379 15.7385C49.9609 15.6504 49.8452 15.6064 49.7296 15.6174C49.5149 15.6394 49.3001 15.6889 49.0964 15.7605C48.9588 15.8101 48.8156 15.8486 48.6725 15.8817H48.6229C48.276 15.7165 48.2595 15.7055 47.5327 15.3311C47.4777 15.3641 47.4336 15.4136 47.4116 15.4742C47.362 15.5843 47.362 15.7055 47.4116 15.8156L47.4777 15.8651L47.307 15.9587H47.2684L47.2189 16.0083C47.2134 16.0413 47.2134 16.0744 47.2189 16.1019V16.179C47.2189 16.2395 47.1914 16.2946 47.1473 16.3386V16.4267L47.0427 16.3497C46.9546 16.2836 46.872 16.2065 46.7894 16.1294H46.7013C46.6353 16.1294 46.5747 16.1514 46.5306 16.201V16.4157C46.5306 16.5203 46.4205 16.691 46.0957 16.702H45.9305C45.8919 16.691 45.8534 16.691 45.8094 16.702C45.8094 16.9223 45.903 16.9388 46.1397 16.9773C46.2388 16.9884 46.3434 17.0049 46.437 17.0324H46.5086C46.5582 17.0324 46.6022 17.0544 46.6408 17.082L46.8114 17.1425H46.8665L46.6518 17.2471C46.5747 17.2857 46.4976 17.3352 46.437 17.3958C46.4205 17.4619 46.3875 17.5279 46.3434 17.5775V17.627H46.2553L45.7873 17.5059L45.5451 17.4453C45.1211 17.3352 44.5925 17.1921 44.0915 17.115C43.9814 17.0709 43.8657 17.0434 43.7446 17.0269H43.5079V17.0985C43.5905 17.1645 43.6785 17.2196 43.7666 17.2747V17.3132C43.8437 17.5334 43.9979 17.7151 44.2016 17.8253L44.7687 17.9023C45.3964 17.9189 46.0076 18.0951 46.5417 18.4254L46.6683 18.497H46.7068L46.5196 18.5906C46.4646 18.6181 46.4205 18.6512 46.3765 18.6952H46.3104C46.0406 18.6512 45.7818 18.5851 45.523 18.497C45.3138 18.2712 44.9614 18.2547 44.7247 18.4584H44.6311C44.5485 18.4309 44.4659 18.4144 44.3778 18.4089L43.8547 18.2327C43.3317 18.084 42.8251 17.8693 42.3571 17.594C42.247 17.5059 42.1534 17.4013 42.0653 17.2912C42.0653 17.2912 42.0268 17.2416 42.0102 17.2416V17.1866C41.9442 17.2306 41.8836 17.2857 41.8285 17.3462C41.7955 17.7867 41.9442 18.2217 42.236 18.5521C42.4067 18.6181 42.5884 18.6677 42.7701 18.6952C43.1169 18.7337 43.4473 18.8659 43.7226 19.0751H43.8107L43.7336 19.1852C43.6235 19.3229 43.5024 19.444 43.3702 19.5541L43.2986 19.5762C43.2601 19.6037 43.2216 19.6422 43.1885 19.6808H42.9903C42.7756 19.6643 42.5663 19.5927 42.3846 19.4771C42.3241 19.4385 42.2635 19.411 42.1974 19.389V19.455C42.4617 19.901 42.8031 20.2919 43.205 20.6113V20.6663C43.2546 20.6939 43.3096 20.7104 43.3702 20.7159C43.6841 20.7159 44.0254 20.2754 44.2787 19.9285L44.4384 19.7303H44.5044C44.7412 19.5486 44.7577 19.5431 44.7467 19.5321L44.8788 19.5817C45.0605 19.6367 45.2312 19.7193 45.3909 19.8239C45.5781 19.7358 45.7763 19.5486 45.7543 19.3449L45.6662 19.2403L45.3193 18.932H45.2643V18.8273C45.3083 18.7393 45.3689 18.6567 45.446 18.5906H45.523C45.8644 18.6677 46.1617 18.7668 46.5306 18.8769L46.8555 18.987L46.9326 19.0421C47.0757 19.1797 47.2629 19.2623 47.4612 19.2788C47.4997 19.2843 47.5382 19.2843 47.5823 19.2788C47.742 19.1357 47.8741 18.965 47.9787 18.7723C47.9126 18.6787 47.8851 18.6512 47.8741 18.6512L47.9292 18.5796C47.9567 18.552 47.9897 18.5245 48.0228 18.508C48.5734 18.3318 49.168 18.1116 49.603 17.9629C49.8728 17.7977 49.8948 17.7812 49.8012 17.539C49.7847 17.4839 49.7626 17.4343 49.7351 17.3793M47.6043 17.7041L47.6924 17.627C47.8135 17.5169 47.8631 17.4619 47.8796 17.4068C47.8961 17.3517 47.8796 17.3573 47.7915 17.3187H47.7034C47.6318 17.3187 47.5603 17.2912 47.5162 17.2306V17.0434L47.6373 17.0049C47.797 16.9663 47.9567 16.9058 48.1054 16.8287V16.7736L48.1824 16.8452C48.3917 17.0104 48.5348 17.2361 48.5899 17.4894V17.539C48.3862 17.7592 48.0998 17.8748 47.8025 17.8528H47.7309V17.7317H47.6759L47.6043 17.6986V17.7041Z" fill="white"/>
<path d="M45.3413 16.6825C45.2201 16.6825 45.099 16.6439 44.9999 16.5723C44.9834 16.297 45.0825 16.0328 45.2697 15.829C45.3192 15.7575 45.3578 15.7079 45.3908 15.6528V15.5978L45.4404 15.5097C45.5009 15.3941 45.5505 15.2784 45.6 15.1628C45.6221 15.1022 45.6386 15.0417 45.6551 14.9811C45.7432 14.6397 45.8038 14.4305 45.98 14.3755C46.1561 14.3204 46.1782 14.414 46.2112 14.4636C46.2442 14.5131 46.2112 14.5847 46.2112 14.7058V14.7554C46.2222 14.8104 46.2222 14.8655 46.2112 14.9205C46.2387 15.1188 46.2387 15.317 46.2112 15.5097V15.6198C46.2002 15.6859 46.1782 15.7519 46.1561 15.818C46.1011 16.0658 45.9855 16.3025 45.8148 16.4953L45.7377 16.5558H45.6881C45.578 16.6329 45.4514 16.6714 45.3192 16.677H45.3523L45.3413 16.6825Z" fill="white"/>
<path d="M45.3468 16.669C45.4734 16.6635 45.6 16.6195 45.7102 16.5479H45.7597L45.8368 16.4873C46.002 16.2946 46.1176 16.0634 46.1671 15.8156C46.1947 15.755 46.2112 15.689 46.2222 15.6174V15.5403C46.2552 15.3421 46.2552 15.1439 46.2222 14.9512V14.7805V14.7309C46.2442 14.6538 46.2442 14.5713 46.2222 14.4942C46.2222 14.4446 46.1286 14.4336 46.002 14.4061C45.8753 14.3785 45.7707 14.6759 45.6936 14.9897C45.6991 15.0613 45.6826 15.1329 45.6386 15.1934C45.578 15.3035 45.523 15.4137 45.4734 15.5348L45.4238 15.6284V15.6835C45.3908 15.744 45.3523 15.7991 45.3137 15.8596C45.1706 16.0634 44.9724 16.3387 45.0384 16.5864C45.132 16.658 45.2477 16.6966 45.3688 16.6966" fill="white"/>
<path d="M44.1189 16.4126C44.0198 16.3961 43.9262 16.3576 43.8436 16.2915C43.6619 15.873 44.3171 15.4105 44.3942 15.3555C44.4933 15.3775 44.5704 15.4491 44.5979 15.5427C44.664 15.7739 44.62 16.0272 44.4768 16.2199C44.2731 16.352 44.196 16.4071 44.1134 16.4071L44.1189 16.4126Z" fill="white"/>
<path d="M44.119 16.3612C44.1905 16.3612 44.2786 16.3061 44.4658 16.174C44.609 15.9813 44.653 15.7335 44.5925 15.5023C44.5594 15.4142 44.4934 15.3481 44.4053 15.3206C44.3282 15.3756 43.6785 15.8436 43.8547 16.2456C43.9317 16.3061 44.0253 16.3502 44.1245 16.3667" fill="white"/>
</g>
</svg>
