<svg width="32" height="32" viewBox="0 0 32 32" fill="none" xmlns="http://www.w3.org/2000/svg">
<mask id="mask0_390_2900" style="mask-type:alpha" maskUnits="userSpaceOnUse" x="0" y="0" width="32" height="32">
<rect width="32" height="32" fill="#D9D9D9"/>
</mask>
<g mask="url(#mask0_390_2900)">
<ellipse cx="21.3225" cy="21.451" rx="8.70968" ry="5.80645" fill="white" fill-opacity="0.2"/>
<path d="M21.6466 14.4653V14.4633C20.9813 14.4633 20.3323 14.5015 19.7068 14.5747V10.162C19.7068 7.31164 15.5189 5.00206 10.3534 5.00206V5C5.18688 5 1 7.30958 1 10.1599V20.4818L1.00408 20.6366C1.14898 23.4157 5.27872 25.6438 10.3534 25.6438C11.3779 25.6438 12.3647 25.553 13.2872 25.3837C14.826 27.07 17.9914 28.2258 21.6466 28.2258C26.8121 28.2258 31 25.9152 31 23.0659V19.6253C31 16.7749 26.8121 14.4653 21.6466 14.4653ZM10.3534 6.72135C14.7035 6.72135 18.0067 8.5428 18.0067 10.162C18.0067 10.292 17.9853 10.4231 17.9434 10.5552C17.8026 11.003 17.4281 11.454 16.8669 11.8668C16.4597 12.1651 15.9536 12.4447 15.3668 12.6872C14.0413 13.2363 12.3014 13.6026 10.3534 13.6026C8.40535 13.6026 6.66142 13.2352 5.33586 12.6862C4.75013 12.4427 4.24603 12.1651 3.83989 11.8668C3.27763 11.453 2.90313 11.002 2.76231 10.5531C2.72149 10.422 2.70006 10.291 2.70006 10.162C2.70006 8.5428 6.00221 6.72135 10.3534 6.72135ZM2.70006 13.1289C2.72149 13.1454 2.7419 13.162 2.76333 13.1764C2.95619 13.325 3.16232 13.4674 3.38171 13.6016C3.95418 13.9545 4.61237 14.2641 5.33994 14.518C6.78897 15.0278 8.50944 15.3219 10.3534 15.3219C12.1973 15.3219 13.9178 15.0278 15.3668 14.518C16.0934 14.2631 16.7516 13.9545 17.323 13.6016C17.5424 13.4664 17.7495 13.324 17.9424 13.1754C17.9638 13.1599 17.9853 13.1434 18.0067 13.1269V13.6005L18.0047 13.647L18.0026 13.7027C17.9934 13.808 17.971 13.9143 17.9353 14.0206C17.8118 14.389 17.5322 14.7584 17.1199 15.1072C15.9485 15.4643 14.9311 15.9576 14.1362 16.5469C13.032 16.8544 11.7463 17.0412 10.3534 17.0412C7.55839 17.0412 5.19504 16.2889 3.86336 15.3219C3.29906 14.9122 2.92047 14.4643 2.77149 14.0185C2.72455 13.8781 2.70006 13.7388 2.70006 13.6005V13.1289ZM2.70006 16.5376C2.72659 16.5582 2.75312 16.5788 2.78067 16.5985C4.47971 17.8905 7.24001 18.7305 10.3534 18.7305C11.084 18.7305 11.7953 18.6841 12.4779 18.5964C12.3565 18.9287 12.2932 19.2713 12.2932 19.6232V20.36C12.2932 20.36 12.2861 20.3611 12.282 20.3611C12.2208 20.3693 12.1596 20.3765 12.0973 20.3838C11.9126 20.4054 11.7238 20.424 11.532 20.4385C11.4044 20.4488 11.2759 20.457 11.1452 20.4632C10.885 20.4766 10.6218 20.4839 10.3534 20.4839C6.00221 20.4839 2.70006 18.6614 2.70006 17.0432V16.5376ZM10.3534 23.9224C6.00221 23.9224 2.70006 22.1 2.70006 20.4818V20.0102C4.39195 21.3363 7.19001 22.2032 10.3534 22.2032C11.0187 22.2032 11.6677 22.165 12.2932 22.0917V23.0638L12.2973 23.2186C12.3075 23.4106 12.3361 23.6005 12.3841 23.7862C11.7422 23.8739 11.0616 23.9224 10.3534 23.9224ZM29.2999 23.0638L29.2959 23.166C29.1622 24.7583 25.908 26.5045 21.6466 26.5045C18.9343 26.5045 16.6291 25.7965 15.278 24.8708C14.6331 24.4291 14.2056 23.9379 14.0545 23.4508C14.0137 23.3208 13.9933 23.1918 13.9933 23.0638V22.5922C14.2637 22.8048 14.5637 23.005 14.8882 23.1918C15.5097 23.5499 16.224 23.8595 17.0097 24.1072C18.3771 24.5385 19.9598 24.7852 21.6466 24.7852C24.811 24.7852 27.608 23.9183 29.2999 22.5901V23.0638ZM21.6466 23.0659C20.6037 23.0659 19.6221 22.9617 18.7312 22.78C18.0312 22.6376 17.3873 22.4477 16.8148 22.2238C16.2189 21.9906 15.6995 21.7212 15.276 21.4302C14.6321 20.9895 14.2056 20.4994 14.0545 20.0123C14.0137 19.8822 13.9933 19.7532 13.9933 19.6253C13.9933 19.1041 14.3341 18.5634 14.9423 18.068C15.6046 17.5283 16.5852 17.0432 17.7853 16.7006C17.8332 16.6666 17.8791 16.6325 17.9251 16.5974C17.9526 16.5778 17.9802 16.5572 18.0067 16.5355V16.6397C18.5363 16.4994 19.1057 16.3869 19.7068 16.3085C20.3221 16.228 20.9721 16.1846 21.6466 16.1846C25.9968 16.1846 29.2999 18.0061 29.2999 19.6253C29.2999 21.2444 25.9968 23.0659 21.6466 23.0659Z" fill="#C0EE02"/>
</g>
</svg>
