<svg width="32" height="32" viewBox="0 0 32 32" fill="none" xmlns="http://www.w3.org/2000/svg">
<mask id="mask0_390_2910" style="mask-type:alpha" maskUnits="userSpaceOnUse" x="0" y="0" width="32" height="32">
<rect width="32" height="32" fill="#D9D9D9"/>
</mask>
<g mask="url(#mask0_390_2910)">
<path d="M14.2135 16.7022C10.4358 16.7022 7.36182 13.6287 7.36182 9.85079C7.36182 6.07347 10.4358 3 14.2135 3C17.9913 3 21.064 6.07347 21.064 9.85079C21.064 13.6287 17.9913 16.7022 14.2135 16.7022ZM14.2135 4.88343C11.4743 4.88343 9.24516 7.11206 9.24516 9.85079C9.24516 12.5901 11.4743 14.8187 14.2135 14.8187C16.9527 14.8187 19.1807 12.5901 19.1807 9.85079C19.1807 7.11206 16.9527 4.88343 14.2135 4.88343Z" fill="#C0EE02"/>
<path d="M2.9515 28.0205C2.42619 28.0205 2 27.6007 2 27.0832C2 20.3729 7.54179 14.9141 14.3548 14.9141C17.3691 14.9141 20.272 15.996 22.5293 17.9602C22.9233 18.3025 22.9605 18.895 22.6136 19.2831C22.2642 19.6718 21.6633 19.7059 21.2706 19.3648C19.3601 17.7033 16.9045 16.7886 14.3548 16.7886C8.59118 16.7886 3.903 21.4066 3.903 27.0832C3.90303 27.6007 3.47681 28.0205 2.9515 28.0205Z" fill="#C0EE02"/>
<path d="M15.4151 22.9305C15.4151 22.4751 15.5259 22.1687 15.7475 22.0115C15.9691 21.8542 16.3177 21.7756 16.7933 21.7756C17.0095 21.7756 17.35 21.7783 17.8148 21.7837C18.2796 21.7892 18.7742 21.7919 19.2985 21.7919C19.8227 21.7919 20.3335 21.7946 20.8307 21.8C21.328 21.8054 21.7225 21.8081 22.0144 21.8081C22.4251 21.819 22.7494 21.7837 22.9872 21.7024C23.225 21.6211 23.3439 21.434 23.3439 21.1412C23.3439 20.9243 23.3521 20.6667 23.3683 20.3685C23.3845 20.0703 23.3926 19.8127 23.3926 19.5958C23.4034 19.2163 23.5115 18.975 23.7169 18.8719C23.9223 18.7689 24.1817 18.8475 24.4952 19.1078C24.8195 19.3681 25.1978 19.6772 25.6302 20.035C26.0626 20.3929 26.5112 20.7589 26.976 21.1331C27.4408 21.5072 27.8948 21.8759 28.338 22.2392C28.7812 22.6025 29.1757 22.9197 29.5216 23.1908C29.8351 23.4511 29.9946 23.6978 30 23.931C30.0054 24.1641 29.8567 24.4054 29.5541 24.6548C29.2406 24.9151 28.8704 25.2133 28.4434 25.5495C28.0164 25.8857 27.5732 26.2327 27.1138 26.5906C26.6544 26.9485 26.2031 27.3036 25.7599 27.6561C25.3167 28.0085 24.9221 28.3203 24.5762 28.5914C24.1979 28.8951 23.8871 29.009 23.6439 28.9331C23.4007 28.8571 23.2845 28.624 23.2953 28.2336V27.8432V27.3714C23.2953 27.2088 23.2926 27.0488 23.2872 26.8916C23.2818 26.7343 23.2791 26.5906 23.2791 26.4605C23.2791 26.1894 23.198 26.0186 23.0359 25.9481C22.8737 25.8776 22.6521 25.8423 22.3711 25.8423C22.0576 25.8423 21.6468 25.8396 21.1388 25.8342C20.6307 25.8288 20.1011 25.8261 19.5498 25.8261C18.9985 25.8261 18.4634 25.8234 17.9446 25.8179C17.4257 25.8125 17.0041 25.8098 16.6798 25.8098C16.5393 25.8098 16.3934 25.7962 16.242 25.7691C16.0907 25.742 15.9529 25.6905 15.8286 25.6146C15.7043 25.5387 15.6043 25.4275 15.5286 25.2811C15.4529 25.1347 15.4151 24.9368 15.4151 24.6874C15.4151 24.3946 15.4124 24.1126 15.407 23.8415C15.4016 23.5704 15.4043 23.2667 15.4151 22.9305Z" fill="white" fill-opacity="0.2" stroke="#C0EE02" stroke-width="2"/>
</g>
</svg>
