<svg width="32" height="32" viewBox="0 0 32 32" fill="none" xmlns="http://www.w3.org/2000/svg">
<mask id="mask0_390_2890" style="mask-type:alpha" maskUnits="userSpaceOnUse" x="0" y="0" width="32" height="32">
<rect width="32" height="32" fill="#D9D9D9"/>
</mask>
<g mask="url(#mask0_390_2890)">
<rect x="4" y="12" width="24" height="16" fill="white" fill-opacity="0.2"/>
<path d="M25.9205 6.30324H24.1002V3.9686C24.1002 3.43452 23.6646 3 23.1293 3H23.0644C22.5291 3 22.0937 3.43448 22.0937 3.9686V6.30324H9.99711V3.9686C9.99711 3.43452 9.56159 3 9.0262 3H8.96134C8.42598 3 7.99043 3.43448 7.99043 3.9686V6.30324H6.07937C4.38139 6.30324 3 7.68135 3 9.37529L3 25.9277C3 27.6218 4.38139 29 6.07937 29H25.9204C27.6185 29 29 27.6218 29 25.9277V9.37533C29 7.68139 27.6184 6.30324 25.9205 6.30324ZM27.0582 26.9938H4.97634V13.2752H27.0582V26.9938ZM27.0582 11.2347H4.97634V8.2404H27.0582V11.2347ZM13.3722 25.1829C13.5451 25.3554 13.7716 25.4416 13.9982 25.4416C14.1517 25.4416 14.3047 25.4011 14.4414 25.322C14.52 25.2813 14.5938 25.2283 14.6597 25.1625L23.62 16.2237C23.9657 15.8787 23.9657 15.3195 23.62 14.9745C23.2742 14.6296 22.7136 14.6296 22.3678 14.9745L14.0058 23.3167L9.77236 19.0933C9.42657 18.7484 8.86601 18.7484 8.52022 19.0933C8.17447 19.4383 8.17447 19.9975 8.52022 20.3425L13.3722 25.1829Z" fill="#C0EE02"/>
</g>
</svg>
