<svg width="176" height="36" viewBox="0 0 176 36" fill="none" xmlns="http://www.w3.org/2000/svg">
<mask id="mask0_390_2663" style="mask-type:alpha" maskUnits="userSpaceOnUse" x="0" y="0" width="176" height="36">
<rect width="176" height="36" fill="#D9D9D9"/>
</mask>
<g mask="url(#mask0_390_2663)">
<path d="M22.5982 6.65798C19.7395 3.09645 16.8661 0.844113 16.745 0.7526C15.4991 -0.218557 13.7376 -0.267115 12.4239 0.707777C12.2991 0.79929 9.32295 3.02922 6.35414 6.51791C2.14129 11.4633 0 16.4032 0 21.2011C0 29.342 6.3156 36 14.3358 36C22.356 36 28.6624 29.5792 28.6624 21.6549C28.6624 16.7169 26.6202 11.6725 22.5982 6.66359V6.65985V6.65798ZM14.3358 32.332C8.29726 32.332 3.60367 27.2932 3.60367 21.2011C3.60367 11.8294 14.5523 3.66794 14.5523 3.66794C14.5523 3.66794 18.6092 6.82047 21.6808 11.5661C17.367 9.75448 12.6661 10.5109 9.35231 13.5756C6.44955 16.2538 5.36331 20.1851 6.54863 23.8232C9.33029 32.3376 21.5945 30.5111 22.1487 22.6578C22.4294 18.6555 19.0808 16.7954 16.0441 17.5125C12.6129 18.3268 11.6624 21.9855 14.6074 23.2031C14.6202 20.0674 18.622 19.9217 18.622 22.6485C18.622 24.531 16.6844 25.6777 15.0019 25.8589C9.94864 26.4005 7.75964 19.9965 11.7743 16.2799C16.3908 12.0236 24.6954 14.7578 25.0551 21.7557C25.3413 27.3231 20.3009 32.332 14.3303 32.332H14.334H14.3358Z" fill="white"/>
<path fill-rule="evenodd" clip-rule="evenodd" d="M63.1422 27.1084V26.6424H63.1404C63.1404 25.3763 62.125 24.351 60.8711 24.351H56.1111L62.9994 13.3813L63.1509 13.1509C63.8179 12.1344 63.0969 10.7769 61.8882 10.7769H53.9428C52.9326 10.7769 52.1123 11.6051 52.1123 12.6251V13.5325C52.1123 13.7541 52.2899 13.9317 52.5076 13.9317H58.8351L51.9468 24.8768C51.1805 25.9847 51.9643 27.5059 53.3036 27.5059H62.7486C62.9663 27.5059 63.1422 27.3282 63.1422 27.1084ZM50.1049 26.7719V18.424C50.1049 17.0277 48.972 15.8948 47.5757 15.8948C47.3687 15.8948 47.2014 16.062 47.2014 16.2691V17.2231C46.3914 16.2111 45.1757 15.5801 43.5326 15.5801C40.5396 15.5801 38.0634 18.1672 38.0634 21.5213C38.0634 24.8754 40.5396 27.4643 43.5326 27.4643C45.1757 27.4643 46.3914 26.8349 47.2014 25.8212V26.7736C47.2014 26.9806 47.3703 27.1496 47.5773 27.1496H49.7273C49.936 27.1496 50.1049 26.9806 50.1049 26.7719ZM44.0725 18.3478C45.873 18.3478 47.2014 19.6298 47.2014 21.5213C47.2014 23.4112 45.8498 24.6949 44.0725 24.6949C42.2953 24.6949 40.9669 23.4112 40.9669 21.5213C40.9669 19.6314 42.2721 18.3478 44.0725 18.3478ZM69.9596 24.8323C70.6635 24.8323 71.278 24.6485 71.7617 24.3504C72.3199 24.0075 73.0271 24.0241 73.5953 24.3504L74.4565 24.8473C74.6537 24.9615 74.7067 25.2249 74.5642 25.4021C73.4992 26.7189 71.9074 27.4659 69.9149 27.4659C66.1335 27.4659 63.7467 24.8771 63.7467 21.523C63.7467 18.1689 66.155 15.5801 69.6896 15.5801C73.0205 15.5801 75.3841 18.2136 75.3841 21.523C75.3841 21.8311 75.3609 22.116 75.3228 22.3942C75.298 22.5781 75.139 22.7155 74.9518 22.7155H66.7861C67.1919 24.2013 68.4291 24.8307 69.9596 24.8307V24.8323ZM72.4805 20.4662C72.1211 18.8463 70.9054 18.1921 69.6896 18.1921C68.136 18.1921 67.0792 19.0252 66.7413 20.4662H72.4805ZM87.9205 27.1516V20.6173C87.9205 17.6243 86.0521 15.958 83.667 15.958C82.1581 15.958 80.9887 16.5195 80.3129 17.5332V16.6504C80.3129 16.4417 80.144 16.2727 79.9353 16.2727H79.223C78.221 16.2727 77.4094 17.0843 77.4094 18.0864V27.1482C77.4094 27.3569 77.5783 27.5259 77.787 27.5259H78.4959C79.4997 27.5259 80.3129 26.7126 80.3129 25.7089V21.4488C80.3129 19.491 81.3713 18.6579 82.7891 18.6579C84.0943 18.6579 85.0169 19.4463 85.0169 20.9767V27.1516C85.0169 27.3586 85.1842 27.5275 85.3929 27.5275H87.5445C87.7515 27.5275 87.9205 27.3586 87.9205 27.1516Z" fill="white"/>
<path d="M172.823 27.0047C172.569 27.0047 172.364 26.7993 172.364 26.5461V11.7706C172.364 11.5173 172.569 11.312 172.823 11.312H174.678C174.932 11.312 175.137 11.5173 175.137 11.7706V26.5461C175.137 26.7993 174.932 27.0047 174.678 27.0047H172.823Z" fill="white"/>
<path d="M164.717 27.3059C161.557 27.3059 159.041 24.8337 159.041 21.6307C159.041 18.4277 161.557 15.9556 164.717 15.9556C167.877 15.9556 170.413 18.4277 170.413 21.6307C170.413 24.8337 167.877 27.3059 164.717 27.3059ZM164.717 24.5973C166.372 24.5973 167.64 23.372 167.64 21.6307C167.64 19.8895 166.372 18.6642 164.717 18.6642C163.083 18.6642 161.814 19.8895 161.814 21.6307C161.814 23.372 163.083 24.5973 164.717 24.5973Z" fill="white"/>
<path d="M153.443 27.3059C150.176 27.3059 147.768 24.8337 147.768 21.6307C147.768 18.4277 150.176 15.9556 153.443 15.9556C155.385 15.9556 157.089 16.9051 158.034 18.3498C158.169 18.5557 158.091 18.8269 157.879 18.9512L156.513 19.7509C156.167 19.9533 155.727 19.8092 155.452 19.5178C154.959 18.9956 154.238 18.6857 153.422 18.6857C151.767 18.6857 150.541 19.911 150.541 21.6307C150.541 23.329 151.767 24.5543 153.422 24.5543C154.256 24.5543 154.983 24.2548 155.477 23.7363C155.751 23.4483 156.186 23.3026 156.532 23.4998L157.91 24.2872C158.127 24.4115 158.206 24.6888 158.067 24.8969C157.088 26.3572 155.384 27.3059 153.443 27.3059Z" fill="white"/>
<path d="M140.68 27.3059C137.52 27.3059 135.005 24.8337 135.005 21.6307C135.005 18.4277 137.52 15.9556 140.68 15.9556C143.84 15.9556 146.377 18.4277 146.377 21.6307C146.377 24.8337 143.84 27.3059 140.68 27.3059ZM140.68 24.5973C142.335 24.5973 143.604 23.372 143.604 21.6307C143.604 19.8895 142.335 18.6642 140.68 18.6642C139.046 18.6642 137.778 19.8895 137.778 21.6307C137.778 23.372 139.046 24.5973 140.68 24.5973Z" fill="white"/>
<path d="M133.944 16.8585C133.944 17.9983 133.02 18.9222 131.88 18.9222H131.515V23.3936C131.515 24.4303 132.184 24.5583 133.46 24.5125C133.723 24.5031 133.944 24.7109 133.944 24.9739V26.5943C133.944 26.8281 133.767 27.0254 133.534 27.0453C129.961 27.3507 128.742 26.1913 128.742 23.3936V18.9222H127.33C127.077 18.9222 126.872 18.7169 126.872 18.4636V16.7152C126.872 16.4619 127.077 16.2566 127.33 16.2566H128.742V14.2557C128.742 14.1546 128.808 14.0654 128.905 14.0362L130.924 13.4258C131.218 13.3368 131.515 13.5572 131.515 13.8648V16.2566H133.485C133.739 16.2566 133.944 16.4619 133.944 16.7152V16.8585Z" fill="white"/>
<path d="M120.379 27.3059C117.219 27.3059 114.704 24.8337 114.704 21.6307C114.704 18.4277 117.219 15.9556 120.379 15.9556C123.539 15.9556 126.076 18.4277 126.076 21.6307C126.076 24.8337 123.539 27.3059 120.379 27.3059ZM120.379 24.5973C122.035 24.5973 123.303 23.372 123.303 21.6307C123.303 19.8895 122.035 18.6642 120.379 18.6642C118.746 18.6642 117.477 19.8895 117.477 21.6307C117.477 23.372 118.746 24.5973 120.379 24.5973Z" fill="white"/>
<path d="M110.773 18.1052C111.268 16.8085 112.39 16.1885 113.582 16.0649C113.834 16.0388 114.04 16.2468 114.04 16.5001V18.6204C114.04 18.8953 113.799 19.1061 113.525 19.1115C112.199 19.1372 110.773 19.8729 110.773 21.8671V26.5463C110.773 26.7995 110.567 27.0049 110.314 27.0049H108.458C108.205 27.0049 108 26.7995 108 26.5463V16.7151C108 16.4618 108.205 16.2565 108.458 16.2565H110.314C110.567 16.2565 110.773 16.4618 110.773 16.7151V18.1052Z" fill="white"/>
<path d="M101.154 10.7769C104.373 10.7769 106.853 13.2638 106.853 16.3963C106.853 19.5289 104.373 22.0158 101.154 22.0158H98.2205V27.0571C98.2205 27.3104 98.0151 27.5157 97.7619 27.5157H95.3882C95.1349 27.5157 94.9296 27.3104 94.9296 27.0571V13.0699C94.9296 11.8035 95.9562 10.7769 97.2226 10.7769H101.154ZM101.154 18.9311C102.561 18.9311 103.586 17.8311 103.586 16.3963C103.586 14.9377 102.561 13.8616 101.154 13.8616H98.2205V18.9311H101.154Z" fill="white"/>
</g>
</svg>
