<svg width="32" height="32" viewBox="0 0 32 32" fill="none" xmlns="http://www.w3.org/2000/svg">
<mask id="mask0_390_3016" style="mask-type:alpha" maskUnits="userSpaceOnUse" x="0" y="0" width="32" height="32">
<rect width="32" height="32" fill="#D9D9D9"/>
</mask>
<g mask="url(#mask0_390_3016)">
<path d="M22.5242 29.8571H9.47934C7.55701 29.8571 6 28.2976 6 26.3754V5.4817C6 3.55955 7.55701 2 9.47934 2H22.5207C24.443 2 26 3.55955 26 5.4817V26.3754C26 28.2976 24.443 29.8571 22.5242 29.8571ZM24.2621 5.4817C24.2621 4.52063 23.4854 3.73909 22.5242 3.73909H9.47934C8.51818 3.73909 7.74144 4.52063 7.74144 5.4817V6.35125H24.2621V5.4817ZM24.2621 8.09386H7.74144V21.996H24.2621V8.09386ZM24.2621 23.7351H7.74144V26.3754C7.74144 27.3365 8.52172 28.1181 9.47934 28.1181H22.5207C23.4818 28.1181 24.2586 27.34 24.2586 26.3754V23.7351H24.2621ZM16.0018 27.245C15.2818 27.245 14.6966 26.6606 14.6966 25.9389C14.6966 25.2172 15.2818 24.6328 16.0018 24.6328C16.7218 24.6328 17.307 25.2172 17.307 25.9389C17.3034 26.6606 16.7218 27.245 16.0018 27.245Z" fill="#C0EE02"/>
</g>
</svg>
