<svg width="32" height="32" viewBox="0 0 32 32" fill="none" xmlns="http://www.w3.org/2000/svg">
<mask id="mask0_390_3032" style="mask-type:alpha" maskUnits="userSpaceOnUse" x="0" y="0" width="32" height="32">
<rect width="32" height="32" fill="#D9D9D9"/>
</mask>
<g mask="url(#mask0_390_3032)">
<path d="M15.25 13.5001C15.25 13.5986 15.2694 13.6962 15.3071 13.7872C15.3447 13.8782 15.4 13.9609 15.4696 14.0305C15.5393 14.1002 15.622 14.1554 15.713 14.1931C15.804 14.2308 15.9015 14.2502 16 14.2502C16.0985 14.2502 16.196 14.2308 16.287 14.1931C16.378 14.1554 16.4607 14.1002 16.5304 14.0305C16.6 13.9609 16.6553 13.8782 16.6929 13.7872C16.7306 13.6962 16.75 13.5986 16.75 13.5001C16.75 13.4016 16.7306 13.3041 16.6929 13.2131C16.6553 13.1221 16.6 13.0394 16.5304 12.9697C16.4607 12.9001 16.378 12.8448 16.287 12.8071C16.196 12.7694 16.0985 12.75 16 12.75C15.9015 12.75 15.804 12.7694 15.713 12.8071C15.622 12.8448 15.5393 12.9001 15.4696 12.9697C15.4 13.0394 15.3447 13.1221 15.3071 13.2131C15.2694 13.3041 15.25 13.4016 15.25 13.5001Z" fill="#C0EE02"/>
<path d="M18.25 13.5001C18.25 13.5986 18.2694 13.6962 18.3071 13.7872C18.3447 13.8782 18.4 13.9609 18.4696 14.0305C18.5393 14.1002 18.622 14.1554 18.713 14.1931C18.804 14.2308 18.9015 14.2502 19 14.2502C19.0985 14.2502 19.196 14.2308 19.287 14.1931C19.378 14.1554 19.4607 14.1002 19.5304 14.0305C19.6 13.9609 19.6553 13.8782 19.6929 13.7872C19.7306 13.6962 19.75 13.5986 19.75 13.5001C19.75 13.4016 19.7306 13.3041 19.6929 13.2131C19.6553 13.1221 19.6 13.0394 19.5304 12.9697C19.4607 12.9001 19.378 12.8448 19.287 12.8071C19.196 12.7694 19.0985 12.75 19 12.75C18.9015 12.75 18.804 12.7694 18.713 12.8071C18.622 12.8448 18.5393 12.9001 18.4696 12.9697C18.4 13.0394 18.3447 13.1221 18.3071 13.2131C18.2694 13.3041 18.25 13.4016 18.25 13.5001Z" fill="#C0EE02"/>
<path d="M12.25 13.5001C12.25 13.5986 12.2694 13.6962 12.3071 13.7872C12.3447 13.8782 12.4 13.9609 12.4696 14.0305C12.5393 14.1002 12.622 14.1554 12.713 14.1931C12.804 14.2308 12.9015 14.2502 13 14.2502C13.0985 14.2502 13.196 14.2308 13.287 14.1931C13.378 14.1554 13.4607 14.1002 13.5304 14.0305C13.6 13.9609 13.6553 13.8782 13.6929 13.7872C13.7306 13.6962 13.75 13.5986 13.75 13.5001C13.75 13.4016 13.7306 13.3041 13.6929 13.2131C13.6553 13.1221 13.6 13.0394 13.5304 12.9697C13.4607 12.9001 13.378 12.8448 13.287 12.8071C13.196 12.7694 13.0985 12.75 13 12.75C12.9015 12.75 12.804 12.7694 12.713 12.8071C12.622 12.8448 12.5393 12.9001 12.4696 12.9697C12.4 13.0394 12.3447 13.1221 12.3071 13.2131C12.2694 13.3041 12.25 13.4016 12.25 13.5001Z" fill="#C0EE02"/>
<path d="M25.75 24H6.25C5.65326 24 5.08097 23.7629 4.65901 23.341C4.23705 22.919 4 22.3467 4 21.75V8.25C4 7.65326 4.23705 7.08097 4.65901 6.65901C5.08097 6.23705 5.65326 6 6.25 6H25.75C26.3467 6 26.919 6.23705 27.341 6.65901C27.7629 7.08097 28 7.65326 28 8.25V21.75C28 22.3467 27.7629 22.919 27.341 23.341C26.919 23.7629 26.3467 24 25.75 24ZM6.25 7.5C6.05109 7.5 5.86032 7.57902 5.71967 7.71967C5.57902 7.86032 5.5 8.05109 5.5 8.25V21.75C5.5 21.9489 5.57902 22.1397 5.71967 22.2803C5.86032 22.421 6.05109 22.5 6.25 22.5H25.75C25.9489 22.5 26.1397 22.421 26.2803 22.2803C26.421 22.1397 26.5 21.9489 26.5 21.75V8.25C26.5 8.05109 26.421 7.86032 26.2803 7.71967C26.1397 7.57902 25.9489 7.5 25.75 7.5H6.25Z" fill="#C0EE02"/>
<path d="M4.75 19.5H27.25V21H4.75V19.5ZM12.25 23.25H13.75V26.25H12.25V23.25ZM18.25 23.25H19.75V26.25H18.25V23.25Z" fill="#C0EE02"/>
<path d="M10 25.5H22V27H10V25.5Z" fill="#C0EE02"/>
</g>
</svg>
