<svg width="32" height="32" viewBox="0 0 32 32" fill="none" xmlns="http://www.w3.org/2000/svg">
<mask id="mask0_390_3024" style="mask-type:alpha" maskUnits="userSpaceOnUse" x="0" y="0" width="32" height="32">
<rect width="32" height="32" fill="#D9D9D9"/>
</mask>
<g mask="url(#mask0_390_3024)">
<path d="M24.8934 27.9948H7.10144C5.39048 27.9948 4 26.6044 4 24.8934V7.10144C4 5.39048 5.39048 4 7.10144 4H24.8986C26.6095 4 28 5.39048 28 7.10144V24.8986C27.9948 26.6044 26.6044 27.9948 24.8934 27.9948ZM7.10144 5.55072C6.24855 5.55072 5.55072 6.24855 5.55072 7.10144V24.8986C5.55072 25.7515 6.24855 26.4493 7.10144 26.4493H24.8986C25.7515 26.4493 26.4493 25.7515 26.4493 24.8986V7.10144C26.4493 6.24855 25.7515 5.55072 24.8986 5.55072H7.10144ZM23.3633 16.0233C23.3633 15.5942 23.017 15.2479 22.588 15.2479H21.6369C21.2078 15.2479 20.8615 15.5942 20.8615 16.0233C20.8615 16.4523 21.2078 16.7986 21.6369 16.7986H22.588C23.017 16.7986 23.3633 16.4523 23.3633 16.0233ZM19.5124 11.5107L19.9879 10.6888C20.1999 10.3166 20.0758 9.84622 19.7036 9.62912C19.3315 9.41719 18.8611 9.54124 18.644 9.91342L18.1684 10.7353C17.9565 11.1075 18.0806 11.5779 18.4527 11.795C18.5768 11.8673 18.706 11.8983 18.8404 11.8983C19.1092 11.8983 19.3677 11.7639 19.5124 11.5107ZM16.7986 10.358V9.40685C16.7986 8.97782 16.4523 8.63149 16.0233 8.63149C15.5942 8.63149 15.2479 8.97782 15.2479 9.40685V10.358C15.2479 10.787 15.5942 11.1333 16.0233 11.1333C16.4523 11.1333 16.7986 10.787 16.7986 10.358ZM13.5886 11.7691C13.9608 11.5572 14.0849 11.0816 13.8729 10.7095L13.3974 9.88757C13.1854 9.5154 12.7099 9.39134 12.3377 9.60327C11.9655 9.81521 11.8415 10.2908 12.0534 10.6629L12.529 11.4848C12.6737 11.7329 12.9322 11.8725 13.2009 11.8725C13.3302 11.8725 13.4646 11.8415 13.5886 11.7691ZM11.795 13.5421C12.0069 13.1699 11.8828 12.6995 11.5107 12.4824L10.6888 12.0069C10.3166 11.795 9.84622 11.919 9.62912 12.2912C9.41719 12.6634 9.54124 13.1337 9.91342 13.3509L10.7353 13.8264C10.8594 13.8988 10.9886 13.9298 11.123 13.9298C11.3918 13.9298 11.6554 13.7902 11.795 13.5421ZM11.1333 15.9716C11.1333 15.5425 10.787 15.1962 10.358 15.1962H9.40685C8.97782 15.1962 8.63149 15.5425 8.63149 15.9716C8.63149 16.4006 8.97782 16.7469 9.40685 16.7469H10.358C10.787 16.7469 11.1333 16.4006 11.1333 15.9716ZM10.6629 19.9414L11.4848 19.4659C11.857 19.2539 11.981 18.7784 11.7691 18.4062C11.5572 18.034 11.0816 17.91 10.7095 18.1219L9.88757 18.5975C9.5154 18.8094 9.39134 19.2849 9.60327 19.6571C9.74801 19.9052 10.0065 20.0448 10.2753 20.0448C10.4096 20.0448 10.544 20.0138 10.6629 19.9414ZM13.3509 22.0814L13.8264 21.2595C14.0383 20.8874 13.9143 20.417 13.5421 20.1999C13.1699 19.9879 12.6995 20.112 12.4824 20.4842L12.0069 21.3061C11.795 21.6782 11.919 22.1486 12.2912 22.3657C12.4152 22.4381 12.5445 22.4691 12.6789 22.4691C12.9477 22.4691 13.2061 22.3295 13.3509 22.0814ZM16.7469 22.588V21.6369C16.7469 21.2078 16.4006 20.8615 15.9716 20.8615C15.5425 20.8615 15.1962 21.2078 15.1962 21.6369V22.588C15.1962 23.017 15.5425 23.3633 15.9716 23.3633C16.4006 23.3633 16.7469 23.017 16.7469 22.588ZM19.6571 22.3916C20.0293 22.1796 20.1533 21.7041 19.9414 21.3319L19.4659 20.51C19.2539 20.1378 18.7784 20.0138 18.4062 20.2257C18.034 20.4376 17.91 20.9132 18.1219 21.2854L18.5975 22.1073C18.7422 22.3554 19.0006 22.4949 19.2694 22.4949C19.4038 22.4949 19.5382 22.4588 19.6571 22.3916ZM22.3657 19.7036C22.5776 19.3315 22.4536 18.8611 22.0814 18.644L21.2595 18.1684C20.8874 17.9565 20.417 18.0806 20.1999 18.4527C19.9879 18.8249 20.112 19.2953 20.4842 19.5124L21.3061 19.9879C21.4301 20.0603 21.5593 20.0913 21.6937 20.0913C21.9574 20.0913 22.221 19.9518 22.3657 19.7036Z" fill="#C0EE02"/>
</g>
</svg>
