<svg width="24" height="24" viewBox="0 0 24 24" fill="none" xmlns="http://www.w3.org/2000/svg">
<rect width="24" height="24" rx="4" fill="#999999"/>
<path d="M13.3571 12.0175C13.3571 14.8627 11.0664 17.1692 8.24075 17.1692C5.41513 17.1692 3.12421 14.8627 3.12421 12.0175C3.12421 9.17235 5.41495 6.86572 8.24075 6.86572C11.0665 6.86572 13.3571 9.17235 13.3571 12.0175Z" fill="#151516"/>
<path d="M18.9699 12.0175C18.9699 14.6956 17.8246 16.8675 16.4117 16.8675C14.9988 16.8675 13.8534 14.6956 13.8534 12.0175C13.8534 9.33939 14.9986 7.16748 16.4115 7.16748C17.8244 7.16748 18.9698 9.33869 18.9698 12.0175" fill="#151516"/>
<path d="M21.2657 12.0172C21.2657 14.4162 20.863 16.3621 20.366 16.3621C19.869 16.3621 19.4664 14.4167 19.4664 12.0172C19.4664 9.61776 19.8692 7.67236 20.366 7.67236C20.8628 7.67236 21.2657 9.61759 21.2657 12.0172Z" fill="#151516"/>
</svg>
