<svg width="169" height="50" viewBox="0 0 169 50" fill="none" xmlns="http://www.w3.org/2000/svg">
<path d="M84.5682 8.49044C84.1487 8.2808 83.7291 8.17598 83.7291 8.2808C83.7291 8.2808 83.6243 8.38562 83.834 8.38562C83.834 8.38562 84.7779 8.49044 84.8828 9.2242C84.8828 9.2242 85.0926 10.2724 83.9389 11.3206V11.5303C83.9389 11.7399 83.834 11.8447 83.7291 12.1592C83.5194 12.3688 82.8901 13.2074 82.6804 13.4171C82.4706 13.6267 82.4706 13.7315 82.3657 13.9412C82.2609 14.1508 82.0511 14.1508 81.8413 14.3605C81.6316 14.4653 81.4218 14.5701 81.1072 14.6749C80.7926 14.6749 80.3731 14.7798 80.1633 14.8846C79.9536 14.9894 79.9536 14.8846 79.8487 14.5701C79.8487 14.2556 79.7438 12.893 79.7438 12.7881C79.7438 12.5785 79.6389 12.5785 79.6389 12.3688C79.6389 12.1592 79.8487 11.9496 79.8487 11.7399C79.8487 11.5303 79.8487 11.111 80.2682 10.9013C80.6877 10.6917 81.6316 10.3772 82.156 10.0628C82.6804 9.85313 83.2048 9.64348 83.4145 9.2242C83.4145 9.2242 83.5194 9.01455 83.6243 9.11937C83.7291 9.11937 83.6243 9.53866 83.834 9.43384C83.9389 9.32902 83.9389 9.43384 83.9389 9.2242C83.9389 9.01455 84.0438 8.90973 84.2535 9.01455C84.2535 9.01455 84.7779 9.11937 84.7779 9.01455C84.7779 8.90973 84.4633 8.80491 84.2535 8.70009C84.0438 8.59526 83.834 8.49044 83.7291 8.59526C83.7291 8.70009 83.6243 8.80491 83.5194 8.80491C83.4145 8.80491 83.2048 8.70009 83.2048 8.90973C83.3096 9.01455 83.3096 9.11937 83.2048 9.2242C83.0999 9.32902 83.0999 9.2242 82.995 9.2242H82.6804C82.4706 9.2242 82.4706 9.2242 82.5755 9.01455C82.5755 8.80491 82.6804 8.80491 82.6804 8.70009C82.6804 8.59526 82.4706 8.49044 82.3657 8.59526C82.2609 8.59526 82.2609 8.70009 82.0511 8.80491C81.8413 8.70009 81.6316 8.80491 81.6316 8.80491C81.6316 8.80491 81.4218 8.70009 81.4218 8.80491C81.4218 8.90973 81.317 8.90973 81.2121 8.90973C81.1072 8.90973 81.1072 8.80491 81.2121 8.70009C81.317 8.70009 81.2121 8.49044 81.1072 8.49044C81.0023 8.49044 81.0023 8.38562 81.2121 8.2808C81.4218 8.2808 81.5267 8.17598 81.5267 8.07116C81.5267 8.07116 81.6316 7.96633 81.317 7.96633C81.1072 7.96633 79.9536 8.07116 79.7438 8.07116C79.534 8.07116 79.4292 8.07116 79.4292 8.17598C79.4292 8.2808 79.534 8.2808 79.534 8.2808C80.3731 8.17598 80.6877 8.2808 80.6877 8.38562C80.6877 8.49044 80.0584 8.38562 80.0584 8.38562C79.6389 8.38562 79.534 8.49044 79.4292 8.59526C79.3243 8.70009 79.2194 8.70009 79.2194 8.70009C79.0097 8.38562 78.5901 8.38562 78.3804 8.38562H78.1706C77.856 8.38562 77.5414 7.86151 77.1219 7.44222C76.7023 7.02294 76.3877 6.28919 75.9682 5.55543C75.6536 4.82168 75.2341 4.40239 75.2341 4.40239C74.395 3.24935 72.8219 3.14453 72.6121 3.14453C72.4024 3.14453 72.5072 3.459 72.5072 3.459C72.5072 3.459 72.8219 3.87828 72.8219 4.19275L72.5072 4.29757C72.5072 4.29757 72.8219 4.82168 72.9267 5.24097C73.0316 5.66025 73.0316 6.49883 73.0316 7.02294C73.0316 7.54705 72.9267 8.17598 72.8219 8.38562C72.8219 8.38562 72.6121 8.80491 72.717 9.11937C72.8219 9.32902 72.8219 9.7483 72.717 10.0628C72.6121 10.3772 72.2975 10.5869 72.2975 10.7965C72.2975 11.0062 72.4024 11.0062 72.1926 11.111C71.9829 11.2158 71.039 11.5303 70.7243 11.7399C70.4097 11.9496 70.0951 11.9496 69.7804 12.1592C69.4658 12.264 69.3609 12.3688 69.0463 12.5785C68.7316 12.6833 68.1024 12.893 67.9975 13.1026C67.8926 13.3122 67.7877 13.4171 67.1585 13.5219C67.1585 13.5219 66.9487 13.5219 67.1585 13.1026C67.3682 12.6833 67.0536 12.5785 66.9487 12.1592C66.8438 11.7399 66.8438 11.7399 66.6341 11.3206C66.5292 10.9013 66.5292 10.7965 66.4243 10.4821C66.3195 10.2724 66.0048 10.2724 65.8999 10.5869C65.8999 10.9013 65.7951 10.7965 65.5853 11.111C65.4804 11.4255 65.1658 12.264 64.956 12.7881C64.7463 13.3122 64.4317 13.9412 64.3268 14.4653C64.2219 14.9894 63.9073 15.199 63.8024 15.5135C63.6975 15.7231 63.6975 15.7231 63.6975 16.0376C63.6975 16.2473 63.5926 16.4569 63.4878 16.7714C63.3829 16.981 63.1731 17.1907 63.0683 17.6099C62.9634 18.0292 62.8585 18.6582 62.8585 19.1823C62.8585 19.7064 62.7536 20.2305 62.9634 20.545C63.1731 20.7546 63.1731 20.7546 63.3829 21.2787C63.5926 21.698 63.5926 21.9076 63.8024 22.0125C63.8024 22.0125 64.2219 22.7462 64.5365 22.7462C64.8512 22.7462 65.0609 22.6414 65.3756 22.5366C65.6902 22.4317 65.8999 22.2221 66.0048 22.6414C66.1097 23.0607 66.1097 24.1089 66.6341 24.3185C66.6341 24.3185 66.9487 24.3185 67.3682 24.4234C67.7877 24.5282 68.1024 24.5282 68.417 24.4234C68.7316 24.3185 68.9414 24.0041 69.9902 23.8992C69.9902 23.8992 71.878 23.6896 72.717 23.1655C72.717 23.1655 72.8219 23.48 72.9267 23.8992C73.0316 24.2137 73.1365 24.7378 73.0316 25.0523C73.0316 25.3668 72.8219 26.2053 73.0316 26.8343C73.0316 26.8343 73.2414 27.6728 73.2414 28.1969V29.6644C73.2414 30.0837 73.3463 30.6078 73.4511 30.8175C73.556 31.0271 73.556 31.132 73.4511 31.4464C73.3463 31.7609 73.3463 32.3898 73.4511 32.9139C73.4511 32.9139 73.6609 33.5429 73.6609 33.8573C73.6609 34.1718 73.6609 34.4862 73.7658 34.4862C73.7658 34.4862 73.8706 34.5911 73.8706 34.3814V33.8573C73.8706 33.6477 73.7658 33.6477 73.9755 33.6477C74.0804 33.6477 74.0804 33.6477 74.1853 33.8573C74.1853 33.8573 74.0804 34.1718 74.2902 34.067C74.395 34.067 74.4999 33.7525 74.2902 33.438C74.0804 33.1236 73.9755 33.5429 73.9755 32.4946C73.9755 32.4946 74.0804 31.6561 74.2902 31.9705C74.2902 31.9705 74.8145 33.1236 74.9194 34.067C74.9194 34.067 75.0243 34.1718 75.2341 34.067C75.4438 33.9621 75.6536 34.067 75.4438 34.2766C75.2341 34.4862 75.1292 34.3814 75.1292 35.0104C75.1292 35.4296 74.9194 36.2682 75.2341 36.2682C75.2341 36.2682 75.3389 36.373 75.5487 36.1634C75.5487 36.1634 75.7584 36.0586 75.8633 36.2682C75.9682 36.4779 75.8633 36.7923 76.0731 36.6875C76.0731 36.6875 76.0731 36.7923 76.178 36.373C76.178 35.9538 76.178 35.4296 76.3877 35.5345C76.5975 35.6393 76.7023 35.6393 76.7023 35.4296C76.7023 35.4296 76.5975 35.0104 76.5975 34.8007C76.5975 34.4862 76.5975 34.1718 76.8072 34.6959C76.8072 34.6959 76.9121 34.8007 77.1219 34.4862C77.3316 34.1718 77.4365 34.1718 77.3316 33.438C77.3316 33.438 77.1219 32.5995 77.3316 32.1802C77.4365 31.6561 77.4365 31.3416 77.4365 31.0271C77.4365 30.7127 77.5414 30.3982 77.7511 30.0837C77.856 29.7693 78.5901 29.0355 78.5901 26.9391C78.5901 26.9391 78.695 25.9957 78.695 25.5764C78.695 25.1571 78.695 24.7378 79.0097 24.5282C79.3243 24.3185 79.4292 24.1089 79.534 23.7944C79.6389 23.48 80.0584 21.9076 80.5828 21.2787L80.7926 20.8594C80.8974 20.7546 81.2121 20.545 81.5267 20.545C81.5267 20.545 82.6804 20.3353 83.2048 20.0208C83.2048 20.0208 83.7291 19.8112 83.6243 19.3919C83.6243 19.3919 84.0438 19.6016 84.2535 17.7148L84.673 15.199C84.7779 14.6749 84.8828 14.2556 85.0926 14.1508C85.0926 14.1508 85.3023 14.046 85.1974 13.8364C85.1974 13.6267 85.3023 11.9496 85.6169 10.7965C85.6169 10.7965 85.8267 9.7483 85.4072 9.2242C84.9877 8.70009 84.7779 8.59526 84.5682 8.49044ZM72.717 17.6099C72.5072 17.8196 72.1926 18.2389 71.9829 18.4485C71.7731 18.763 71.6682 18.8678 71.3536 18.9726C71.039 19.1823 69.9902 19.3919 69.1512 19.4967C68.3121 19.6016 67.3682 20.545 67.1585 20.7546C67.0536 20.9642 66.4243 21.0691 66.2146 21.0691C66.0048 21.0691 66.0048 20.7546 66.2146 20.545C66.3195 20.3353 66.3195 20.4401 66.3195 20.2305C66.3195 20.0208 66.3195 19.916 66.4243 19.7064C66.5292 19.4967 66.5292 19.4967 66.739 19.2871C66.9487 19.0774 67.1585 18.8678 67.1585 18.6582C67.2634 18.3437 67.2634 18.2389 67.3682 18.0292C67.4731 17.7148 67.6829 17.5051 67.8926 17.1907C68.1024 16.8762 68.5219 16.3521 68.5219 16.3521C69.0463 15.828 69.6755 15.5135 69.8853 15.4087C70.1999 15.3039 70.3048 15.3039 71.1438 14.9894C71.9829 14.5701 72.2975 14.2556 72.4024 14.046C72.5072 13.8364 72.6121 13.9412 72.6121 13.9412C72.6121 13.9412 72.717 14.5701 72.8219 15.0942C72.9267 15.6183 72.9267 15.7231 73.0316 16.0376L73.2414 16.6665C73.0316 17.4003 72.9267 17.4003 72.717 17.6099Z" fill="white"/>
<path d="M82.2609 8.27714C82.4706 8.17232 82.3657 8.27714 82.5755 8.27714H82.995C83.2048 8.27714 83.2048 8.27714 83.3096 8.17232C83.4145 8.0675 83.0999 8.0675 82.8901 8.0675C82.7852 8.0675 82.6804 7.96267 82.5755 7.96267C82.3657 7.96267 82.0511 7.85785 82.0511 7.85785C81.7365 7.85785 81.6316 8.17232 81.6316 8.17232C81.8413 8.48678 82.0511 8.27714 82.2609 8.27714ZM82.7852 8.80125C82.7852 9.01089 82.8901 9.01089 82.8901 9.01089C82.8901 8.90607 82.995 8.69643 82.995 8.69643H83.5194C83.6243 8.59161 83.0999 8.48678 82.8901 8.48678C82.6804 8.48678 82.7852 8.69643 82.7852 8.80125ZM74.395 35.426C74.4999 35.2163 74.4999 35.0067 74.395 34.7971C74.2902 34.5874 74.395 34.5874 74.2902 34.4826C74.1853 34.3778 74.1853 34.3778 74.0804 34.3778C74.0804 34.3778 73.9755 34.3778 73.9755 34.5874C73.9755 34.6922 73.9755 34.9019 74.0804 35.1115C74.1853 35.2163 74.2902 35.426 74.2902 35.5308C74.2902 35.5308 74.395 35.5308 74.395 35.426ZM74.8145 35.6356C74.8145 35.426 74.8145 34.5874 74.7097 34.6922C74.7097 34.6922 74.6048 34.5874 74.6048 34.7971V35.6356C74.6048 35.8453 74.8145 35.9501 74.8145 35.6356ZM76.5975 35.6356C76.7023 35.5308 76.8072 35.5308 76.8072 35.1115C76.8072 34.7971 76.9121 34.4826 76.8072 34.4826C76.8072 34.4826 76.5975 34.2729 76.5975 34.5874C76.7023 34.9019 76.4926 35.6356 76.5975 35.6356ZM94.7413 16.4532C94.5315 15.9291 94.6364 15.9291 94.7413 15.6147C94.8462 15.3002 95.0559 14.8809 94.8462 14.0423C94.8462 14.0423 94.5315 13.5182 94.6364 12.8893C94.7413 12.2604 94.4267 11.9459 94.3218 11.5266C94.112 10.8977 93.7974 10.8977 93.7974 10.4784C93.7974 10.1639 93.4828 9.84947 93.4828 9.84947C93.4828 9.84947 93.3779 9.84947 93.273 10.1639C93.1681 10.4784 92.7486 11.5266 92.9584 12.2604C92.9584 12.2604 92.8535 12.5748 92.9584 12.9941C93.0633 13.4134 93.0633 13.7279 93.0633 13.9375C93.0633 14.1472 93.1681 14.252 93.0633 14.5664C92.9584 14.8809 93.0633 15.405 92.8535 15.8243C92.6437 16.1388 92.434 16.6629 92.434 17.2918C92.5389 18.0256 92.5389 18.4449 92.3291 19.3883C92.3291 19.3883 92.0145 20.5413 92.0145 20.9606C92.1194 21.4847 91.9096 22.1136 91.8047 22.5329C91.6998 22.9522 91.595 23.7908 91.595 24.2101C91.6999 24.5245 91.8047 25.1535 91.6999 25.5727C91.595 25.992 91.595 26.0968 91.4901 26.5161C91.3852 27.0402 91.3852 27.5644 91.6999 28.4029C92.0145 29.1367 92.6437 29.556 92.8535 29.556C93.0633 29.4511 93.5876 28.5077 93.3779 27.2499C93.3779 27.2499 93.1681 26.4113 93.273 25.4679C93.273 25.4679 93.5876 24.3149 93.3779 24.0004C93.3779 24.0004 93.0633 23.7908 93.273 22.8474C93.273 22.8474 93.3779 22.3233 93.3779 22.0088C93.3779 21.6943 93.273 21.3799 93.5876 20.3316C93.7974 19.2834 93.9023 19.1786 94.112 18.4449C94.3218 17.7111 94.3218 17.3966 94.4267 17.187C94.7413 16.9774 94.8462 16.9774 94.7413 16.4532ZM108.795 33.0151C109.005 33.7488 109.11 33.7488 109.529 34.1681C110.053 34.4826 110.788 34.9019 111.207 35.1115C111.731 35.3212 112.361 34.1681 112.361 34.1681C112.78 33.3295 112.675 32.3862 112.675 31.9669C112.571 31.5476 112.675 31.3379 112.78 30.9186C112.885 30.4994 112.885 30.3945 112.885 29.9753C112.885 29.556 112.78 29.1367 112.675 28.8222C112.571 28.5077 112.466 28.0885 112.675 27.774C112.885 27.5644 112.78 26.9354 112.78 26.621C112.675 26.3065 112.675 25.992 112.78 25.6776C112.885 25.3631 112.885 24.2101 112.885 23.7908C112.78 23.3715 112.885 23.057 112.885 22.4281C112.885 21.7992 112.885 21.275 112.78 20.8558C112.675 20.5413 112.78 19.1786 112.675 18.2352C112.571 17.187 112.571 16.1388 112.571 15.0906C112.571 14.0423 112.466 13.4134 112.361 12.9941C112.256 12.6797 112.256 12.1555 112.466 11.8411C112.571 11.5266 112.675 11.0025 112.571 10.5832C112.466 10.0591 112.361 9.95429 112.361 9.63982C112.256 9.32536 112.361 8.90607 112.466 8.59161C112.571 8.27714 112.675 7.64821 112.675 7.64821C112.675 6.91446 112.361 6.28553 111.941 5.76142C111.522 5.23731 111.207 4.81802 111.207 4.81802C110.578 4.29391 110.053 4.39873 109.634 4.50356C109.319 4.60838 108.795 4.60838 107.746 4.7132C106.802 4.81802 106.278 5.02766 106.068 5.23731C105.753 5.44695 105.753 5.44695 105.334 5.44695C105.019 5.34213 104.81 5.55177 104.495 5.6566C104.18 5.76142 103.551 5.76142 103.551 5.76142C102.922 5.86624 101.453 6.28553 101.453 6.28553C100.614 6.49517 100.09 6.80964 99.7754 6.91446C99.4608 7.1241 98.9364 7.33374 98.9364 7.33374C98.412 7.96267 97.573 8.0675 97.573 8.0675C96.9437 8.17232 95.2657 8.69643 95.2657 8.69643C94.9511 8.80125 94.9511 8.90607 94.9511 8.90607C94.9511 8.90607 95.6852 9.01089 95.895 9.32536C96.1047 9.63982 96.1047 9.63982 96.5242 9.74465C96.8389 9.84947 97.6779 9.74465 98.0974 9.63982C98.5169 9.535 99.1462 9.32536 99.5657 9.11571C99.9852 8.90607 100.405 8.80125 101.034 8.59161C101.558 8.38196 102.502 8.0675 103.027 7.85785C103.656 7.64821 104.075 7.64821 104.495 7.54339L105.753 7.22892C106.173 7.1241 106.802 7.1241 107.222 7.1241C107.641 7.1241 107.746 7.22892 108.166 7.22892C108.585 7.22892 108.9 7.33374 109.214 7.64821C109.529 7.96267 109.739 8.38196 109.739 8.38196C109.949 9.11571 109.844 9.22054 109.739 9.95429C109.634 10.5832 109.529 12.6797 109.529 13.5182C109.529 14.3568 109.319 15.9291 109.319 15.9291C109.11 16.8725 109.319 16.8725 109.424 17.5015C109.529 18.1304 109.319 19.4931 109.319 19.4931C109.11 19.8075 109.11 20.4365 109.11 20.7509C109.214 21.0654 109.214 21.275 109.214 21.275C109.11 21.7992 109.319 23.6859 109.529 24.5245C109.739 25.3631 109.529 25.7824 109.319 25.992C109.11 26.2017 109.005 27.0402 109.11 27.4595C109.214 27.9836 109.214 28.5077 109.005 28.7174C108.795 29.0319 108.69 28.7174 108.375 28.4029C108.061 28.0885 107.431 27.5644 107.222 27.6692C107.012 27.774 107.327 29.1367 107.641 29.556C107.956 29.9753 107.956 30.2897 108.166 30.6042C108.271 30.9186 108.69 31.4428 108.69 31.4428C108.48 31.6524 108.585 32.2813 108.795 33.0151Z" fill="white"/>
<path d="M105.753 10.5862C105.544 10.0621 105.439 9.85243 105.124 9.53796C104.914 9.22349 104.495 9.22349 104.075 9.32832C103.656 9.43314 102.817 9.53796 102.817 9.53796C102.188 9.53796 101.558 9.85243 101.139 10.0621C100.719 10.2717 100.09 10.5862 99.6706 10.5862C99.1462 10.691 98.9364 10.7958 98.412 11.0055C97.8876 11.2151 97.573 11.5296 97.2584 11.6344C96.9437 11.7392 96.734 11.844 96.5242 12.1585C96.2096 12.473 95.6852 12.6826 95.6852 12.6826C94.6364 12.9971 95.0559 13.4164 95.0559 13.4164L95.9998 13.7308C96.6291 13.9405 96.3145 13.9405 96.3145 13.9405C96.2096 14.6742 96.6291 14.9887 97.0486 14.9887C97.4681 14.9887 98.0974 14.8839 98.5169 14.8839C98.8315 14.8839 98.9364 14.7791 99.0413 15.1983C99.1462 15.6176 99.1462 15.9321 99.1462 15.9321C99.2511 17.19 98.5169 16.9803 98.5169 16.9803C96.1047 18.0285 95.6852 18.5526 95.4755 18.8671C95.2657 19.1816 94.9511 19.7057 95.1608 19.9153C95.3706 20.125 95.7901 20.4394 95.9998 20.4394C96.2096 20.4394 96.3145 20.4394 96.5242 20.8587C96.734 21.278 96.8389 21.3828 97.1535 21.278C97.4681 21.1732 97.573 21.278 97.573 21.278C97.573 21.278 97.573 21.5925 97.4681 21.9069C97.3633 22.2214 97.1535 22.7455 96.8389 22.9552C96.6291 23.06 96.5242 23.2696 96.3145 23.5841C96.1047 23.8985 96.1047 23.7937 95.9998 24.1082C95.895 24.4227 95.7901 24.6323 95.7901 24.6323C95.4755 25.6805 95.9998 26.2046 96.3145 26.5191C96.6291 26.8336 97.7828 26.7287 98.2023 26.6239C98.5169 26.5191 98.5169 26.6239 98.9364 26.4143C99.2511 26.2046 99.4608 26.2046 99.9852 26.0998C100.51 25.8902 100.824 25.7853 101.139 25.4709C101.453 25.1564 102.188 24.9468 102.607 24.6323C103.027 24.3178 103.656 24.3178 103.971 24.1082C104.285 24.0034 104.914 23.5841 105.229 23.2696C105.544 22.9552 105.753 23.06 105.858 22.7455L106.068 22.1166H105.753C105.544 22.1166 105.963 21.3828 105.963 21.3828C105.649 21.4876 105.229 21.3828 104.914 21.278C104.705 21.1732 104.075 21.1732 103.761 21.278C103.551 21.3828 103.656 20.7539 103.761 20.4394C103.866 20.125 103.866 19.9153 103.866 19.9153C103.656 19.6009 104.39 19.7057 104.39 19.7057C104.81 18.6575 105.229 18.5526 105.439 18.2382C105.649 17.9237 105.963 17.7141 105.963 17.2948C106.068 16.8755 105.858 16.561 105.439 16.2466C105.019 15.9321 104.6 15.6176 103.971 15.1983C103.446 14.7791 103.761 14.6742 103.866 14.2549C103.971 13.7308 104.39 13.7308 104.914 13.1019C105.439 12.473 105.229 12.6826 105.439 12.3681C105.544 12.0537 105.753 11.9489 105.753 11.9489C105.963 11.4248 105.753 11.4248 105.858 11.1103C105.753 10.9006 105.963 11.1103 105.753 10.5862Z" fill="white"/>
<path d="M105.544 19.6017C105.544 19.6017 105.439 19.7065 105.334 19.9161C105.124 20.2306 105.124 20.2306 105.544 20.2306C105.858 20.2306 105.858 20.1258 106.488 20.021C107.117 19.9161 107.327 19.8113 107.956 19.8113C107.956 19.8113 108.585 19.9161 108.69 18.9727C108.9 17.9245 108.48 17.7149 108.061 17.6101C107.746 17.5052 107.536 17.5052 107.327 17.4004C107.012 17.2956 106.383 16.9811 106.383 16.9811C106.383 16.9811 106.802 17.8197 106.488 18.239C106.383 18.3438 105.648 19.1824 105.544 19.6017ZM139.734 30.3983C139.839 30.1887 139.629 30.2935 139.943 30.0839C139.943 30.0839 140.048 29.979 140.048 29.7694C140.153 29.5597 140.258 29.2453 140.573 29.1405C140.887 29.0356 140.782 29.0356 140.992 28.9308C141.202 28.9308 141.307 28.826 141.307 28.6164C141.307 28.4067 141.307 28.4067 140.992 28.3019C140.678 28.3019 140.678 28.0922 140.678 28.0922C140.678 28.0922 140.782 27.9874 140.782 27.7778C140.887 27.4633 140.573 27.7778 140.573 27.4633C140.573 27.1488 140.363 27.673 140.363 27.673C140.363 27.673 140.363 27.5681 140.258 27.5681C140.258 27.4633 140.258 27.3585 140.153 27.4633C140.048 27.5681 139.943 27.2537 140.153 27.1488C140.153 27.1488 139.943 27.044 139.839 26.8344C139.839 26.8344 139.734 26.8344 139.734 26.9392C139.734 27.1488 139.524 27.1488 139.524 26.9392C139.524 26.8344 139.734 26.7296 139.734 26.7296C139.734 26.7296 139.839 26.5199 139.524 26.7296C139.314 26.8344 139.314 26.7296 139.419 26.6247C139.524 26.5199 139.314 26.5199 139.209 26.5199C139 26.5199 139 26.5199 138.895 26.7296C138.685 26.9392 138.58 27.044 138.37 27.1488C138.265 27.2537 138.056 27.2537 137.951 27.3585C137.741 27.4633 137.007 27.5681 136.482 27.673C135.853 27.7778 134.7 28.0922 134.385 28.1971C134.07 28.3019 133.756 28.3019 133.441 28.4067C133.231 28.4067 132.392 28.4067 132.078 28.5115C131.658 28.6164 131.344 28.6164 131.134 28.7212C130.924 28.7212 130.714 28.6164 130.714 28.6164C130.714 28.6164 130.295 28.5115 130.19 28.5115L129.98 28.1971C129.77 27.8826 129.77 27.7778 129.561 27.1488C129.351 26.7296 129.561 26.4151 129.77 26.1006C129.98 25.891 130.4 25.3669 130.609 25.1572C130.819 24.9476 131.029 24.9476 131.448 24.9476C131.448 24.9476 131.763 24.8428 132.078 24.8428C132.392 24.8428 132.602 24.7379 132.812 24.6331C133.022 24.5283 133.126 24.5283 133.336 24.5283C133.546 24.5283 133.861 24.3187 134.07 24.3187C134.28 24.3187 134.7 24.2138 135.014 24.2138C135.434 24.2138 135.539 24.109 135.853 24.109C136.168 24.109 136.273 24.109 136.482 23.7945C136.692 23.5849 136.692 23.2704 137.007 22.956C137.322 22.6415 137.636 22.5367 137.531 22.2222V21.2788C137.531 21.2788 137.636 21.0692 137.426 20.6499C137.217 20.2306 137.007 20.1258 136.902 19.8113C136.797 19.4969 136.587 19.392 136.902 18.6583C137.217 17.9245 137.531 17.4004 137.636 16.9811C137.741 16.5618 137.636 16.5618 137.846 16.1426C137.951 15.9329 137.951 15.8281 138.056 15.4088C138.161 14.9895 138.161 15.0943 138.265 14.6751V14.1509V13.522C138.265 13.3124 138.161 13.2075 138.161 12.9979C138.161 12.7883 138.161 13.1027 138.056 12.6834C137.951 12.2642 137.846 12.2642 137.741 12.0545C137.531 11.8449 137.322 11.5304 137.322 11.1111C137.322 11.1111 137.531 10.9015 136.902 10.4822C136.902 10.4822 136.587 10.2725 136.378 10.2725C136.168 10.2725 135.958 10.2725 135.748 10.0629C135.539 9.85325 135.119 9.85325 134.909 9.85325C134.7 9.85325 134.595 9.85325 134.28 9.74843C134.07 9.64361 133.546 9.85325 133.441 9.95807C133.231 10.0629 131.868 10.6918 131.344 11.0063C130.924 11.3208 130.714 11.4256 130.4 11.5304C130.085 11.6352 129.98 11.5304 130.085 11.2159C130.19 10.7966 130.295 10.1677 130.4 9.53878C130.504 8.80503 130.295 8.1761 129.77 7.96646C129.246 7.65199 128.617 7.12788 128.092 7.2327C128.092 7.2327 127.778 7.12788 127.778 7.44235C127.883 7.75681 127.673 7.96646 127.568 8.28092C127.568 8.28092 127.044 9.01468 126.939 9.85325C126.834 10.6918 126.624 11.5304 126.624 11.9497C126.519 12.369 126.519 12.6834 125.995 12.9979C125.47 13.2075 123.373 14.4654 123.268 14.7799C123.268 14.7799 123.897 14.6751 124.002 15.0943C124.107 15.4088 124.317 15.304 124.736 15.1992C125.051 15.0943 125.47 14.7799 125.575 15.0943C125.575 15.0943 125.68 15.1992 125.68 15.6184C125.785 15.9329 125.785 16.0377 125.575 16.3522C125.365 16.6667 125.365 16.7715 124.736 17.5052C124.107 18.239 123.478 18.6583 123.163 18.7631C122.848 18.8679 122.848 18.7631 122.953 18.3438C122.953 18.3438 123.058 17.1908 123.163 16.7715C123.268 16.457 123.268 16.2474 123.058 15.8281C122.848 15.4088 122.534 15.1992 122.429 14.9895C122.324 14.7799 122.429 14.8847 122.114 14.6751C121.8 14.4654 121.8 14.1509 121.8 13.9413C121.8 13.7317 121.485 13.522 121.38 14.0461C121.275 14.5702 120.751 15.4088 120.541 15.7233C120.331 16.0377 120.017 16.3522 120.122 17.086C120.226 17.8197 120.226 18.1342 120.226 18.9727C120.122 19.8113 120.017 21.174 119.912 21.9078C119.702 22.6415 119.597 22.6415 119.492 23.1656C119.387 23.6897 119.283 24.0042 119.807 24.4235C120.331 24.8428 120.541 24.9476 120.856 24.9476C121.17 25.0524 121.17 25.1572 121.38 25.3669C121.485 25.5765 121.59 25.7862 122.009 25.9958C122.324 26.2055 122.744 26.6247 123.583 26.6247C123.583 26.6247 124.002 26.5199 124.212 27.1488C124.422 27.7778 124.526 29.1405 125.051 29.979C125.051 29.979 125.261 30.608 125.575 30.608C125.575 30.608 125.89 31.0273 126.309 31.2369C126.834 31.4465 127.358 31.8658 128.197 31.9706C129.036 32.0755 129.665 32.1803 130.4 32.1803C131.134 32.1803 131.973 32.4948 133.441 31.9706C133.441 31.9706 134.175 31.761 134.595 31.761C135.014 31.761 135.119 31.6562 135.958 31.4465C136.797 31.1321 138.58 30.7128 139 30.608C139.314 30.608 139.629 30.608 139.734 30.3983ZM140.887 27.7778C140.887 27.9874 140.678 27.9874 140.678 27.7778C140.678 27.673 140.887 27.7778 140.887 27.7778ZM133.756 17.8197C133.546 18.4486 133.546 18.5535 133.441 18.9727C133.441 19.392 133.126 19.6017 132.707 19.8113C132.392 20.021 131.868 20.2306 131.448 20.4403C131.029 20.6499 130.609 20.7547 130.295 20.6499C129.875 20.4403 129.875 20.1258 129.875 19.8113V19.1824C129.875 18.8679 130.19 18.6583 130.19 18.6583C130.924 17.8197 132.812 17.4004 133.126 17.2956C133.546 17.1908 133.861 17.4004 133.756 17.8197ZM129.665 14.1509C129.77 13.7317 130.4 13.3124 130.4 13.3124C130.924 12.9979 131.868 12.8931 132.078 12.6834C132.287 12.4738 132.602 12.4738 132.917 12.4738H133.546C133.756 12.5786 133.861 12.5786 134.175 12.5786C134.49 12.5786 134.595 12.6834 134.595 12.6834C134.49 12.8931 134.804 13.3124 134.804 13.3124C134.909 13.7317 134.385 13.9413 134.385 13.9413C133.965 13.8365 133.651 14.1509 133.126 14.4654C132.602 14.7799 132.183 15.0943 131.763 15.0943C131.344 15.0943 130.609 15.304 130.085 15.0943C129.561 14.9895 129.561 14.6751 129.665 14.1509ZM125.051 21.4885C124.946 21.9078 124.841 22.2222 124.736 22.6415C124.631 23.0608 124.317 23.1656 124.317 23.1656C123.373 23.3753 122.534 24.109 122.429 24.0042C122.324 23.8994 122.324 23.7945 122.429 23.5849C122.534 23.2704 122.429 23.2704 122.429 23.2704C122.324 22.7463 122.429 23.1656 122.429 22.8512C122.534 22.4319 122.429 22.5367 122.534 22.2222C122.534 21.9078 122.848 21.3836 122.953 21.0692C123.058 20.7547 123.163 20.8595 123.163 20.8595C123.268 20.6499 123.897 20.5451 124.212 20.4403C124.526 20.3354 124.631 20.3354 124.946 20.5451C125.051 20.7547 125.051 20.9644 125.051 21.4885ZM148.858 19.7065C148.963 19.6017 148.963 19.4969 149.278 19.4969C149.487 19.4969 149.907 19.9161 149.907 20.3354C150.012 20.7547 150.117 21.0692 150.117 21.4885C150.117 21.9078 150.221 22.956 150.221 23.3753C150.221 23.7945 150.117 24.0042 150.012 24.3187C149.907 24.5283 149.907 25.0524 149.802 25.3669C149.802 25.7862 149.802 26.2055 149.592 26.6247C149.487 27.044 149.068 28.1971 149.068 29.5597C149.068 29.5597 148.963 30.3983 149.068 31.0273C149.173 31.6562 149.173 31.8658 149.487 32.1803C149.697 32.2851 149.802 32.3899 149.907 32.2851C150.012 32.1803 150.117 31.8658 150.431 31.8658C150.641 31.8658 150.851 31.9706 150.746 31.6562C150.746 31.6562 150.641 31.2369 150.851 31.0273C150.851 31.0273 151.061 30.9224 151.165 30.9224C151.27 30.9224 151.375 30.8176 151.48 30.7128C151.585 30.5031 151.69 30.5031 151.795 30.0839C151.9 29.6646 152.004 28.4067 152.004 27.5681C152.004 26.7296 152.214 25.5765 152.319 24.5283C152.424 23.3753 152.529 22.5367 152.634 21.4885V20.021C152.634 19.2872 152.424 18.9727 152.739 18.7631C152.739 18.7631 152.948 18.4486 152.948 17.9245C152.948 17.4004 153.053 17.1908 152.843 17.086C152.634 16.9811 152.843 16.9811 152.529 16.8763C152.109 16.6667 152.214 16.5618 151.9 16.457C151.585 16.3522 151.795 16.2474 151.48 16.2474C151.27 16.1426 150.746 16.0377 150.431 16.2474C150.431 16.2474 150.431 15.9329 150.641 15.5136C150.641 15.5136 150.746 15.5136 150.746 15.0943C150.746 14.6751 150.641 14.3606 150.746 14.2558C150.956 14.1509 150.956 13.522 150.641 12.8931C150.326 12.2642 149.907 11.74 149.907 11.3208C149.907 10.9015 149.382 10.0629 149.068 9.95807C149.068 9.95807 148.753 9.95807 148.753 10.2725C148.753 10.587 148.648 10.587 148.648 11.0063C148.648 11.4256 148.439 11.8449 148.439 12.1593C148.439 12.4738 148.334 12.369 148.229 12.6834C148.124 12.9979 147.809 13.4172 147.704 13.9413C147.495 14.4654 147.075 15.304 146.865 15.8281L146.446 16.6667C146.236 17.086 146.026 17.2956 145.921 17.5052C145.921 17.5052 145.712 17.7149 145.607 17.9245C145.397 18.1342 145.397 18.1342 145.292 18.5535C145.187 18.9727 145.082 19.2872 145.082 19.8113V20.7547C145.082 21.0692 144.978 21.174 145.187 21.2788C145.397 21.4885 145.712 21.3836 145.712 22.0126C145.712 22.7463 145.712 23.3753 145.607 23.5849C145.607 23.5849 145.921 23.3753 145.817 22.956C145.817 22.956 145.921 23.1656 145.921 23.3753C145.921 23.3753 146.131 23.1656 146.236 22.7463C146.341 22.327 146.551 22.1174 146.761 21.9078C146.97 21.8029 147.914 20.7547 148.124 20.5451C148.543 20.021 148.858 19.8113 148.858 19.7065ZM168.051 8.49057C167.736 8.38574 167.002 8.49057 166.582 8.49057H165.009C164.799 8.49057 164.59 8.49057 164.59 8.1761C164.59 7.96646 164.695 7.86164 164.59 7.54717C164.485 7.33753 164.59 7.02306 164.485 6.60377C164.485 6.28931 164.485 6.18449 164.38 6.07966C164.17 5.87002 164.065 5.7652 163.751 5.7652C163.541 5.7652 163.436 5.66038 163.226 5.55556C163.017 5.45073 163.017 5.34591 162.702 5.34591L162.073 5.03145C162.073 5.03145 161.339 4.61216 161.024 4.61216C160.604 4.61216 160.395 5.13627 160.395 5.45073C160.29 5.7652 160.185 5.66038 160.185 5.66038C159.975 5.45073 159.66 5.66038 159.556 5.87002C159.451 6.07966 159.346 5.97484 159.346 5.97484C159.136 6.07966 158.717 6.49895 158.507 6.60377C158.297 6.81342 158.612 6.81342 158.612 6.81342L158.402 7.02306C158.192 7.02306 157.878 7.2327 157.878 7.2327C157.878 7.2327 157.458 7.2327 157.563 7.44235C157.668 7.65199 158.192 7.65199 158.717 7.02306C158.717 7.02306 158.821 7.12788 159.241 7.02306C159.241 7.02306 160.185 6.81342 160.185 7.02306C160.185 7.02306 160.08 7.2327 159.765 7.2327C159.556 7.2327 158.821 7.2327 158.717 7.44235C158.717 7.44235 158.926 7.65199 159.346 7.65199C159.765 7.65199 160.08 7.54717 160.499 7.96646C160.919 8.38574 161.234 8.49057 161.129 8.80503C161.024 9.01468 160.709 9.32914 160.395 9.43396C160.08 9.53878 159.765 9.43396 159.451 9.53878C159.136 9.64361 158.821 9.74843 158.297 9.74843C157.773 9.74843 157.248 9.74843 157.143 9.85325C156.934 9.95807 156.409 10.1677 155.99 10.1677H155.151C154.836 10.2725 154.521 10.1677 154.102 10.3774C153.578 10.587 153.368 11.0063 153.368 10.587C153.368 10.2725 152.948 10.7966 152.948 11.1111C152.948 11.4256 152.948 11.6352 153.263 11.74C153.578 11.8449 153.787 11.8449 153.997 11.9497C154.207 12.1593 154.521 11.9497 154.836 11.8449C155.151 11.74 155.57 11.5304 156.095 11.4256C156.619 11.4256 156.829 11.2159 157.143 11.2159C157.458 11.1111 158.507 10.9015 159.241 10.9015C159.975 10.9015 161.443 10.7966 162.387 10.7966H165.009C165.219 10.7966 165.534 10.7966 165.638 10.6918C165.848 10.587 166.373 10.4822 166.687 10.587C166.897 10.6918 166.897 10.6918 167.212 10.6918C167.526 10.6918 167.631 10.587 167.841 10.4822C168.051 10.3774 167.946 9.95807 167.946 9.74843C167.946 9.53878 168.26 9.43396 168.575 9.22432C168.89 9.01468 168.89 8.80503 168.89 8.80503C168.68 8.70021 168.365 8.59539 168.051 8.49057ZM160.919 14.7799C161.234 14.9895 161.548 15.0943 161.968 15.304C162.387 15.5136 162.702 15.7233 163.331 15.7233C164.065 15.8281 164.275 15.6184 164.695 15.8281C164.695 15.8281 165.009 15.9329 165.219 15.7233C165.429 15.5136 165.534 14.9895 165.743 14.7799L165.848 14.4654C165.848 14.1509 165.953 13.7317 165.743 13.7317C165.534 13.7317 165.429 13.6268 165.324 13.3124C165.219 12.9979 165.114 12.9979 164.904 12.8931C164.695 12.8931 164.59 12.8931 164.485 12.6834C164.275 12.4738 163.96 12.2642 163.751 12.369C163.541 12.369 163.331 12.4738 162.912 12.369C162.492 12.2642 161.548 12.1593 161.234 12.1593C161.024 12.2642 159.87 12.5786 159.451 12.7883C159.451 12.7883 159.031 12.9979 159.136 13.3124C159.136 13.522 159.346 13.9413 159.765 14.0461C160.08 14.2558 160.604 14.5702 160.919 14.7799ZM157.878 17.2956C157.878 17.6101 157.982 17.7149 158.297 18.239C158.612 18.6583 159.031 19.0776 159.346 19.392C159.66 19.7065 160.08 19.8113 160.709 19.8113C161.339 19.8113 161.863 19.9161 162.073 20.021C162.282 20.2306 162.492 20.4403 162.807 20.3354C163.226 20.2306 163.121 20.2306 163.436 20.2306C163.751 20.2306 163.856 20.021 164.17 20.021C164.485 20.021 164.59 19.9161 164.799 19.7065C165.009 19.4969 165.114 19.392 165.219 18.7631C165.324 18.3438 165.219 18.0294 165.429 18.0294C165.429 18.0294 165.743 18.0294 165.848 17.6101C165.848 17.1908 165.743 17.086 165.429 16.9811C165.114 16.9811 164.904 16.8763 164.59 16.9811C164.38 17.086 164.275 17.086 163.751 16.9811C163.121 16.7715 162.807 16.7715 162.387 16.6667C161.863 16.6667 161.024 16.7715 160.29 16.7715C159.451 16.7715 158.612 16.9811 158.297 16.9811C158.297 16.9811 157.878 16.9811 157.878 17.2956ZM158.297 32.7044C158.507 32.914 158.507 33.1237 158.717 32.914C158.821 32.7044 158.821 32.2851 159.136 32.0755C159.136 32.0755 159.241 32.0755 159.241 31.6562C159.241 31.1321 159.346 30.8176 159.451 30.3983C159.556 29.979 159.556 29.3501 159.66 28.826C159.765 28.4067 159.765 28.1971 159.765 27.8826C159.765 27.5681 159.66 27.4633 159.556 27.1488C159.451 26.9392 159.451 26.9392 159.451 26.7296V26.3103C159.451 26.1006 159.346 25.9958 159.66 26.1006C159.975 26.1006 160.604 26.4151 161.024 25.891C161.548 25.3669 162.073 24.9476 162.282 24.8428C162.492 24.7379 162.597 24.8428 162.702 25.2621C162.702 25.5765 162.807 26.2055 162.702 26.4151C162.492 26.6247 161.968 27.2537 161.548 27.5681C161.234 27.9874 160.709 28.1971 160.604 28.6164C160.499 29.0356 160.499 29.2453 160.499 29.7694C160.499 30.2935 160.29 30.5031 160.709 30.7128C161.129 30.9224 161.234 31.0273 161.548 31.2369C161.758 31.4465 161.758 31.3417 162.178 31.4465C162.597 31.4465 163.121 31.5514 163.541 31.4465C163.96 31.2369 164.275 31.2369 164.695 31.3417C164.904 31.3417 164.904 31.3417 165.324 31.4465C165.743 31.5514 165.638 31.4465 166.058 31.4465H166.582C166.792 31.3417 167.107 31.1321 167.317 31.0273C167.631 30.9224 167.526 30.3983 167.526 30.1887C167.526 29.979 167.736 29.8742 167.736 29.4549C167.736 29.1405 167.631 29.0356 167.317 28.9308C167.107 28.9308 167.107 28.7212 166.792 28.5115C166.478 28.3019 166.687 27.9874 166.792 27.673C166.897 27.4633 167.107 26.8344 167.317 26.4151C167.526 25.9958 167.317 25.3669 167.317 25.0524C167.317 24.7379 167.421 24.8428 167.421 24.3187C167.421 23.7945 167.317 23.6897 166.897 23.2704C166.478 22.8512 166.687 22.8512 166.582 22.6415C166.478 22.4319 166.373 22.327 166.163 22.1174C165.848 21.9078 165.743 21.8029 165.743 21.8029C165.324 21.5933 164.799 21.5933 164.485 21.5933C164.17 21.5933 163.96 21.3836 163.96 21.3836C163.751 21.3836 163.226 21.8029 162.807 22.1174C162.387 22.4319 161.863 22.5367 161.234 22.8512C160.604 23.1656 159.87 23.6897 159.451 23.6897C159.031 23.6897 158.821 23.7945 158.612 23.5849C158.402 23.3753 158.192 23.0608 158.087 22.8512C157.982 22.6415 157.878 22.4319 157.248 22.327C156.619 22.2222 156.409 21.5933 156.409 21.5933C156.409 21.5933 156.095 21.4885 156.095 21.9078C156.095 22.327 156.095 22.5367 155.99 22.8512C155.885 23.1656 155.885 23.5849 155.99 23.8994C156.095 24.2138 156.2 24.5283 156.2 25.1572C156.2 25.891 156.095 26.7296 156.2 27.044C156.2 27.3585 156.304 27.4633 156.2 27.8826C156.095 28.3019 156.304 28.826 156.304 29.1405C156.304 29.4549 156.619 30.0839 156.724 30.3983C156.829 30.7128 156.829 30.8176 156.724 31.1321C156.724 31.3417 156.724 31.761 157.039 31.8658C157.353 31.9706 157.458 31.8658 157.878 32.0755C158.087 32.5996 157.982 32.4948 158.297 32.7044ZM107.117 25.891C107.117 25.891 107.012 25.7862 106.802 25.891C106.592 25.9958 106.488 26.1006 105.963 26.2055C105.439 26.3103 105.229 26.3103 105.124 26.4151C104.914 26.5199 104.914 26.5199 104.705 26.5199C104.495 26.5199 104.39 26.5199 104.18 26.7296C103.97 26.9392 103.866 26.9392 103.446 26.9392C103.131 26.9392 102.817 26.9392 102.502 27.1488C102.188 27.3585 101.978 27.4633 101.558 27.5681C101.139 27.673 101.034 27.673 100.719 27.7778C100.405 27.8826 100.3 27.8826 99.9851 27.8826C99.6705 27.8826 99.4607 27.9874 99.2509 28.0922C99.0412 28.1971 98.7266 28.5115 98.4119 28.4067C98.0973 28.1971 97.5729 28.3019 97.2583 28.5115C96.9436 28.7212 96.7339 28.7212 96.3144 28.7212C95.9997 28.7212 95.79 28.5115 95.4753 28.7212C95.2656 28.9308 94.8461 28.7212 94.6363 28.7212C94.6363 28.7212 95.0558 29.4549 95.2656 29.8742C95.4753 30.2935 95.79 31.0273 95.9997 31.0273C96.2095 31.0273 97.1534 31.1321 98.8314 30.1887C98.8314 30.1887 98.9363 30.0839 99.3558 29.979C99.7753 29.8742 100.509 29.5597 100.824 29.4549C101.139 29.2453 101.244 29.0356 101.558 29.0356C101.768 29.0356 102.188 28.826 102.502 28.6164C102.817 28.4067 103.446 27.9874 103.656 27.7778C103.866 27.5681 104.495 27.1488 105.229 26.8344C105.229 26.8344 106.068 26.3103 106.278 26.2055C106.802 26.4151 107.117 26.1006 107.117 25.891ZM81.5266 38.4696H83.9388V46.2264H81.5266V38.4696ZM126.309 38.4696H124.002V46.2264H130.19V44.9686H126.309V38.4696ZM92.329 42.9769L87.5046 38.4696H86.1412V46.2264H87.9242V41.2998L93.168 46.2264H94.1119V38.4696H92.329V42.9769ZM76.8071 41.6143H74.1852V38.4696H71.773V46.2264H74.1852V42.8721H76.8071V46.2264H79.2193V38.4696H76.8071V41.6143ZM98.5168 38.4696L94.951 46.2264H96.9436L97.6778 44.3396H101.034L101.873 46.2264H104.285L100.719 38.4696H98.5168ZM98.2022 43.1866L99.3558 40.3564L100.614 43.1866H98.2022ZM107.956 39.6226H110.263V46.2264H112.675V39.6226H114.878V38.4696H107.956V39.6226ZM118.339 42.8721H121.38V41.7191H118.339V39.6226H122.324V38.4696H115.926V46.2264H122.534V44.9686H118.339V42.8721ZM134.175 42.8721H137.217V41.7191H134.175V39.6226H138.161V38.4696H131.763V46.2264H138.37V44.9686H134.175V42.8721ZM163.017 44.0252L159.136 38.5744H157.353V46.2264H159.031V41.7191L161.968 46.2264H163.121L166.373 41.7191V46.2264H168.575V38.5744H166.897L163.017 44.0252ZM151.795 38.3648C149.278 38.3648 147.495 39.7275 147.495 42.348C147.495 45.1782 149.382 46.3312 151.795 46.3312C154.207 46.3312 156.095 45.1782 156.095 42.348C156.095 40.1468 154.941 38.3648 151.795 38.3648ZM153.682 43.501C153.473 45.4927 151.69 45.1782 151.69 45.1782C150.326 45.1782 150.117 44.5493 150.117 44.5493C149.697 43.9203 149.907 41.7191 149.907 41.7191C149.907 39.0985 151.795 39.5178 151.795 39.5178C153.368 39.413 153.578 40.4612 153.578 40.4612C153.892 41.6143 153.682 43.501 153.682 43.501ZM139.419 42.348C139.419 45.1782 141.517 46.3312 144.243 46.3312C145.082 46.3312 145.921 46.2264 146.551 45.9119V44.7589C146.026 44.9686 144.768 45.1782 144.768 45.1782C142.88 45.1782 141.936 44.3396 141.936 42.348C141.936 40.566 142.88 39.5178 144.768 39.5178C145.607 39.5178 146.131 39.6226 146.551 39.9371V38.6792C145.921 38.4696 145.187 38.4696 144.243 38.4696C141.307 38.3648 139.419 39.8323 139.419 42.348ZM63.0682 42.348C63.0682 45.1782 65.1657 46.3312 67.8925 46.3312C68.7316 46.3312 69.5706 46.2264 70.1998 45.9119V44.7589C69.6755 44.9686 68.4169 45.1782 68.4169 45.1782C66.5291 45.1782 65.5852 44.3396 65.5852 42.348C65.5852 40.566 66.5291 39.5178 68.4169 39.5178C69.2559 39.5178 69.7803 39.6226 70.1998 39.9371V38.6792C69.5706 38.4696 68.8364 38.4696 67.8925 38.4696C64.956 38.3648 63.0682 39.8323 63.0682 42.348ZM37.478 0L38.2122 2.83019C41.0439 3.45912 42.9317 4.71698 43.3512 6.49895C44.3999 10.6918 37.3731 15.8281 27.7244 18.239C27.0951 18.3438 26.4659 18.5535 25.8366 18.6583C26.5707 11.9497 28.5634 7.33753 31.2902 7.33753C32.1293 7.33753 32.7585 7.75681 33.3878 8.38574L35.5902 7.75681C33.4927 3.14465 30.4512 0.314465 27.2 0.314465C21.9561 0.314465 17.2366 8.38574 15.9781 19.2872C11.8879 18.8679 8.9513 17.5052 8.32204 15.1992C7.48302 11.9497 11.5732 8.1761 17.9708 5.45073C17.761 4.8218 17.5513 3.87841 17.4464 3.3543C6.53912 7.44235 -0.382807 14.3606 1.08548 20.3354C2.23913 24.8428 8.0074 27.5681 15.6635 27.9874C16.2927 40.0419 21.222 50 27.3049 50C32.5488 50 37.2683 42.4528 38.6317 31.1321L34.8561 32.0755C34.0171 37.9455 32.339 41.9287 30.4512 41.9287C28.039 41.8239 25.9415 35.4298 25.6268 27.3585C26.9903 27.1488 28.4585 26.8344 29.9268 26.5199C43.9804 22.8512 54.0487 14.4654 52.2658 7.44235C51.217 2.93501 45.3438 0.314465 37.478 0Z" fill="white"/>
</svg>
