<svg width="81" height="50" viewBox="0 0 81 50" fill="none" xmlns="http://www.w3.org/2000/svg">
<mask id="mask0_390_1563" style="mask-type:alpha" maskUnits="userSpaceOnUse" x="0" y="0" width="81" height="50">
<rect x="0.889709" width="80" height="50" fill="#D9D9D9"/>
</mask>
<g mask="url(#mask0_390_1563)">
<path d="M74.2746 48.4186C74.2746 49.1465 73.7403 49.6356 73.107 49.6356V49.6307C72.4572 49.6356 71.9316 49.1465 71.9316 48.4176C71.9316 47.6897 72.4563 47.2025 73.107 47.2025C73.7403 47.2025 74.2746 47.6897 74.2746 48.4176V48.4186ZM74.7479 48.4186C74.7479 47.418 73.9721 46.8366 73.107 46.8366C72.2361 46.8366 71.4603 47.418 71.4603 48.4186C71.4603 49.4172 72.2361 50.0005 73.107 50.0005C73.9721 50.0005 74.7479 49.4172 74.7479 48.4186ZM72.8345 48.5515H73.011L73.4183 49.2668H73.8644L73.4135 48.5214C73.6462 48.5049 73.8382 48.3943 73.8382 48.0799C73.8382 47.6897 73.5696 47.5645 73.1148 47.5645H72.4553V49.2668H72.8345V48.5515ZM72.8345 48.2633V47.8537H73.0983C73.2418 47.8537 73.4367 47.8654 73.4367 48.0401C73.4367 48.2303 73.3359 48.2633 73.1671 48.2633H72.8345ZM63.696 39.7072L65.7423 45.309H61.5867L63.696 39.7072ZM61.5043 37.5255L56.7891 49.4823H60.1184L60.8652 47.3694H66.4454L67.1514 49.4823H70.7659L66.0148 37.5245L61.5052 37.5255H61.5043ZM52.038 49.4871H55.4158V37.5226L52.037 37.5216V49.4861L52.038 49.4871ZM28.5842 37.5197L25.765 47.0036L23.0651 37.5216L19.4206 37.5206L23.2765 49.4861H28.143L32.0309 37.5197H28.5842ZM42.2391 40.1255H43.6919C45.7983 40.1255 47.1608 41.0718 47.1608 43.5281C47.1608 45.9845 45.7983 46.9308 43.6919 46.9308H42.2391V40.1255ZM38.8894 37.5206V49.4861H44.3659C47.285 49.4861 48.2373 49.0009 49.2673 47.912C49.9946 47.1472 50.4659 45.4692 50.4659 43.6349C50.4659 41.952 50.0683 40.4526 49.373 39.518C48.1219 37.8477 46.3191 37.5206 43.6288 37.5206H38.8894ZM6.88971 37.5051V49.4861H10.2966V40.3876L12.9364 40.3885C13.8112 40.3885 14.4338 40.6069 14.8547 41.0562C15.3881 41.6259 15.6063 42.544 15.6063 44.225V49.4852H18.9075V42.8663C18.9075 38.1408 15.8982 37.5042 12.9539 37.5042H6.88971V37.5051ZM33.4546 37.5216L33.4556 49.4871H36.8324V37.5197H33.4546V37.5216Z" fill="white"/>
<path d="M15.968 13.6998C15.968 13.6998 20.3128 7.28469 28.9886 6.62086V4.29162C19.3808 5.06512 11.0579 13.2107 11.0579 13.2107C11.0579 13.2107 15.7712 26.8454 28.9896 28.0935V25.6197C19.2887 24.3978 15.9671 13.6998 15.9671 13.6998H15.968ZM28.9886 20.6982V22.9643C21.6579 21.6561 19.6232 14.0307 19.6232 14.0307C19.6232 14.0307 23.1436 10.1293 28.9886 9.49553V11.982L28.978 11.981C25.9095 11.6122 23.5122 14.4801 23.5122 14.4801C23.5122 14.4801 24.8563 19.3094 28.9886 20.6982ZM28.9886 0V4.29259C29.2709 4.27124 29.5531 4.25377 29.8363 4.24406C40.7611 3.87527 47.8795 13.2097 47.8795 13.2097C47.8795 13.2097 39.704 23.1575 31.1862 23.1575C30.4494 23.1575 29.7141 23.0925 28.9886 22.9634V25.6187C29.5957 25.6963 30.2077 25.7361 30.8196 25.7371C38.7458 25.7371 44.4774 21.6862 50.0276 16.8918C50.9479 17.6294 54.7156 19.4239 55.4895 20.209C50.2128 24.6307 37.9138 28.1944 30.9409 28.1944C30.2688 28.1944 29.6229 28.1537 28.9886 28.0925V31.8232H59.1156V0H28.9886ZM28.9886 9.49553V6.62086C29.2679 6.60145 29.5492 6.58592 29.8363 6.57718C37.6926 6.3297 42.8462 13.332 42.8462 13.332C42.8462 13.332 37.2795 21.0699 31.3113 21.0699C30.4521 21.0699 29.6821 20.9321 28.9886 20.6982V11.982C32.0474 12.3508 32.6623 13.7037 34.501 16.7705L38.5907 13.3203C38.5907 13.3203 35.6056 9.40236 30.5733 9.40236C30.0263 9.40236 29.5026 9.44118 28.9886 9.49553Z" fill="#77B900"/>
</g>
</svg>
