<svg width="220" height="50" viewBox="0 0 220 50" fill="none" xmlns="http://www.w3.org/2000/svg">
<path d="M181.458 41.4477H187.671V17.5831H181.458V41.4456V41.4477ZM181.458 14.8602H187.671V8.65809H181.458V14.8602ZM171.971 41.4477H178.181V35.2456H171.971V41.4477ZM128.031 38.2102C128.394 39.1706 128.948 39.9227 129.604 40.5102C130.271 41.1039 131.052 41.5685 131.979 41.8331C132.917 42.0977 133.958 42.1998 135.054 42.1998C136.192 42.1998 137.204 42.081 138.069 41.8498C138.871 41.6331 139.642 41.3289 140.356 40.9414V36.5623C139.219 37.0539 138.154 37.231 136.939 37.2873C135.656 37.3477 134.898 36.981 134.267 36.381C133.606 35.7518 133.252 34.9331 133.252 33.5581V20.2998H140.356V14.8623H133.252V8.65601H127.481V14.8581H124.021V20.2956H127.479V34.531C127.479 36.0018 127.667 37.2393 128.031 38.2081V38.2102ZM90.5894 22.9268H75.1207V29.3393H83.8082C83.3741 31.1428 82.4631 32.7963 81.1707 34.1268C79.2311 36.106 76.5415 37.1956 73.5978 37.1956C67.4894 37.1956 62.5186 32.2331 62.5186 26.1331C62.5186 20.0352 67.4894 15.0706 73.5978 15.0706C76.8686 15.0706 79.879 16.4706 81.9644 18.8831L86.9374 14.8248C85.2885 12.8976 83.2431 11.349 80.941 10.2848C78.6388 9.22051 76.134 8.66565 73.5978 8.65809C63.9457 8.65809 56.0936 16.4977 56.0936 26.1331C56.0936 35.7685 63.9478 43.6081 73.5978 43.6081C78.2853 43.6081 82.604 41.9206 85.7624 38.6998C88.4124 35.9977 90.1686 32.2248 90.5061 28.4456C90.6728 26.6018 90.6853 24.7706 90.5894 22.9268ZM156.229 19.7998C159.792 19.7998 162.833 22.0352 164.021 25.1789H148.437C149.036 23.5971 150.102 22.2351 151.494 21.2742C152.886 20.3133 154.538 19.799 156.229 19.7998ZM170.173 30.2539C170.28 29.5465 170.334 28.832 170.333 28.1164C170.333 20.3414 164.019 14.0373 156.229 14.0373C148.442 14.0373 142.125 20.3414 142.125 28.1164C142.125 35.8914 148.442 42.1956 156.229 42.1956C158.762 42.1973 161.249 41.5166 163.429 40.2251C165.608 38.9336 167.399 37.0789 168.614 34.856L163.404 32.3331C162.571 33.7488 161.338 34.8865 159.859 35.603C158.381 36.3194 156.724 36.5827 155.096 36.3595C153.469 36.1364 151.944 35.4368 150.713 34.3489C149.482 33.261 148.6 31.8334 148.179 30.2456H164.277V30.2539H170.173ZM106.76 36.4248C104.554 36.4259 102.438 35.5508 100.877 33.9921C99.3157 32.4333 98.4375 30.3184 98.4353 28.1123C98.4353 23.5206 102.164 19.7998 106.76 19.7998C107.853 19.7987 108.935 20.0128 109.945 20.43C110.955 20.8472 111.872 21.4592 112.646 22.2311C113.419 23.003 114.033 23.9197 114.452 24.9288C114.87 25.9379 115.087 27.0196 115.087 28.1123C115.087 32.7039 111.358 36.4248 106.76 36.4248ZM106.76 14.0623C98.9728 14.0623 92.6603 20.3643 92.6603 28.1393C92.6603 35.9143 98.9728 42.2164 106.76 42.2164C114.548 42.2164 120.86 35.9143 120.86 28.1393C120.86 20.3643 114.548 14.0623 106.76 14.0623Z" fill="white"/>
<path d="M115.089 41.4476H120.864V14.8372H115.089V41.4476ZM205.006 36.4247C203.914 36.4258 202.831 36.2117 201.822 35.7945C200.812 35.3773 199.894 34.7653 199.121 33.9934C198.347 33.2215 197.734 32.3048 197.315 31.2957C196.896 30.2866 196.68 29.2048 196.679 28.1122C196.679 23.5226 200.408 19.7997 205.006 19.7997C206.099 19.7989 207.18 20.0133 208.19 20.4306C209.2 20.8479 210.117 21.4599 210.89 22.2318C211.663 23.0037 212.277 23.9203 212.696 24.9293C213.114 25.9382 213.33 27.0198 213.331 28.1122C213.33 29.2047 213.114 30.2862 212.696 31.2952C212.277 32.3042 211.663 33.2207 210.89 33.9926C210.117 34.7645 209.2 35.3766 208.19 35.7939C207.18 36.2112 206.099 36.4255 205.006 36.4247ZM205.006 14.0393C197.219 14.0393 190.902 20.3435 190.902 28.1185C190.902 35.8935 197.219 42.1976 205.006 42.1976C212.794 42.1976 219.11 35.8935 219.11 28.1185C219.11 20.3435 212.794 14.0393 205.006 14.0393Z" fill="white"/>
<path d="M25.402 38.75C17.7957 38.75 11.629 32.5938 11.629 25C11.629 17.4062 17.7957 11.25 25.3999 11.25V0C11.5728 0 0.360291 11.1917 0.360291 25C0.360291 38.8063 11.5707 50 25.402 50C39.2311 50 50.4436 38.8063 50.4436 25H39.1728C39.1728 32.5938 33.0061 38.75 25.402 38.75Z" fill="#2354E6"/>
<path d="M25.402 24.9951H39.1749V11.2451H25.4041V24.9951H25.402Z" fill="#17E6A1"/>
</svg>
