<svg width="163" height="50" viewBox="0 0 163 50" fill="none" xmlns="http://www.w3.org/2000/svg">
<mask id="mask0_390_1599" style="mask-type:alpha" maskUnits="userSpaceOnUse" x="0" y="0" width="163" height="50">
<rect x="0.5" width="162" height="50" fill="#D9D9D9"/>
</mask>
<g mask="url(#mask0_390_1599)">
</g>
<g clip-path="url(#clip0_390_1599)">
<path d="M40.2209 41.6855H31.3588L28.7287 35.1848H14.0919L11.6334 41.6855H3L16.1502 8.7793H25.5841L40.2209 41.6855ZM21.0673 16.6032L16.2074 29.432H26.2702L21.0673 16.6032Z" fill="white"/>
<path d="M72.0104 8.7793H79.1001V41.6855H70.9241V21.2054L62.1191 31.503H60.8613L52.0563 21.1479V41.628H43.9375V8.7793H51.0272L61.5474 21.0328L72.0104 8.7793Z" fill="white"/>
<path d="M99.7396 8.7793C111.689 8.7793 117.864 16.258 117.864 25.29C117.864 34.7246 111.918 41.6855 98.882 41.6855H85.3315V8.7793H99.7396ZM93.5076 35.6451H98.8248C107.001 35.6451 109.459 30.0648 109.459 25.2324C109.459 19.5371 106.429 14.8198 98.7105 14.8198H93.5076V35.6451Z" fill="white"/>
<path d="M150.911 16.6051H134.045L123.753 6.25H161.203V43.8736L150.911 33.576V16.6051Z" fill="white"/>
<path d="M134.045 33.5766V18.6768L123.468 29.3195V44.2194H138.276L148.853 33.5766H134.045Z" fill="white"/>
</g>
<defs>
<clipPath id="clip0_390_1599">
<rect width="158.203" height="37.9688" fill="white" transform="translate(3 6.25)"/>
</clipPath>
</defs>
</svg>
