<svg width="768" height="782" viewBox="0 0 768 782" fill="none" xmlns="http://www.w3.org/2000/svg">
<path d="M451.222 297.483C427.285 267.804 403.225 249.034 402.211 248.272C391.779 240.179 377.03 239.774 366.029 247.898C364.984 248.661 340.064 267.243 315.205 296.316C279.93 337.528 262 378.693 262 418.675C262 486.516 314.883 542 382.038 542C449.194 542 502 488.493 502 422.457C502 381.308 484.9 339.271 451.222 297.53V297.499V297.483ZM382.038 511.433C331.476 511.433 292.175 469.443 292.175 418.675C292.175 340.578 383.851 272.566 383.851 272.566C383.851 272.566 417.821 298.837 443.54 338.384C407.42 323.287 368.057 329.59 340.31 355.13C316.004 377.448 306.909 410.209 316.834 440.527C340.126 511.48 442.818 496.259 447.458 430.815C449.809 397.463 421.77 381.961 396.342 387.938C367.612 394.723 359.653 425.212 384.312 435.359C384.42 409.229 417.929 408.015 417.929 430.737C417.929 446.425 401.704 455.981 387.616 457.491C345.303 462.004 326.974 408.637 360.59 377.666C399.246 342.197 468.783 364.982 471.795 423.298C474.191 469.692 431.987 511.433 381.992 511.433H382.023H382.038Z" fill="url(#paint0_linear_390_883)"/>
<path opacity="0.1" d="M605.511 -0.453812C528.913 -95.428 451.921 -155.49 448.676 -157.931C415.293 -183.828 368.095 -185.123 332.893 -159.126C329.55 -156.686 249.805 -97.2209 170.257 -4.18903C57.3751 127.689 0 259.418 0 387.362C0 604.453 169.225 782 384.123 782C599.021 782 768 610.778 768 399.464C768 267.785 713.28 133.267 605.511 -0.304413V-0.404007V-0.453812ZM384.123 684.187C222.322 684.187 96.5592 549.819 96.5592 387.362C96.5592 137.45 389.924 -80.1883 389.924 -80.1883C389.924 -80.1883 498.627 3.87904 580.929 130.428C465.343 82.1194 339.383 102.29 250.592 184.016C172.814 255.434 143.708 360.269 175.468 457.285C250.002 684.336 578.618 635.629 593.466 426.208C600.988 319.48 511.263 269.876 429.895 289.001C337.957 310.715 312.49 408.279 391.399 440.75C391.743 357.131 498.971 353.247 498.971 425.959C498.971 476.16 447.054 506.739 401.97 511.57C266.57 526.013 207.917 355.239 315.489 256.131C439.187 142.63 661.706 215.541 671.342 402.153C679.012 550.616 543.957 684.187 383.975 684.187H384.074H384.123Z" fill="url(#paint1_linear_390_883)"/>
<defs>
<linearGradient id="paint0_linear_390_883" x1="382" y1="242" x2="382" y2="542" gradientUnits="userSpaceOnUse">
<stop stop-color="#EBFF87"/>
<stop offset="1" stop-color="#E3FF57"/>
</linearGradient>
<linearGradient id="paint1_linear_390_883" x1="77.5729" y1="782" x2="882.807" y2="-58.2052" gradientUnits="userSpaceOnUse">
<stop offset="0.419543" stop-color="#E3FF57"/>
<stop offset="1" stop-color="#75EB36"/>
</linearGradient>
</defs>
</svg>
