<svg width="60" height="60" viewBox="0 0 60 60" fill="none" xmlns="http://www.w3.org/2000/svg">
<mask id="mask0_390_3873" style="mask-type:alpha" maskUnits="userSpaceOnUse" x="0" y="0" width="60" height="60">
<rect width="60" height="60" fill="#D9D9D9"/>
</mask>
<g mask="url(#mask0_390_3873)">
<path d="M29.998 7.00098C30.1142 7.00098 30.2292 7.02386 30.3366 7.06831C30.4439 7.11277 30.5414 7.17793 30.6236 7.26007C30.7057 7.34222 30.7709 7.43974 30.8153 7.54706C30.8598 7.65439 30.8827 7.76942 30.8827 7.88559C30.8827 8.00176 30.8598 8.11679 30.8153 8.22412C30.7709 8.33145 30.7057 8.42897 30.6236 8.51111C30.5414 8.59325 30.4439 8.65841 30.3366 8.70287C30.2292 8.74733 30.1142 8.77021 29.998 8.77021C18.2733 8.77021 8.76728 18.2763 8.76728 30.001C8.76728 41.7274 18.2733 51.2317 29.998 51.2317C41.7227 51.2317 51.2288 41.7274 51.2288 30.001C51.2288 26.5563 50.4079 23.2301 48.858 20.2384C48.7989 20.1349 48.7614 20.0205 48.7476 19.9021C48.7338 19.7837 48.744 19.6638 48.7777 19.5495C48.8115 19.4352 48.8679 19.3289 48.9437 19.2369C49.0196 19.145 49.1132 19.0693 49.219 19.0144C49.3248 18.9596 49.4406 18.9266 49.5594 18.9176C49.6782 18.9086 49.7977 18.9237 49.9105 18.962C50.0234 19.0003 50.1273 19.061 50.2161 19.1405C50.3049 19.22 50.3768 19.3166 50.4273 19.4245C52.1217 22.6922 53.0035 26.3201 52.998 30.001C52.998 42.7041 42.7011 53.001 29.998 53.001C17.295 53.001 6.99805 42.7041 6.99805 30.001C6.99805 17.2979 17.295 7.00098 29.998 7.00098ZM45.7477 13.2393C46.4041 13.8585 47.0251 14.5131 47.6054 15.2031C47.7463 15.3837 47.8117 15.6119 47.7877 15.8397C47.7638 16.0675 47.6525 16.2771 47.4771 16.4245C47.3018 16.5718 47.0762 16.6454 46.8477 16.6298C46.6191 16.6142 46.4056 16.5106 46.2519 16.3407C45.7159 15.7038 45.1426 15.0987 44.5358 14.5291C44.4511 14.4495 44.3829 14.354 44.3351 14.2481C44.2873 14.1421 44.2609 14.0278 44.2573 13.9117C44.2537 13.7955 44.273 13.6798 44.3141 13.5711C44.3552 13.4624 44.4173 13.3629 44.4969 13.2782C44.5765 13.1935 44.6719 13.1253 44.7779 13.0775C44.8838 13.0298 44.9981 13.0033 45.1142 12.9997C45.2304 12.9961 45.3461 13.0154 45.4548 13.0565C45.5635 13.0976 45.663 13.1597 45.7477 13.2393Z" fill="#C0EE02" stroke="#C0EE02"/>
<path d="M29.1409 12.8584C29.1409 12.631 29.2312 12.413 29.392 12.2523C29.5527 12.0915 29.7707 12.0012 29.998 12.0012C39.9392 12.0012 47.998 20.0601 47.998 30.0012C47.998 30.2285 47.9077 30.4466 47.747 30.6073C47.5863 30.7681 47.3682 30.8584 47.1409 30.8584C46.9136 30.8584 46.6956 30.7681 46.5348 30.6073C46.3741 30.4466 46.2838 30.2285 46.2838 30.0012C46.2838 25.682 44.568 21.5396 41.5138 18.4855C38.4596 15.4313 34.3173 13.7155 29.998 13.7155C29.7707 13.7155 29.5527 13.6252 29.392 13.4645C29.2312 13.3037 29.1409 13.0857 29.1409 12.8584ZM11.998 30.0012C11.998 29.7739 12.0884 29.5559 12.2491 29.3951C12.4098 29.2344 12.6279 29.1441 12.8552 29.1441C13.0825 29.1441 13.3005 29.2344 13.4613 29.3951C13.622 29.5559 13.7123 29.7739 13.7123 30.0012C13.7123 34.3205 15.4281 38.4628 18.4823 41.517C21.5365 44.5711 25.6788 46.2869 29.998 46.2869C30.2254 46.2869 30.4434 46.3772 30.6041 46.538C30.7649 46.6987 30.8552 46.9167 30.8552 47.1441C30.8552 47.3714 30.7649 47.5894 30.6041 47.7502C30.4434 47.9109 30.2254 48.0012 29.998 48.0012C20.0569 48.0012 11.998 39.9424 11.998 30.0012Z" fill="#C0EE02" stroke="#C0EE02"/>
<path d="M29.9971 17.657C33.2613 17.657 36.3919 18.9537 38.7 21.2618C41.0081 23.57 42.3048 26.7005 42.3048 29.9647C42.3048 33.2289 41.0081 36.3594 38.7 38.6675C36.3919 40.9757 33.2613 42.2724 29.9971 42.2724C26.7329 42.2724 23.6024 40.9757 21.2943 38.6675C18.9862 36.3594 17.6895 33.2289 17.6895 29.9647C17.6895 26.7005 18.9862 23.57 21.2943 21.2618C23.6024 18.9537 26.7329 17.657 29.9971 17.657ZM34.1295 34.5816H25.8648C26.6695 38.257 28.3571 40.7339 29.9971 40.7339C31.6356 40.7339 33.3248 38.2554 34.1295 34.5816ZM24.291 34.5816H20.2648C20.8861 35.8872 21.7631 37.0548 22.844 38.0151C23.9249 38.9755 25.1875 39.709 26.5571 40.1724C25.5495 38.8108 24.7541 36.8647 24.291 34.5801V34.5816ZM39.7295 34.5816H35.7033C35.2418 36.8662 34.4448 38.8108 33.4356 40.1724C34.8056 39.7093 36.0686 38.9758 37.1497 38.0155C38.2308 37.0551 39.1081 35.8874 39.7295 34.5816ZM23.891 28.4262H19.3356C19.1153 29.9716 19.2308 31.5464 19.6741 33.0431H24.0356C23.84 31.5123 23.7916 29.9663 23.891 28.4262ZM34.5618 28.4262H25.4325C25.3303 29.9661 25.3834 31.5124 25.591 33.0416H34.4033C34.6146 31.5127 34.6677 29.966 34.5618 28.4262ZM40.6571 28.4262H36.1033C36.1986 29.9659 36.1497 31.5111 35.9571 33.0416L40.3202 33.0431C40.7663 31.5469 40.8818 29.9715 40.6587 28.4262H40.6571ZM26.5587 19.757L26.4602 19.7893C24.8484 20.3517 23.3929 21.2883 22.2133 22.5222C21.0336 23.7562 20.1634 25.2523 19.6741 26.8878H24.0371C24.4171 23.9385 25.3295 21.4154 26.5587 19.757ZM29.9971 19.1954C28.1387 19.1954 26.2141 22.3847 25.591 26.8878H34.4033C33.7987 22.5185 31.9679 19.3862 30.1633 19.2031L29.9971 19.1954ZM33.4371 19.757L33.4602 19.7878C34.6756 21.4478 35.5802 23.957 35.9571 26.8878H40.3202C39.8258 25.2359 38.9429 23.7264 37.7453 22.4858C36.5478 21.2452 35.0705 20.3095 33.4371 19.757Z" fill="#C0EE02" stroke="#C0EE02"/>
<g opacity="0.2">
<circle cx="29.498" cy="30.501" r="11.5" fill="#D9D9D9"/>
<circle cx="29.498" cy="30.501" r="11.5" fill="#D9D9D9"/>
</g>
</g>
</svg>
