<svg width="60" height="60" viewBox="0 0 60 60" fill="none" xmlns="http://www.w3.org/2000/svg">
<mask id="mask0_390_3850" style="mask-type:alpha" maskUnits="userSpaceOnUse" x="0" y="0" width="60" height="60">
<rect width="60" height="60" fill="#D9D9D9"/>
</mask>
<g mask="url(#mask0_390_3850)">
<path opacity="0.2" d="M29.7988 24.3325C29.7988 27.15 30.9181 29.8522 32.9104 31.8446C34.9028 33.8369 37.605 34.9562 40.4225 34.9562C43.2401 34.9562 45.9423 33.8369 47.9346 31.8446C49.927 29.8522 51.0463 27.15 51.0463 24.3325C51.0463 22.9373 50.7715 21.5559 50.2376 20.2669C49.7037 18.978 48.9211 17.8069 47.9346 16.8204C46.9481 15.8339 45.777 15.0513 44.4881 14.5174C43.1991 13.9835 41.8177 13.7087 40.4225 13.7087C39.0274 13.7087 37.646 13.9835 36.357 14.5174C35.0681 15.0513 33.8969 15.8339 32.9104 16.8204C31.9239 17.8069 31.1414 18.978 30.6075 20.2669C30.0736 21.5559 29.7988 22.9373 29.7988 24.3325Z" fill="white"/>
<path d="M46.6477 26.0313C46.3721 26.0313 46.0965 26.0438 45.8209 26.0626C45.2007 18.2076 38.611 12 30.5931 12C23.2768 12 17.0629 17.2179 15.6347 24.2022C15.19 24.1521 14.7452 24.1271 14.3005 24.1271C7.51661 24.1271 1.99805 29.6456 1.99805 36.4295C1.99805 43.2134 7.51661 48.732 14.3005 48.732H46.6477C52.9054 48.732 57.998 43.6394 57.998 37.3817C57.998 31.1239 52.9054 26.0313 46.6477 26.0313ZM46.6477 45.0613H14.3005C9.53988 45.0613 5.675 41.1902 5.675 36.4295C5.675 31.6689 9.54614 27.7978 14.3005 27.7978C15.1023 27.7978 15.9041 27.9105 16.6808 28.136C17.2133 28.2864 17.7895 28.1924 18.2406 27.8729C18.6916 27.5535 18.9797 27.0461 19.0173 26.4949C19.4182 20.4251 24.5045 15.6707 30.5869 15.6707C36.9824 15.6707 42.1878 20.8761 42.1878 27.2716C42.1878 27.5221 42.1752 27.7852 42.1564 28.111C42.1126 28.7123 42.3631 29.2949 42.8329 29.6707C43.3027 30.0465 43.9229 30.1718 44.4992 30.0089C45.2007 29.8085 45.9211 29.702 46.6414 29.702C50.8759 29.702 54.3211 33.1472 54.3211 37.3817C54.3211 41.6161 50.8822 45.0613 46.6477 45.0613Z" fill="#C0EE02"/>
<path d="M37.7771 34.8439C36.9878 34.205 35.8352 34.324 35.1963 35.1132C33.5551 37.1302 31.8325 38.1575 30.0724 38.1638H30.0536C26.978 38.1638 24.4536 35.1696 24.4035 35.107C23.7645 34.324 22.612 34.205 21.8227 34.8439C21.0334 35.4828 20.9144 36.6417 21.5533 37.4247C21.6974 37.6063 25.1927 41.8345 30.0473 41.8345C32.9726 41.8345 35.6598 40.3499 38.0401 37.4247C38.6853 36.6354 38.5663 35.4828 37.7771 34.8439Z" fill="#C0EE02"/>
</g>
</svg>
