<svg width="60" height="60" viewBox="0 0 60 60" fill="none" xmlns="http://www.w3.org/2000/svg">
<mask id="mask0_390_3861" style="mask-type:alpha" maskUnits="userSpaceOnUse" x="0" y="0" width="60" height="60">
<rect width="60" height="60" fill="#D9D9D9"/>
</mask>
<g mask="url(#mask0_390_3861)">
<path d="M22.3314 7.00098H10.8314C8.72305 7.00098 6.99805 8.72598 6.99805 10.8343V22.3343C6.99805 24.4426 8.72305 26.1676 10.8314 26.1676H22.3314C24.4397 26.1676 26.1647 24.4426 26.1647 22.3343V10.8343C26.1647 8.72598 24.4397 7.00098 22.3314 7.00098ZM22.3314 22.3343H10.8314V10.8343H22.3314V22.3343ZM49.1647 33.8343H37.6647C35.5564 33.8343 33.8314 35.5593 33.8314 37.6676V49.1676C33.8314 51.276 35.5564 53.001 37.6647 53.001H49.1647C51.2731 53.001 52.998 51.276 52.998 49.1676V37.6676C52.998 35.5593 51.2731 33.8343 49.1647 33.8343ZM49.1647 49.1676H37.6647V37.6676H49.1647V49.1676ZM13.323 31.9176C14.473 31.9176 15.2397 32.6843 15.2397 33.8343V45.3343C15.2397 46.4843 16.0064 47.251 17.1564 47.251H28.6564C29.8064 47.251 30.573 48.0176 30.573 49.1676C30.573 50.3176 29.8064 51.0843 28.6564 51.0843H17.1564C13.898 51.0843 11.4064 48.5926 11.4064 45.3343V33.8343C11.4064 32.6843 12.3647 31.9176 13.323 31.9176ZM46.8647 28.0843C45.7147 28.0843 44.948 27.3176 44.948 26.1676V14.6676C44.948 13.5176 44.1814 12.751 43.0314 12.751H31.5314C30.3814 12.751 29.6147 11.9843 29.6147 10.8343C29.6147 9.68431 30.3814 8.91764 31.5314 8.91764H43.0314C46.2897 8.91764 48.7814 11.4093 48.7814 14.6676V26.1676C48.7814 27.3176 47.823 28.0843 46.8647 28.0843Z" fill="#C0EE02"/>
<path d="M22.3314 7.00098H10.8314C8.72305 7.00098 6.99805 8.72598 6.99805 10.8343V22.3343C6.99805 24.4426 8.72305 26.1676 10.8314 26.1676H22.3314C24.4397 26.1676 26.1647 24.4426 26.1647 22.3343V10.8343C26.1647 8.72598 24.4397 7.00098 22.3314 7.00098ZM22.3314 22.3343H10.8314V10.8343H22.3314V22.3343ZM49.1647 33.8343H37.6647C35.5564 33.8343 33.8314 35.5593 33.8314 37.6676V49.1676C33.8314 51.276 35.5564 53.001 37.6647 53.001H49.1647C51.2731 53.001 52.998 51.276 52.998 49.1676V37.6676C52.998 35.5593 51.2731 33.8343 49.1647 33.8343ZM49.1647 49.1676H37.6647V37.6676H49.1647V49.1676Z" fill="#C0EE02"/>
<path d="M52.2311 22.9095C52.9978 23.4845 53.1894 24.8262 52.6144 25.5929L49.9311 29.2345C48.3978 31.1512 45.5228 31.3429 43.9895 29.4262L46.8645 26.9345L49.5478 23.2929C50.1228 22.5262 51.2728 22.3345 52.2311 22.9095ZM41.3061 23.4845C42.0728 22.7179 43.2228 22.9095 43.9895 23.6762L46.8645 26.9345L43.9895 29.4262L41.1145 26.1679C40.3478 25.4012 40.3478 24.2512 41.3061 23.4845ZM18.8811 37.0929C19.6478 36.5179 19.8395 35.1762 19.2645 34.4095L16.5811 30.7679C15.0478 28.8512 12.1728 28.6595 10.6395 30.5762L13.5145 33.0679L16.1978 36.7095C16.7728 37.4762 17.9228 37.6679 18.8811 37.0929ZM7.76445 36.5179C8.53112 37.2845 9.68112 37.0929 10.4478 36.3262L13.5145 33.0679L10.6395 30.5762L7.76445 33.8345C6.99779 34.6012 6.99779 35.7512 7.76445 36.5179Z" fill="#C0EE02"/>
<rect x="18.8262" y="18.8289" width="21.6857" height="21.6857" rx="4" fill="white" fill-opacity="0.2"/>
</g>
</svg>
