<svg width="88" height="50" viewBox="0 0 88 50" fill="none" xmlns="http://www.w3.org/2000/svg">
<mask id="mask0_390_1438" style="mask-type:alpha" maskUnits="userSpaceOnUse" x="0" y="0" width="88" height="50">
<rect width="87.5" height="50" fill="#D9D9D9"/>
</mask>
<g mask="url(#mask0_390_1438)">
<path d="M24.0496 17.9123C24.0496 18.8019 24.0496 19.3949 24.3462 20.2845L25.2357 22.0636C25.2357 22.3602 25.5323 22.3602 25.5323 22.6567C25.5323 22.9532 25.2357 23.2498 24.9392 23.5463L23.4566 24.7324C23.1601 24.7324 23.1601 25.0289 22.8635 25.0289C22.567 25.0289 22.2705 25.0289 21.974 24.7324C21.6774 24.4359 21.3809 24.1393 21.0844 23.5463C20.7879 23.2498 20.4913 22.6567 20.1948 22.0636C18.1191 23.5463 15.4504 25.0289 12.4851 25.0289C10.706 25.0289 8.63028 24.4359 7.44417 23.2498C6.25807 22.0636 5.36849 20.2845 5.66502 18.5053C5.66502 16.4297 6.5546 14.6505 8.03723 13.4644C9.81638 11.9818 12.1886 11.3887 14.2643 11.3887C15.1539 11.3887 16.0434 11.3887 16.933 11.6852C17.8226 11.6852 19.0087 11.9818 19.8983 12.2783V9.90607C20.1948 8.42344 19.6017 6.94081 18.7122 5.75471C17.5261 4.86513 16.0434 4.5686 14.5608 4.5686C13.6712 4.5686 12.7816 4.5686 11.8921 4.86513L9.22333 5.75471C8.92681 5.75471 8.63028 6.05123 8.33375 6.05123H8.03723C7.7407 6.05123 7.44417 5.75471 7.44417 5.16166V4.27208C7.44417 3.97555 7.44417 3.67902 7.7407 3.3825C8.03723 3.08597 8.33375 3.08597 8.33375 2.78945C9.51986 2.19639 10.4094 1.89987 11.5955 1.60334C12.1886 1.60334 13.6712 1.30681 14.8573 1.30681C17.2295 1.01029 19.6017 1.89987 21.6774 3.3825C23.1601 5.16166 24.0496 7.23734 23.7531 9.60955V17.9123H24.0496ZM13.3747 21.7671C14.2643 21.7671 15.1539 21.4706 16.0434 21.1741C16.933 20.8775 17.8226 20.2845 18.4156 19.6914C18.7122 19.3949 19.0087 18.8019 19.3052 18.2088C19.6017 17.3192 19.6017 16.4296 19.6017 15.8366V14.6505C18.7122 14.354 18.1191 14.354 17.2295 14.354C16.34 14.354 15.7469 14.0574 14.8573 14.0574C13.3747 14.0574 12.1886 14.354 11.0025 14.947C10.1129 15.5401 9.81638 16.7262 9.81638 17.6158C9.81638 18.5053 10.1129 19.6914 10.706 20.2845C11.299 21.4706 12.4851 21.7671 13.3747 21.7671ZM34.1315 24.4359C33.835 24.4359 33.5385 24.4359 33.242 24.1393C32.9454 23.8428 32.6489 23.5463 32.6489 23.2498L26.7184 3.67902C26.7184 3.3825 26.4219 3.08597 26.4219 2.78945C26.4219 2.49292 26.4219 2.49292 26.7184 2.19639C26.7184 2.19639 27.0149 1.89987 27.3114 1.89987H29.9802C30.2767 1.89987 30.5732 1.89987 30.8697 2.19639C31.1663 2.49292 31.1663 2.78945 31.4628 3.08597L35.9107 19.6914L40.0621 3.08597C40.0621 2.78945 40.3586 2.49292 40.6551 2.19639C40.9516 1.89987 41.2482 1.89987 41.8412 1.89987H43.9169C44.2134 1.89987 44.51 1.89987 45.103 2.19639C45.3995 2.49292 45.3995 2.78945 45.6961 3.08597L49.8474 19.988L54.2953 3.08597C54.2953 2.78945 54.5918 2.49292 54.8884 2.19639C55.1849 1.89987 55.4814 1.89987 55.778 1.89987H58.1502C58.4467 1.89987 58.4467 1.89987 58.7432 2.19639C58.7432 2.19639 59.0397 2.49292 59.0397 2.78945V3.08597C59.0397 3.3825 59.0397 3.3825 58.7432 3.67902L52.5162 23.2498C52.5162 23.5463 52.2196 23.8428 51.9231 24.1393C51.6266 24.4359 51.3301 24.4359 51.0335 24.4359H48.6613C48.3648 24.4359 48.0683 24.4359 47.4752 24.1393C47.1787 23.8428 47.1787 23.5463 46.8822 23.2498L42.7308 6.94081L38.876 23.2498C38.876 23.5463 38.5794 23.8428 38.2829 24.1393C37.9864 24.4359 37.6898 24.4359 37.0968 24.4359H34.1315ZM67.639 25.0289C66.1564 25.0289 64.9703 25.0289 63.7842 24.7324C62.598 24.4359 61.7085 24.1393 60.8189 23.8428C60.2258 23.5463 59.9293 22.9532 59.9293 22.3602V20.8775C59.9293 20.2845 60.2258 19.988 60.5224 19.988H61.1154L61.7085 20.2845C62.5981 20.581 63.4876 20.8775 64.6737 21.1741C65.5633 21.4706 66.7494 21.4706 67.9355 21.4706C69.1216 21.4706 70.6043 21.1741 71.7904 20.581C72.6799 19.988 73.273 19.0984 73.273 18.2088C73.273 17.6158 72.9765 17.0227 72.6799 16.4296C70.9008 16.1331 70.0112 15.5401 69.1216 15.2435L65.2668 14.0574C63.7842 13.7609 62.3015 12.8713 61.1154 11.3887C60.2258 10.2026 59.9293 9.0165 59.9293 7.83039C59.9293 6.94081 60.2258 5.75471 60.5224 5.16166C61.1154 4.27208 61.7085 3.67902 62.5981 3.08597C63.4876 2.49292 64.3772 2.19639 65.2668 1.89987C66.1564 1.60334 67.3425 1.30681 68.2321 1.30681H70.0112C70.6043 1.30681 71.1973 1.60334 71.7904 1.60334C72.3834 1.60334 72.6799 1.89987 73.273 1.89987C73.5695 1.89987 73.8661 2.19639 74.4591 2.19639C74.7556 2.49292 75.0522 2.49292 75.3487 2.78945C75.6452 3.08597 75.6452 3.3825 75.6452 3.67902V4.86513C75.6452 5.45818 75.3487 5.75471 75.0522 5.75471C74.7556 5.75471 74.4591 5.75471 74.1626 5.45818C72.6799 4.86513 70.9008 4.5686 69.1216 4.5686C67.9355 4.5686 66.7494 4.86513 65.5633 5.16166C64.6737 6.05123 64.0807 6.64429 64.0807 7.83039C64.0807 8.42344 64.3772 9.0165 64.9703 9.60955C65.8598 10.2026 66.7494 10.7957 67.9355 11.0922L71.4938 12.2783C72.9765 12.5748 74.4591 13.4644 75.6452 14.6505C76.5348 15.8366 76.8313 17.0227 76.8313 18.2088C76.8313 19.0984 76.5348 20.2845 76.2383 21.1741C75.6452 22.0636 75.0522 22.9532 74.4591 23.5463C73.5695 24.1393 72.6799 24.7324 71.4938 25.0289H67.639Z" fill="#252F3E"/>
<path d="M75.9417 37.1846C67.3425 44.5978 54.8884 48.7491 44.2134 48.7491C29.9801 48.7491 16.0434 42.5221 5.36848 31.2541C4.4789 30.3645 5.36848 29.1784 6.25806 29.7714C18.1191 37.7777 31.4628 41.929 45.103 41.929C55.1849 41.929 65.2668 39.5568 74.7556 34.8124C76.2382 34.2193 77.4243 35.9985 75.9417 37.1846Z" fill="#FF9900"/>
<path d="M77.4248 33.6257C76.2387 32.1432 70.3084 33.0327 67.6398 33.3292C66.7503 33.3292 66.7503 32.7362 67.3433 32.1432C72.0875 28.8815 80.0934 29.771 80.983 30.9571C81.8725 32.1432 80.6865 40.1491 76.2387 43.7072C75.6457 44.3003 74.7562 44.0038 75.3492 43.1142C76.2387 40.7421 78.6109 35.1083 77.4248 33.6257Z" fill="#FF9900"/>
<path d="M24.0496 17.9123C24.0496 18.8019 24.0496 19.3949 24.3462 20.2845L25.2357 22.0636C25.2357 22.3602 25.5323 22.3602 25.5323 22.6567C25.5323 22.9532 25.2357 23.2498 24.9392 23.5463L23.4566 24.7324C23.1601 24.7324 23.1601 25.0289 22.8635 25.0289C22.567 25.0289 22.2705 25.0289 21.974 24.7324C21.6774 24.4359 21.3809 24.1393 21.0844 23.5463C20.7879 23.2498 20.4913 22.6567 20.1948 22.0636C18.1191 23.5463 15.4504 25.0289 12.4851 25.0289C10.706 25.0289 8.63028 24.4359 7.44417 23.2498C6.25807 22.0636 5.36849 20.2845 5.66502 18.5053C5.66502 16.4297 6.5546 14.6505 8.03723 13.4644C9.81638 11.9818 12.1886 11.3887 14.2643 11.3887C15.1539 11.3887 16.0434 11.3887 16.933 11.6852C17.8226 11.6852 19.0087 11.9818 19.8983 12.2783V9.90607C20.1948 8.42344 19.6017 6.94081 18.7122 5.75471C17.5261 4.86513 16.0434 4.5686 14.5608 4.5686C13.6712 4.5686 12.7816 4.5686 11.8921 4.86513L9.22333 5.75471C8.92681 5.75471 8.63028 6.05123 8.33375 6.05123H8.03723C7.7407 6.05123 7.44417 5.75471 7.44417 5.16166V4.27208C7.44417 3.97555 7.44417 3.67902 7.7407 3.3825C8.03723 3.08597 8.33375 3.08597 8.33375 2.78945C9.51986 2.19639 10.4094 1.89987 11.5955 1.60334C12.1886 1.60334 13.6712 1.30681 14.8573 1.30681C17.2295 1.01029 19.6017 1.89987 21.6774 3.3825C23.1601 5.16166 24.0496 7.23734 23.7531 9.60955V17.9123H24.0496ZM13.3747 21.7671C14.2643 21.7671 15.1539 21.4706 16.0434 21.1741C16.933 20.8775 17.8226 20.2845 18.4156 19.6914C18.7122 19.3949 19.0087 18.8019 19.3052 18.2088C19.6017 17.3192 19.6017 16.4296 19.6017 15.8366V14.6505C18.7122 14.354 18.1191 14.354 17.2295 14.354C16.34 14.354 15.7469 14.0574 14.8573 14.0574C13.3747 14.0574 12.1886 14.354 11.0025 14.947C10.1129 15.5401 9.81638 16.7262 9.81638 17.6158C9.81638 18.5053 10.1129 19.6914 10.706 20.2845C11.299 21.4706 12.4851 21.7671 13.3747 21.7671ZM34.1315 24.4359C33.835 24.4359 33.5385 24.4359 33.242 24.1393C32.9454 23.8428 32.6489 23.5463 32.6489 23.2498L26.7184 3.67902C26.7184 3.3825 26.4219 3.08597 26.4219 2.78945C26.4219 2.49292 26.4219 2.49292 26.7184 2.19639C26.7184 2.19639 27.0149 1.89987 27.3114 1.89987H29.9802C30.2767 1.89987 30.5732 1.89987 30.8697 2.19639C31.1663 2.49292 31.1663 2.78945 31.4628 3.08597L35.9107 19.6914L40.0621 3.08597C40.0621 2.78945 40.3586 2.49292 40.6551 2.19639C40.9516 1.89987 41.2482 1.89987 41.8412 1.89987H43.9169C44.2134 1.89987 44.51 1.89987 45.103 2.19639C45.3995 2.49292 45.3995 2.78945 45.6961 3.08597L49.8474 19.988L54.2953 3.08597C54.2953 2.78945 54.5918 2.49292 54.8884 2.19639C55.1849 1.89987 55.4814 1.89987 55.778 1.89987H58.1502C58.4467 1.89987 58.4467 1.89987 58.7432 2.19639C58.7432 2.19639 59.0397 2.49292 59.0397 2.78945V3.08597C59.0397 3.3825 59.0397 3.3825 58.7432 3.67902L52.5162 23.2498C52.5162 23.5463 52.2196 23.8428 51.9231 24.1393C51.6266 24.4359 51.3301 24.4359 51.0335 24.4359H48.6613C48.3648 24.4359 48.0683 24.4359 47.4752 24.1393C47.1787 23.8428 47.1787 23.5463 46.8822 23.2498L42.7308 6.94081L38.876 23.2498C38.876 23.5463 38.5794 23.8428 38.2829 24.1393C37.9864 24.4359 37.6898 24.4359 37.0968 24.4359H34.1315ZM67.639 25.0289C66.1564 25.0289 64.9703 25.0289 63.7842 24.7324C62.598 24.4359 61.7085 24.1393 60.8189 23.8428C60.2258 23.5463 59.9293 22.9532 59.9293 22.3602V20.8775C59.9293 20.2845 60.2258 19.988 60.5224 19.988H61.1154L61.7085 20.2845C62.5981 20.581 63.4876 20.8775 64.6737 21.1741C65.5633 21.4706 66.7494 21.4706 67.9355 21.4706C69.1216 21.4706 70.6043 21.1741 71.7904 20.581C72.6799 19.988 73.273 19.0984 73.273 18.2088C73.273 17.6158 72.9765 17.0227 72.6799 16.4296C70.9008 16.1331 70.0112 15.5401 69.1216 15.2435L65.2668 14.0574C63.7842 13.7609 62.3015 12.8713 61.1154 11.3887C60.2258 10.2026 59.9293 9.0165 59.9293 7.83039C59.9293 6.94081 60.2258 5.75471 60.5224 5.16166C61.1154 4.27208 61.7085 3.67902 62.5981 3.08597C63.4876 2.49292 64.3772 2.19639 65.2668 1.89987C66.1564 1.60334 67.3425 1.30681 68.2321 1.30681H70.0112C70.6043 1.30681 71.1973 1.60334 71.7904 1.60334C72.3834 1.60334 72.6799 1.89987 73.273 1.89987C73.5695 1.89987 73.8661 2.19639 74.4591 2.19639C74.7556 2.49292 75.0522 2.49292 75.3487 2.78945C75.6452 3.08597 75.6452 3.3825 75.6452 3.67902V4.86513C75.6452 5.45818 75.3487 5.75471 75.0522 5.75471C74.7556 5.75471 74.4591 5.75471 74.1626 5.45818C72.6799 4.86513 70.9008 4.5686 69.1216 4.5686C67.9355 4.5686 66.7494 4.86513 65.5633 5.16166C64.6737 6.05123 64.0807 6.64429 64.0807 7.83039C64.0807 8.42344 64.3772 9.0165 64.9703 9.60955C65.8598 10.2026 66.7494 10.7957 67.9355 11.0922L71.4938 12.2783C72.9765 12.5748 74.4591 13.4644 75.6452 14.6505C76.5348 15.8366 76.8313 17.0227 76.8313 18.2088C76.8313 19.0984 76.5348 20.2845 76.2383 21.1741C75.6452 22.0636 75.0522 22.9532 74.4591 23.5463C73.5695 24.1393 72.6799 24.7324 71.4938 25.0289H67.639Z" fill="white"/>
<path d="M75.9417 37.1846C67.3425 44.5978 54.8884 48.7491 44.2134 48.7491C29.9801 48.7491 16.0434 42.5221 5.36848 31.2541C4.4789 30.3645 5.36848 29.1784 6.25806 29.7714C18.1191 37.7777 31.4628 41.929 45.103 41.929C55.1849 41.929 65.2668 39.5568 74.7556 34.8124C76.2382 34.2193 77.4243 35.9985 75.9417 37.1846Z" fill="#FF9900"/>
<path d="M77.4248 33.6257C76.2387 32.1432 70.3084 33.0327 67.6398 33.3292C66.7503 33.3292 66.7503 32.7362 67.3433 32.1432C72.0875 28.8815 80.0934 29.771 80.983 30.9571C81.8725 32.1432 80.6865 40.1491 76.2387 43.7072C75.6457 44.3003 74.7562 44.0038 75.3492 43.1142C76.2387 40.7421 78.6109 35.1083 77.4248 33.6257Z" fill="#FF9900"/>
</g>
</svg>
