<svg width="326" height="50" viewBox="0 0 326 50" fill="none" xmlns="http://www.w3.org/2000/svg">
<mask id="mask0_390_1447" style="mask-type:alpha" maskUnits="userSpaceOnUse" x="0" y="0" width="326" height="50">
<rect x="0.5" width="325" height="50" fill="#D9D9D9"/>
</mask>
<g mask="url(#mask0_390_1447)">
</g>
<g clip-path="url(#clip0_390_1447)">
<path d="M46.8679 22.5244H25.5696V27.3514H46.8679V22.5244Z" fill="white"/>
<path d="M57.5387 5H43.4468L46.8468 9.83776L57.1218 13.0629C58.0287 13.3509 58.8196 13.9243 59.3779 14.6985C59.9361 15.4728 60.2322 16.4069 60.2224 17.3632V32.7795C60.2288 33.7349 59.9314 34.6675 59.3737 35.441C58.8159 36.2146 58.0269 36.7887 57.1218 37.0797L46.8468 40.2404L43.4468 45.0781H57.5387C58.9407 45.0796 60.3291 44.8021 61.624 44.2617C62.9188 43.7212 64.0946 42.9286 65.0834 41.9293C66.0723 40.93 66.8547 39.7439 67.3857 38.4392C67.9167 37.1346 68.1857 35.7372 68.1772 34.3276V15.7506C68.1772 12.9086 67.0581 10.1823 65.0645 8.16771C63.071 6.15313 60.3651 5.01421 57.5387 5Z" fill="white"/>
<path d="M14.9419 5H28.9911L25.6339 9.83776L15.3589 13.0629C14.4509 13.3505 13.6586 13.9235 13.0985 14.6976C12.5385 15.4716 12.2402 16.4059 12.2476 17.3632V32.7795C12.2436 33.7359 12.5431 34.6686 13.1027 35.442C13.6623 36.2154 14.4527 36.7891 15.3589 37.0797L25.6339 40.2404L29.0339 45.0781H14.9419C12.1063 45.0781 9.38672 43.9455 7.38159 41.9294C5.37647 39.9132 4.25 37.1788 4.25 34.3276L4.25 15.7506C4.25 12.8993 5.37647 10.1649 7.38159 8.14877C9.38672 6.13265 12.1063 5 14.9419 5Z" fill="white"/>
<path d="M240.744 32.9498C240.677 34.5883 239.983 36.1372 238.806 37.2727C237.629 38.4081 236.062 39.0421 234.431 39.0421C232.8 39.0421 231.232 38.4081 230.055 37.2727C228.879 36.1372 228.184 34.5883 228.117 32.9498V17.6625C228.184 16.0241 228.879 14.4752 230.055 13.3397C231.232 12.2043 232.8 11.5702 234.431 11.5702C236.062 11.5702 237.629 12.2043 238.806 13.3397C239.983 14.4752 240.677 16.0241 240.744 17.6625V17.899H245.577V17.7163C245.487 14.804 244.274 12.0411 242.193 10.0129C240.113 7.98478 237.329 6.85059 234.431 6.85059C231.533 6.85059 228.749 7.98478 226.668 10.0129C224.588 12.0411 223.374 14.804 223.284 17.7163V32.9498C223.284 35.9208 224.458 38.7701 226.548 40.8709C228.637 42.9717 231.471 44.1519 234.425 44.1519C237.38 44.1519 240.214 42.9717 242.303 40.8709C244.393 38.7701 245.566 35.9208 245.566 32.9498V32.7456H240.734L240.744 32.9498Z" fill="white"/>
<path d="M265.85 16.4947C263.391 16.469 261.017 17.3998 259.224 19.0926C257.43 20.7854 256.357 23.1092 256.228 25.5789V34.9641C256.466 37.3509 257.577 39.5637 259.347 41.1729C261.116 42.7822 263.416 43.6733 265.802 43.6733C268.188 43.6733 270.489 42.7822 272.258 41.1729C274.027 39.5637 275.139 37.3509 275.377 34.9641V25.5681C275.251 23.1154 274.191 20.8053 272.418 19.1163C270.644 17.4273 268.293 16.4886 265.85 16.4947ZM270.587 34.4159C270.587 35.6789 270.088 36.8903 269.2 37.7835C268.311 38.6766 267.106 39.1784 265.85 39.1784C264.594 39.1784 263.389 38.6766 262.501 37.7835C261.613 36.8903 261.114 35.6789 261.114 34.4159V26.1272C261.114 24.8641 261.613 23.6527 262.501 22.7596C263.389 21.8664 264.594 21.3647 265.85 21.3647C267.106 21.3647 268.311 21.8664 269.2 22.7596C270.088 23.6527 270.587 24.8641 270.587 26.1272V34.4159Z" fill="white"/>
<path d="M252.785 6.5918H247.973V43.4447H252.785V6.5918Z" fill="white"/>
<path d="M120.055 16.4941H115.244V43.4458H120.055V16.4941Z" fill="white"/>
<path d="M110.431 6.5918H105.62V43.4447H110.431V6.5918Z" fill="white"/>
<path d="M93.4745 6.5918H87.5404L77.8108 43.391H82.6115L85.1989 33.608H95.8908L98.4676 43.2835H103.268L93.4745 6.6133V6.5918ZM94.5437 28.867H86.4606L90.5021 13.6012L94.5437 28.867Z" fill="white"/>
<path d="M293.221 34.9206C293.221 36.1866 292.721 37.4007 291.831 38.2958C290.94 39.191 289.733 39.6939 288.474 39.6939C287.215 39.6939 286.007 39.191 285.117 38.2958C284.227 37.4007 283.727 36.1866 283.727 34.9206V16.4941H278.905V35.7162C278.901 37.025 279.205 38.3163 279.79 39.4856C280.375 40.6548 281.225 41.6692 282.272 42.4469C283.319 43.2245 284.534 43.7434 285.817 43.9618C287.101 44.1802 288.417 44.0918 289.661 43.7038C290.121 43.5697 290.565 43.3859 290.986 43.1556C291.722 42.7755 292.396 42.2862 292.986 41.7042L293.2 41.5V43.4781H298.054V16.4941H293.221V34.9206Z" fill="white"/>
<path d="M120.055 6.5918H115.244V11.4403H120.055V6.5918Z" fill="white"/>
<path d="M135.685 16.4608C133.517 16.4601 131.435 17.3174 129.89 18.8474L129.687 19.0517V6.5918H124.865V43.4448H129.687V41.4666L129.89 41.6709C131.058 42.8164 132.535 43.5906 134.138 43.8966C135.74 44.2026 137.397 44.0268 138.9 43.3913C140.404 42.7557 141.688 41.6886 142.592 40.3234C143.496 38.9581 143.98 37.3552 143.982 35.7151V24.8033C143.98 22.5916 143.105 20.4713 141.549 18.9074C139.994 17.3435 137.885 16.4637 135.685 16.4608ZM139.224 25.6848V34.8335C139.224 36.1023 138.723 37.3192 137.831 38.2163C136.939 39.1135 135.728 39.6175 134.467 39.6175C133.205 39.6175 131.995 39.1135 131.102 38.2163C130.21 37.3192 129.709 36.1023 129.709 34.8335V25.6848C129.709 24.416 130.21 23.1992 131.102 22.302C131.995 21.4048 133.205 20.9008 134.467 20.9008C135.728 20.9008 136.939 21.4048 137.831 22.302C138.723 23.1992 139.224 24.416 139.224 25.6848Z" fill="white"/>
<path d="M180.549 16.4608C178.377 16.4573 176.291 17.3148 174.743 18.8474L174.54 19.0517V6.5918H169.729V43.4448H174.54V41.4666L174.743 41.6709C175.91 42.8164 177.388 43.5906 178.99 43.8966C180.593 44.2026 182.249 44.0268 183.753 43.3913C185.257 42.7557 186.541 41.6886 187.445 40.3234C188.349 38.9581 188.832 37.3552 188.835 35.7151V24.8033C188.832 22.5934 187.959 20.4748 186.406 18.9112C184.852 17.3476 182.747 16.4665 180.549 16.4608ZM184.077 25.6848V34.8228C184.077 36.0916 183.576 37.3084 182.684 38.2056C181.791 39.1028 180.581 39.6068 179.319 39.6068C178.057 39.6068 176.847 39.1028 175.955 38.2056C175.063 37.3084 174.561 36.0916 174.561 34.8228V25.6848C174.561 24.416 175.063 23.1992 175.955 22.302C176.847 21.4048 178.057 20.9008 179.319 20.9008C180.581 20.9008 181.791 21.4048 182.684 22.302C183.576 23.1992 184.077 24.416 184.077 25.6848Z" fill="white"/>
<path d="M315.834 6.5918V19.0517L315.631 18.8474C314.465 17.6967 312.988 16.918 311.383 16.6092C309.779 16.3003 308.12 16.475 306.614 17.1114C305.108 17.7478 303.823 18.8175 302.92 20.186C302.017 21.5546 301.537 23.1609 301.539 24.8033V35.7473C301.548 37.3847 302.036 38.9832 302.942 40.3435C303.849 41.7039 305.133 42.7661 306.635 43.3976C308.138 44.0292 309.792 44.2022 311.392 43.8952C312.991 43.5881 314.465 42.8146 315.631 41.6709L315.834 41.4666V43.4448H320.656V6.5918H315.834ZM315.834 25.6848V34.8228C315.834 35.451 315.711 36.0731 315.472 36.6536C315.233 37.234 314.882 37.7614 314.44 38.2056C313.999 38.6498 313.474 39.0022 312.897 39.2426C312.32 39.4831 311.701 39.6068 311.076 39.6068C310.451 39.6068 309.833 39.4831 309.255 39.2426C308.678 39.0022 308.153 38.6498 307.712 38.2056C307.27 37.7614 306.919 37.234 306.68 36.6536C306.441 36.0731 306.318 35.451 306.318 34.8228V25.6848C306.318 25.0566 306.441 24.4345 306.68 23.854C306.919 23.2736 307.27 22.7462 307.712 22.302C308.153 21.8578 308.678 21.5054 309.255 21.265C309.833 21.0245 310.451 20.9008 311.076 20.9008C311.701 20.9008 312.32 21.0245 312.897 21.265C313.474 21.5054 313.999 21.8578 314.44 22.302C314.882 22.7462 315.233 23.2736 315.472 23.854C315.711 24.4345 315.834 25.0566 315.834 25.6848Z" fill="white"/>
<path d="M166.265 25.6067C166.252 25.2898 166.219 24.9739 166.169 24.6607V24.5317C165.927 23.0777 165.364 21.6967 164.522 20.4895C163.708 19.3217 162.642 18.3544 161.403 17.6599C160.164 16.9654 158.785 16.5619 157.369 16.4795H156.813C154.57 16.475 152.395 17.2589 150.665 18.6959C148.935 20.1329 147.759 22.1325 147.34 24.3489H152.066C152.279 23.2644 152.858 22.2873 153.706 21.5837C154.554 20.8801 155.618 20.4935 156.717 20.4895C157.938 20.505 159.107 20.9908 159.982 21.8469C160.857 22.703 161.373 23.864 161.422 25.0907V27.3483H154.59C152.57 27.3358 150.615 28.0654 149.092 29.4001C147.57 30.7349 146.585 32.5828 146.322 34.5965C146.06 36.6102 146.538 38.651 147.666 40.3353C148.795 42.0196 150.496 43.2314 152.451 43.743H152.579L153.039 43.8505L153.617 43.9365H153.734C154.15 43.9805 154.567 44.002 154.985 44.001C155.967 44.0196 156.946 43.878 157.883 43.5817C159.119 43.191 160.244 42.5091 161.165 41.5928L161.379 41.3886V43.3667H166.19V40.1415L166.265 25.6067ZM155.509 30.982H161.422V34.39C161.423 35.6465 160.986 36.8637 160.187 37.8299C159.388 38.7962 158.278 39.4505 157.049 39.6792C156.698 39.7626 156.34 39.8059 155.98 39.8083C155.121 39.8008 154.279 39.5633 153.542 39.1202C153.326 39.0027 153.119 38.8698 152.922 38.7224C152.65 38.5028 152.402 38.2541 152.184 37.9807L152.13 37.9162C151.639 37.2783 151.336 36.5143 151.256 35.7114C151.175 34.9085 151.322 34.0991 151.677 33.3758C152.033 32.6525 152.584 32.0444 153.267 31.6211C153.951 31.1978 154.739 30.9763 155.541 30.982H155.509Z" fill="white"/>
<path d="M211.182 25.6312C211.169 25.3142 211.136 24.9983 211.086 24.6851V24.5561C210.843 23.1055 210.281 21.728 209.439 20.5246C208.623 19.3582 207.556 18.3913 206.318 17.6953C205.08 16.9994 203.702 16.5922 202.286 16.5039H201.73C199.49 16.4984 197.317 17.2794 195.588 18.7121C193.858 20.1447 192.681 22.1394 192.257 24.3519H196.972C197.19 23.2 197.822 22.1691 198.748 21.4568C199.674 20.7444 200.829 20.4006 201.992 20.4911C203.154 20.5816 204.243 21.1002 205.049 21.9474C205.855 22.7947 206.322 23.9111 206.36 25.0829V27.3405H199.517C197.502 27.3412 195.556 28.0802 194.044 29.4192C192.531 30.7583 191.556 32.6056 191.301 34.6154C191.045 36.6253 191.527 38.6599 192.655 40.3385C193.784 42.0171 195.482 43.2246 197.432 43.7351H197.561L198.02 43.8426L198.598 43.9286H198.715C199.131 43.9764 199.548 44.0016 199.966 44.0039C200.948 44.0225 201.927 43.8809 202.864 43.5846C204.096 43.1854 205.219 42.5047 206.146 41.5958L206.36 41.3915V43.3696H211.171V40.1444L211.182 25.6312ZM200.426 31.0065H206.328V34.4574C206.329 35.7139 205.892 36.9311 205.093 37.8974C204.294 38.8636 203.184 39.518 201.955 39.7467C201.605 39.83 201.246 39.8733 200.886 39.8757C200.027 39.8682 199.185 39.6307 198.448 39.1876C198.23 39.0741 198.022 38.9409 197.828 38.7899C197.553 38.5704 197.302 38.3217 197.079 38.0481V37.9836C196.504 37.2398 196.192 36.3243 196.192 35.3819C196.183 34.2433 196.624 33.1477 197.418 32.3355C198.212 31.5233 199.294 31.0608 200.426 31.0495V31.0065Z" fill="white"/>
</g>
<defs>
<clipPath id="clip0_390_1447">
<rect width="316.406" height="40.0781" fill="white" transform="translate(4.25 5)"/>
</clipPath>
</defs>
</svg>
