<svg width="250" height="50" viewBox="0 0 250 50" fill="none" xmlns="http://www.w3.org/2000/svg">
<mask id="mask0_390_1477" style="mask-type:alpha" maskUnits="userSpaceOnUse" x="0" y="0" width="250" height="50">
<rect width="250" height="50" fill="#D9D9D9"/>
</mask>
<g mask="url(#mask0_390_1477)">
</g>
<g clip-path="url(#clip0_390_1477)">
<path d="M28.0658 29.1074L41.9604 15.1788L28.0658 1.25024V29.1074L14.1711 15.1788L21.1184 36.0717L28.0658 29.1074Z" fill="white"/>
<path d="M48.9068 22.1452L41.9595 15.1809L35.0122 36.0738L48.9068 22.1452Z" fill="white"/>
<path d="M48.9073 22.1438L38.4863 39.5545L52.3809 25.6259L48.9073 22.1438Z" fill="white"/>
<path d="M28.0652 29.1067V43.0353L35.0125 36.071L28.0652 29.1067Z" fill="white"/>
<path d="M35.0117 36.0696L31.5381 46.516L38.4854 39.5517L35.0117 36.0696Z" fill="white"/>
<path d="M17.6439 39.5545L21.1175 36.0724L7.2229 22.1438L17.6439 39.5545Z" fill="white"/>
<path d="M24.5918 46.516L28.0655 43.0339L21.1182 36.0696L24.5918 46.516Z" fill="white"/>
<path d="M28.0652 50.0016L31.5388 46.5195L28.0652 43.0374V50.0016Z" fill="white"/>
<path d="M67.1707 22.3684C63.1104 22.3684 60.7483 19.3118 60.7483 14.9863C60.7483 10.5833 63.3265 7.66602 67.3328 7.66602C70.2661 7.66602 72.6282 9.40709 73.2303 12.4404H71.3005C70.8682 10.6761 69.5019 9.34518 67.2402 9.34518C64.7391 9.34518 62.7862 11.3029 62.7862 14.9863C62.7862 18.569 64.6619 20.6815 67.2942 20.6815C69.5405 20.6815 70.9299 19.4124 71.3777 17.5863H73.3075C72.6822 20.7279 70.2352 22.3684 67.1707 22.3684Z" fill="white"/>
<path d="M81.6439 15.6358V15.3804C81.6439 13.4614 80.5709 12.8191 79.2586 12.8191C77.792 12.8191 76.9352 13.6239 76.858 14.9161H75.0208C75.1983 12.6489 77.1899 11.3721 79.2432 11.3721C82.1302 11.3721 83.4425 12.7649 83.4193 15.7209L83.3962 18.1506C83.373 19.9149 83.4734 21.1298 83.6663 22.128H81.8677C81.806 21.7334 81.752 21.3078 81.7288 20.681C81.0881 21.7566 79.992 22.3834 78.1316 22.3834C76.1555 22.3834 74.519 21.2846 74.519 19.35C74.5345 16.8506 77.3288 16.1233 81.6439 15.6358ZM76.5106 19.2959C76.5106 20.2941 77.2748 20.9596 78.5408 20.9596C80.2004 20.9596 81.7828 20.1935 81.7828 17.7096V17.0441C78.5562 17.3768 76.5106 17.8489 76.5106 19.2959Z" fill="white"/>
<path d="M85.9045 22.1116V7.91992H87.68V22.1116H85.9045Z" fill="white"/>
<path d="M90.3125 22.1116V7.91992H92.0879V22.1116H90.3125Z" fill="white"/>
<path d="M101.213 15.6358V15.3804C101.213 13.4614 100.14 12.8191 98.8277 12.8191C97.3611 12.8191 96.5042 13.6239 96.4271 14.9161H94.5899C94.7674 12.6489 96.759 11.3721 98.8123 11.3721C101.699 11.3721 103.012 12.7649 102.988 15.7209L102.965 18.1506C102.942 19.9149 103.042 21.1298 103.235 22.128H101.437C101.375 21.7334 101.321 21.3078 101.298 20.681C100.649 21.7566 99.5611 22.3834 97.7007 22.3834C95.7246 22.3834 94.0881 21.2846 94.0881 19.35C94.1036 16.8506 96.8979 16.1233 101.213 15.6358ZM96.0797 19.2959C96.0797 20.2941 96.8439 20.9596 98.1098 20.9596C99.7695 20.9596 101.352 20.1935 101.352 17.7096V17.0441C98.1253 17.3768 96.0797 17.8489 96.0797 19.2959Z" fill="white"/>
<path d="M114.32 11.5793V20.7026C114.32 22.8537 113.926 23.7359 113.324 24.4014C112.56 25.2835 111.255 25.7942 109.688 25.7942C107.303 25.7942 105.705 24.6954 105.373 22.5674H107.264C107.496 23.5037 108.067 24.2311 109.703 24.2311C110.661 24.2311 111.386 23.9603 111.849 23.4496C112.243 23.0395 112.536 22.552 112.536 21.1204V20.1222C111.896 21.2365 110.877 21.9407 109.194 21.9407C106.87 21.9407 104.74 20.0603 104.74 16.671C104.74 13.3049 106.87 11.4014 109.194 11.4014C110.877 11.4014 111.888 12.1287 112.536 13.243V11.5793H114.32ZM106.685 16.671C106.685 19.0776 107.913 20.4317 109.657 20.4317C111.24 20.4317 112.629 19.3561 112.629 16.671C112.629 14.0091 111.24 12.9335 109.657 12.9335C107.913 12.9335 106.685 14.2799 106.685 16.671Z" fill="white"/>
<path d="M122.131 11.4021C124.671 11.4021 125.589 13.0503 125.589 15.4568V22.1116H123.814V15.983C123.814 14.358 123.544 12.9497 121.506 12.9497C119.784 12.9497 118.735 14.1414 118.735 16.3931V22.1116H116.959V7.91992H118.735V13.1664C119.337 12.1681 120.356 11.4021 122.131 11.4021Z" fill="white"/>
<path d="M134.552 15.6358V15.3804C134.552 13.4614 133.479 12.8191 132.166 12.8191C130.7 12.8191 129.843 13.6239 129.766 14.9161H127.929C128.106 12.6489 130.098 11.3721 132.151 11.3721C135.038 11.3721 136.35 12.7649 136.327 15.7209L136.304 18.1506C136.281 19.9149 136.381 21.1298 136.574 22.128H134.775C134.714 21.7334 134.66 21.3078 134.637 20.681C133.988 21.7566 132.9 22.3834 131.039 22.3834C129.063 22.3834 127.427 21.2846 127.427 19.35C127.442 16.8506 130.237 16.1233 134.552 15.6358ZM129.418 19.2959C129.418 20.2941 130.183 20.9596 131.448 20.9596C133.108 20.9596 134.691 20.1935 134.691 17.7096V17.0441C131.464 17.3768 129.418 17.8489 129.418 19.2959Z" fill="white"/>
<path d="M143.893 11.4014C146.432 11.4014 147.351 13.0496 147.351 15.4561V22.1109H145.575V15.9823C145.575 14.3573 145.305 12.949 143.267 12.949C141.546 12.949 140.496 14.1407 140.496 16.3924V22.1109H138.721V11.5793H140.496V13.1657C141.098 12.1674 142.109 11.4014 143.893 11.4014Z" fill="white"/>
<path d="M154.552 22.1116V7.91992H156.544V22.1116H154.552Z" fill="white"/>
<path d="M164.634 11.4014C167.173 11.4014 168.092 13.0496 168.092 15.4561V22.1109H166.316V15.9823C166.316 14.3573 166.046 12.949 164.008 12.949C162.287 12.949 161.237 14.1407 161.237 16.3924V22.1109H159.462V11.5793H161.237V13.1657C161.839 12.1674 162.85 11.4014 164.634 11.4014Z" fill="white"/>
<path d="M175.742 11.4014C178.282 11.4014 179.2 13.0496 179.2 15.4561V22.1109H177.425V15.9823C177.425 14.3573 177.155 12.949 175.117 12.949C173.395 12.949 172.345 14.1407 172.345 16.3924V22.1109H170.57V11.5793H172.345V13.1657C172.955 12.1674 173.967 11.4014 175.742 11.4014Z" fill="white"/>
<path d="M186.039 22.3683C183.6 22.3683 180.999 20.7046 180.999 16.8897C180.999 13.0748 183.6 11.4111 186.039 11.4111C188.478 11.4111 191.08 13.0748 191.08 16.8897C191.08 20.7046 188.478 22.3683 186.039 22.3683ZM189.181 16.8897C189.181 14.0885 187.637 12.9742 186.039 12.9742C184.441 12.9742 182.897 14.0111 182.897 16.8897C182.897 19.6909 184.441 20.8052 186.039 20.8052C187.637 20.8052 189.181 19.5903 189.181 16.8897Z" fill="white"/>
<path d="M199.108 11.582H200.945L196.977 22.1136H195.395L191.427 11.582H193.403L196.252 19.6451L199.108 11.582Z" fill="white"/>
<path d="M208.263 15.6358V15.3804C208.263 13.4614 207.19 12.8191 205.877 12.8191C204.411 12.8191 203.554 13.6239 203.477 14.9161H201.639C201.817 12.6489 203.809 11.3721 205.862 11.3721C208.749 11.3721 210.061 12.7649 210.038 15.7209L210.015 18.1506C209.992 19.9149 210.092 21.1298 210.285 22.128H208.486C208.425 21.7334 208.371 21.3078 208.347 20.681C207.707 21.7566 206.611 22.3834 204.75 22.3834C202.774 22.3834 201.138 21.2846 201.138 19.35C201.153 16.8506 203.947 16.1233 208.263 15.6358ZM203.129 19.2959C203.129 20.2941 203.893 20.9596 205.159 20.9596C206.819 20.9596 208.401 20.1935 208.401 17.7096V17.0441C205.175 17.3768 203.129 17.8489 203.129 19.2959Z" fill="white"/>
<path d="M214.808 8.93555V11.582H216.8V13.0135H214.808V19.2582C214.808 20.357 214.886 20.6278 215.904 20.6278H216.8V22.1135H215.511C213.496 22.1135 213.033 21.6647 213.033 19.4671V13.0135H211.373V11.582H213.033V8.93555H214.808Z" fill="white"/>
<path d="M220.668 10.0711H218.893V7.91992H220.668V10.0711ZM220.668 22.1116H218.893V11.58H220.668V22.1116Z" fill="white"/>
<path d="M227.662 22.3683C225.222 22.3683 222.621 20.7046 222.621 16.8897C222.621 13.0748 225.222 11.4111 227.662 11.4111C230.101 11.4111 232.702 13.0748 232.702 16.8897C232.694 20.7046 230.101 22.3683 227.662 22.3683ZM230.803 16.8897C230.803 14.0885 229.259 12.9742 227.662 12.9742C226.064 12.9742 224.52 14.0111 224.52 16.8897C224.52 19.6909 226.064 20.8052 227.662 20.8052C229.259 20.8052 230.803 19.5903 230.803 16.8897Z" fill="white"/>
<path d="M239.826 11.4014C242.366 11.4014 243.285 13.0496 243.285 15.4561V22.1109H241.509V15.9823C241.509 14.3573 241.239 12.949 239.201 12.949C237.48 12.949 236.43 14.1407 236.43 16.3924V22.1109H234.655V11.5793H236.43V13.1657C237.032 12.1674 238.051 11.4014 239.826 11.4014Z" fill="white"/>
<path d="M61.0107 30.5635V28.8379H72.2191V30.5635H67.6107V43.0373H65.6191V30.5635H61.0107Z" fill="white"/>
<path d="M76.194 41.7183C77.7533 41.7183 78.6179 41.0141 79.0656 39.9772H80.9028C80.4165 41.7956 78.7568 43.2891 76.194 43.2891C72.8748 43.2891 71.0376 40.898 71.0376 37.7873C71.0376 34.4599 73.2607 32.3242 76.1323 32.3242C79.3358 32.3242 81.2656 35.0248 81.034 38.3522H72.952C73.0292 40.6195 74.6348 41.7183 76.194 41.7183ZM79.1659 36.8278C79.1273 35.3421 78.0158 33.8486 76.14 33.8486C74.5576 33.8486 73.1295 34.7076 72.9751 36.8278H79.1659Z" fill="white"/>
<path d="M97.9716 33.1248C97.9716 36.6456 95.5477 37.4117 92.0895 37.4117H89.6503V43.0373H87.6587V28.8379H92.0895C95.5555 28.8379 97.9716 29.6272 97.9716 33.1248ZM89.6503 35.6706H92.2516C94.3204 35.6706 95.9414 35.454 95.9414 33.1248C95.9414 30.8111 94.3204 30.5171 92.2516 30.5171H89.6503V35.6706Z" fill="white"/>
<path d="M103.598 43.2911C101.159 43.2911 98.5571 41.6274 98.5571 37.8126C98.5571 33.9977 101.159 32.334 103.598 32.334C106.037 32.334 108.638 33.9977 108.638 37.8126C108.638 41.6274 106.037 43.2911 103.598 43.2911ZM106.74 37.8048C106.74 35.0036 105.196 33.8893 103.598 33.8893C102 33.8893 100.456 34.9262 100.456 37.8048C100.456 40.606 102 41.7203 103.598 41.7203C105.196 41.7203 106.74 40.5054 106.74 37.8048Z" fill="white"/>
<path d="M112.366 37.2415L116.604 32.5057H118.789L114.782 36.87L119.337 43.0373H117.168L113.594 38.1855L112.366 39.5165V43.0373H110.591V28.8379H112.366V37.2415Z" fill="white"/>
<path d="M126.701 36.5488V36.2935C126.701 34.3744 125.628 33.7322 124.316 33.7322C122.849 33.7322 121.993 34.5369 121.915 35.8292H120.078C120.256 33.5619 122.247 32.2852 124.301 32.2852C127.188 32.2852 128.5 33.678 128.477 36.634L128.454 39.0637C128.43 40.828 128.531 42.0429 128.724 43.0411H126.925C126.863 42.6465 126.809 42.2209 126.786 41.5941C126.138 42.6697 125.049 43.2965 123.189 43.2965C121.213 43.2965 119.576 42.1977 119.576 40.2631C119.592 37.7637 122.386 37.0363 126.701 36.5488ZM121.568 40.209C121.568 41.2072 122.332 41.8727 123.598 41.8727C125.258 41.8727 126.84 41.1066 126.84 38.6227V37.9572C123.614 38.2899 121.568 38.7619 121.568 40.209Z" fill="white"/>
<path d="M132.637 34.1659C133.278 33.0516 134.397 32.3242 136.072 32.3242C138.473 32.3242 140.565 34.3439 140.565 37.8028C140.565 41.2849 138.473 43.2814 136.072 43.2814C134.39 43.2814 133.278 42.554 132.637 41.4397V46.454H130.862V32.4945H132.637V34.1659ZM138.635 37.8028C138.635 35.2956 137.446 33.8486 135.625 33.8486C134.042 33.8486 132.56 35.0248 132.56 37.8028C132.56 40.5808 134.042 41.757 135.625 41.757C137.446 41.757 138.635 40.3099 138.635 37.8028Z" fill="white"/>
<path d="M145.691 43.2916C143.251 43.2916 142.333 41.6434 142.333 39.2368V32.5047H144.108V38.7106C144.108 40.3356 144.378 41.744 146.316 41.744C147.999 41.744 148.994 40.5523 148.994 38.3005V32.5047H150.77V43.0362H148.994V41.5273C148.385 42.5255 147.427 43.2916 145.691 43.2916ZM143.676 29.1309H149.535V30.6011H143.676V29.1309Z" fill="white"/>
<path d="M164.009 28.8379L169.343 43.0296H167.197L166.085 39.9575H159.578L158.482 43.0296H156.451L161.708 28.8379H164.009ZM165.452 38.2552L162.797 30.8575L160.18 38.2552H165.452Z" fill="white"/>
<path d="M173.58 43.2918C171.141 43.2918 170.222 41.6436 170.222 39.237V32.5049H171.998V38.7108C171.998 40.3358 172.268 41.7442 174.205 41.7442C175.888 41.7442 176.884 40.5525 176.884 38.3007V32.5049H178.659V43.0364H176.884V41.5275C176.274 42.5257 175.317 43.2918 173.58 43.2918Z" fill="white"/>
<path d="M187.776 36.5488V36.2935C187.776 34.3744 186.703 33.7322 185.391 33.7322C183.924 33.7322 183.068 34.5369 182.99 35.8292H181.153C181.331 33.5619 183.322 32.2852 185.376 32.2852C188.263 32.2852 189.575 33.678 189.552 36.634L189.529 39.0637C189.505 40.828 189.606 42.0429 189.799 43.0411H188.008C187.946 42.6465 187.892 42.2209 187.869 41.5941C187.228 42.6697 186.132 43.2965 184.272 43.2965C182.296 43.2965 180.659 42.1977 180.659 40.2631C180.667 37.7637 183.461 37.0363 187.776 36.5488ZM182.643 40.209C182.643 41.2072 183.407 41.8727 184.673 41.8727C186.333 41.8727 187.915 41.1066 187.915 38.6227V37.9572C184.689 38.2899 182.643 38.7619 182.643 40.209Z" fill="white"/>
<path d="M197.209 32.3278C199.749 32.3278 200.667 33.976 200.667 36.3825V43.0373H198.892V36.9087C198.892 35.2837 198.622 33.8754 196.584 33.8754C194.863 33.8754 193.813 35.0671 193.813 37.3188V43.0373H192.037V28.8379H193.813V34.0843C194.415 33.0861 195.434 32.3278 197.209 32.3278Z" fill="white"/>
<path d="M209.63 36.5488V36.2935C209.63 34.3744 208.557 33.7322 207.244 33.7322C205.778 33.7322 204.921 34.5369 204.844 35.8292H203.007C203.184 33.5619 205.176 32.2852 207.229 32.2852C210.116 32.2852 211.428 33.678 211.405 36.634L211.382 39.0637C211.359 40.828 211.459 42.0429 211.652 43.0411H209.854C209.792 42.6465 209.738 42.2209 209.715 41.5941C209.066 42.6697 207.978 43.2965 206.117 43.2965C204.141 43.2965 202.505 42.1977 202.505 40.2631C202.52 37.7637 205.315 37.0363 209.63 36.5488ZM204.496 40.209C204.496 41.2072 205.261 41.8727 206.527 41.8727C208.186 41.8727 209.769 41.1066 209.769 38.6227V37.9572C206.55 38.2899 204.496 38.7619 204.496 40.209Z" fill="white"/>
</g>
<defs>
<clipPath id="clip0_390_1477">
<rect width="243.75" height="48.75" fill="white" transform="translate(3.75 1.25)"/>
</clipPath>
</defs>
</svg>
