<svg width="333" height="20" viewBox="0 0 333 20" fill="none" xmlns="http://www.w3.org/2000/svg">
<path d="M26.954 19.3674C26.954 19.6585 26.7402 19.8542 26.4869 19.8542V19.8522C26.227 19.8542 26.0168 19.6585 26.0168 19.367C26.0168 19.0758 26.2266 18.8809 26.4869 18.8809C26.7402 18.8809 26.954 19.0758 26.954 19.367V19.3674ZM27.1433 19.3674C27.1433 18.9671 26.8329 18.7346 26.4869 18.7346C26.1386 18.7346 25.8282 18.9671 25.8282 19.3674C25.8282 19.7668 26.1386 20.0001 26.4869 20.0001C26.8329 20.0001 27.1433 19.7668 27.1433 19.3674ZM26.3779 19.4205H26.4485L26.6114 19.7066H26.7899L26.6095 19.4085C26.7026 19.4019 26.7794 19.3576 26.7794 19.2319C26.7794 19.0758 26.672 19.0257 26.49 19.0257H26.2262V19.7066H26.3779V19.4205ZM26.3779 19.3052V19.1414H26.4834C26.5408 19.1414 26.6188 19.1461 26.6188 19.216C26.6188 19.292 26.5785 19.3052 26.511 19.3052H26.3779ZM22.7225 15.8828L23.541 18.1235H21.8788L22.7225 15.8828ZM21.8458 15.0101L19.9597 19.7928H21.2915L21.5902 18.9477H23.8223L24.1047 19.7928H25.5505L23.65 15.0097L21.8462 15.0101H21.8458ZM18.0593 19.7948H19.4104V15.009L18.0589 15.0086V19.7944L18.0593 19.7948ZM8.67781 15.0078L7.55012 18.8014L6.47015 15.0086L5.01234 15.0082L6.55472 19.7944H8.50131L10.0565 15.0078H8.67781ZM14.1398 16.0501H14.7209C15.5634 16.0501 16.1085 16.4286 16.1085 17.4112C16.1085 18.3937 15.5634 18.7722 14.7209 18.7722H14.1398V16.0501ZM12.7999 15.0082V19.7944H14.9905C16.1581 19.7944 16.539 19.6003 16.951 19.1647C17.242 18.8588 17.4305 18.1876 17.4305 17.4539C17.4305 16.7807 17.2714 16.181 16.9933 15.8071C16.4929 15.139 15.7717 15.0082 14.6956 15.0082H12.7999ZM0 15.002V19.7944H1.36277V16.1549L2.41869 16.1553C2.7686 16.1553 3.01764 16.2427 3.186 16.4224C3.39936 16.6503 3.48664 17.0175 3.48664 17.6899V19.794H4.80713V17.1464C4.80713 15.2563 3.60341 15.0016 2.42568 15.0016H0V15.002ZM10.626 15.0086L10.6263 19.7948H11.9771V15.0078H10.626V15.0086Z" fill="white"/>
<path d="M3.63128 5.47992C3.63128 5.47992 5.36917 2.91388 8.83952 2.64834V1.71665C4.99638 2.02605 1.66724 5.28426 1.66724 5.28426C1.66724 5.28426 3.55254 10.7382 8.83991 11.2374V10.2479C4.95953 9.75912 3.6309 5.47992 3.6309 5.47992H3.63128ZM8.83952 8.27927V9.18574C5.90722 8.66243 5.09336 5.6123 5.09336 5.6123C5.09336 5.6123 6.50152 4.05171 8.83952 3.79821V4.79279L8.83526 4.79241C7.60787 4.64489 6.64893 5.79204 6.64893 5.79204C6.64893 5.79204 7.18659 7.72375 8.83952 8.27927ZM8.83952 0V1.71704C8.95241 1.7085 9.06529 1.70151 9.17857 1.69763C13.5485 1.55011 16.3959 5.28387 16.3959 5.28387C16.3959 5.28387 13.1257 9.26299 9.71855 9.26299C9.42384 9.26298 9.12969 9.237 8.83952 9.18535V10.2475C9.08236 10.2785 9.32714 10.2945 9.57192 10.2948C12.7424 10.2948 15.035 8.67447 17.2551 6.75673C17.6232 7.05177 19.1303 7.76956 19.4399 8.08362C17.3292 9.85229 12.4096 11.2778 9.62041 11.2778C9.35158 11.2778 9.09322 11.2615 8.83952 11.237V12.7293H20.8903V0H8.83952ZM8.83952 3.79821V2.64834C8.95125 2.64058 9.06374 2.63437 9.17857 2.63087C12.3211 2.53188 14.3825 5.33279 14.3825 5.33279C14.3825 5.33279 12.1559 8.42796 9.7686 8.42796C9.4249 8.42796 9.11689 8.37283 8.83952 8.27927V4.79279C10.063 4.94031 10.309 5.48147 11.0445 6.7082L12.6803 5.32813C12.6803 5.32813 11.4863 3.76094 9.47339 3.76094C9.2546 3.76094 9.04512 3.77647 8.83952 3.79821Z" fill="#77B900"/>
<path d="M41.1233 5.004H42.7613L47.7033 12.214H47.7593V5.004H49.4113V15H47.8153L42.8173 7.692H42.7613V15H41.1233V5.004ZM50.4672 5.004H52.2452L54.9892 13.152H55.0312L57.7752 5.004H59.5532L55.9972 15H54.0232L50.4672 5.004ZM60.6057 5.004H62.2437V15H60.6057V5.004ZM64.2014 5.004H67.8554C69.4794 5.004 70.6974 5.452 71.5374 6.348C72.3354 7.188 72.7414 8.406 72.7414 10.002C72.7414 11.584 72.3354 12.802 71.5374 13.656C70.6974 14.552 69.4794 15 67.8554 15H64.2014V5.004ZM65.8394 6.404V13.6H67.5474C68.7934 13.6 69.7034 13.306 70.2774 12.732C70.8374 12.144 71.1174 11.234 71.1174 10.002C71.1174 8.742 70.8374 7.818 70.2774 7.258C69.7034 6.684 68.7934 6.404 67.5474 6.404H65.8394ZM74.2776 5.004H75.9156V15H74.2776V5.004ZM80.7153 5.004H82.5773L86.3993 15H84.6493L83.7393 12.494H79.5533L78.6433 15H76.8933L80.7153 5.004ZM80.0433 11.15H83.2493L81.6813 6.768H81.6253L80.0433 11.15ZM94.8794 5.004H96.7414L100.563 15H98.8134L97.9034 12.494H93.7174L92.8074 15H91.0574L94.8794 5.004ZM94.2074 11.15H97.4134L95.8454 6.768H95.7894L94.2074 11.15ZM105.067 7.566C106.131 7.566 106.971 7.944 107.587 8.7C108.147 9.4 108.427 10.296 108.427 11.416C108.427 12.48 108.147 13.362 107.601 14.062C107.013 14.818 106.187 15.196 105.151 15.196C104.311 15.196 103.583 14.79 102.995 14.006V17.772H101.399V7.762H102.883V8.532C103.387 7.888 104.115 7.566 105.067 7.566ZM104.829 8.854C104.199 8.854 103.723 9.092 103.387 9.596C103.079 10.03 102.939 10.604 102.939 11.332V11.444C102.939 12.2 103.121 12.816 103.499 13.278C103.835 13.698 104.255 13.908 104.773 13.908C105.473 13.908 106.005 13.67 106.341 13.222C106.635 12.802 106.789 12.2 106.789 11.416C106.789 10.632 106.649 10.03 106.383 9.61C106.047 9.106 105.529 8.854 104.829 8.854ZM113.489 7.566C114.553 7.566 115.393 7.944 116.009 8.7C116.569 9.4 116.849 10.296 116.849 11.416C116.849 12.48 116.569 13.362 116.023 14.062C115.435 14.818 114.609 15.196 113.573 15.196C112.733 15.196 112.005 14.79 111.417 14.006V17.772H109.821V7.762H111.305V8.532C111.809 7.888 112.537 7.566 113.489 7.566ZM113.251 8.854C112.621 8.854 112.145 9.092 111.809 9.596C111.501 10.03 111.361 10.604 111.361 11.332V11.444C111.361 12.2 111.543 12.816 111.921 13.278C112.257 13.698 112.677 13.908 113.195 13.908C113.895 13.908 114.427 13.67 114.763 13.222C115.057 12.802 115.211 12.2 115.211 11.416C115.211 10.632 115.071 10.03 114.805 9.61C114.469 9.106 113.951 8.854 113.251 8.854ZM118.383 4.808H119.979V15H118.383V4.808ZM122.876 4.808C123.184 4.808 123.45 4.906 123.66 5.102C123.856 5.298 123.968 5.55 123.968 5.858C123.968 6.166 123.856 6.432 123.646 6.628C123.436 6.824 123.184 6.922 122.876 6.922C122.568 6.922 122.316 6.824 122.106 6.628C121.896 6.418 121.798 6.166 121.798 5.858C121.798 5.55 121.896 5.298 122.106 5.102C122.316 4.906 122.568 4.808 122.876 4.808ZM122.078 7.762H123.674V15H122.078V7.762ZM128.901 7.566C129.839 7.566 130.581 7.776 131.141 8.196C131.715 8.644 132.079 9.316 132.219 10.226H130.637C130.539 9.764 130.343 9.428 130.063 9.204C129.769 8.98 129.377 8.868 128.901 8.868C128.313 8.868 127.851 9.078 127.515 9.526C127.179 9.96 127.011 10.576 127.011 11.36C127.011 12.158 127.165 12.788 127.501 13.236C127.809 13.67 128.271 13.894 128.887 13.894C129.951 13.894 130.539 13.362 130.665 12.312H132.247C132.079 13.292 131.701 14.02 131.127 14.496C130.567 14.958 129.811 15.196 128.873 15.196C127.753 15.196 126.885 14.832 126.269 14.104C125.667 13.404 125.373 12.494 125.373 11.374C125.373 10.282 125.667 9.386 126.255 8.7C126.885 7.944 127.767 7.566 128.901 7.566ZM136.791 7.566C137.855 7.566 138.653 7.832 139.157 8.364C139.605 8.826 139.829 9.498 139.829 10.38V15H138.345V14.048C138.065 14.412 137.715 14.678 137.309 14.874C136.847 15.084 136.301 15.196 135.671 15.196C134.915 15.196 134.327 15 133.893 14.622C133.445 14.23 133.221 13.74 133.221 13.138C133.221 12.326 133.529 11.696 134.173 11.262C134.761 10.842 135.587 10.618 136.651 10.59L138.233 10.548V10.268C138.233 9.316 137.715 8.854 136.679 8.854C136.231 8.854 135.881 8.924 135.615 9.092C135.307 9.274 135.097 9.554 135.013 9.932L133.431 9.806C133.585 9.008 133.977 8.42 134.607 8.056C135.139 7.72 135.867 7.566 136.791 7.566ZM138.233 11.696L136.763 11.738C135.489 11.766 134.859 12.214 134.859 13.082C134.859 13.334 134.957 13.544 135.181 13.712C135.405 13.88 135.685 13.978 136.035 13.978C136.651 13.978 137.169 13.796 137.589 13.446C138.009 13.082 138.233 12.62 138.233 12.06V11.696ZM143.781 5.424V7.762H145.391V9.078H143.781V13.166C143.781 13.334 143.809 13.46 143.893 13.558C143.977 13.642 144.089 13.684 144.257 13.684H145.209V15H143.991C143.361 15 142.899 14.832 142.605 14.496C142.325 14.188 142.185 13.754 142.185 13.166V9.078H140.883V7.762H142.185V6.082L143.781 5.424ZM147.663 4.808C147.971 4.808 148.237 4.906 148.447 5.102C148.643 5.298 148.755 5.55 148.755 5.858C148.755 6.166 148.643 6.432 148.433 6.628C148.223 6.824 147.971 6.922 147.663 6.922C147.355 6.922 147.103 6.824 146.893 6.628C146.683 6.418 146.585 6.166 146.585 5.858C146.585 5.55 146.683 5.298 146.893 5.102C147.103 4.906 147.355 4.808 147.663 4.808ZM146.865 7.762H148.461V15H146.865V7.762ZM153.8 7.566C154.892 7.566 155.774 7.916 156.446 8.644C157.104 9.358 157.44 10.268 157.44 11.388C157.44 12.494 157.104 13.404 156.46 14.104C155.788 14.832 154.892 15.196 153.8 15.196C152.694 15.196 151.812 14.832 151.14 14.104C150.482 13.404 150.16 12.494 150.16 11.388C150.16 10.268 150.482 9.358 151.154 8.644C151.812 7.916 152.694 7.566 153.8 7.566ZM153.8 8.868C153.128 8.868 152.624 9.12 152.26 9.652C151.952 10.1 151.798 10.688 151.798 11.388C151.798 12.088 151.952 12.662 152.26 13.11C152.624 13.628 153.128 13.894 153.8 13.894C154.458 13.894 154.976 13.628 155.34 13.11C155.648 12.648 155.816 12.074 155.816 11.388C155.816 10.688 155.648 10.1 155.34 9.652C154.976 9.12 154.458 8.868 153.8 8.868ZM162.573 7.566C164.379 7.566 165.289 8.546 165.289 10.534V15H163.693V10.674C163.693 9.484 163.147 8.896 162.055 8.896C161.663 8.896 161.313 9.036 161.019 9.316C160.683 9.624 160.487 10.072 160.431 10.646V15H158.835V7.762H160.431V8.602C160.711 8.266 161.033 8 161.383 7.832C161.747 7.65 162.139 7.566 162.573 7.566ZM171.772 5.004H173.41V15H171.772V5.004ZM178.965 7.566C180.771 7.566 181.681 8.546 181.681 10.534V15H180.085V10.674C180.085 9.484 179.539 8.896 178.447 8.896C178.055 8.896 177.705 9.036 177.411 9.316C177.075 9.624 176.879 10.072 176.823 10.646V15H175.227V7.762H176.823V8.602C177.103 8.266 177.425 8 177.775 7.832C178.139 7.65 178.531 7.566 178.965 7.566ZM187.1 7.566C188.906 7.566 189.816 8.546 189.816 10.534V15H188.22V10.674C188.22 9.484 187.674 8.896 186.582 8.896C186.19 8.896 185.84 9.036 185.546 9.316C185.21 9.624 185.014 10.072 184.958 10.646V15H183.362V7.762H184.958V8.602C185.238 8.266 185.56 8 185.91 7.832C186.274 7.65 186.666 7.566 187.1 7.566ZM194.857 7.566C195.949 7.566 196.831 7.916 197.503 8.644C198.161 9.358 198.497 10.268 198.497 11.388C198.497 12.494 198.161 13.404 197.517 14.104C196.845 14.832 195.949 15.196 194.857 15.196C193.751 15.196 192.869 14.832 192.197 14.104C191.539 13.404 191.217 12.494 191.217 11.388C191.217 10.268 191.539 9.358 192.211 8.644C192.869 7.916 193.751 7.566 194.857 7.566ZM194.857 8.868C194.185 8.868 193.681 9.12 193.317 9.652C193.009 10.1 192.855 10.688 192.855 11.388C192.855 12.088 193.009 12.662 193.317 13.11C193.681 13.628 194.185 13.894 194.857 13.894C195.515 13.894 196.033 13.628 196.397 13.11C196.705 12.648 196.873 12.074 196.873 11.388C196.873 10.688 196.705 10.1 196.397 9.652C196.033 9.12 195.515 8.868 194.857 8.868ZM199.122 7.762H200.858L202.594 13.012L204.33 7.762H206.066L203.392 15H201.796L199.122 7.762ZM210.264 7.566C211.328 7.566 212.126 7.832 212.63 8.364C213.078 8.826 213.302 9.498 213.302 10.38V15H211.818V14.048C211.538 14.412 211.188 14.678 210.782 14.874C210.32 15.084 209.774 15.196 209.144 15.196C208.388 15.196 207.8 15 207.366 14.622C206.918 14.23 206.694 13.74 206.694 13.138C206.694 12.326 207.002 11.696 207.646 11.262C208.234 10.842 209.06 10.618 210.124 10.59L211.706 10.548V10.268C211.706 9.316 211.188 8.854 210.152 8.854C209.704 8.854 209.354 8.924 209.088 9.092C208.78 9.274 208.57 9.554 208.486 9.932L206.904 9.806C207.058 9.008 207.45 8.42 208.08 8.056C208.612 7.72 209.34 7.566 210.264 7.566ZM211.706 11.696L210.236 11.738C208.962 11.766 208.332 12.214 208.332 13.082C208.332 13.334 208.43 13.544 208.654 13.712C208.878 13.88 209.158 13.978 209.508 13.978C210.124 13.978 210.642 13.796 211.062 13.446C211.482 13.082 211.706 12.62 211.706 12.06V11.696ZM217.253 5.424V7.762H218.863V9.078H217.253V13.166C217.253 13.334 217.281 13.46 217.365 13.558C217.449 13.642 217.561 13.684 217.729 13.684H218.681V15H217.463C216.833 15 216.371 14.832 216.077 14.496C215.797 14.188 215.657 13.754 215.657 13.166V9.078H214.355V7.762H215.657V6.082L217.253 5.424ZM221.136 4.808C221.444 4.808 221.71 4.906 221.92 5.102C222.116 5.298 222.228 5.55 222.228 5.858C222.228 6.166 222.116 6.432 221.906 6.628C221.696 6.824 221.444 6.922 221.136 6.922C220.828 6.922 220.576 6.824 220.366 6.628C220.156 6.418 220.058 6.166 220.058 5.858C220.058 5.55 220.156 5.298 220.366 5.102C220.576 4.906 220.828 4.808 221.136 4.808ZM220.338 7.762H221.934V15H220.338V7.762ZM227.273 7.566C228.365 7.566 229.247 7.916 229.919 8.644C230.577 9.358 230.913 10.268 230.913 11.388C230.913 12.494 230.577 13.404 229.933 14.104C229.261 14.832 228.365 15.196 227.273 15.196C226.167 15.196 225.285 14.832 224.613 14.104C223.955 13.404 223.633 12.494 223.633 11.388C223.633 10.268 223.955 9.358 224.627 8.644C225.285 7.916 226.167 7.566 227.273 7.566ZM227.273 8.868C226.601 8.868 226.097 9.12 225.733 9.652C225.425 10.1 225.271 10.688 225.271 11.388C225.271 12.088 225.425 12.662 225.733 13.11C226.097 13.628 226.601 13.894 227.273 13.894C227.931 13.894 228.449 13.628 228.813 13.11C229.121 12.648 229.289 12.074 229.289 11.388C229.289 10.688 229.121 10.1 228.813 9.652C228.449 9.12 227.931 8.868 227.273 8.868ZM236.046 7.566C237.852 7.566 238.762 8.546 238.762 10.534V15H237.166V10.674C237.166 9.484 236.62 8.896 235.528 8.896C235.136 8.896 234.786 9.036 234.492 9.316C234.156 9.624 233.96 10.072 233.904 10.646V15H232.308V7.762H233.904V8.602C234.184 8.266 234.506 8 234.856 7.832C235.22 7.65 235.612 7.566 236.046 7.566ZM248.086 5.004H249.948L253.77 15H252.02L251.11 12.494H246.924L246.014 15H244.264L248.086 5.004ZM247.414 11.15H250.62L249.052 6.768H248.996L247.414 11.15ZM253.836 7.762H255.6L257.042 13.11L258.47 7.762H259.94L261.368 13.11L262.81 7.762H264.574L262.138 15H260.654L259.212 9.708L257.756 15H256.272L253.836 7.762ZM268.779 7.566C269.843 7.566 270.641 7.832 271.145 8.364C271.593 8.826 271.817 9.498 271.817 10.38V15H270.333V14.048C270.053 14.412 269.703 14.678 269.297 14.874C268.835 15.084 268.289 15.196 267.659 15.196C266.903 15.196 266.315 15 265.881 14.622C265.433 14.23 265.209 13.74 265.209 13.138C265.209 12.326 265.517 11.696 266.161 11.262C266.749 10.842 267.575 10.618 268.639 10.59L270.221 10.548V10.268C270.221 9.316 269.703 8.854 268.667 8.854C268.219 8.854 267.869 8.924 267.603 9.092C267.295 9.274 267.085 9.554 267.001 9.932L265.419 9.806C265.573 9.008 265.965 8.42 266.595 8.056C267.127 7.72 267.855 7.566 268.779 7.566ZM270.221 11.696L268.751 11.738C267.477 11.766 266.847 12.214 266.847 13.082C266.847 13.334 266.945 13.544 267.169 13.712C267.393 13.88 267.673 13.978 268.023 13.978C268.639 13.978 269.157 13.796 269.577 13.446C269.997 13.082 270.221 12.62 270.221 12.06V11.696ZM276.917 7.566C277.267 7.566 277.575 7.622 277.827 7.748V9.344C277.463 9.232 277.127 9.19 276.791 9.19C276.371 9.19 275.993 9.344 275.657 9.68C275.265 10.058 275.083 10.548 275.083 11.164V15H273.501V7.762H275.083V8.798C275.279 8.434 275.503 8.154 275.769 7.958C276.091 7.692 276.469 7.566 276.917 7.566ZM283.889 4.808H285.485V15H284.001V14.23C283.497 14.874 282.769 15.196 281.817 15.196C280.739 15.196 279.899 14.818 279.297 14.062C278.737 13.362 278.457 12.452 278.457 11.346C278.457 10.282 278.723 9.4 279.283 8.7C279.871 7.944 280.697 7.566 281.733 7.566C282.573 7.566 283.287 7.958 283.889 8.756V4.808ZM282.111 8.854C281.383 8.854 280.865 9.092 280.529 9.568C280.235 9.974 280.095 10.562 280.095 11.346C280.095 12.13 280.221 12.732 280.501 13.152C280.823 13.656 281.341 13.908 282.055 13.908C282.671 13.908 283.161 13.656 283.497 13.166C283.791 12.718 283.945 12.13 283.945 11.43V11.318C283.945 10.548 283.749 9.932 283.385 9.484C283.049 9.064 282.615 8.854 282.111 8.854ZM293.739 3.422H295.069C294.481 4.388 294.033 5.354 293.725 6.32C293.305 7.524 293.109 8.742 293.109 9.96C293.109 11.164 293.305 12.382 293.725 13.6C294.033 14.552 294.481 15.518 295.069 16.498H293.739C293.067 15.574 292.563 14.622 292.199 13.642C291.765 12.466 291.555 11.234 291.555 9.974C291.555 8.686 291.765 7.468 292.199 6.292C292.563 5.284 293.067 4.332 293.739 3.422ZM299.997 4.808C300.963 4.808 301.761 5.088 302.391 5.648C303.007 6.208 303.315 6.922 303.315 7.818C303.315 8.686 302.979 9.47 302.335 10.184C301.943 10.604 301.243 11.136 300.263 11.794C299.241 12.466 298.625 13.054 298.401 13.558H303.329V15H296.357C296.357 13.978 296.679 13.096 297.351 12.34C297.715 11.92 298.485 11.304 299.647 10.506C300.291 10.058 300.739 9.68 301.019 9.386C301.453 8.896 301.677 8.364 301.677 7.804C301.677 7.258 301.523 6.852 301.243 6.586C300.949 6.32 300.515 6.194 299.941 6.194C299.325 6.194 298.863 6.404 298.555 6.824C298.247 7.216 298.079 7.818 298.051 8.602H296.413C296.427 7.482 296.749 6.586 297.393 5.9C298.051 5.172 298.919 4.808 299.997 4.808ZM308.238 4.808C309.4 4.808 310.31 5.284 310.968 6.264C311.584 7.188 311.892 8.434 311.892 10.002C311.892 11.57 311.584 12.816 310.968 13.74C310.31 14.706 309.4 15.196 308.238 15.196C307.062 15.196 306.152 14.706 305.508 13.74C304.892 12.816 304.584 11.57 304.584 10.002C304.584 8.434 304.892 7.188 305.508 6.264C306.152 5.284 307.062 4.808 308.238 4.808ZM308.238 6.194C307.44 6.194 306.88 6.628 306.558 7.524C306.334 8.126 306.222 8.952 306.222 10.002C306.222 11.038 306.334 11.864 306.558 12.48C306.88 13.362 307.44 13.81 308.238 13.81C309.022 13.81 309.582 13.362 309.918 12.48C310.142 11.864 310.254 11.038 310.254 10.002C310.254 8.952 310.142 8.126 309.918 7.524C309.582 6.628 309.022 6.194 308.238 6.194ZM315.68 5.004H316.912V15H315.274V6.978C314.672 7.524 313.916 7.93 312.992 8.196V6.572C313.44 6.46 313.916 6.264 314.42 5.984C314.924 5.676 315.344 5.354 315.68 5.004ZM322.375 4.808C323.439 4.808 324.293 5.088 324.937 5.662C325.497 6.166 325.791 6.796 325.791 7.552C325.791 8.056 325.679 8.49 325.455 8.84C325.203 9.204 324.839 9.498 324.349 9.694V9.722C324.811 9.848 325.217 10.128 325.553 10.562C325.931 11.038 326.127 11.584 326.127 12.2C326.127 13.096 325.791 13.81 325.147 14.37C324.489 14.916 323.565 15.196 322.375 15.196C321.171 15.196 320.247 14.916 319.603 14.37C318.945 13.81 318.623 13.096 318.623 12.2C318.623 11.584 318.805 11.038 319.197 10.562C319.533 10.128 319.925 9.848 320.401 9.722V9.694C319.897 9.498 319.533 9.204 319.295 8.84C319.071 8.49 318.959 8.056 318.959 7.552C318.959 6.796 319.239 6.166 319.813 5.662C320.443 5.088 321.297 4.808 322.375 4.808ZM322.375 6.11C321.787 6.11 321.311 6.264 320.961 6.586C320.653 6.866 320.499 7.202 320.499 7.608C320.499 8.07 320.625 8.434 320.877 8.7C321.185 9.022 321.675 9.19 322.375 9.19C323.061 9.19 323.565 9.022 323.873 8.7C324.125 8.434 324.251 8.07 324.251 7.608C324.251 7.202 324.097 6.866 323.789 6.586C323.425 6.264 322.963 6.11 322.375 6.11ZM322.375 10.408C321.675 10.408 321.143 10.576 320.779 10.912C320.415 11.234 320.247 11.668 320.247 12.2C320.247 12.704 320.429 13.11 320.807 13.418C321.171 13.726 321.689 13.88 322.375 13.88C323.047 13.88 323.579 13.712 323.971 13.404C324.321 13.096 324.503 12.704 324.503 12.2C324.503 11.668 324.321 11.234 323.985 10.926C323.607 10.576 323.075 10.408 322.375 10.408ZM327.143 3.422H328.473C329.131 4.332 329.649 5.284 330.013 6.292C330.433 7.468 330.657 8.686 330.657 9.974C330.657 11.234 330.433 12.466 330.013 13.642C329.649 14.622 329.131 15.574 328.473 16.498H327.143C327.717 15.518 328.165 14.552 328.487 13.6C328.893 12.382 329.103 11.164 329.103 9.96C329.103 8.742 328.893 7.524 328.487 6.32C328.165 5.354 327.717 4.388 327.143 3.422Z" fill="white"/>
</svg>
