<svg width="631" height="56" viewBox="0 0 631 56" fill="none" xmlns="http://www.w3.org/2000/svg">
<path d="M75.47 54.2274C75.47 55.0426 74.8715 55.5904 74.1622 55.5904V55.585C73.4345 55.5904 72.8458 55.0426 72.8458 54.2263C72.8458 53.4111 73.4334 52.8654 74.1622 52.8654C74.8715 52.8654 75.47 53.4111 75.47 54.2263V54.2274ZM76 54.2274C76 53.1067 75.1311 52.4556 74.1622 52.4556C73.1868 52.4556 72.3179 53.1067 72.3179 54.2274C72.3179 55.3459 73.1868 55.9991 74.1622 55.9991C75.1311 55.9991 76 55.3459 76 54.2274ZM73.857 54.3763H74.0547L74.5109 55.1774H75.0105L74.5054 54.3426C74.7661 54.3241 74.9812 54.2002 74.9812 53.848C74.9812 53.4111 74.6803 53.2709 74.1709 53.2709H73.4323V55.1774H73.857V54.3763ZM73.857 54.0535V53.5948H74.1524C74.3132 53.5948 74.5315 53.6078 74.5315 53.8035C74.5315 54.0165 74.4185 54.0535 74.2296 54.0535H73.857ZM63.6221 44.4708L65.9139 50.7448H61.2597L63.6221 44.4708ZM61.1673 42.0273L55.8864 55.4187H59.6152L60.4516 53.0524H66.7013L67.4921 55.4187H71.5402L66.2191 42.0262L61.1684 42.0273H61.1673ZM50.5653 55.4241H54.3484V42.0241L50.5642 42.023V55.423L50.5653 55.4241ZM24.2975 42.0208L21.14 52.6426L18.1161 42.023L14.0343 42.0219L18.3529 55.423H23.8033L28.1577 42.0208H24.2975ZM39.5907 44.9393H41.2178C43.5769 44.9393 45.103 45.9991 45.103 48.7502C45.103 51.5013 43.5769 52.5611 41.2178 52.5611H39.5907V44.9393ZM35.8391 42.0219V55.423H41.9726C45.242 55.423 46.3086 54.8796 47.4621 53.66C48.2767 52.8035 48.8046 50.9241 48.8046 48.8697C48.8046 46.985 48.3593 45.3056 47.5805 44.2589C46.1794 42.3882 44.1602 42.0219 41.1472 42.0219H35.8391ZM0 42.0045V55.423H3.8157V45.2328L6.77223 45.2339C7.75195 45.2339 8.44927 45.4784 8.92067 45.9817C9.51806 46.6197 9.76244 47.648 9.76244 49.5306V55.4219H13.4597V48.0089C13.4597 42.7165 10.0894 42.0034 6.79179 42.0034H0V42.0045ZM29.7522 42.023L29.7533 55.4241H33.5353V42.0208H29.7522V42.023Z" fill="white"/>
<path d="M10.1675 15.3435C10.1675 15.3435 15.0335 8.15873 24.7504 7.41524V4.80654C13.9897 5.67285 4.66827 14.7957 4.66827 14.7957C4.66827 14.7957 9.94703 30.0664 24.7515 31.4642V28.6936C13.8865 27.3251 10.1664 15.3435 10.1664 15.3435H10.1675ZM24.7504 23.1816V25.7197C16.54 24.2544 14.2613 15.7142 14.2613 15.7142C14.2613 15.7142 18.2041 11.3446 24.7504 10.6348V13.4196L24.7384 13.4185C21.3018 13.0055 18.6168 16.2175 18.6168 16.2175C18.6168 16.2175 20.1222 21.6262 24.7504 23.1816ZM24.7504 0V4.80763C25.0664 4.78371 25.3825 4.76415 25.6997 4.75328C37.9353 4.34023 45.9078 14.7946 45.9078 14.7946C45.9078 14.7946 36.7514 25.936 27.2116 25.936C26.3864 25.9359 25.5628 25.8632 24.7504 25.7186V28.6925C25.4303 28.7795 26.1157 28.824 26.801 28.8251C35.6783 28.8251 42.0975 24.2881 48.3136 18.9185C49.3444 19.7446 53.5641 21.7544 54.4309 22.6338C48.5211 27.586 34.7463 31.5773 26.9368 31.5773C26.1841 31.5773 25.4607 31.5316 24.7504 31.4632V35.6414H58.4921V0H24.7504ZM24.7504 10.6348V7.41524C25.0632 7.39351 25.3782 7.37611 25.6997 7.36633C34.4987 7.08916 40.2706 14.9316 40.2706 14.9316C40.2706 14.9316 34.036 23.5979 27.3517 23.5979C26.3894 23.5979 25.527 23.4436 24.7504 23.1816V13.4196C28.1761 13.8327 28.8648 15.3479 30.9241 18.7827L35.5045 14.9185C35.5045 14.9185 32.1613 10.5305 26.5252 10.5305C25.9126 10.5305 25.326 10.574 24.7504 10.6348Z" fill="#77B900"/>
<path d="M100.61 17.1595C103.88 17.1595 106.46 18.2095 108.35 20.3395C110.15 22.3495 111.05 25.0195 111.05 28.3195C111.05 31.6195 110.15 34.2595 108.35 36.2695C106.46 38.3695 103.88 39.4195 100.61 39.4195C97.31 39.4195 94.73 38.3395 92.87 36.2395C91.07 34.1995 90.2 31.5595 90.2 28.3195C90.2 25.0495 91.07 22.4095 92.87 20.3695C94.73 18.2095 97.31 17.1595 100.61 17.1595ZM100.61 20.2495C98.39 20.2495 96.68 20.9995 95.45 22.4995C94.28 23.9395 93.71 25.8595 93.71 28.3195C93.71 30.7495 94.28 32.6695 95.45 34.1095C96.65 35.5795 98.39 36.3295 100.61 36.3295C102.83 36.3295 104.54 35.6095 105.74 34.1995C106.91 32.7895 107.51 30.8395 107.51 28.3195C107.51 25.7995 106.91 23.8195 105.74 22.3795C104.54 20.9395 102.83 20.2495 100.61 20.2495ZM114.062 23.4895H117.482V32.9395C117.482 34.1995 117.722 35.0995 118.262 35.6995C118.802 36.2695 119.642 36.5695 120.842 36.5695C121.592 36.5695 122.312 36.2395 123.002 35.6095C123.692 34.9495 124.202 34.0795 124.502 32.9695V23.4895H127.922V38.9995H124.502V36.9895C123.182 38.6095 121.562 39.4195 119.642 39.4195C115.922 39.4195 114.062 37.3195 114.062 33.1495V23.4895ZM136.383 18.4795V23.4895H139.833V26.3095H136.383V35.0695C136.383 35.4295 136.443 35.6995 136.623 35.9095C136.803 36.0895 137.043 36.1795 137.403 36.1795H139.443V38.9995H136.833C135.483 38.9995 134.493 38.6395 133.863 37.9195C133.263 37.2595 132.963 36.3295 132.963 35.0695V26.3095H130.173V23.4895H132.963V19.8895L136.383 18.4795ZM148.242 23.0695C152.322 23.0695 154.572 24.6895 154.932 27.9895H151.602C151.362 27.2095 151.002 26.6395 150.522 26.3395C150.012 26.0095 149.232 25.8595 148.182 25.8595C147.282 25.8595 146.592 25.9795 146.142 26.2495C145.602 26.5195 145.362 26.9395 145.362 27.5395C145.362 28.0195 145.752 28.4695 146.592 28.8295C147.102 29.0395 148.122 29.3395 149.682 29.7295C151.422 30.1495 152.742 30.6295 153.582 31.1995C154.812 31.9795 155.442 33.0895 155.442 34.4695C155.442 37.7695 153.102 39.4195 148.452 39.4195C144.132 39.4195 141.822 37.5895 141.492 33.9595H144.822C145.002 34.9495 145.362 35.6395 145.872 36.0595C146.382 36.4195 147.192 36.6295 148.332 36.6295C150.732 36.6295 151.932 35.9695 151.932 34.7095C151.932 33.9895 151.482 33.4195 150.582 32.9995C150.102 32.7595 149.082 32.4895 147.522 32.1295C145.692 31.7095 144.402 31.2595 143.652 30.7795C142.452 30.0295 141.852 28.9795 141.852 27.6295C141.852 26.1895 142.422 25.0795 143.622 24.2995C144.792 23.4595 146.322 23.0695 148.242 23.0695ZM163.014 18.4795V23.4895H166.464V26.3095H163.014V35.0695C163.014 35.4295 163.074 35.6995 163.254 35.9095C163.434 36.0895 163.674 36.1795 164.034 36.1795H166.074V38.9995H163.464C162.114 38.9995 161.124 38.6395 160.494 37.9195C159.894 37.2595 159.594 36.3295 159.594 35.0695V26.3095H156.804V23.4895H159.594V19.8895L163.014 18.4795ZM176.073 23.0695C178.353 23.0695 180.063 23.6395 181.143 24.7795C182.103 25.7695 182.583 27.2095 182.583 29.0995V38.9995H179.403V36.9595C178.803 37.7395 178.053 38.3095 177.183 38.7295C176.193 39.1795 175.023 39.4195 173.673 39.4195C172.053 39.4195 170.793 38.9995 169.863 38.1895C168.903 37.3495 168.423 36.2995 168.423 35.0095C168.423 33.2695 169.083 31.9195 170.463 30.9895C171.723 30.0895 173.493 29.6095 175.773 29.5495L179.163 29.4595V28.8595C179.163 26.8195 178.053 25.8295 175.833 25.8295C174.873 25.8295 174.123 25.9795 173.553 26.3395C172.893 26.7295 172.443 27.3295 172.263 28.1395L168.873 27.8695C169.203 26.1595 170.043 24.8995 171.393 24.1195C172.533 23.3995 174.093 23.0695 176.073 23.0695ZM179.163 31.9195L176.013 32.0095C173.283 32.0695 171.933 33.0295 171.933 34.8895C171.933 35.4295 172.143 35.8795 172.623 36.2395C173.103 36.5995 173.703 36.8095 174.453 36.8095C175.773 36.8095 176.883 36.4195 177.783 35.6695C178.683 34.8895 179.163 33.8995 179.163 32.6995V31.9195ZM194.201 23.0695C198.071 23.0695 200.021 25.1695 200.021 29.4295V38.9995H196.601V29.7295C196.601 27.1795 195.431 25.9195 193.091 25.9195C192.251 25.9195 191.501 26.2195 190.871 26.8195C190.151 27.4795 189.731 28.4395 189.611 29.6695V38.9995H186.191V23.4895H189.611V25.2895C190.211 24.5695 190.901 23.9995 191.651 23.6395C192.431 23.2495 193.271 23.0695 194.201 23.0695ZM214.662 17.1595H218.082V38.9995H214.902V37.3495C213.822 38.7295 212.262 39.4195 210.222 39.4195C207.912 39.4195 206.112 38.6095 204.822 36.9895C203.622 35.4895 203.022 33.5395 203.022 31.1695C203.022 28.8895 203.592 26.9995 204.792 25.4995C206.052 23.8795 207.822 23.0695 210.042 23.0695C211.842 23.0695 213.372 23.9095 214.662 25.6195V17.1595ZM210.852 25.8295C209.292 25.8295 208.182 26.3395 207.462 27.3595C206.832 28.2295 206.532 29.4895 206.532 31.1695C206.532 32.8495 206.802 34.1395 207.402 35.0395C208.092 36.1195 209.202 36.6595 210.732 36.6595C212.052 36.6595 213.102 36.1195 213.822 35.0695C214.452 34.1095 214.782 32.8495 214.782 31.3495V31.1095C214.782 29.4595 214.362 28.1395 213.582 27.1795C212.862 26.2795 211.932 25.8295 210.852 25.8295ZM223.979 17.1595C224.639 17.1595 225.209 17.3695 225.659 17.7895C226.079 18.2095 226.319 18.7495 226.319 19.4095C226.319 20.0695 226.079 20.6395 225.629 21.0595C225.179 21.4795 224.639 21.6895 223.979 21.6895C223.319 21.6895 222.779 21.4795 222.329 21.0595C221.879 20.6095 221.669 20.0695 221.669 19.4095C221.669 18.7495 221.879 18.2095 222.329 17.7895C222.779 17.3695 223.319 17.1595 223.979 17.1595ZM222.269 23.4895H225.689V38.9995H222.269V23.4895ZM237.941 23.0695C241.811 23.0695 243.761 25.1695 243.761 29.4295V38.9995H240.341V29.7295C240.341 27.1795 239.171 25.9195 236.831 25.9195C235.991 25.9195 235.241 26.2195 234.611 26.8195C233.891 27.4795 233.471 28.4395 233.351 29.6695V38.9995H229.931V23.4895H233.351V25.2895C233.951 24.5695 234.641 23.9995 235.391 23.6395C236.171 23.2495 237.011 23.0695 237.941 23.0695ZM253.813 23.0695C255.733 23.0695 257.263 23.8195 258.403 25.3795V23.4895H261.823V38.0095C261.823 42.8995 259.393 45.3595 254.533 45.3595C252.343 45.3595 250.693 44.9395 249.553 44.1595C248.413 43.3195 247.693 42.0595 247.393 40.3195H250.813C250.993 41.1895 251.353 41.7895 251.923 42.1495C252.463 42.4795 253.333 42.6595 254.533 42.6595C257.113 42.6595 258.403 41.2795 258.403 38.5195V36.2395C257.263 37.8295 255.733 38.6395 253.813 38.6395C251.713 38.6395 250.003 37.9195 248.713 36.5395C247.393 35.1295 246.763 33.2395 246.763 30.8995C246.763 28.5595 247.393 26.6695 248.713 25.2295C250.003 23.7895 251.713 23.0695 253.813 23.0695ZM254.353 25.8295C253.062 25.8295 252.073 26.2795 251.353 27.1795C250.633 28.0495 250.273 29.2795 250.273 30.8995C250.273 32.3695 250.543 33.5095 251.113 34.3495C251.773 35.3395 252.823 35.8495 254.323 35.8495C255.643 35.8495 256.663 35.3995 257.383 34.5595C258.073 33.6595 258.433 32.4595 258.433 30.8995C258.433 29.3095 258.073 28.0795 257.383 27.1795C256.663 26.2795 255.643 25.8295 254.353 25.8295ZM281.79 17.5795H285.78L293.97 38.9995H290.22L288.27 33.6295H279.3L277.35 38.9995H273.6L281.79 17.5795ZM280.35 30.7495H287.22L283.86 21.3595H283.74L280.35 30.7495ZM303.621 23.0695C305.901 23.0695 307.701 23.8795 309.021 25.4995C310.221 26.9995 310.821 28.9195 310.821 31.3195C310.821 33.5995 310.221 35.4895 309.051 36.9895C307.791 38.6095 306.021 39.4195 303.801 39.4195C302.001 39.4195 300.441 38.5495 299.181 36.8695V44.9395H295.761V23.4895H298.941V25.1395C300.021 23.7595 301.581 23.0695 303.621 23.0695ZM303.111 25.8295C301.761 25.8295 300.741 26.3395 300.021 27.4195C299.361 28.3495 299.061 29.5795 299.061 31.1395V31.3795C299.061 32.9995 299.451 34.3195 300.261 35.3095C300.981 36.2095 301.881 36.6595 302.991 36.6595C304.491 36.6595 305.631 36.1495 306.351 35.1895C306.981 34.2895 307.311 32.9995 307.311 31.3195C307.311 29.6395 307.011 28.3495 306.441 27.4495C305.721 26.3695 304.611 25.8295 303.111 25.8295ZM321.668 23.0695C323.948 23.0695 325.748 23.8795 327.068 25.4995C328.268 26.9995 328.868 28.9195 328.868 31.3195C328.868 33.5995 328.268 35.4895 327.098 36.9895C325.838 38.6095 324.068 39.4195 321.848 39.4195C320.048 39.4195 318.488 38.5495 317.228 36.8695V44.9395H313.808V23.4895H316.988V25.1395C318.068 23.7595 319.628 23.0695 321.668 23.0695ZM321.158 25.8295C319.808 25.8295 318.788 26.3395 318.068 27.4195C317.408 28.3495 317.108 29.5795 317.108 31.1395V31.3795C317.108 32.9995 317.498 34.3195 318.308 35.3095C319.028 36.2095 319.928 36.6595 321.038 36.6595C322.538 36.6595 323.678 36.1495 324.398 35.1895C325.028 34.2895 325.358 32.9995 325.358 31.3195C325.358 29.6395 325.058 28.3495 324.488 27.4495C323.768 26.3695 322.658 25.8295 321.158 25.8295ZM332.155 17.1595H335.575V38.9995H332.155V17.1595ZM341.782 17.1595C342.442 17.1595 343.012 17.3695 343.462 17.7895C343.882 18.2095 344.122 18.7495 344.122 19.4095C344.122 20.0695 343.882 20.6395 343.432 21.0595C342.982 21.4795 342.442 21.6895 341.782 21.6895C341.122 21.6895 340.582 21.4795 340.132 21.0595C339.682 20.6095 339.472 20.0695 339.472 19.4095C339.472 18.7495 339.682 18.2095 340.132 17.7895C340.582 17.3695 341.122 17.1595 341.782 17.1595ZM340.072 23.4895H343.492V38.9995H340.072V23.4895ZM354.694 23.0695C356.704 23.0695 358.294 23.5195 359.494 24.4195C360.724 25.3795 361.504 26.8195 361.804 28.7695H358.414C358.204 27.7795 357.784 27.0595 357.184 26.5795C356.554 26.0995 355.714 25.8595 354.694 25.8595C353.434 25.8595 352.444 26.3095 351.724 27.2695C351.004 28.1995 350.644 29.5195 350.644 31.1995C350.644 32.9095 350.974 34.2595 351.694 35.2195C352.354 36.1495 353.344 36.6295 354.664 36.6295C356.944 36.6295 358.204 35.4895 358.474 33.2395H361.864C361.504 35.3395 360.694 36.8995 359.464 37.9195C358.264 38.9095 356.644 39.4195 354.634 39.4195C352.234 39.4195 350.374 38.6395 349.054 37.0795C347.764 35.5795 347.134 33.6295 347.134 31.2295C347.134 28.8895 347.764 26.9695 349.024 25.4995C350.374 23.8795 352.264 23.0695 354.694 23.0695ZM371.6 23.0695C373.88 23.0695 375.59 23.6395 376.67 24.7795C377.63 25.7695 378.11 27.2095 378.11 29.0995V38.9995H374.93V36.9595C374.33 37.7395 373.58 38.3095 372.71 38.7295C371.72 39.1795 370.55 39.4195 369.2 39.4195C367.58 39.4195 366.32 38.9995 365.39 38.1895C364.43 37.3495 363.95 36.2995 363.95 35.0095C363.95 33.2695 364.61 31.9195 365.99 30.9895C367.25 30.0895 369.02 29.6095 371.3 29.5495L374.69 29.4595V28.8595C374.69 26.8195 373.58 25.8295 371.36 25.8295C370.4 25.8295 369.65 25.9795 369.08 26.3395C368.42 26.7295 367.97 27.3295 367.79 28.1395L364.4 27.8695C364.73 26.1595 365.57 24.8995 366.92 24.1195C368.06 23.3995 369.62 23.0695 371.6 23.0695ZM374.69 31.9195L371.54 32.0095C368.81 32.0695 367.46 33.0295 367.46 34.8895C367.46 35.4295 367.67 35.8795 368.15 36.2395C368.63 36.5995 369.23 36.8095 369.98 36.8095C371.3 36.8095 372.41 36.4195 373.31 35.6695C374.21 34.8895 374.69 33.8995 374.69 32.6995V31.9195ZM386.578 18.4795V23.4895H390.028V26.3095H386.578V35.0695C386.578 35.4295 386.638 35.6995 386.818 35.9095C386.998 36.0895 387.238 36.1795 387.598 36.1795H389.638V38.9995H387.028C385.678 38.9995 384.688 38.6395 384.058 37.9195C383.458 37.2595 383.158 36.3295 383.158 35.0695V26.3095H380.368V23.4895H383.158V19.8895L386.578 18.4795ZM394.897 17.1595C395.557 17.1595 396.127 17.3695 396.577 17.7895C396.997 18.2095 397.237 18.7495 397.237 19.4095C397.237 20.0695 396.997 20.6395 396.547 21.0595C396.097 21.4795 395.557 21.6895 394.897 21.6895C394.237 21.6895 393.697 21.4795 393.247 21.0595C392.797 20.6095 392.587 20.0695 392.587 19.4095C392.587 18.7495 392.797 18.2095 393.247 17.7895C393.697 17.3695 394.237 17.1595 394.897 17.1595ZM393.187 23.4895H396.607V38.9995H393.187V23.4895ZM408.049 23.0695C410.389 23.0695 412.279 23.8195 413.719 25.3795C415.129 26.9095 415.849 28.8595 415.849 31.2595C415.849 33.6295 415.129 35.5795 413.749 37.0795C412.309 38.6395 410.389 39.4195 408.049 39.4195C405.679 39.4195 403.789 38.6395 402.349 37.0795C400.939 35.5795 400.249 33.6295 400.249 31.2595C400.249 28.8595 400.939 26.9095 402.379 25.3795C403.789 23.8195 405.679 23.0695 408.049 23.0695ZM408.049 25.8595C406.609 25.8595 405.529 26.3995 404.749 27.5395C404.089 28.4995 403.759 29.7595 403.759 31.2595C403.759 32.7595 404.089 33.9895 404.749 34.9495C405.529 36.0595 406.609 36.6295 408.049 36.6295C409.459 36.6295 410.569 36.0595 411.349 34.9495C412.009 33.9595 412.369 32.7295 412.369 31.2595C412.369 29.7595 412.009 28.4995 411.349 27.5395C410.569 26.3995 409.459 25.8595 408.049 25.8595ZM426.847 23.0695C430.717 23.0695 432.667 25.1695 432.667 29.4295V38.9995H429.247V29.7295C429.247 27.1795 428.077 25.9195 425.737 25.9195C424.897 25.9195 424.147 26.2195 423.517 26.8195C422.797 27.4795 422.377 28.4395 422.257 29.6695V38.9995H418.837V23.4895H422.257V25.2895C422.857 24.5695 423.547 23.9995 424.297 23.6395C425.077 23.2495 425.917 23.0695 426.847 23.0695ZM452.649 17.5795H456.639L464.829 38.9995H461.079L459.129 33.6295H450.159L448.209 38.9995H444.459L452.649 17.5795ZM451.209 30.7495H458.079L454.719 21.3595H454.599L451.209 30.7495ZM464.97 23.4895H468.75L471.84 34.9495L474.9 23.4895H478.05L481.11 34.9495L484.2 23.4895H487.98L482.76 38.9995H479.58L476.49 27.6595L473.37 38.9995H470.19L464.97 23.4895ZM496.991 23.0695C499.271 23.0695 500.981 23.6395 502.061 24.7795C503.021 25.7695 503.501 27.2095 503.501 29.0995V38.9995H500.321V36.9595C499.721 37.7395 498.971 38.3095 498.101 38.7295C497.111 39.1795 495.941 39.4195 494.591 39.4195C492.971 39.4195 491.711 38.9995 490.781 38.1895C489.821 37.3495 489.341 36.2995 489.341 35.0095C489.341 33.2695 490.001 31.9195 491.381 30.9895C492.641 30.0895 494.411 29.6095 496.691 29.5495L500.081 29.4595V28.8595C500.081 26.8195 498.971 25.8295 496.751 25.8295C495.791 25.8295 495.041 25.9795 494.471 26.3395C493.811 26.7295 493.361 27.3295 493.181 28.1395L489.791 27.8695C490.121 26.1595 490.961 24.8995 492.311 24.1195C493.451 23.3995 495.011 23.0695 496.991 23.0695ZM500.081 31.9195L496.931 32.0095C494.201 32.0695 492.851 33.0295 492.851 34.8895C492.851 35.4295 493.061 35.8795 493.541 36.2395C494.021 36.5995 494.621 36.8095 495.371 36.8095C496.691 36.8095 497.801 36.4195 498.701 35.6695C499.601 34.8895 500.081 33.8995 500.081 32.6995V31.9195ZM514.429 23.0695C515.179 23.0695 515.839 23.1895 516.379 23.4595V26.8795C515.599 26.6395 514.879 26.5495 514.159 26.5495C513.259 26.5495 512.449 26.8795 511.729 27.5995C510.889 28.4095 510.499 29.4595 510.499 30.7795V38.9995H507.109V23.4895H510.499V25.7095C510.919 24.9295 511.399 24.3295 511.969 23.9095C512.659 23.3395 513.469 23.0695 514.429 23.0695ZM529.369 17.1595H532.789V38.9995H529.609V37.3495C528.529 38.7295 526.969 39.4195 524.929 39.4195C522.619 39.4195 520.819 38.6095 519.529 36.9895C518.329 35.4895 517.729 33.5395 517.729 31.1695C517.729 28.8895 518.299 26.9995 519.499 25.4995C520.759 23.8795 522.529 23.0695 524.749 23.0695C526.549 23.0695 528.079 23.9095 529.369 25.6195V17.1595ZM525.559 25.8295C523.999 25.8295 522.889 26.3395 522.169 27.3595C521.539 28.2295 521.239 29.4895 521.239 31.1695C521.239 32.8495 521.509 34.1395 522.109 35.0395C522.799 36.1195 523.909 36.6595 525.439 36.6595C526.759 36.6595 527.809 36.1195 528.529 35.0695C529.159 34.1095 529.489 32.8495 529.489 31.3495V31.1095C529.489 29.4595 529.069 28.1395 528.289 27.1795C527.569 26.2795 526.639 25.8295 525.559 25.8295ZM550.476 14.1895H553.326C552.066 16.2595 551.106 18.3295 550.446 20.3995C549.546 22.9795 549.126 25.5895 549.126 28.1995C549.126 30.7795 549.546 33.3895 550.446 35.9995C551.106 38.0395 552.066 40.1095 553.326 42.2095H550.476C549.036 40.2295 547.956 38.1895 547.176 36.0895C546.246 33.5695 545.796 30.9295 545.796 28.2295C545.796 25.4695 546.246 22.8595 547.176 20.3395C547.956 18.1795 549.036 16.1395 550.476 14.1895ZM563.887 17.1595C565.957 17.1595 567.667 17.7595 569.017 18.9595C570.337 20.1595 570.997 21.6895 570.997 23.6095C570.997 25.4695 570.277 27.1495 568.897 28.6795C568.057 29.5795 566.557 30.7195 564.457 32.1295C562.267 33.5695 560.947 34.8295 560.467 35.9095H571.027V38.9995H556.087C556.087 36.8095 556.777 34.9195 558.217 33.2995C558.997 32.3995 560.647 31.0795 563.137 29.3695C564.517 28.4095 565.477 27.5995 566.077 26.9695C567.007 25.9195 567.487 24.7795 567.487 23.5795C567.487 22.4095 567.157 21.5395 566.557 20.9695C565.927 20.3995 564.997 20.1295 563.767 20.1295C562.447 20.1295 561.457 20.5795 560.797 21.4795C560.137 22.3195 559.777 23.6095 559.717 25.2895H556.207C556.237 22.8895 556.927 20.9695 558.307 19.4995C559.717 17.9395 561.577 17.1595 563.887 17.1595ZM581.545 17.1595C584.035 17.1595 585.985 18.1795 587.395 20.2795C588.715 22.2595 589.375 24.9295 589.375 28.2895C589.375 31.6495 588.715 34.3195 587.395 36.2995C585.985 38.3695 584.035 39.4195 581.545 39.4195C579.025 39.4195 577.075 38.3695 575.695 36.2995C574.375 34.3195 573.715 31.6495 573.715 28.2895C573.715 24.9295 574.375 22.2595 575.695 20.2795C577.075 18.1795 579.025 17.1595 581.545 17.1595ZM581.545 20.1295C579.835 20.1295 578.635 21.0595 577.945 22.9795C577.465 24.2695 577.225 26.0395 577.225 28.2895C577.225 30.5095 577.465 32.2795 577.945 33.5995C578.635 35.4895 579.835 36.4495 581.545 36.4495C583.225 36.4495 584.425 35.4895 585.145 33.5995C585.625 32.2795 585.865 30.5095 585.865 28.2895C585.865 26.0395 585.625 24.2695 585.145 22.9795C584.425 21.0595 583.225 20.1295 581.545 20.1295ZM597.493 17.5795H600.133V38.9995H596.623V21.8095C595.333 22.9795 593.713 23.8495 591.733 24.4195V20.9395C592.693 20.6995 593.713 20.2795 594.793 19.6795C595.873 19.0195 596.773 18.3295 597.493 17.5795ZM611.838 17.1595C614.118 17.1595 615.948 17.7595 617.328 18.9895C618.528 20.0695 619.158 21.4195 619.158 23.0395C619.158 24.1195 618.918 25.0495 618.438 25.7995C617.898 26.5795 617.118 27.2095 616.068 27.6295V27.6895C617.058 27.9595 617.928 28.5595 618.648 29.4895C619.458 30.5095 619.878 31.6795 619.878 32.9995C619.878 34.9195 619.158 36.4495 617.778 37.6495C616.368 38.8195 614.388 39.4195 611.838 39.4195C609.258 39.4195 607.278 38.8195 605.898 37.6495C604.488 36.4495 603.798 34.9195 603.798 32.9995C603.798 31.6795 604.188 30.5095 605.028 29.4895C605.748 28.5595 606.588 27.9595 607.608 27.6895V27.6295C606.528 27.2095 605.748 26.5795 605.238 25.7995C604.758 25.0495 604.518 24.1195 604.518 23.0395C604.518 21.4195 605.118 20.0695 606.348 18.9895C607.698 17.7595 609.528 17.1595 611.838 17.1595ZM611.838 19.9495C610.578 19.9495 609.558 20.2795 608.808 20.9695C608.148 21.5695 607.818 22.2895 607.818 23.1595C607.818 24.1495 608.088 24.9295 608.628 25.4995C609.288 26.1895 610.338 26.5495 611.838 26.5495C613.308 26.5495 614.388 26.1895 615.048 25.4995C615.588 24.9295 615.858 24.1495 615.858 23.1595C615.858 22.2895 615.528 21.5695 614.868 20.9695C614.088 20.2795 613.098 19.9495 611.838 19.9495ZM611.838 29.1595C610.338 29.1595 609.198 29.5195 608.418 30.2395C607.638 30.9295 607.278 31.8595 607.278 32.9995C607.278 34.0795 607.668 34.9495 608.478 35.6095C609.258 36.2695 610.368 36.5995 611.838 36.5995C613.278 36.5995 614.418 36.2395 615.258 35.5795C616.008 34.9195 616.398 34.0795 616.398 32.9995C616.398 31.8595 616.008 30.9295 615.288 30.2695C614.478 29.5195 613.338 29.1595 611.838 29.1595ZM622.056 14.1895H624.906C626.316 16.1395 627.426 18.1795 628.206 20.3395C629.106 22.8595 629.586 25.4695 629.586 28.2295C629.586 30.9295 629.106 33.5695 628.206 36.0895C627.426 38.1895 626.316 40.2295 624.906 42.2095H622.056C623.286 40.1095 624.246 38.0395 624.936 35.9995C625.806 33.3895 626.256 30.7795 626.256 28.1995C626.256 25.5895 625.806 22.9795 624.936 20.3995C624.246 18.3295 623.286 16.2595 622.056 14.1895Z" fill="white"/>
</svg>
