<svg width="40" height="40" viewBox="0 0 40 40" fill="none" xmlns="http://www.w3.org/2000/svg">
<path d="M20 33.5999C27.52 33.5999 33.6 27.5199 33.6 19.9999C33.6 12.4799 27.52 6.3999 20 6.3999C12.48 6.3999 6.4 12.4799 6.4 19.9999C6.4 27.5199 12.48 33.5999 20 33.5999ZM20 7.9999C26.64 7.9999 32 13.3599 32 19.9999C32 26.6399 26.64 31.9999 20 31.9999C13.36 31.9999 8 26.6399 8 19.9999C8 13.3599 13.36 7.9999 20 7.9999Z" fill="#999999"/>
<path d="M13.36 23.3605L20 16.7205L26.64 23.3605L27.76 22.2405L20 14.4805L12.24 22.2405L13.36 23.3605Z" fill="#999999"/>
</svg>
