<svg width="28" height="28" viewBox="0 0 28 28" fill="none" xmlns="http://www.w3.org/2000/svg">
<mask id="mask0_390_1296" style="mask-type:alpha" maskUnits="userSpaceOnUse" x="0" y="0" width="28" height="28">
<rect width="28" height="28" fill="#D9D9D9"/>
</mask>
<g mask="url(#mask0_390_1296)">
<path d="M25.2974 10.6255C24.7013 9.37169 23.8628 8.24845 22.8302 7.32062C21.7807 6.36632 20.5615 5.61727 19.236 5.11232C16.4005 4.03548 13.2687 4.03548 10.4332 5.11232C9.10398 5.61912 7.88017 6.36786 6.82379 7.32062C5.80123 8.25047 4.97303 9.37371 4.38704 10.6255C3.78634 11.8861 3.47418 13.2648 3.47326 14.6613C3.48255 16.4964 4.01051 18.2915 4.99623 19.8394C4.66103 20.3136 4.27269 20.748 3.83877 21.1339C3.19913 21.7583 2.4681 22.3675 2.08736 22.6569C1.97383 22.7614 1.89628 22.8992 1.86582 23.0504C1.83536 23.2017 1.85356 23.3587 1.91779 23.499C1.98203 23.6393 2.08901 23.7557 2.22343 23.8315C2.35784 23.9073 2.51279 23.9386 2.66609 23.921C3.33619 23.8143 4.63072 23.6011 5.89478 23.4641C6.77949 23.3108 7.67829 23.2547 8.5752 23.2965C10.4649 24.4321 12.63 25.0274 14.8346 25.0175C16.3387 25.0193 17.8304 24.7458 19.236 24.2103C20.558 23.7191 21.7769 22.9857 22.8302 22.0477C23.8641 21.1246 24.6985 20 25.2821 18.7429C25.8744 17.4718 26.1813 16.0865 26.1813 14.6842C26.1813 13.2819 25.8744 11.8966 25.2821 10.6255H25.2974ZM22.0078 21.1339C20.0289 22.8794 17.4731 23.8291 14.8346 23.7991C12.826 23.835 10.8475 23.3074 9.12347 22.2762C8.80531 22.1272 8.45215 22.0693 8.10308 22.1086C7.3743 22.118 6.64687 22.174 5.92524 22.2762L4.24997 22.4894C4.49365 22.2762 4.72209 22.0477 4.95054 21.8193C5.29902 21.4908 5.61992 21.1342 5.91001 20.7532C6.04707 20.5552 6.48873 19.9308 6.13845 19.3977C5.20369 17.9951 4.70552 16.3469 4.70686 14.6613C4.71201 13.4471 4.97226 12.2475 5.47075 11.1404C5.96923 10.0332 6.69483 9.04315 7.6005 8.2344C9.58814 6.45813 12.1691 5.49094 14.8346 5.52352C17.4771 5.50197 20.0334 6.46263 22.0078 8.21917C22.9264 9.02411 23.6646 10.0142 24.1737 11.1244C24.6829 12.2346 24.9517 13.4399 24.9623 14.6613C24.9569 15.888 24.6907 17.0995 24.1813 18.2155C23.6719 19.3314 22.931 20.3262 22.0078 21.1339Z" fill="#C0EE02"/>
<path d="M25.5716 18.8798C26.1831 17.5656 26.5 16.1336 26.5 14.6841C26.5 13.2345 26.1831 11.8025 25.5716 10.4883C24.9702 9.18585 24.116 8.01589 23.0587 7.04637C21.9673 6.0908 20.714 5.3378 19.3579 4.82284C17.8986 4.26934 16.3496 3.99052 14.789 4.00044C13.228 3.98733 11.6784 4.26626 10.2201 4.82284C8.89813 5.34204 7.68059 6.09525 6.62586 7.04637C5.56512 8.01286 4.71041 9.18354 4.11297 10.4883C3.41273 11.9718 3.09337 13.6066 3.18378 15.2446C3.27419 16.8826 3.77152 18.4723 4.63078 19.8698C4.32868 20.2548 3.99224 20.6116 3.62562 20.9358C3.13827 21.4079 2.55954 21.9258 1.90467 22.4588C1.71433 22.5865 1.57893 22.7811 1.52534 23.0039C1.47174 23.2268 1.50385 23.4616 1.61531 23.6619C1.69184 23.8786 1.84718 24.0585 2.0504 24.1657C2.25362 24.273 2.48978 24.2997 2.71184 24.2407L5.9253 23.799C6.76178 23.672 7.6075 23.616 8.45342 23.6315C10.3844 24.7715 12.5925 25.3564 14.8347 25.322C16.3953 25.3319 17.9443 25.0531 19.4036 24.4996C20.7471 23.9869 21.9857 23.2334 23.0587 22.276C24.1145 21.3229 24.9689 20.1682 25.5716 18.8798ZM25.0233 10.7472C25.5948 11.9809 25.8909 13.3243 25.8909 14.6841C25.8909 16.0438 25.5948 17.3872 25.0233 18.6209C24.452 19.8344 23.6443 20.9217 22.6475 21.8191C21.6215 22.7515 20.4276 23.4802 19.1294 23.9665C17.7599 24.4968 16.3032 24.7654 14.8347 24.7585C12.6873 24.7806 10.5768 24.2003 8.74279 23.0832C7.81608 23.0253 6.88578 23.0765 5.97099 23.2355C5.10797 23.3269 4.02667 23.4792 2.72707 23.6924C2.63625 23.7163 2.5397 23.7043 2.45747 23.659C2.37524 23.6136 2.31362 23.5383 2.28541 23.4487C2.24156 23.3683 2.2282 23.2747 2.24778 23.1852C2.26736 23.0956 2.31857 23.0162 2.39202 22.9614C3.06212 22.4131 3.65608 21.8953 4.15866 21.4384C4.61224 21.0361 5.01614 20.5811 5.3618 20.083L5.45318 19.9307L5.3618 19.7631C4.33741 18.2582 3.78588 16.4817 3.77792 14.6612C3.78027 13.2976 4.0818 11.9511 4.66124 10.7167C5.23256 9.50323 6.04027 8.41592 7.03707 7.51849C8.06556 6.59705 9.25929 5.87875 10.5551 5.40157C11.9189 4.87007 13.371 4.60136 14.8347 4.60963C16.3032 4.60272 17.7599 4.87135 19.1294 5.40157C20.4276 5.88789 21.6215 6.61663 22.6475 7.54895C23.6443 8.44638 24.452 9.53369 25.0233 10.7472ZM22.221 21.4079C23.1766 20.5774 23.9428 19.5514 24.4679 18.3993C24.9929 17.2472 25.2646 15.9958 25.2646 14.7297C25.2646 13.4636 24.9929 12.2123 24.4679 11.0602C23.9428 9.90812 23.1766 8.88213 22.221 8.05153C20.211 6.20044 17.5669 5.19187 14.8347 5.23404C12.1087 5.17943 9.46536 6.17136 7.44827 8.00584C5.83334 9.412 4.78741 11.3594 4.50698 13.4823C4.22655 15.6052 4.7309 17.7574 5.9253 19.5347C6.09283 19.7631 6.01668 20.1134 5.71208 20.5399C5.43829 20.9111 5.13253 21.2576 4.79831 21.5755L4.05205 22.276L3.32103 22.9461L4.29573 22.8091L5.95576 22.5959C6.68262 22.4947 7.41505 22.4388 8.14883 22.4283C8.44372 22.4014 8.74083 22.4431 9.01692 22.5502C10.7642 23.6282 12.7817 24.188 14.8347 24.1645C17.5648 24.2108 20.2086 23.2078 22.221 21.3623V21.4079ZM21.8098 8.50842C22.7028 9.28045 23.4191 10.2357 23.9101 11.3092C24.4011 12.3827 24.6552 13.5493 24.6552 14.7297C24.6552 15.9102 24.4011 17.0768 23.9101 18.1503C23.4191 19.2238 22.7028 20.179 21.8098 20.9511C19.9104 22.6924 17.4108 23.6311 14.8347 23.5706C12.8947 23.5943 10.988 23.0661 9.33674 22.0476C8.96552 21.8761 8.55652 21.8027 8.14883 21.8344C7.3948 21.8444 6.64207 21.9003 5.89484 22.0019L5.14859 22.0933C5.5084 21.7449 5.83946 21.368 6.13852 20.9663C6.36827 20.7467 6.51842 20.4569 6.56529 20.1425C6.61217 19.8282 6.55311 19.5072 6.39742 19.2301C5.31096 17.572 4.86626 15.5747 5.1466 13.6123C5.42695 11.6498 6.41312 9.85692 7.92039 8.56934C9.78794 6.80392 12.2648 5.82737 14.8347 5.84323C17.4108 5.78272 19.9104 6.72143 21.8098 8.46273V8.50842Z" fill="#C0EE02" stroke="#C0EE02" stroke-width="0.5"/>
<circle cx="11.5" cy="15" r="1" fill="#C0EE02"/>
<circle cx="15.5" cy="15" r="1" fill="#C0EE02"/>
<circle cx="19.5" cy="15" r="1" fill="#C0EE02"/>
</g>
</svg>
