<svg width="28" height="28" viewBox="0 0 28 28" fill="none" xmlns="http://www.w3.org/2000/svg">
<mask id="mask0_390_1321" style="mask-type:alpha" maskUnits="userSpaceOnUse" x="0" y="0" width="28" height="28">
<rect width="28" height="28" fill="#D9D9D9"/>
</mask>
<g mask="url(#mask0_390_1321)">
<path d="M3.64876 19.6672C3.34899 19.2775 3.22158 19.0647 3.02373 18.6675L2.78391 18.2298C2.26755 16.8793 2.00189 15.4459 2 14C2.0004 10.8175 3.26481 7.76551 5.51516 5.51516C7.76551 3.26481 10.8175 2.0004 14 2C20.613 2 26 7.35998 26 13.9505C25.9996 17.133 24.7352 20.185 22.4848 22.4354C20.2345 24.6857 17.1825 25.9501 14 25.9505C10.62 25.9505 7.49038 24.5911 5.22558 22.1779C5.80415 21.6263 6.25681 21.2785 7.04971 20.607C7.94255 21.5532 9.02005 22.3061 10.2155 22.8192C11.411 23.3322 12.6991 23.5945 14 23.5898C15.2594 23.59 16.5065 23.3421 17.6701 22.8602C18.8337 22.3784 19.8909 21.672 20.7815 20.7815C21.672 19.8909 22.3784 18.8337 22.8602 17.6701C23.3421 16.5065 23.59 15.2594 23.5898 14C23.5902 12.7405 23.3424 11.4932 22.8607 10.3294C22.3789 9.16569 21.6725 8.10827 20.782 7.21757C19.8914 6.32688 18.8341 5.62037 17.6704 5.13842C16.5068 4.65646 15.2595 4.4085 14 4.40869C12.7405 4.4085 11.4932 4.65646 10.3296 5.13842C9.16588 5.62037 8.10857 6.32688 7.21801 7.21757C6.32746 8.10827 5.62112 9.16569 5.13934 10.3294C4.65757 11.4932 4.4098 12.7405 4.41019 14C4.41297 14.7357 4.49538 15.4689 4.65601 16.1869C5.38596 18.5476 6.25981 17.7757 5.48639 18.4277L3.64876 19.6672Z" fill="#C0EE02"/>
<path d="M8.24579 16.1356L8.44064 16.3095L10.9827 18.6028C11.2795 18.8995 11.7876 18.9115 12.1504 18.6432L18.0215 12.7047V15.3877C18.6245 15.3908 19.2276 15.3903 19.8306 15.3862V10.5328V10.1341L19.8291 9.97824V9.6275H14.0285C14.03 9.82236 14.0315 10.0247 14.03 10.2525L14.027 10.7367L14.024 11.4381H16.5855L11.4939 16.6422L11.2795 16.4459L8.85134 14.2171C8.46163 13.9218 8.01346 13.9098 7.67772 14.1616L4.80887 16.6422C4.92128 16.963 5.24354 17.7094 5.57629 18.3435L8.24579 16.1356Z" fill="#C0EE02"/>
</g>
</svg>
