<svg width="280" height="50" viewBox="0 0 280 50" fill="none" xmlns="http://www.w3.org/2000/svg">
<path fill-rule="evenodd" clip-rule="evenodd" d="M231.351 17.9293C232.326 17.9293 233.218 18.1223 234.025 18.5082C234.821 18.885 235.527 19.4288 236.095 20.1027C236.667 20.7804 237.108 21.5946 237.418 22.5446C237.727 23.4951 237.882 24.5353 237.882 25.6641C237.882 26.7935 237.727 27.838 237.418 28.7973C237.108 29.7576 236.672 30.5902 236.109 31.2957C235.556 31.9936 234.853 32.558 234.053 32.9473C233.246 33.3424 232.336 33.5397 231.323 33.5397C230.422 33.5397 229.619 33.3804 228.915 33.0598C228.225 32.7503 227.62 32.2753 227.155 31.6766V37.8315H223.58V18.2962H227.1V19.8777C227.662 19.162 228.315 18.6587 229.056 18.3668C229.787 18.0772 230.565 17.9288 231.351 17.9293ZM196.13 12.9332C196.956 12.9332 197.786 13.0266 198.622 13.2158C199.456 13.4033 200.245 13.7185 200.986 14.1609C201.728 14.6027 202.403 15.1864 203.014 15.9109C203.624 16.6353 204.126 17.5342 204.52 18.6065L200.86 19.6228C200.428 18.494 199.837 17.6332 199.086 17.0402C198.335 16.4478 197.35 16.1511 196.13 16.1511C194.422 16.1511 193.085 16.7717 192.118 18.0141C191.151 19.256 190.668 20.9973 190.668 23.2364C190.668 25.4571 191.124 27.212 192.034 28.5011C192.944 29.7902 194.319 30.4348 196.159 30.4348C197.547 30.4348 198.65 30.0957 199.466 29.4185C200.283 28.7408 200.907 27.7717 201.338 26.5109L204.886 27.6685C204.51 28.6848 204.027 29.5647 203.436 30.3076C202.861 31.0361 202.172 31.6656 201.395 32.1712C200.618 32.6727 199.768 33.0488 198.875 33.2859C197.965 33.5304 197.022 33.6527 196.046 33.6527C194.976 33.6527 193.892 33.4739 192.794 33.1163C191.695 32.7592 190.701 32.1707 189.809 31.3522C188.918 30.5337 188.195 29.4609 187.642 28.1348C187.088 26.8076 186.811 25.1842 186.811 23.2647C186.811 21.4201 187.074 19.844 187.599 18.5364C188.125 17.2283 188.824 16.1603 189.697 15.3321C190.549 14.5167 191.567 13.8956 192.681 13.5114C193.79 13.1269 194.956 12.9315 196.13 12.9332ZM96.6621 17.9293C97.8069 17.9293 98.8487 18.1321 99.787 18.5364C100.726 18.9408 101.519 19.4913 102.167 20.1875C102.814 20.8837 103.316 21.712 103.672 22.6717C104.029 23.6321 104.207 24.6576 104.207 25.7489C104.207 26.8967 104.034 27.9511 103.687 28.9103C103.339 29.8701 102.841 30.6929 102.194 31.3804C101.547 32.0674 100.758 32.5989 99.8293 32.975C98.9002 33.3516 97.8443 33.5402 96.6621 33.5402C95.4794 33.5402 94.4192 33.3424 93.4804 32.9473C92.5427 32.5522 91.7491 32.0109 91.1014 31.3239C90.4542 30.637 89.9615 29.8185 89.6238 28.8679C89.2856 27.9179 89.117 26.8783 89.117 25.7484C89.117 24.6196 89.2905 23.575 89.6374 22.6152C89.9848 21.656 90.4824 20.8272 91.1296 20.1315C91.7773 19.4353 92.5703 18.894 93.5091 18.5082C94.4469 18.1223 95.4984 17.9293 96.6621 17.9293ZM154.068 17.9293C155.175 17.9293 156.114 18.0326 156.883 18.2402C157.653 18.4467 158.282 18.7527 158.77 19.1576C159.247 19.5478 159.612 20.0594 159.825 20.6391C160.041 21.2228 160.149 21.8815 160.149 22.6152V29.9266C160.149 30.5098 160.182 31.0652 160.248 31.5924C160.313 32.119 160.449 32.6457 160.656 33.1734H157.024C156.828 32.6724 156.686 32.1516 156.601 31.6201C156.039 32.3353 155.359 32.8342 154.561 33.1163C153.763 33.3989 152.97 33.5402 152.182 33.5402C151.394 33.5402 150.685 33.4272 150.056 33.2011C149.427 32.975 148.901 32.6554 148.48 32.2413C148.061 31.833 147.731 31.343 147.508 30.8016C147.283 30.256 147.17 29.6538 147.17 28.9951C147.17 27.6217 147.635 26.506 148.564 25.65C149.493 24.794 151.046 24.2337 153.223 23.9707L156.546 23.5467V22.8696C156.546 22.0038 156.372 21.4016 156.025 21.063C155.678 20.7239 154.997 20.5543 153.983 20.5543C153.045 20.5543 152.369 20.7147 151.956 21.0348C151.544 21.3543 151.327 21.9098 151.309 22.7H147.761C147.799 21.0821 148.386 19.8821 149.521 19.1011C150.656 18.3196 152.172 17.9293 154.068 17.9293ZM264.882 17.9293C265.989 17.9293 266.928 18.0326 267.697 18.2402C268.467 18.4467 269.096 18.7527 269.584 19.1576C270.062 19.5478 270.426 20.0594 270.64 20.6391C270.855 21.2228 270.963 21.8815 270.963 22.6152V29.9266C270.963 30.5098 270.996 31.0652 271.062 31.5924C271.127 32.119 271.263 32.6457 271.47 33.1734H267.838C267.642 32.6724 267.5 32.1516 267.416 31.6201C266.853 32.3353 266.172 32.8342 265.375 33.1163C264.577 33.3989 263.784 33.5402 262.995 33.5402C262.207 33.5402 261.499 33.4272 260.871 33.2011C260.242 32.975 259.716 32.6554 259.293 32.2413C258.875 31.833 258.544 31.343 258.322 30.8016C258.097 30.256 257.984 29.6538 257.984 28.9951C257.984 27.6217 258.449 26.506 259.378 25.65C260.307 24.794 261.86 24.2337 264.038 23.9707L267.36 23.5467V22.8696C267.36 22.0038 267.186 21.4016 266.839 21.063C266.491 20.7239 265.811 20.5543 264.798 20.5543C263.859 20.5543 263.183 20.7147 262.77 21.0348C262.357 21.3543 262.142 21.9098 262.123 22.7H258.576C258.613 21.0821 259.199 19.8821 260.335 19.1011C261.471 18.3196 262.986 17.9293 264.882 17.9293H264.882ZM252.466 14.5418V18.4375H256.154V21.0908H252.466V28.7408C252.466 29.362 252.593 29.8234 252.846 30.1245C253.099 30.425 253.564 30.5755 254.24 30.5755C254.653 30.5755 255.047 30.5429 255.422 30.4777C255.773 30.4171 256.121 30.3367 256.464 30.237V33.0598C256.001 33.2184 255.525 33.3366 255.042 33.413C254.488 33.5007 253.928 33.5432 253.367 33.5402C252.523 33.5402 251.814 33.4364 251.241 33.2293C250.669 33.0228 250.209 32.7353 249.862 32.3685C249.515 32.0016 249.261 31.5543 249.102 31.0277C248.942 30.5005 248.862 29.9174 248.862 29.2777V21.0902H246.835V18.437H248.862V14.5413L252.466 14.5418ZM213.838 17.9293C214.946 17.9293 215.884 18.0326 216.653 18.2402C217.423 18.4467 218.052 18.7527 218.54 19.1576C219.018 19.5478 219.382 20.0594 219.596 20.6391C219.811 21.2228 219.92 21.8815 219.92 22.6152V29.9266C219.92 30.5098 219.952 31.0652 220.018 31.5924C220.084 32.119 220.22 32.6457 220.427 33.1734H216.795C216.599 32.6724 216.457 32.1516 216.372 31.6201C215.809 32.3353 215.129 32.8342 214.331 33.1163C213.534 33.3989 212.741 33.5402 211.952 33.5402C211.164 33.5402 210.455 33.4272 209.827 33.2011C209.198 32.975 208.672 32.6554 208.249 32.2413C207.831 31.8329 207.501 31.343 207.278 30.8016C207.053 30.256 206.941 29.6538 206.941 28.9951C206.941 27.6217 207.405 26.506 208.334 25.65C209.263 24.794 210.816 24.2337 212.994 23.9707L216.316 23.5467V22.8696C216.316 22.0038 216.142 21.4016 215.795 21.063C215.448 20.7239 214.767 20.5543 213.754 20.5543C212.816 20.5543 212.14 20.7147 211.726 21.0348C211.314 21.3543 211.098 21.9098 211.079 22.7H207.532C207.57 21.0821 208.156 19.8821 209.292 19.1011C210.427 18.3196 211.942 17.9293 213.838 17.9293ZM118.65 13.413V28.8261C118.65 29.1457 118.659 29.4092 118.678 29.6163C118.696 29.8228 118.748 29.988 118.833 30.1103C118.917 30.2326 119.044 30.3168 119.212 30.3641C119.382 30.4114 119.616 30.4348 119.917 30.4348H120.17C120.245 30.4348 120.367 30.425 120.536 30.4065V33.1446C119.992 33.2957 119.363 33.3707 118.65 33.3707C117.505 33.3707 116.618 33.0457 115.989 32.3967C115.36 31.7473 115.046 30.7457 115.046 29.3908V13.4125L118.65 13.413ZM278.114 13.413V28.8261C278.114 29.1457 278.123 29.4092 278.142 29.6163C278.161 29.8228 278.212 29.988 278.297 30.1103C278.381 30.2326 278.508 30.3168 278.677 30.3641C278.846 30.4114 279.08 30.4348 279.38 30.4348H279.634C279.709 30.4348 279.831 30.425 280 30.4065V33.1446C279.456 33.2957 278.827 33.3707 278.114 33.3707C276.969 33.3707 276.082 33.0457 275.453 32.3967C274.825 31.7473 274.51 30.7457 274.51 29.3908V13.4125L278.114 13.413ZM110.682 13.413V28.8261C110.682 29.1457 110.692 29.4092 110.71 29.6163C110.729 29.8228 110.781 29.988 110.865 30.1103C110.95 30.2326 111.076 30.3168 111.245 30.3641C111.414 30.4114 111.649 30.4348 111.949 30.4348H112.202C112.278 30.4348 112.4 30.425 112.569 30.4065V33.1446C112.024 33.2957 111.395 33.3707 110.682 33.3707C109.537 33.3707 108.65 33.0457 108.022 32.3967C107.393 31.7473 107.078 30.7457 107.078 29.3908V13.4125L110.682 13.413ZM139.596 17.9293C141.21 17.9293 142.416 18.4239 143.214 19.4114C144.012 20.3995 144.411 21.806 144.411 23.6321V33.1734H140.807V25.156C140.807 23.7446 140.666 22.6957 140.384 22.0082C140.103 21.3217 139.483 20.9783 138.526 20.9783C137.644 20.9783 136.931 21.331 136.387 22.037C135.843 22.7424 135.57 23.6696 135.57 24.8174V33.1734H131.967V25.156C131.967 24.4592 131.938 23.8478 131.882 23.3212C131.826 22.794 131.718 22.3565 131.558 22.0082C131.399 21.6603 131.169 21.4016 130.868 21.2321C130.568 21.063 130.175 20.9783 129.686 20.9783C128.823 20.9783 128.114 21.331 127.56 22.037C127.007 22.7424 126.73 23.6696 126.73 24.8174V33.1734H123.126V18.2962H126.645V19.9902C127.19 19.275 127.8 18.7527 128.475 18.4234C129.151 18.094 129.912 17.9293 130.756 17.9293C131.77 17.9293 132.623 18.1359 133.318 18.5505C134.012 18.9647 134.538 19.5668 134.895 20.3571C135.458 19.4728 136.152 18.8462 136.978 18.4799C137.802 18.1133 138.695 17.9256 139.596 17.9293ZM171.804 17.9293C173.438 17.9293 174.681 18.4239 175.535 19.4114C176.389 20.3995 176.816 21.7967 176.816 23.6033V33.1739H173.212V24.7337C173.212 23.5663 173.043 22.6489 172.705 21.981C172.368 21.3125 171.701 20.9788 170.706 20.9788C170.218 20.9788 169.777 21.0728 169.383 21.2609C168.984 21.4532 168.629 21.7272 168.341 22.0652C168.041 22.4136 167.811 22.8277 167.652 23.3076C167.492 23.7875 167.412 24.319 167.412 24.9027V33.1739H163.809V18.2962H167.328V20.2163C167.891 19.4065 168.553 18.8234 169.313 18.4658C170.073 18.1082 170.904 17.9293 171.804 17.9293ZM79.7691 13.413C81.083 13.413 82.2137 13.5728 83.1617 13.8924C84.1097 14.2125 84.8886 14.6457 85.4984 15.1913C86.1082 15.737 86.5543 16.3717 86.8356 17.0967C87.1175 17.8212 87.2584 18.588 87.2584 19.3973C87.2584 20.7337 86.9158 21.8674 86.2307 22.7989C85.5456 23.7304 84.5081 24.4315 83.1194 24.9022L88.2996 33.1734H83.9363L79.4032 25.4668H76.2779V33.1734H72.5335V13.4125H79.7696L79.7691 13.413ZM244.498 18.2962V33.1739H240.894V18.2962H244.498ZM267.359 25.975L264.966 26.313C263.783 26.4641 262.939 26.7179 262.432 27.0755C261.925 27.4332 261.672 27.9696 261.672 28.6842C261.672 29.2495 261.845 29.7147 262.193 30.0821C262.54 30.4489 263.107 30.6321 263.896 30.6321C264.366 30.6321 264.807 30.5571 265.219 30.4065C265.618 30.2641 265.99 30.054 266.317 29.7853C266.636 29.5229 266.895 29.1957 267.077 28.8255C267.265 28.4489 267.359 28.0353 267.359 27.5837V25.975ZM156.545 25.975L154.152 26.313C152.969 26.4641 152.125 26.7179 151.618 27.0755C151.111 27.4332 150.858 27.9696 150.858 28.6842C150.858 29.2495 151.032 29.7147 151.378 30.0821C151.726 30.4489 152.294 30.6321 153.082 30.6321C153.551 30.6321 153.993 30.5571 154.405 30.4065C154.804 30.2641 155.175 30.054 155.503 29.7853C155.821 29.5229 156.08 29.1957 156.263 28.8255C156.451 28.4489 156.545 28.0353 156.545 27.5837V25.975ZM216.316 25.975L213.923 26.313C212.741 26.4641 211.895 26.7179 211.389 27.0755C210.882 27.4332 210.629 27.9696 210.629 28.6842C210.629 29.2495 210.802 29.7147 211.149 30.0821C211.497 30.4489 212.065 30.6321 212.853 30.6321C213.322 30.6321 213.763 30.5571 214.176 30.4065C214.575 30.264 214.946 30.0539 215.274 29.7853C215.592 29.5229 215.852 29.1958 216.034 28.8255C216.222 28.4489 216.316 28.0353 216.316 27.5837V25.975H216.316ZM96.6616 20.8652C95.5168 20.8652 94.6019 21.2696 93.9167 22.0788C93.2316 22.8886 92.889 24.0924 92.889 25.6924C92.889 27.2924 93.2219 28.5103 93.8886 29.3478C94.5547 30.1853 95.4789 30.6043 96.6616 30.6043C97.8438 30.6043 98.7685 30.1859 99.4347 29.3478C100.101 28.5103 100.434 27.2924 100.434 25.6924C100.434 24.0924 100.092 22.888 99.4065 22.0788C98.7213 21.2696 97.8064 20.8652 96.6616 20.8652ZM230.533 20.8652C229.464 20.8652 228.605 21.2652 227.958 22.0647C227.31 22.8647 226.986 24.0739 226.986 25.6924C226.986 26.5391 227.075 27.2734 227.254 27.894C227.432 28.5152 227.681 29.0234 228 29.4185C228.301 29.7991 228.686 30.1037 229.126 30.3076C229.568 30.5076 230.048 30.6088 230.533 30.6043C231.603 30.6043 232.472 30.1804 233.138 29.3337C233.805 28.487 234.137 27.2636 234.137 25.6641C234.137 24.1772 233.832 23.006 233.222 22.1495C232.612 21.2935 231.716 20.8652 230.534 20.8652H230.533ZM80.0504 16.5462H76.2779V22.4745H79.9664C80.4353 22.4745 80.877 22.4272 81.289 22.3332C81.6815 22.2483 82.0512 22.0799 82.373 21.8391C82.6831 21.6038 82.927 21.2935 83.1053 20.9076C83.2836 20.5217 83.3731 20.0272 83.3731 19.4255C83.3731 18.4658 83.082 17.7462 82.5004 17.2663C81.9183 16.7859 81.102 16.5462 80.0504 16.5462ZM242.696 12.3967C243.297 12.3967 243.818 12.6033 244.259 13.0174C244.699 13.4315 244.92 13.9397 244.92 14.5418C244.92 14.825 244.858 15.1047 244.737 15.3609C244.615 15.6239 244.456 15.85 244.259 16.038C244.054 16.2311 243.815 16.3843 243.555 16.4897C243.282 16.6026 242.991 16.6602 242.696 16.6592C242.114 16.6592 241.603 16.4522 241.162 16.038C240.721 15.6239 240.5 15.125 240.5 14.5418C240.5 14.2408 240.561 13.9587 240.683 13.6951C240.805 13.4315 240.965 13.206 241.162 13.0174C241.366 12.8245 241.605 12.6713 241.866 12.5658C242.129 12.4549 242.411 12.3974 242.696 12.3967ZM34.6805 0L34.6881 0.00108696C34.7943 0.013587 34.8236 0.159783 35.126 1.67446C35.4366 3.2337 36.093 5.46196 36.6459 6.84728C36.9223 7.51739 37.0605 8.03696 37.0031 8.09457C36.9456 8.15272 36.5884 8.03696 36.1624 7.79457C35.7477 7.575 35.3445 7.39076 35.2756 7.39076C35.1672 7.39076 35.1304 8.85 35.126 14.2103V23.3141L35.5288 23.2446C35.9781 23.1755 36.2432 23.3261 36.4155 23.7761C36.5055 24.0163 36.7342 23.8397 40.4195 20.1527L40.722 19.85L40.8786 19.6929L41.1415 19.4293L41.4147 19.156L41.7172 18.8527L41.8727 18.6973L42.9167 17.65L43.0544 17.512L43.4533 17.1109C47.2134 13.3315 48.1511 12.325 48.0243 12.2402C47.9321 12.1712 47.5061 12.0092 47.0801 11.8821C46.6426 11.744 46.2968 11.5935 46.2968 11.5245C46.2968 11.4663 46.5733 11.3049 46.9072 11.1658C48.6232 10.462 51.0071 9.14565 52.7693 7.95598L52.8002 7.93533C53.8083 7.25435 53.914 7.37772 53.2186 8.40652C52.0321 10.1728 50.7198 12.5641 50.0168 14.2837C49.8786 14.619 49.7176 14.8962 49.6596 14.8962C49.5908 14.8962 49.4412 14.5495 49.3029 14.1109C49.1761 13.6837 49.0151 13.256 48.9457 13.1641C48.9311 13.1424 48.8899 13.1522 48.8119 13.2022L48.7788 13.2245C48.3278 13.5397 46.8838 14.9527 43.172 18.6647L43.0262 18.8109L37.2221 24.6304L37.6134 24.9076L38.0167 25.1734L43.2473 25.1728C45.596 25.1685 47.5131 25.1364 47.6102 25.1043C47.7603 25.05 47.7907 24.8152 47.7939 23.6402V23.2207C47.7923 21.9511 47.7684 21.7207 47.627 21.6418L47.6161 21.6364C47.6103 21.6334 47.6043 21.6307 47.5982 21.6283C47.2757 21.5054 47.2221 21.362 47.2188 20.4473V19.3995H50.7887V20.4842C50.787 21.3337 50.7507 21.5022 50.593 21.5592C50.4775 21.6049 50.3507 21.6859 50.3046 21.7549C50.2358 21.856 50.2087 22.5283 50.2136 23.2386L50.2146 23.3424C50.2239 24.1424 50.2737 24.9565 50.3507 25.0348C50.535 25.2196 52.5389 25.2196 52.7232 25.0348C52.8007 24.9571 52.8506 24.1424 52.8598 23.3424L52.8609 23.2386C52.8663 22.5283 52.8381 21.856 52.7693 21.7549C52.7232 21.6859 52.5969 21.6049 52.4928 21.5592C52.327 21.5033 52.2885 21.3413 52.2858 20.538V19.3995H55.8556V20.3935C55.8545 21.3668 55.8046 21.5033 55.4762 21.6283C55.3369 21.6804 55.2962 21.7848 55.2946 22.4935V22.5924C55.2946 22.7783 55.2973 23.0005 55.3011 23.269L55.3033 23.4065L55.3374 25.1158L55.8328 25.15C56.454 25.1946 56.6264 25.0576 56.6795 24.4592L56.6849 24.388L56.7196 23.8457L57.9636 23.8109L59.1956 23.7761V29.1109L57.9636 29.0761L56.7196 29.0418L56.6047 28.0027L55.9478 27.9679L55.28 27.9332V29.7092C55.2816 31.0174 55.3098 31.1918 55.4876 31.2587C55.7987 31.381 55.8524 31.5255 55.8561 32.4293V33.487H52.2858V32.2799C52.2874 31.413 52.3091 31.3342 52.5508 31.2353C52.7926 31.1321 52.8039 31.0397 52.8381 29.7924C52.8836 27.8413 52.9736 27.9293 51.58 27.9663L51.5025 27.9679L50.2705 28.0027V29.7549C50.2716 31.0679 50.2932 31.125 50.535 31.2353C50.7659 31.3348 50.787 31.413 50.7887 32.2799V33.487H47.2183V32.3152C47.2199 31.4712 47.241 31.3973 47.4785 31.3043L47.5061 31.2935L47.7939 31.1783V27.9451H38.0969L37.7175 28.2799L37.337 28.6033L45.203 36.4902H47.1608L49.6021 38.938C50.9496 40.2891 52.0554 41.4668 52.0554 41.5598C52.0554 41.6864 51.8711 41.6978 51.0651 41.6288C50.2011 41.5598 50.0515 41.5712 49.8439 41.756C49.6368 41.9522 49.6255 42.056 49.6943 42.9799C49.7637 43.7995 49.7404 43.9962 49.6255 43.9962C49.5355 43.9962 48.4238 42.938 47.1158 41.6413L47.0226 41.5478L44.5694 39.088V37.125L40.4694 33.0255C38.2124 30.7734 36.4041 28.9957 36.4502 29.0761C36.4963 29.1571 36.4616 29.3766 36.3928 29.5728C36.2518 29.9098 35.9272 30.0625 35.4957 30.012L35.4138 30L35.126 29.9424V41.5239L35.8171 42.2054L36.5077 42.8984L36.4849 46.4087C36.4616 48.8913 36.4155 49.9304 36.3234 49.9652C36.2545 49.9886 35.9206 49.6652 35.5981 49.2495C34.7916 48.2223 34.5618 48.2223 33.7552 49.2495C33.4327 49.6652 33.1102 50 33.0527 50C32.9866 50 32.9416 48.7826 32.9378 46.6707V42.7717L34.2046 41.5245V29.8152L33.8821 29.9304C33.4213 30.1071 32.992 29.9793 32.8034 29.6174L32.7763 29.5614L32.6381 29.2266L24.7607 37.125V39.0875L22.3194 41.5359C20.9719 42.887 19.7973 43.9957 19.7165 43.9957C19.5897 43.9957 19.5669 43.7989 19.6358 42.9793C19.7051 42.0554 19.6938 41.9516 19.4862 41.7554C19.2791 41.5707 19.129 41.5592 18.2655 41.6283C17.4709 41.6973 17.2752 41.6859 17.2752 41.5592C17.2752 41.4685 18.33 40.3538 19.6238 39.0429L19.7165 38.9489L22.1698 36.4897H24.1276L28.1007 32.506C30.5193 30.081 31.9931 28.5223 31.8668 28.5223C31.7627 28.5223 31.5752 28.419 31.4212 28.281L31.3713 28.2337L31.0835 27.9446H23.494V28.337C23.494 28.9609 23.1601 30.5652 22.7801 31.7554C22.089 33.9375 21.0179 35.762 19.5897 37.1826C18.1847 38.5793 16.9066 39.3185 15.2252 39.6652C11.2521 40.5196 7.31313 38.037 5.22847 33.3837C4.95203 32.7717 4.72167 32.2054 4.72167 32.125C4.72167 32.0326 4.50322 31.9864 4.03057 31.9864H3.34002V30.8315H4.37639V28.8679H3.6506C2.76384 28.8679 1.95783 28.6375 1.25481 28.1989C0.714402 27.8522 0 26.9054 0 26.5359C0 26.1772 0.656404 25.3239 1.20874 24.9424C1.86189 24.4951 2.46301 24.2848 3.37146 24.1853L3.53569 24.169L4.37585 24.0989V22.1712H3.34056V21.1321H3.98558C4.6073 21.1321 4.6306 21.1201 4.7569 20.7505C4.81544 20.5842 5.08808 20.0049 5.38728 19.3902L5.42794 19.306L5.55152 19.0533C7.56681 15 10.999 12.8288 14.6268 13.2908C18.9902 13.8397 22.5535 18.1734 23.3991 23.9451L23.4257 24.1337L23.5639 25.1158L27.4102 25.15C27.9874 25.1543 28.4818 25.1571 28.904 25.1576H29.258C30.9112 25.1565 31.2868 25.1179 31.3491 25.0114C31.4066 24.919 31.6023 24.8038 31.7979 24.769C31.8079 24.7668 31.8178 24.7644 31.8277 24.762L31.8462 24.7576L31.8635 24.7522C32.1096 24.6668 31.8158 24.3402 27.8015 20.312L27.0264 19.5348L26.8654 19.3728L26.2296 18.7353L25.9705 18.4755L25.829 18.3342L25.5526 18.0571C21.7464 14.2484 20.5279 13.0897 20.4195 13.1875C20.3388 13.2446 20.1664 13.6603 20.0396 14.0989C19.9014 14.538 19.7398 14.8962 19.6824 14.8962C19.6135 14.8962 19.4753 14.6766 19.3718 14.3995C19.1658 13.844 18.6075 12.7196 18.0037 11.5973L17.9262 11.4538L17.8877 11.3821L17.8096 11.2397C17.3549 10.4087 16.8931 9.61304 16.5499 9.0875C15.3179 7.19402 15.3412 7.14783 17.0107 8.24511C18.5539 9.26141 20.2239 10.1848 21.721 10.8429C22.4007 11.1549 22.9877 11.4549 23.011 11.5245C23.0224 11.5821 22.6885 11.744 22.2625 11.8821C21.8364 12.0092 21.3984 12.1712 21.3063 12.2402C21.1762 12.3272 22.1616 13.3793 26.1353 17.3696L26.4779 17.7141L27.453 18.6913L27.5207 18.7592L27.8497 19.0891C31.8066 23.05 32.6674 23.8554 32.7427 23.6951C33.0072 23.1989 33.6062 23.0484 33.9975 23.4071C34.1688 23.5679 34.1991 23.394 34.204 18.1136V17.7614L34.2046 17.5799V14.3462C34.2002 8.88152 34.1639 7.39076 34.0669 7.39076C33.9861 7.39076 33.5834 7.57554 33.1687 7.79457C32.7655 8.01413 32.3855 8.15272 32.3394 8.10598C32.282 8.04837 32.4543 7.4712 32.708 6.8125C33.2836 5.35761 33.8593 3.40652 34.2512 1.52446C34.4122 0.750543 34.5504 0.0923913 34.5504 0.0576087C34.5504 0.0233696 34.5965 0 34.6658 0H34.681L34.6805 0ZM7.83132 19.9076C7.57819 20.4043 7.37059 20.8891 7.37059 20.9696C7.37059 21.0766 7.49797 21.1245 7.76248 21.131L7.83132 21.1321H8.29205V22.1712H7.14022V22.656C7.14022 23.5435 7.363 24.4717 7.7988 25.4027L7.88877 25.5886L8.38419 26.5821L8.0503 27.113C7.6248 27.7913 7.29199 28.8429 7.18955 29.825L7.17491 29.988L7.10553 30.8315H8.29205V31.9864H7.79121C7.39227 31.987 7.36083 32.0147 7.42805 32.2402C7.77386 33.4641 8.99453 35.0696 10.1463 35.8082C13.8658 38.1989 18.8644 36.1321 19.8775 31.7897C20.0965 30.8685 20.0455 29.4674 19.7826 28.5478L19.7393 28.4065L19.5208 27.7717L17.7701 27.737L16.0085 27.7022V31.7554H13.5899V27.7136H10.1344V25.2886H13.5899V21.8245H16.0079V25.3005L19.5095 25.231L19.7279 24.6538C20.039 23.8109 20.1198 22.1826 19.8775 21.2473C19.3138 19.019 17.6091 17.1826 15.4897 16.5245C12.4267 15.5772 9.30511 16.9516 7.83132 19.9076Z" fill="white"/>
</svg>
