<svg width="196" height="50" viewBox="0 0 196 50" fill="none" xmlns="http://www.w3.org/2000/svg">
<mask id="mask0_888_639" style="mask-type:alpha" maskUnits="userSpaceOnUse" x="0" y="0" width="196" height="50">
<rect width="196" height="50" fill="#D9D9D9"/>
</mask>
<g mask="url(#mask0_888_639)">
<path d="M182.875 30.8451C182.406 30.8451 181.937 30.8078 181.467 30.7331C180.998 30.6691 180.555 30.5678 180.139 30.4291C179.723 30.2798 179.35 30.0985 179.019 29.8851C178.827 29.7571 178.694 29.6025 178.619 29.4211C178.545 29.2398 178.518 29.0638 178.539 28.8931C178.571 28.7118 178.641 28.5571 178.747 28.4291C178.865 28.2904 179.009 28.2051 179.179 28.1731C179.35 28.1411 179.537 28.1891 179.739 28.3171C180.209 28.5945 180.705 28.7971 181.227 28.9251C181.75 29.0531 182.299 29.1171 182.875 29.1171C183.718 29.1171 184.331 28.9785 184.715 28.7011C185.099 28.4131 185.291 28.0451 185.291 27.5971C185.291 27.2238 185.153 26.9305 184.875 26.7171C184.609 26.5038 184.145 26.3278 183.483 26.1891L181.723 25.8211C180.71 25.6078 179.953 25.2505 179.451 24.7491C178.961 24.2371 178.715 23.5651 178.715 22.7331C178.715 22.2105 178.822 21.7358 179.035 21.3091C179.249 20.8825 179.547 20.5145 179.931 20.2051C180.326 19.8958 180.79 19.6611 181.323 19.5011C181.867 19.3305 182.465 19.2451 183.115 19.2451C183.755 19.2451 184.363 19.3251 184.939 19.4851C185.515 19.6451 186.033 19.8798 186.491 20.1891C186.662 20.3065 186.774 20.4505 186.827 20.6211C186.891 20.7918 186.907 20.9625 186.875 21.1331C186.843 21.2931 186.769 21.4318 186.651 21.5491C186.534 21.6665 186.385 21.7358 186.203 21.7571C186.033 21.7785 185.835 21.7251 185.611 21.5971C185.217 21.3731 184.817 21.2131 184.411 21.1171C184.006 21.0211 183.569 20.9731 183.099 20.9731C182.609 20.9731 182.187 21.0425 181.835 21.1811C181.483 21.3198 181.211 21.5171 181.019 21.7731C180.838 22.0185 180.747 22.3118 180.747 22.6531C180.747 23.0371 180.875 23.3465 181.131 23.5811C181.387 23.8051 181.825 23.9811 182.443 24.1091L184.187 24.4771C185.243 24.7011 186.027 25.0531 186.539 25.5331C187.062 26.0131 187.323 26.6531 187.323 27.4531C187.323 27.9651 187.217 28.4291 187.003 28.8451C186.801 29.2611 186.502 29.6185 186.107 29.9171C185.723 30.2158 185.259 30.4451 184.715 30.6051C184.171 30.7651 183.558 30.8451 182.875 30.8451Z" fill="white"/>
<path d="M170.685 30.6853C170.333 30.6853 170.061 30.5946 169.869 30.4133C169.687 30.2213 169.597 29.9493 169.597 29.5973V20.4933C169.597 20.1413 169.687 19.8746 169.869 19.6933C170.061 19.5013 170.333 19.4053 170.685 19.4053H176.397C176.663 19.4053 176.866 19.4746 177.005 19.6133C177.154 19.7519 177.229 19.9493 177.229 20.2053C177.229 20.4719 177.154 20.6799 177.005 20.8293C176.866 20.9679 176.663 21.0373 176.397 21.0373H171.565V24.1413H176.045C176.322 24.1413 176.53 24.2106 176.669 24.3493C176.807 24.4879 176.877 24.6906 176.877 24.9573C176.877 25.2239 176.807 25.4266 176.669 25.5653C176.53 25.7039 176.322 25.7733 176.045 25.7733H171.565V29.0533H176.397C176.663 29.0533 176.866 29.1226 177.005 29.2613C177.154 29.3999 177.229 29.6026 177.229 29.8693C177.229 30.1359 177.154 30.3386 177.005 30.4773C176.866 30.6159 176.663 30.6853 176.397 30.6853H170.685Z" fill="white"/>
<path d="M159.652 30.8133C159.321 30.8133 159.065 30.7226 158.884 30.5413C158.713 30.3493 158.628 30.0879 158.628 29.7573V20.4453C158.628 20.1039 158.719 19.8479 158.9 19.6773C159.081 19.4959 159.337 19.4053 159.668 19.4053H163.524C164.761 19.4053 165.716 19.7039 166.388 20.3013C167.06 20.8879 167.396 21.7146 167.396 22.7813C167.396 23.4746 167.241 24.0719 166.932 24.5733C166.633 25.0746 166.196 25.4586 165.62 25.7253C165.044 25.9919 164.345 26.1253 163.524 26.1253L163.668 25.8853H164.196C164.633 25.8853 165.012 25.9919 165.332 26.2053C165.663 26.4186 165.951 26.7546 166.196 27.2133L167.396 29.4373C167.524 29.6613 167.583 29.8799 167.572 30.0933C167.561 30.3066 167.481 30.4826 167.332 30.6213C167.183 30.7493 166.964 30.8133 166.676 30.8133C166.388 30.8133 166.153 30.7546 165.972 30.6373C165.791 30.5093 165.631 30.3173 165.492 30.0613L163.876 27.0853C163.684 26.7226 163.455 26.4826 163.188 26.3653C162.932 26.2373 162.601 26.1733 162.196 26.1733H160.676V29.7573C160.676 30.0879 160.591 30.3493 160.42 30.5413C160.249 30.7226 159.993 30.8133 159.652 30.8133ZM160.676 24.6533H163.172C163.908 24.6533 164.463 24.5039 164.836 24.2053C165.22 23.8959 165.412 23.4373 165.412 22.8293C165.412 22.2319 165.22 21.7839 164.836 21.4853C164.463 21.1759 163.908 21.0213 163.172 21.0213H160.676V24.6533Z" fill="white"/>
<path d="M151.504 30.8444C150.725 30.8444 150.037 30.743 149.44 30.5404C148.853 30.3377 148.357 30.039 147.952 29.6444C147.547 29.239 147.243 28.7377 147.04 28.1404C146.837 27.543 146.736 26.8497 146.736 26.0604V20.3164C146.736 19.9644 146.821 19.703 146.992 19.5324C147.173 19.3617 147.429 19.2764 147.76 19.2764C148.091 19.2764 148.341 19.3617 148.512 19.5324C148.693 19.703 148.784 19.9644 148.784 20.3164V26.0444C148.784 27.0577 149.013 27.8204 149.472 28.3324C149.941 28.8337 150.619 29.0844 151.504 29.0844C152.389 29.0844 153.061 28.8337 153.52 28.3324C153.979 27.8204 154.208 27.0577 154.208 26.0444V20.3164C154.208 19.9644 154.293 19.703 154.464 19.5324C154.645 19.3617 154.901 19.2764 155.232 19.2764C155.552 19.2764 155.797 19.3617 155.968 19.5324C156.149 19.703 156.24 19.9644 156.24 20.3164V26.0604C156.24 27.1057 156.059 27.9857 155.696 28.7004C155.344 29.415 154.816 29.9537 154.112 30.3164C153.408 30.6684 152.539 30.8444 151.504 30.8444Z" fill="white"/>
<path d="M140.623 30.8133C140.292 30.8133 140.036 30.7226 139.855 30.5413C139.684 30.3493 139.599 30.0879 139.599 29.7573V21.1173H136.479C136.201 21.1173 135.983 21.0426 135.823 20.8933C135.673 20.7333 135.599 20.5199 135.599 20.2533C135.599 19.9759 135.673 19.7679 135.823 19.6293C135.983 19.4799 136.201 19.4053 136.479 19.4053H144.767C145.044 19.4053 145.257 19.4799 145.407 19.6293C145.567 19.7679 145.647 19.9759 145.647 20.2533C145.647 20.5199 145.567 20.7333 145.407 20.8933C145.257 21.0426 145.044 21.1173 144.767 21.1173H141.647V29.7573C141.647 30.0879 141.561 30.3493 141.391 30.5413C141.22 30.7226 140.964 30.8133 140.623 30.8133Z" fill="white"/>
<path d="M125.869 30.8124C125.559 30.8124 125.319 30.727 125.149 30.5564C124.989 30.3857 124.909 30.1404 124.909 29.8204V20.3004C124.909 19.9697 124.989 19.719 125.149 19.5484C125.319 19.367 125.538 19.2764 125.805 19.2764C126.05 19.2764 126.231 19.3244 126.349 19.4204C126.477 19.5057 126.626 19.655 126.797 19.8684L132.925 27.8204H132.509V20.2524C132.509 19.943 132.589 19.703 132.749 19.5324C132.919 19.3617 133.159 19.2764 133.469 19.2764C133.778 19.2764 134.013 19.3617 134.173 19.5324C134.333 19.703 134.413 19.943 134.413 20.2524V29.8524C134.413 30.151 134.338 30.3857 134.189 30.5564C134.039 30.727 133.837 30.8124 133.581 30.8124C133.335 30.8124 133.138 30.7644 132.989 30.6684C132.85 30.5724 132.695 30.4177 132.525 30.2044L126.413 22.2524H126.813V29.8204C126.813 30.1404 126.733 30.3857 126.573 30.5564C126.413 30.727 126.178 30.8124 125.869 30.8124Z" fill="white"/>
<path d="M116.451 30.6853C116.099 30.6853 115.827 30.5946 115.635 30.4133C115.453 30.2213 115.363 29.9493 115.363 29.5973V20.4933C115.363 20.1413 115.453 19.8746 115.635 19.6933C115.827 19.5013 116.099 19.4053 116.451 19.4053H122.163C122.429 19.4053 122.632 19.4746 122.771 19.6133C122.92 19.7519 122.995 19.9493 122.995 20.2053C122.995 20.4719 122.92 20.6799 122.771 20.8293C122.632 20.9679 122.429 21.0373 122.163 21.0373H117.331V24.1413H121.811C122.088 24.1413 122.296 24.2106 122.435 24.3493C122.573 24.4879 122.643 24.6906 122.643 24.9573C122.643 25.2239 122.573 25.4266 122.435 25.5653C122.296 25.7039 122.088 25.7733 121.811 25.7733H117.331V29.0533H122.163C122.429 29.0533 122.632 29.1226 122.771 29.2613C122.92 29.3999 122.995 29.6026 122.995 29.8693C122.995 30.1359 122.92 30.3386 122.771 30.4773C122.632 30.6159 122.429 30.6853 122.163 30.6853H116.451Z" fill="white"/>
<path d="M108.437 30.8124C108.149 30.8124 107.909 30.7484 107.717 30.6204C107.535 30.4817 107.386 30.279 107.269 30.0124L103.093 20.6364C102.975 20.3697 102.943 20.135 102.997 19.9324C103.05 19.7297 103.162 19.5697 103.333 19.4524C103.503 19.335 103.706 19.2764 103.941 19.2764C104.25 19.2764 104.479 19.3457 104.629 19.4844C104.789 19.6124 104.922 19.8097 105.029 20.0764L108.821 28.8604H108.133L111.909 20.0604C112.026 19.8044 112.165 19.6124 112.325 19.4844C112.485 19.3457 112.709 19.2764 112.997 19.2764C113.231 19.2764 113.423 19.335 113.573 19.4524C113.733 19.5697 113.834 19.7297 113.877 19.9324C113.919 20.135 113.882 20.3697 113.765 20.6364L109.589 30.0124C109.471 30.279 109.322 30.4817 109.141 30.6204C108.97 30.7484 108.735 30.8124 108.437 30.8124Z" fill="white"/>
<path d="M88.6045 30.8124C88.2952 30.8124 88.0552 30.727 87.8845 30.5564C87.7245 30.3857 87.6445 30.1404 87.6445 29.8204V20.3004C87.6445 19.9697 87.7245 19.719 87.8845 19.5484C88.0552 19.367 88.2739 19.2764 88.5405 19.2764C88.7859 19.2764 88.9672 19.3244 89.0845 19.4204C89.2125 19.5057 89.3619 19.655 89.5325 19.8684L95.6605 27.8204H95.2445V20.2524C95.2445 19.943 95.3245 19.703 95.4845 19.5324C95.6552 19.3617 95.8952 19.2764 96.2045 19.2764C96.5139 19.2764 96.7485 19.3617 96.9085 19.5324C97.0685 19.703 97.1485 19.943 97.1485 20.2524V29.8524C97.1485 30.151 97.0739 30.3857 96.9245 30.5564C96.7752 30.727 96.5725 30.8124 96.3165 30.8124C96.0712 30.8124 95.8739 30.7644 95.7245 30.6684C95.5859 30.5724 95.4312 30.4177 95.2605 30.2044L89.1485 22.2524H89.5485V29.8204C89.5485 30.1404 89.4685 30.3857 89.3085 30.5564C89.1485 30.727 88.9139 30.8124 88.6045 30.8124Z" fill="white"/>
<path d="M80.1367 30.8451C79.0487 30.8451 78.094 30.6051 77.2727 30.1251C76.462 29.6451 75.8327 28.9731 75.3847 28.1091C74.9367 27.2345 74.7126 26.2104 74.7126 25.0371C74.7126 24.1518 74.8406 23.3571 75.0966 22.6531C75.3526 21.9385 75.7153 21.3305 76.1846 20.8291C76.6646 20.3171 77.2353 19.9278 77.8967 19.6611C78.5687 19.3838 79.3153 19.2451 80.1367 19.2451C81.2353 19.2451 82.19 19.4851 83.0006 19.9651C83.8113 20.4345 84.4406 21.1011 84.8886 21.9651C85.3366 22.8291 85.5606 23.8478 85.5606 25.0211C85.5606 25.9065 85.4327 26.7065 85.1767 27.4211C84.9207 28.1358 84.5526 28.7491 84.0726 29.2611C83.6033 29.7731 83.0326 30.1678 82.3606 30.4451C81.6993 30.7118 80.958 30.8451 80.1367 30.8451ZM80.1367 29.0851C80.83 29.0851 81.4167 28.9251 81.8967 28.6051C82.3873 28.2851 82.7606 27.8211 83.0166 27.2131C83.2833 26.6051 83.4166 25.8798 83.4166 25.0371C83.4166 23.7571 83.1287 22.7651 82.5527 22.0611C81.9873 21.3571 81.182 21.0051 80.1367 21.0051C79.454 21.0051 78.8673 21.1651 78.3766 21.4851C77.886 21.7945 77.5073 22.2531 77.2406 22.8611C76.9846 23.4585 76.8567 24.1838 76.8567 25.0371C76.8567 26.3064 77.1446 27.2985 77.7206 28.0131C78.2966 28.7278 79.102 29.0851 80.1367 29.0851Z" fill="white"/>
<path d="M71.59 30.8124C71.2594 30.8124 71.0034 30.7217 70.822 30.5404C70.6514 30.3484 70.566 30.087 70.566 29.7564V20.3324C70.566 19.991 70.6514 19.7297 70.822 19.5484C71.0034 19.367 71.2594 19.2764 71.59 19.2764C71.9207 19.2764 72.1714 19.367 72.342 19.5484C72.5234 19.7297 72.614 19.991 72.614 20.3324V29.7564C72.614 30.087 72.5287 30.3484 72.358 30.5404C72.1874 30.7217 71.9314 30.8124 71.59 30.8124Z" fill="white"/>
<path d="M64.372 30.8133C64.0414 30.8133 63.7854 30.7226 63.604 30.5413C63.4334 30.3493 63.348 30.0879 63.348 29.7573V21.1173H60.228C59.9507 21.1173 59.732 21.0426 59.572 20.8933C59.4227 20.7333 59.348 20.5199 59.348 20.2533C59.348 19.9759 59.4227 19.7679 59.572 19.6293C59.732 19.4799 59.9507 19.4053 60.228 19.4053H68.516C68.7934 19.4053 69.0067 19.4799 69.156 19.6293C69.316 19.7679 69.396 19.9759 69.396 20.2533C69.396 20.5199 69.316 20.7333 69.156 20.8933C69.0067 21.0426 68.7934 21.1173 68.516 21.1173H65.396V29.7573C65.396 30.0879 65.3107 30.3493 65.14 30.5413C64.9694 30.7226 64.7134 30.8133 64.372 30.8133Z" fill="white"/>
<path d="M49.6194 30.8124C49.3101 30.8124 49.0701 30.727 48.8994 30.5564C48.7394 30.3857 48.6594 30.1404 48.6594 29.8204V20.3004C48.6594 19.9697 48.7394 19.719 48.8994 19.5484C49.0701 19.367 49.2888 19.2764 49.5554 19.2764C49.8008 19.2764 49.9821 19.3244 50.0994 19.4204C50.2274 19.5057 50.3768 19.655 50.5474 19.8684L56.6754 27.8204H56.2594V20.2524C56.2594 19.943 56.3394 19.703 56.4994 19.5324C56.6701 19.3617 56.9101 19.2764 57.2194 19.2764C57.5288 19.2764 57.7634 19.3617 57.9234 19.5324C58.0834 19.703 58.1634 19.943 58.1634 20.2524V29.8524C58.1634 30.151 58.0888 30.3857 57.9394 30.5564C57.7901 30.727 57.5874 30.8124 57.3314 30.8124C57.0861 30.8124 56.8888 30.7644 56.7394 30.6684C56.6008 30.5724 56.4461 30.4177 56.2754 30.2044L50.1634 22.2524H50.5634V29.8204C50.5634 30.1404 50.4834 30.3857 50.3234 30.5564C50.1634 30.727 49.9288 30.8124 49.6194 30.8124Z" fill="white"/>
<path d="M40.2003 30.6853C39.8483 30.6853 39.5763 30.5946 39.3843 30.4133C39.203 30.2213 39.1123 29.9493 39.1123 29.5973V20.4933C39.1123 20.1413 39.203 19.8746 39.3843 19.6933C39.5763 19.5013 39.8483 19.4053 40.2003 19.4053H45.9123C46.179 19.4053 46.3816 19.4746 46.5203 19.6133C46.6696 19.7519 46.7443 19.9493 46.7443 20.2053C46.7443 20.4719 46.6696 20.6799 46.5203 20.8293C46.3816 20.9679 46.179 21.0373 45.9123 21.0373H41.0803V24.1413H45.5603C45.8376 24.1413 46.0456 24.2106 46.1843 24.3493C46.323 24.4879 46.3923 24.6906 46.3923 24.9573C46.3923 25.2239 46.323 25.4266 46.1843 25.5653C46.0456 25.7039 45.8376 25.7733 45.5603 25.7733H41.0803V29.0533H45.9123C46.179 29.0533 46.3816 29.1226 46.5203 29.2613C46.6696 29.3999 46.7443 29.6026 46.7443 29.8693C46.7443 30.1359 46.6696 30.3386 46.5203 30.4773C46.3816 30.6159 46.179 30.6853 45.9123 30.6853H40.2003Z" fill="white"/>
<path d="M32.9195 30.8133C32.5888 30.8133 32.3328 30.7226 32.1515 30.5413C31.9808 30.3493 31.8955 30.0879 31.8955 29.7573V21.1173H28.7755C28.4982 21.1173 28.2795 21.0426 28.1195 20.8933C27.9702 20.7333 27.8955 20.5199 27.8955 20.2533C27.8955 19.9759 27.9702 19.7679 28.1195 19.6293C28.2795 19.4799 28.4982 19.4053 28.7755 19.4053H37.0635C37.3408 19.4053 37.5542 19.4799 37.7035 19.6293C37.8635 19.7679 37.9435 19.9759 37.9435 20.2533C37.9435 20.5199 37.8635 20.7333 37.7035 20.8933C37.5542 21.0426 37.3408 21.1173 37.0635 21.1173H33.9435V29.7573C33.9435 30.0879 33.8582 30.3493 33.6875 30.5413C33.5168 30.7226 33.2608 30.8133 32.9195 30.8133Z" fill="white"/>
<path d="M22.7786 30.8133C22.448 30.8133 22.192 30.7226 22.0106 30.5413C21.84 30.3493 21.7546 30.0879 21.7546 29.7573V21.1173H18.6346C18.3573 21.1173 18.1386 21.0426 17.9786 20.8933C17.8293 20.7333 17.7546 20.5199 17.7546 20.2533C17.7546 19.9759 17.8293 19.7679 17.9786 19.6293C18.1386 19.4799 18.3573 19.4053 18.6346 19.4053H26.9226C27.2 19.4053 27.4133 19.4799 27.5626 19.6293C27.7226 19.7679 27.8026 19.9759 27.8026 20.2533C27.8026 20.5199 27.7226 20.7333 27.5626 20.8933C27.4133 21.0426 27.2 21.1173 26.9226 21.1173H23.8026V29.7573C23.8026 30.0879 23.7173 30.3493 23.5466 30.5413C23.376 30.7226 23.12 30.8133 22.7786 30.8133Z" fill="white"/>
<path d="M8.49033 30.8124C8.23433 30.8124 8.02633 30.7537 7.86633 30.6364C7.717 30.519 7.62633 30.3644 7.59433 30.1724C7.56233 29.9697 7.59966 29.7457 7.70633 29.5004L11.9303 20.1404C12.069 19.831 12.2343 19.6124 12.4263 19.4844C12.629 19.3457 12.8583 19.2764 13.1143 19.2764C13.3597 19.2764 13.5783 19.3457 13.7703 19.4844C13.973 19.6124 14.1437 19.831 14.2823 20.1404L18.5223 29.5004C18.6397 29.7457 18.6823 29.9697 18.6503 30.1724C18.6183 30.375 18.5277 30.535 18.3783 30.6524C18.229 30.759 18.0317 30.8124 17.7863 30.8124C17.4877 30.8124 17.253 30.743 17.0823 30.6044C16.9223 30.455 16.7783 30.231 16.6503 29.9324L15.6103 27.5164L16.4743 28.0764H9.72233L10.5863 27.5164L9.56233 29.9324C9.42366 30.2417 9.27966 30.4657 9.13033 30.6044C8.981 30.743 8.76766 30.8124 8.49033 30.8124ZM13.0823 21.6284L10.8423 26.9564L10.4263 26.4444H15.7703L15.3703 26.9564L13.1143 21.6284H13.0823Z" fill="white"/>
</g>
</svg>
