<svg width="168" height="50" viewBox="0 0 168 50" fill="none" xmlns="http://www.w3.org/2000/svg">
<mask id="mask0_888_594" style="mask-type:alpha" maskUnits="userSpaceOnUse" x="0" y="0" width="168" height="50">
<rect width="168" height="50" fill="#D9D9D9"/>
</mask>
<g mask="url(#mask0_888_594)">
<path d="M57.8617 2.77994C54.4489 14.2965 51.1512 25.813 47.5786 37.2401C46.4027 41.0043 43.4692 43.1517 39.3662 43.2092C35.455 43.2604 32.9305 41.0171 31.5948 37.6363C30.9813 36.0897 30.911 34.0701 31.3008 32.434C32.6046 26.9826 34.2215 21.6014 35.8065 15.8878H19.567C20.9922 11.3438 22.2576 7.15776 23.67 3.0228C23.8362 2.5243 24.7884 2.00024 25.3764 2.00024C35.9087 2.05137 46.4411 2.17919 56.9734 2.30062C57.0628 2.30062 57.1587 2.39648 57.8617 2.77994Z" fill="url(#paint0_linear_888_594)"/>
<path d="M98.3022 45.5228V37.1826H158.499V45.5228H98.3022Z" fill="#03F2EF"/>
<path d="M34.6557 48.1673C29.3192 47.7839 23.8166 48.0842 18.691 46.8508C12.0636 45.2466 7.87112 38.4275 8.00533 31.3335H25.5166C26.0598 38.2038 28.6737 43.7575 34.7579 47.247C34.7196 47.5538 34.6876 47.8605 34.6493 48.1673H34.6557Z" fill="url(#paint1_linear_888_594)"/>
<path d="M149.119 21.2521V30.1196H144.865V14.7813H148.92V17.4874H149.099C149.439 16.5954 150.008 15.8897 150.807 15.3704C151.606 14.8445 152.575 14.5815 153.713 14.5815C154.778 14.5815 155.707 14.8145 156.499 15.2806C157.291 15.7466 157.907 16.4123 158.346 17.2777C158.786 18.1365 159.006 19.1617 159.006 20.3534V30.1196H154.752V21.1123C154.758 20.1736 154.519 19.4413 154.033 18.9154C153.547 18.3828 152.877 18.1165 152.025 18.1165C151.453 18.1165 150.947 18.2397 150.508 18.486C150.075 18.7323 149.735 19.0918 149.489 19.5645C149.249 20.0305 149.126 20.5931 149.119 21.2521Z" fill="white"/>
<path d="M137.203 30.1201V14.7817H141.457V30.1201H137.203Z" fill="white"/>
<path d="M126.892 30.4192C125.341 30.4192 123.999 30.0896 122.868 29.4306C121.742 28.7648 120.874 27.8395 120.261 26.6545C119.649 25.4628 119.343 24.0815 119.343 22.5103C119.343 20.9259 119.649 19.5412 120.261 18.3562C120.874 17.1646 121.742 16.2392 122.868 15.5801C123.999 14.9144 125.341 14.5815 126.892 14.5815C128.443 14.5815 129.781 14.9144 130.906 15.5801C132.038 16.2392 132.91 17.1646 133.522 18.3562C134.135 19.5412 134.441 20.9259 134.441 22.5103C134.441 24.0815 134.135 25.4628 133.522 26.6545C132.91 27.8395 132.038 28.7648 130.906 29.4306C129.781 30.0896 128.443 30.4192 126.892 30.4192ZM126.912 27.1238C127.618 27.1238 128.207 26.9241 128.679 26.5247C129.152 26.1186 129.508 25.566 129.748 24.867C129.994 24.168 130.117 23.3725 130.117 22.4804C130.117 21.5883 129.994 20.7928 129.748 20.0938C129.508 19.3947 129.152 18.8422 128.679 18.4361C128.207 18.03 127.618 17.827 126.912 17.827C126.2 17.827 125.6 18.03 125.114 18.4361C124.635 18.8422 124.272 19.3947 124.026 20.0938C123.786 20.7928 123.666 21.5883 123.666 22.4804C123.666 23.3725 123.786 24.168 124.026 24.867C124.272 25.566 124.635 26.1186 125.114 26.5247C125.6 26.9241 126.2 27.1238 126.912 27.1238Z" fill="white"/>
<path d="M116.94 16.8287H112.566C112.486 16.2628 112.323 15.7602 112.076 15.3208C111.83 14.8747 111.514 14.4953 111.128 14.1824C110.742 13.8695 110.296 13.6298 109.79 13.4634C109.29 13.297 108.748 13.2138 108.162 13.2138C107.103 13.2138 106.181 13.4767 105.396 14.0026C104.61 14.5219 104.001 15.2808 103.568 16.2794C103.136 17.2714 102.919 18.4763 102.919 19.8943C102.919 21.3523 103.136 22.5772 103.568 23.5691C104.008 24.5611 104.62 25.31 105.406 25.816C106.191 26.3219 107.1 26.5749 108.132 26.5749C108.711 26.5749 109.247 26.4983 109.74 26.3452C110.239 26.1921 110.682 25.9691 111.068 25.6762C111.454 25.3766 111.773 25.0138 112.026 24.5877C112.286 24.1616 112.466 23.6756 112.566 23.1297L116.94 23.1497C116.826 24.0884 116.543 24.9938 116.091 25.8659C115.645 26.7313 115.042 27.5069 114.283 28.1926C113.531 28.8716 112.632 29.4109 111.587 29.8103C110.549 30.2031 109.374 30.3995 108.062 30.3995C106.238 30.3995 104.607 29.9867 103.169 29.1612C101.738 28.3357 100.606 27.1407 99.7738 25.5763C98.9483 24.0118 98.5355 22.1178 98.5355 19.8943C98.5355 17.6641 98.9549 15.7668 99.7937 14.2024C100.633 12.6379 101.771 11.4463 103.209 10.6274C104.647 9.80191 106.265 9.38916 108.062 9.38916C109.247 9.38916 110.346 9.55559 111.357 9.88845C112.376 10.2213 113.278 10.7073 114.064 11.3464C114.849 11.9788 115.488 12.7544 115.981 13.6731C116.48 14.5918 116.8 15.6437 116.94 16.8287Z" fill="white"/>
<path d="M91.1568 23.5893V14.7817H95.4108V30.1201H91.3265V27.334H91.1668C90.8206 28.2327 90.2447 28.955 89.4392 29.5009C88.6403 30.0468 87.665 30.3198 86.5133 30.3198C85.4881 30.3198 84.5861 30.0868 83.8072 29.6208C83.0283 29.1548 82.4191 28.4924 81.9797 27.6336C81.547 26.7748 81.3273 25.7462 81.3207 24.5479V14.7817H85.5747V23.789C85.5813 24.6944 85.8243 25.4101 86.3036 25.936C86.783 26.4619 87.4254 26.7249 88.2309 26.7249C88.7435 26.7249 89.2228 26.6084 89.6689 26.3754C90.1149 26.1357 90.4744 25.7829 90.7474 25.3169C91.027 24.8508 91.1634 24.275 91.1568 23.5893Z" fill="white"/>
<path d="M73.5526 9.66895H77.8265V23.9288C77.8265 25.2469 77.5303 26.392 76.9378 27.3639C76.3519 28.3359 75.5364 29.0849 74.4912 29.6108C73.4461 30.1367 72.2311 30.3997 70.8464 30.3997C69.6148 30.3997 68.4964 30.1833 67.4911 29.7506C66.4925 29.3112 65.7003 28.6455 65.1145 27.7534C64.5287 26.8547 64.2391 25.7263 64.2457 24.3682H68.5496C68.563 24.9074 68.6728 25.3701 68.8792 25.7562C69.0922 26.1357 69.3818 26.4286 69.7479 26.635C70.1208 26.8347 70.5601 26.9346 71.0661 26.9346C71.5987 26.9346 72.048 26.8214 72.4142 26.595C72.787 26.362 73.0699 26.0225 73.263 25.5765C73.456 25.1304 73.5526 24.5812 73.5526 23.9288V9.66895Z" fill="white"/>
<rect x="137.106" y="8.39111" width="4.47368" height="4.47368" fill="white"/>
<path d="M92.6914 39.0902C92.6554 38.7533 92.5036 38.4909 92.2361 38.3032C91.9712 38.1154 91.6265 38.0215 91.2021 38.0215C90.9037 38.0215 90.6478 38.0665 90.4343 38.1566C90.2208 38.2466 90.0575 38.3688 89.9443 38.5231C89.8312 38.6774 89.7733 38.8536 89.7707 39.0517C89.7707 39.2163 89.808 39.359 89.8826 39.4799C89.9598 39.6008 90.0639 39.7037 90.1951 39.7886C90.3263 39.8709 90.4716 39.9403 90.6311 39.9969C90.7906 40.0535 90.9513 40.1011 91.1134 40.1397L91.8541 40.3249C92.1525 40.3943 92.4393 40.4882 92.7145 40.6065C92.9923 40.7248 93.2405 40.874 93.4591 41.0541C93.6803 41.2341 93.8552 41.4515 93.9839 41.7061C94.1125 41.9607 94.1768 42.2591 94.1768 42.6012C94.1768 43.0642 94.0584 43.4719 93.8218 43.8242C93.5852 44.174 93.2431 44.448 92.7955 44.646C92.3506 44.8415 91.8117 44.9393 91.179 44.9393C90.5642 44.9393 90.0305 44.8441 89.5778 44.6538C89.1277 44.4634 88.7753 44.1856 88.5207 43.8204C88.2686 43.4551 88.1323 43.0102 88.1117 42.4855H89.5199C89.5405 42.7607 89.6254 42.9896 89.7746 43.1722C89.9238 43.3548 90.1179 43.4912 90.3572 43.5812C90.5989 43.6712 90.869 43.7162 91.1674 43.7162C91.4786 43.7162 91.7513 43.6699 91.9853 43.5773C92.2219 43.4821 92.4071 43.351 92.5409 43.1838C92.6746 43.014 92.7428 42.816 92.7454 42.5896C92.7428 42.3839 92.6824 42.2141 92.564 42.0803C92.4457 41.944 92.2798 41.8308 92.0663 41.7408C91.8554 41.6482 91.6085 41.5659 91.3256 41.4939L90.4266 41.2624C89.7759 41.0952 89.2614 40.8419 88.8833 40.5023C88.5078 40.1603 88.32 39.7063 88.32 39.1404C88.32 38.6748 88.4461 38.2672 88.6981 37.9174C88.9528 37.5675 89.2987 37.2962 89.736 37.1033C90.1733 36.9078 90.6684 36.8101 91.2214 36.8101C91.7821 36.8101 92.2734 36.9078 92.6952 37.1033C93.1196 37.2962 93.4527 37.565 93.6945 37.9096C93.9363 38.2517 94.061 38.6453 94.0687 39.0902H92.6914Z" fill="#3FDEE1"/>
<path d="M80.6166 44.819V36.9175H83.6414C84.2124 36.9175 84.687 37.0075 85.0651 37.1876C85.4457 37.365 85.73 37.6081 85.9177 37.9168C86.1081 38.2254 86.2032 38.5752 86.2032 38.9662C86.2032 39.2877 86.1415 39.5629 86.018 39.7918C85.8946 40.0182 85.7287 40.2021 85.5203 40.3435C85.312 40.485 85.0792 40.5866 84.822 40.6483V40.7255C85.1024 40.7409 85.3711 40.8271 85.6284 40.984C85.8881 41.1383 86.1003 41.357 86.265 41.6399C86.4296 41.9228 86.5119 42.2649 86.5119 42.6662C86.5119 43.0751 86.4129 43.443 86.2148 43.7696C86.0168 44.0937 85.7184 44.3496 85.3197 44.5374C84.921 44.7252 84.4195 44.819 83.815 44.819H80.6166ZM82.048 43.623H83.5874C84.1069 43.623 84.4812 43.524 84.7101 43.3259C84.9416 43.1253 85.0573 42.8681 85.0573 42.5543C85.0573 42.3202 84.9995 42.1093 84.8837 41.9215C84.768 41.7312 84.6034 41.582 84.3899 41.474C84.1764 41.3634 83.9218 41.3081 83.626 41.3081H82.048V43.623ZM82.048 40.278H83.4639C83.7108 40.278 83.9333 40.2329 84.1314 40.1429C84.3294 40.0503 84.4851 39.9204 84.5982 39.7532C84.714 39.5835 84.7718 39.3829 84.7718 39.1514C84.7718 38.8453 84.6638 38.5932 84.4478 38.3952C84.2343 38.1971 83.9166 38.0981 83.4948 38.0981H82.048V40.278Z" fill="#3FDEE1"/>
<path d="M73.1294 44.819H71.6016L74.3833 36.9175H76.1504L78.936 44.819H77.4081L75.2977 38.5379H75.236L73.1294 44.819ZM73.1796 41.7209H77.3464V42.8707H73.1796V41.7209Z" fill="#3FDEE1"/>
<path d="M65.0259 44.819V36.9175H66.4573V43.6191H69.9373V44.819H65.0259Z" fill="#3FDEE1"/>
</g>
<defs>
<linearGradient id="paint0_linear_888_594" x1="13.1185" y1="17.6581" x2="46.9907" y2="22.4514" gradientUnits="userSpaceOnUse">
<stop stop-color="white"/>
<stop offset="1" stop-color="#26EEF4"/>
</linearGradient>
<linearGradient id="paint1_linear_888_594" x1="8.00532" y1="31.3984" x2="49.2271" y2="48.0149" gradientUnits="userSpaceOnUse">
<stop stop-color="white"/>
<stop offset="1" stop-color="#26EEF4"/>
</linearGradient>
</defs>
</svg>
