<svg width="243" height="50" viewBox="0 0 243 50" fill="none" xmlns="http://www.w3.org/2000/svg">
<path d="M222.139 17.8806C222.139 17.6903 222.249 17.5951 222.471 17.5951H224.512C224.702 17.5951 224.834 17.7009 224.908 17.9124C225.815 20.6198 228.125 21.9735 231.838 21.9735C233.779 21.9735 235.261 21.6298 236.284 20.9424C237.318 20.2444 237.835 19.3824 237.835 18.3566C237.835 17.3307 237.508 16.5058 236.854 15.8818C236.21 15.2473 235.198 14.7343 233.816 14.343L228.136 12.7249C224.465 11.6673 222.629 9.66319 222.629 6.71252C222.629 4.89347 223.399 3.41285 224.939 2.27066C226.49 1.11789 228.563 0.541504 231.158 0.541504C233.753 0.541504 235.847 1.10203 237.439 2.22307C239.043 3.33353 240.05 4.86175 240.461 6.80771C240.504 7.0721 240.393 7.2043 240.129 7.2043H238.088C237.898 7.2043 237.766 7.09326 237.692 6.87116C236.785 4.16374 234.628 2.81003 231.221 2.81003C229.428 2.81003 228.03 3.15903 227.028 3.85704C226.036 4.54447 225.541 5.41169 225.541 6.4587C225.541 7.49514 225.862 8.31477 226.506 8.91759C227.16 9.52042 228.188 10.0281 229.591 10.4405L235.272 12.0745C238.921 13.1109 240.746 15.1151 240.746 18.0869C240.746 19.9271 239.95 21.4183 238.357 22.5605C236.775 23.6921 234.602 24.2579 231.838 24.2579C229.074 24.2579 226.87 23.7027 225.224 22.5922C224.401 22.0422 223.679 21.3442 223.056 20.4982C222.445 19.6415 222.139 18.769 222.139 17.8806Z" fill="white"/>
<path d="M200.271 17.8806C200.271 17.6903 200.382 17.5951 200.604 17.5951H202.645C202.835 17.5951 202.967 17.7009 203.04 17.9124C203.948 20.6198 206.258 21.9735 209.971 21.9735C211.912 21.9735 213.394 21.6298 214.417 20.9424C215.451 20.2444 215.968 19.3824 215.968 18.3566C215.968 17.3307 215.641 16.5058 214.987 15.8818C214.343 15.2473 213.331 14.7343 211.949 14.343L206.268 12.7249C202.597 11.6673 200.762 9.66319 200.762 6.71252C200.762 4.89347 201.532 3.41285 203.072 2.27066C204.623 1.11789 206.696 0.541504 209.29 0.541504C211.885 0.541504 213.979 1.10203 215.572 2.22307C217.176 3.33353 218.183 4.86175 218.594 6.80771C218.636 7.0721 218.526 7.2043 218.262 7.2043H216.221C216.031 7.2043 215.899 7.09326 215.825 6.87116C214.918 4.16374 212.761 2.81003 209.354 2.81003C207.561 2.81003 206.163 3.15903 205.161 3.85704C204.169 4.54447 203.673 5.41169 203.673 6.4587C203.673 7.49514 203.995 8.31477 204.639 8.91759C205.293 9.52042 206.321 10.0281 207.724 10.4405L213.404 12.0745C217.054 13.1109 218.879 15.1151 218.879 18.0869C218.879 19.9271 218.083 21.4183 216.49 22.5605C214.908 23.6921 212.735 24.2579 209.971 24.2579C207.207 24.2579 205.003 23.7027 203.357 22.5922C202.534 22.0422 201.812 21.3442 201.189 20.4982C200.577 19.6415 200.271 18.769 200.271 17.8806Z" fill="white"/>
<path d="M180.983 23.4488V1.35047C180.983 1.12838 181.089 1.01733 181.3 1.01733H196.996C197.207 1.01733 197.313 1.12838 197.313 1.35047V2.96858C197.313 3.19068 197.207 3.30172 196.996 3.30172H183.895V11.0909H194.718C194.939 11.0909 195.05 11.2019 195.05 11.424V13.0421C195.05 13.2642 194.939 13.3752 194.718 13.3752H183.895V21.4975H196.996C197.207 21.4975 197.313 21.6033 197.313 21.8148V23.4488C197.313 23.6603 197.207 23.766 196.996 23.766H181.3C181.089 23.766 180.983 23.6603 180.983 23.4488Z" fill="white"/>
<path d="M155.382 23.4488V1.35047C155.382 1.12838 155.488 1.01733 155.699 1.01733H157.977C158.62 1.01733 159.158 1.34519 159.591 2.00089L171.585 19.8635V1.35047C171.585 1.12838 171.69 1.01733 171.901 1.01733H174.18C174.391 1.01733 174.496 1.12838 174.496 1.35047V23.4488C174.496 23.6603 174.391 23.766 174.18 23.766H171.901C171.258 23.766 170.72 23.4435 170.287 22.7983L158.293 4.91983V23.4488C158.293 23.6603 158.188 23.766 157.977 23.766H155.699C155.488 23.766 155.382 23.6603 155.382 23.4488Z" fill="white"/>
<path d="M135.793 23.4488V1.35047C135.793 1.12838 135.899 1.01733 136.11 1.01733H138.388C138.599 1.01733 138.705 1.12838 138.705 1.35047V21.4975H151.474C151.695 21.4975 151.806 21.6033 151.806 21.8148V23.4488C151.806 23.6603 151.695 23.766 151.474 23.766H136.11C135.899 23.766 135.793 23.6603 135.793 23.4488Z" fill="white"/>
<path d="M110.841 14.6761V1.35047C110.841 1.13896 110.952 1.02791 111.173 1.01733H113.436C113.647 1.01733 113.758 1.12838 113.768 1.35047V14.6761C113.768 17.0768 114.37 18.8958 115.572 20.1332C116.785 21.36 118.341 21.9734 120.24 21.9734C122.139 21.9734 123.694 21.36 124.908 20.1332C126.121 18.8958 126.727 17.0768 126.727 14.6761V1.35047C126.727 1.13896 126.833 1.02791 127.044 1.01733H129.322C129.533 1.01733 129.639 1.12838 129.639 1.35047V14.6761C129.639 17.6479 128.774 19.9904 127.044 21.7037C125.314 23.4065 123.046 24.2578 120.24 24.2578C117.434 24.2578 115.166 23.4065 113.436 21.7037C111.706 19.9904 110.841 17.6479 110.841 14.6761Z" fill="white"/>
<path d="M90.635 23.4488V1.35047C90.635 1.13896 90.7405 1.02791 90.9515 1.01733H106.648C106.859 1.01733 106.964 1.12838 106.964 1.35047V2.96858C106.964 3.1801 106.859 3.29115 106.648 3.30172H93.5464V11.7413H104.369C104.58 11.7413 104.691 11.8523 104.701 12.0744V13.6925C104.701 13.904 104.591 14.0151 104.369 14.0257H93.5464V23.4488C93.5464 23.6603 93.4409 23.766 93.23 23.766H90.9515C90.7405 23.766 90.635 23.6603 90.635 23.4488Z" fill="white"/>
<path d="M66.8059 23.4488V1.35047C66.8059 1.13896 66.9114 1.02791 67.1224 1.01733H74.5749C77.9399 1.01733 80.6456 2.03262 82.692 4.06318C84.7384 6.08318 85.7616 8.85934 85.7616 12.3917C85.7616 15.924 84.7384 18.7055 82.692 20.736C80.6561 22.756 77.9504 23.766 74.5749 23.766H67.1224C66.9114 23.766 66.8059 23.6603 66.8059 23.4488ZM69.7173 21.4975H74.5749C77.0327 21.4975 79.0264 20.7255 80.5559 19.1814C82.0855 17.6267 82.8502 15.3688 82.8502 12.4075C82.8502 9.43573 82.0855 7.17778 80.5559 5.6337C79.0369 4.07905 77.0433 3.30172 74.5749 3.30172H69.7173V21.4975Z" fill="white"/>
<path d="M41.2048 23.4488V1.35047C41.2048 1.12838 41.3103 1.01733 41.5213 1.01733H43.7998C44.4432 1.01733 44.9812 1.34519 45.4137 2.00089L57.4074 19.8635V1.35047C57.4074 1.12838 57.5129 1.01733 57.7239 1.01733H60.0023C60.2133 1.01733 60.3188 1.12838 60.3188 1.35047V23.4488C60.3188 23.6603 60.2133 23.766 60.0023 23.766H57.7239C57.0804 23.766 56.5424 23.4435 56.1099 22.7983L44.1162 4.91983V23.4488C44.1162 23.6603 44.0107 23.766 43.7998 23.766H41.5213C41.3103 23.766 41.2048 23.6603 41.2048 23.4488Z" fill="white"/>
<path d="M31.8059 23.4488V1.35047C31.8059 1.12838 31.9114 1.01733 32.1224 1.01733H34.4008C34.6118 1.01733 34.7173 1.12838 34.7173 1.35047V23.4488C34.7173 23.6603 34.6118 23.766 34.4008 23.766H32.1224C31.9114 23.766 31.8059 23.6603 31.8059 23.4488Z" fill="white"/>
<path d="M0.540039 23.4488V1.35047C0.540039 1.13896 0.645524 1.02791 0.856495 1.01733H3.13498C3.75734 1.01733 4.24258 1.34519 4.59068 2.00089L12.9451 17.944L21.2837 2.00089C21.6318 1.35576 22.1171 1.02791 22.7394 1.01733H25.0021C25.2131 1.01733 25.3238 1.12838 25.3344 1.35047V23.4488C25.3344 23.6603 25.2236 23.766 25.0021 23.766H22.7394C22.5285 23.766 22.4177 23.6603 22.4072 23.4488V5.90339L14.9546 20.0222C14.6065 20.6673 14.1213 20.9952 13.4989 21.0057H12.3597C11.7373 21.0057 11.2521 20.6779 10.904 20.0222L3.45144 5.90339V23.4488C3.45144 23.6603 3.34595 23.766 3.13498 23.766H0.856495C0.645524 23.766 0.540039 23.6603 0.540039 23.4488Z" fill="white"/>
<path fill-rule="evenodd" clip-rule="evenodd" d="M231.157 1.08297C228.639 1.08297 226.691 1.64234 225.261 2.7056L225.26 2.70596C223.849 3.75272 223.169 5.07607 223.169 6.71251C223.169 8.06468 223.585 9.16904 224.403 10.0624C225.232 10.9669 226.507 11.6923 228.284 12.2042C228.284 12.2043 228.284 12.2044 228.284 12.2045L233.963 13.8219C235.383 14.2242 236.494 14.7687 237.229 15.4925C238.003 16.2324 238.375 17.2057 238.375 18.3565C238.375 19.6032 237.731 20.6179 236.586 21.3915L236.585 21.3922C235.435 22.1647 233.829 22.515 231.838 22.515C229.921 22.515 228.312 22.1662 227.048 21.4257C225.787 20.6871 224.909 19.5804 224.413 18.1366H222.688C222.74 18.8077 222.999 19.4867 223.493 20.1795C224.08 20.9768 224.757 21.6292 225.524 22.1416L225.525 22.143C227.053 23.1739 229.141 23.7164 231.838 23.7164C234.535 23.7164 236.583 23.1635 238.043 22.12C239.505 21.0715 240.206 19.739 240.206 18.0869C240.206 16.7221 239.791 15.6124 238.979 14.72C238.156 13.8165 236.89 13.0968 235.124 12.5955L235.122 12.595L229.442 10.961L229.439 10.9601C228.002 10.5376 226.882 10.0003 226.14 9.3162L226.137 9.31321C225.365 8.59009 225 7.61669 225 6.45868C225 5.20437 225.609 4.18216 226.721 3.41164C227.846 2.62786 229.367 2.26852 231.221 2.26852C232.992 2.26852 234.492 2.62017 235.681 3.3663C236.868 4.11144 237.702 5.2228 238.192 6.6628H239.874C239.459 4.97296 238.549 3.64959 237.132 2.66857L237.129 2.66624C235.653 1.62738 233.678 1.08297 231.157 1.08297ZM224.618 1.83531C226.289 0.593285 228.486 0 231.157 0C233.826 0 236.039 0.576303 237.748 1.77885C239.466 2.96942 240.55 4.61759 240.99 6.69541L240.992 6.70871L240.995 6.72214C241.027 6.92424 241.024 7.21371 240.823 7.45341C240.621 7.69515 240.335 7.74577 240.129 7.74577H238.088C237.88 7.74577 237.673 7.68165 237.499 7.53562C237.335 7.3971 237.238 7.21648 237.18 7.04358C236.762 5.79359 236.067 4.88668 235.107 4.28428C234.139 3.6767 232.856 3.35149 231.221 3.35149C229.489 3.35149 228.214 3.68996 227.336 4.30172L227.335 4.3024C226.463 4.90674 226.08 5.61898 226.08 6.45868C226.08 7.3727 226.359 8.03818 226.873 8.5206C227.439 9.04129 228.375 9.51849 229.741 9.92033C229.742 9.92052 229.742 9.92071 229.743 9.92089L235.419 11.5535C235.419 11.5536 235.419 11.5537 235.42 11.5537C237.304 12.0889 238.774 12.8893 239.776 13.9898C240.789 15.1015 241.286 16.4798 241.286 18.0869C241.286 20.1151 240.395 21.765 238.671 23.0009L238.67 23.0013C236.965 24.2207 234.668 24.7994 231.838 24.7994C229.008 24.7994 226.686 24.2314 224.922 23.0414C224.045 22.4547 223.278 21.7124 222.622 20.8195L222.617 20.8134C221.952 19.8824 221.598 18.9019 221.598 17.8806C221.598 17.6783 221.661 17.4349 221.87 17.2553C222.063 17.0895 222.295 17.0536 222.471 17.0536H224.512C224.713 17.0536 224.917 17.1123 225.091 17.2516C225.257 17.3854 225.357 17.5621 225.417 17.7335L225.419 17.7399C225.834 18.9782 226.558 19.8844 227.593 20.4907C228.639 21.1039 230.042 21.432 231.838 21.432C233.728 21.432 235.087 21.095 235.983 20.4927C236.904 19.8704 237.295 19.1614 237.295 18.3565C237.295 17.4572 237.014 16.7818 236.481 16.274L236.475 16.2678C235.924 15.7242 235.01 15.2438 233.669 14.8641L233.668 14.8639L227.988 13.2458L227.986 13.2453C226.092 12.6997 224.615 11.8943 223.608 10.7948C222.59 9.68404 222.089 8.31099 222.089 6.71251C222.089 4.71084 222.949 3.07294 224.618 1.83531Z" fill="white"/>
<path fill-rule="evenodd" clip-rule="evenodd" d="M209.291 1.08297C206.772 1.08297 204.824 1.64234 203.394 2.7056L203.393 2.70596C201.982 3.75272 201.302 5.07607 201.302 6.71251C201.302 8.06468 201.718 9.16904 202.536 10.0624C203.365 10.9669 204.64 11.6923 206.417 12.2042C206.417 12.2043 206.417 12.2044 206.418 12.2045L212.096 13.8219C213.516 14.2242 214.627 14.7687 215.362 15.4925C216.136 16.2324 216.508 17.2057 216.508 18.3565C216.508 19.6032 215.865 20.6179 214.719 21.3915L214.718 21.3922C213.568 22.1647 211.962 22.515 209.971 22.515C208.054 22.515 206.445 22.1662 205.181 21.4257C203.92 20.6871 203.042 19.5804 202.546 18.1366H200.822C200.874 18.8077 201.132 19.4867 201.626 20.1795C202.213 20.9768 202.89 21.6292 203.657 22.1416L203.659 22.143C205.186 23.1739 207.274 23.7164 209.971 23.7164C212.668 23.7164 214.716 23.1635 216.176 22.12C217.638 21.0715 218.339 19.739 218.339 18.0869C218.339 16.7221 217.924 15.6124 217.112 14.72C216.289 13.8165 215.023 13.0968 213.257 12.5955L213.256 12.595L207.575 10.961L207.572 10.9601C206.135 10.5376 205.015 10.0003 204.273 9.3162L204.27 9.31321C203.498 8.59009 203.133 7.61669 203.133 6.45868C203.133 5.20437 203.742 4.18216 204.854 3.41164C205.979 2.62786 207.5 2.26852 209.354 2.26852C211.125 2.26852 212.625 2.62017 213.814 3.3663C215.001 4.11144 215.835 5.2228 216.325 6.6628H218.007C217.593 4.97296 216.682 3.64959 215.265 2.66857L215.262 2.66624C213.786 1.62738 211.811 1.08297 209.291 1.08297ZM202.751 1.83531C204.422 0.593285 206.619 0 209.291 0C211.959 0 214.172 0.576303 215.881 1.77885C217.599 2.96942 218.683 4.61759 219.123 6.69541L219.126 6.70871L219.128 6.72214C219.16 6.92424 219.157 7.21371 218.956 7.45341C218.754 7.69515 218.468 7.74577 218.262 7.74577H216.221C216.013 7.74577 215.806 7.68165 215.632 7.53562C215.468 7.3971 215.371 7.21648 215.313 7.04358C214.895 5.79359 214.2 4.88668 213.241 4.28428C212.272 3.6767 210.989 3.35149 209.354 3.35149C207.622 3.35149 206.347 3.68996 205.469 4.30172L205.468 4.3024C204.596 4.90674 204.214 5.61898 204.214 6.45868C204.214 7.3727 204.492 8.03818 205.006 8.5206C205.572 9.04129 206.508 9.51849 207.874 9.92033C207.875 9.92052 207.875 9.92071 207.876 9.92089L213.552 11.5535C213.552 11.5536 213.552 11.5537 213.553 11.5537C215.437 12.0889 216.907 12.8893 217.909 13.9898C218.922 15.1015 219.419 16.4798 219.419 18.0869C219.419 20.1151 218.528 21.765 216.804 23.0009L216.804 23.0013C215.098 24.2207 212.801 24.7994 209.971 24.7994C207.141 24.7994 204.819 24.2314 203.055 23.0414C202.178 22.4547 201.411 21.7124 200.755 20.8195L200.75 20.8134C200.085 19.8824 199.731 18.9019 199.731 17.8806C199.731 17.6783 199.794 17.4349 200.003 17.2553C200.196 17.0895 200.428 17.0536 200.604 17.0536H202.645C202.846 17.0536 203.05 17.1123 203.224 17.2516C203.39 17.3854 203.49 17.5621 203.55 17.7335L203.553 17.7399C203.967 18.9782 204.691 19.8844 205.726 20.4907C206.772 21.1039 208.175 21.432 209.971 21.432C211.861 21.432 213.22 21.095 214.116 20.4927C215.037 19.8704 215.428 19.1614 215.428 18.3565C215.428 17.4572 215.147 16.7818 214.614 16.274L214.608 16.2678C214.057 15.7242 213.143 15.2438 211.802 14.8641L211.801 14.8639L206.121 13.2458L206.119 13.2453C204.225 12.6997 202.748 11.8943 201.741 10.7948C200.724 9.68404 200.222 8.31099 200.222 6.71251C200.222 4.71084 201.082 3.07294 202.751 1.83531Z" fill="white"/>
<path fill-rule="evenodd" clip-rule="evenodd" d="M181.524 1.5588V23.2245H196.773V22.039H183.355V12.8337H194.51V11.6323H183.355V2.76022H196.773V1.5588H181.524ZM180.671 0.727162C180.86 0.528642 181.104 0.47583 181.3 0.47583H196.996C197.192 0.47583 197.436 0.528642 197.625 0.727162C197.808 0.92074 197.853 1.16236 197.853 1.35045V2.96856C197.853 3.15666 197.808 3.39828 197.625 3.59186C197.436 3.79038 197.192 3.84319 196.996 3.84319H184.435V10.5493H194.718C194.912 10.5493 195.156 10.5983 195.349 10.7912C195.541 10.9841 195.59 11.2295 195.59 11.424V13.0421C195.59 13.2366 195.541 13.4819 195.349 13.6748C195.156 13.8677 194.912 13.9167 194.718 13.9167H184.435V20.956H196.996C197.185 20.956 197.426 21.0037 197.615 21.1939C197.805 21.3842 197.853 21.6255 197.853 21.8148V23.4487C197.853 23.638 197.805 23.8793 197.615 24.0696C197.426 24.2598 197.185 24.3075 196.996 24.3075H181.3C181.111 24.3075 180.87 24.2598 180.681 24.0696C180.491 23.8793 180.443 23.638 180.443 23.4487V1.35045C180.443 1.16236 180.488 0.92074 180.671 0.727162Z" fill="white"/>
<path fill-rule="evenodd" clip-rule="evenodd" d="M155.922 1.5588V23.2245H157.753V3.14449L170.735 22.4961C171.091 23.0267 171.476 23.2245 171.901 23.2245H173.956V1.5588H172.125V21.6375L159.143 2.30325L159.141 2.29955C158.783 1.75752 158.398 1.5588 157.977 1.5588H155.922ZM155.07 0.727162C155.259 0.528642 155.503 0.47583 155.699 0.47583H157.977C158.842 0.47583 159.532 0.931685 160.04 1.69935C160.04 1.70029 160.041 1.70124 160.041 1.70219L171.045 18.0895V1.35045C171.045 1.16236 171.089 0.92074 171.273 0.727162C171.461 0.528642 171.705 0.47583 171.901 0.47583H174.18C174.375 0.47583 174.619 0.528642 174.808 0.727162C174.992 0.92074 175.036 1.16236 175.036 1.35045V23.4487C175.036 23.638 174.989 23.8793 174.799 24.0696C174.609 24.2598 174.368 24.3075 174.18 24.3075H171.901C171.039 24.3075 170.348 23.86 169.839 23.1004L158.834 6.69513V23.4487C158.834 23.638 158.786 23.8793 158.596 24.0696C158.407 24.2598 158.166 24.3075 157.977 24.3075H155.699C155.51 24.3075 155.269 24.2598 155.079 24.0696C154.89 23.8793 154.842 23.638 154.842 23.4487V1.35045C154.842 1.16236 154.886 0.92074 155.07 0.727162Z" fill="white"/>
<path fill-rule="evenodd" clip-rule="evenodd" d="M136.334 1.5588V23.2245H151.266V22.039H138.165V1.5588H136.334ZM135.482 0.727162C135.67 0.528642 135.914 0.47583 136.11 0.47583H138.388C138.584 0.47583 138.828 0.528642 139.017 0.727162C139.201 0.92074 139.245 1.16236 139.245 1.35045V20.956H151.474C151.662 20.956 151.903 21.0003 152.096 21.1847C152.294 21.3738 152.346 21.6186 152.346 21.8148V23.4487C152.346 23.6449 152.294 23.8897 152.096 24.0788C151.903 24.2632 151.662 24.3075 151.474 24.3075H136.11C135.921 24.3075 135.68 24.2598 135.491 24.0696C135.301 23.8793 135.253 23.638 135.253 23.4487V1.35045C135.253 1.16236 135.298 0.92074 135.482 0.727162Z" fill="white"/>
<path fill-rule="evenodd" clip-rule="evenodd" d="M111.16 0.47583H113.436C113.633 0.47583 113.871 0.529367 114.059 0.717712C114.243 0.901703 114.299 1.13485 114.308 1.3247L114.308 1.33757V14.6761C114.308 16.9902 114.887 18.6514 115.957 19.7537C117.058 20.8659 118.47 21.4319 120.24 21.4319C122.01 21.4319 123.422 20.8656 124.523 19.7531C125.603 18.6506 126.187 16.9898 126.187 14.6761V1.35045C126.187 1.15908 126.235 0.924283 126.415 0.735094C126.595 0.546017 126.826 0.486052 127.016 0.476506L127.03 0.47583H129.322C129.518 0.47583 129.762 0.528642 129.95 0.727162C130.134 0.92074 130.178 1.16236 130.178 1.35045V14.6761C130.178 17.7588 129.277 20.2524 127.423 22.0889L127.422 22.0901C125.575 23.9079 123.163 24.7993 120.24 24.7993C117.316 24.7993 114.904 23.9079 113.057 22.0901L113.056 22.0889C111.202 20.2524 110.301 17.7588 110.301 14.6761V1.35045C110.301 1.15236 110.354 0.913989 110.542 0.725644C110.726 0.541654 110.958 0.485483 111.147 0.476443L111.16 0.47583Z" fill="white"/>
<path fill-rule="evenodd" clip-rule="evenodd" d="M90.9383 0.47583H106.648C106.844 0.47583 107.088 0.528642 107.276 0.727162C107.46 0.92074 107.505 1.16236 107.505 1.35045V2.96856C107.505 3.15994 107.456 3.39474 107.276 3.58392C107.097 3.773 106.865 3.83296 106.675 3.84251L106.661 3.84319H94.0868V11.1998H104.37C104.567 11.1998 104.805 11.2533 104.993 11.4416C105.176 11.6256 105.232 11.8588 105.241 12.0486L105.242 12.0615V13.6925C105.242 13.8906 105.188 14.129 105.001 14.3173C104.817 14.5013 104.585 14.5575 104.395 14.5665L104.382 14.5671H94.0868V23.4487C94.0868 23.638 94.0392 23.8793 93.8495 24.0696C93.6597 24.2598 93.419 24.3075 93.2302 24.3075H90.9518C90.763 24.3075 90.5223 24.2598 90.3325 24.0696C90.1428 23.8793 90.0952 23.638 90.0952 23.4487V1.35045C90.0952 1.15908 90.1436 0.924283 90.3233 0.735094C90.5029 0.546017 90.7343 0.486052 90.9248 0.476506L90.9383 0.47583ZM91.1754 1.5588V23.2245H93.0066V13.4842H104.162V12.2827H93.0066V2.76022H106.424V1.5588H91.1754Z" fill="white"/>
<path fill-rule="evenodd" clip-rule="evenodd" d="M67.1092 0.47583H74.5752C78.0563 0.47583 80.9072 1.53036 83.0717 3.6778C85.2434 5.82174 86.302 8.74959 86.302 12.3917C86.302 16.0341 85.2432 18.9667 83.0722 21.1209C80.9173 23.259 78.0657 24.3075 74.5752 24.3075H67.1227C66.9339 24.3075 66.6932 24.2598 66.5034 24.0696C66.3137 23.8793 66.2661 23.638 66.2661 23.4487V1.35045C66.2661 1.15908 66.3145 0.924283 66.4942 0.735094C66.6738 0.546017 66.9052 0.486052 67.0957 0.476506L67.1092 0.47583ZM67.3463 1.5588V23.2245H74.5752C77.8358 23.2245 80.3955 22.2531 82.3124 20.3512C84.2342 18.4442 85.2218 15.8139 85.2218 12.3917C85.2218 8.96934 84.2342 6.34502 82.3134 4.44902L82.3124 4.44803C80.3841 2.53468 77.8238 1.5588 74.5752 1.5588H67.3463ZM69.1775 2.76022H74.5752C77.1663 2.76022 79.3061 3.5811 80.9407 5.25343C82.6021 6.9314 83.3906 9.34703 83.3906 12.4075C83.3906 15.4592 82.6012 17.8739 80.9407 19.5616L80.9394 19.5629C79.2947 21.2233 77.1561 22.039 74.5752 22.039H69.1775V2.76022ZM70.2577 3.84319V20.956H74.5752C76.9098 20.956 78.7584 20.2277 80.1728 18.8C81.5707 17.3785 82.3104 15.2776 82.3104 12.4075C82.3104 9.52519 81.5699 7.42538 80.173 6.01525L80.1704 6.0126C78.7673 4.57652 76.9201 3.84319 74.5752 3.84319H70.2577Z" fill="white"/>
<path fill-rule="evenodd" clip-rule="evenodd" d="M41.7447 1.5588V23.2245H43.5759V3.14449L56.5579 22.4961C56.9136 23.0267 57.2985 23.2245 57.7237 23.2245H59.7785V1.5588H57.9473V21.6375L44.9655 2.30325L44.963 2.29955C44.6055 1.75752 44.2206 1.5588 43.7996 1.5588H41.7447ZM40.8927 0.727162C41.0812 0.528642 41.3255 0.47583 41.5211 0.47583H43.7996C44.6647 0.47583 45.3553 0.931987 45.8626 1.70011C45.8631 1.7008 45.8635 1.7015 45.864 1.70219L56.8671 18.0895V1.35045C56.8671 1.16236 56.9113 0.92074 57.0952 0.727162C57.2838 0.528642 57.528 0.47583 57.7237 0.47583H60.0021C60.1978 0.47583 60.442 0.528642 60.6306 0.727162C60.8145 0.92074 60.8587 1.16236 60.8587 1.35045V23.4487C60.8587 23.638 60.8111 23.8793 60.6214 24.0696C60.4316 24.2598 60.1909 24.3075 60.0021 24.3075H57.7237C56.8619 24.3075 56.1708 23.8601 55.6616 23.1005C55.6615 23.1005 55.6616 23.1006 55.6616 23.1005L44.6561 6.69514V23.4487C44.6561 23.638 44.6086 23.8793 44.4188 24.0696C44.2291 24.2598 43.9883 24.3075 43.7996 24.3075H41.5211C41.3324 24.3075 41.0916 24.2598 40.9019 24.0696C40.7121 23.8793 40.6646 23.638 40.6646 23.4487V1.35045C40.6646 1.16236 40.7088 0.92074 40.8927 0.727162Z" fill="white"/>
<path fill-rule="evenodd" clip-rule="evenodd" d="M32.346 1.5588V23.2245H34.1773V1.5588H32.346ZM31.494 0.727162C31.6826 0.528642 31.9268 0.47583 32.1224 0.47583H34.4009C34.5965 0.47583 34.8408 0.528642 35.0293 0.727162C35.2132 0.92074 35.2574 1.16236 35.2574 1.35045V23.4487C35.2574 23.638 35.2099 23.8793 35.0201 24.0696C34.8304 24.2598 34.5896 24.3075 34.4009 24.3075H32.1224C31.9337 24.3075 31.6929 24.2598 31.5032 24.0696C31.3134 23.8793 31.2659 23.638 31.2659 23.4487V1.35045C31.2659 1.16236 31.3101 0.92074 31.494 0.727162Z" fill="white"/>
<path fill-rule="evenodd" clip-rule="evenodd" d="M22.7395 0.47583H25.0022C25.1997 0.47583 25.4375 0.529367 25.6253 0.717712C25.8089 0.901703 25.8649 1.13485 25.8739 1.3247L25.8745 1.33757V23.4487C25.8745 23.6449 25.8218 23.8897 25.6238 24.0788C25.4308 24.2632 25.1898 24.3075 25.0022 24.3075H22.7395C22.5486 24.3075 22.3144 24.259 22.1257 24.0788C21.9371 23.8987 21.8773 23.6667 21.8678 23.4758L21.8671 23.4623V8.08419L15.432 20.2754L15.4297 20.2798C15.0082 21.0609 14.3632 21.5326 13.5081 21.5471L13.499 21.5473L12.3597 21.5472C11.4958 21.5472 10.8477 21.0685 10.4273 20.2766L3.99157 8.08419V23.4487C3.99157 23.638 3.94402 23.8793 3.75427 24.0696C3.56452 24.2598 3.32376 24.3075 3.13503 24.3075H0.856542C0.667805 24.3075 0.427053 24.2598 0.237301 24.0696C0.0475501 23.8793 0 23.638 0 23.4487V1.35045C0 1.15908 0.0483891 0.924283 0.228103 0.735094C0.407711 0.546017 0.639133 0.486052 0.829571 0.476506L0.843048 0.47583H3.13503C3.99891 0.47583 4.64706 0.954525 5.06748 1.74645L5.06885 1.74903L12.9447 16.7789L20.8087 1.7432C21.2302 0.962099 21.8753 0.490437 22.7303 0.475908L22.7395 0.47583ZM1.08017 1.5588V23.2245H2.9114V5.90337L3.92884 5.65009L11.3808 19.7677C11.3808 19.7678 11.3807 19.7676 11.3808 19.7677C11.6565 20.287 11.979 20.4642 12.3597 20.4642H13.494C13.8813 20.4564 14.205 20.2723 14.4785 19.7665C14.4789 19.7659 14.4793 19.7652 14.4796 19.7645L21.9299 5.65009L22.9473 5.90337V23.2245H24.7943V1.5588H22.7445C22.3574 1.56665 22.0338 1.75048 21.7604 2.2556L12.9456 19.1091L4.11397 2.25529C4.11375 2.25488 4.11354 2.25448 4.11332 2.25407C3.83768 1.73553 3.51558 1.5588 3.13503 1.5588H1.08017Z" fill="white"/>
<path d="M234.531 37.3857H235.586V48.8219H243V49.7576H234.531V37.3857Z" fill="white"/>
<path d="M221.041 37.3857H222.286L227.229 49.7576H226.071L224.636 46.0668H218.691L217.257 49.7576H216.099L221.041 37.3857ZM219.037 45.1658H224.291L221.698 38.5294H221.646L219.037 45.1658Z" fill="white"/>
<path d="M199.626 37.3857H209.737V38.3214H205.209V49.7576H204.155V38.3214H199.626V37.3857Z" fill="white"/>
<path d="M190.802 37.3857H191.856V49.7576H190.802V37.3857Z" fill="white"/>
<path d="M173.643 37.3857H178.655C181.386 37.3857 182.769 38.564 182.769 40.9379C182.769 43.3118 181.386 44.5073 178.638 44.5073H174.698V49.7576H173.643V37.3857ZM174.698 38.3214V43.5717H178.586C179.658 43.5717 180.435 43.3464 180.954 42.9132C181.438 42.48 181.697 41.8216 181.697 40.9379C181.697 40.0542 181.438 39.4131 180.954 38.9972C180.435 38.5467 179.64 38.3214 178.586 38.3214H174.698Z" fill="white"/>
<path d="M160.154 37.3857H161.398L166.341 49.7576H165.183L163.748 46.0668H157.803L156.369 49.7576H155.211L160.154 37.3857ZM158.149 45.1658H163.403L160.81 38.5294H160.758L158.149 45.1658Z" fill="white"/>
<path d="M143.223 37.1431C144.519 37.1431 145.643 37.4896 146.576 38.2174C147.544 38.9451 148.097 39.9155 148.252 41.1284H147.233C147.077 40.1754 146.611 39.4303 145.833 38.8931C145.09 38.3733 144.208 38.1134 143.206 38.1134C141.685 38.1134 140.51 38.6506 139.646 39.7249C138.833 40.7299 138.436 42.0294 138.436 43.6236C138.436 45.2177 138.833 46.5172 139.628 47.4876C140.458 48.5099 141.616 49.0297 143.102 49.0297C144.156 49.0297 145.055 48.7352 145.816 48.1807C146.628 47.5569 147.164 46.6732 147.406 45.5296H148.425C148.166 46.9504 147.527 48.0767 146.49 48.8911C145.539 49.6189 144.416 50.0001 143.119 50.0001C141.27 50.0001 139.836 49.359 138.799 48.0941C137.848 46.9331 137.382 45.4429 137.382 43.6236C137.382 41.8042 137.866 40.2967 138.833 39.1011C139.888 37.7842 141.357 37.1431 143.223 37.1431Z" fill="white"/>
</svg>
