<svg width="358" height="48" viewBox="0 0 358 48" fill="none" xmlns="http://www.w3.org/2000/svg">
<rect width="358" height="48" rx="8" fill="url(#paint0_linear_390_1823)"/>
<g clip-path="url(#clip0_390_1823)">
<path d="M133.664 15.8648C133.719 14.5218 134.137 13.3421 134.908 12.3559C135.683 11.3648 136.965 10.6607 138.72 10.2617C138.731 10.3105 138.743 10.3593 138.756 10.4079V10.6631C138.756 11.2417 138.601 11.9053 138.294 12.6351C137.972 13.3418 137.47 14.0068 136.802 14.6071C136.178 15.136 135.6 15.4861 135.09 15.6444C134.921 15.6899 134.69 15.7346 134.411 15.7749C134.163 15.8098 133.914 15.8398 133.664 15.8648Z" fill="#080B0E"/>
<path d="M133.957 17.8597C131.975 17.8597 130.599 16.2773 128.644 16.2773C126.689 16.2773 122.662 17.8995 122.662 23.4996C122.662 29.0997 126.238 32.7079 126.638 33.1292C127.038 33.5506 127.963 34.6335 129.397 34.6335C130.83 34.6335 132.399 33.6048 133.957 33.6048C135.515 33.6048 137.476 34.6335 138.756 34.6335C140.036 34.6335 140.563 34.1623 141.434 33.3497C142.306 32.537 143.968 30.0569 144.548 28.5684C143.592 28.0547 141.058 26.66 141.058 23.4996C141.058 21.3927 141.911 19.6423 143.617 18.2486C142.498 16.9344 141.2 16.2773 139.723 16.2773C137.508 16.2773 135.939 17.8597 133.957 17.8597Z" fill="#080B0E" stroke="#080B0E" stroke-width="1.83333" stroke-linejoin="bevel"/>
</g>
<path d="M159.2 10.36H161.8C162.95 10.36 163.82 10.68 164.42 11.33C164.98 11.93 165.26 12.8 165.26 13.93C165.26 15.05 164.97 15.92 164.4 16.54C163.8 17.18 162.93 17.5 161.78 17.5H159.2V10.36ZM160.29 11.29V16.57H161.58C162.48 16.57 163.15 16.35 163.57 15.92C163.98 15.49 164.19 14.83 164.19 13.93C164.19 13.01 163.98 12.35 163.58 11.93C163.16 11.5 162.5 11.29 161.6 11.29H160.29ZM168.648 12.19C169.428 12.19 170.058 12.45 170.528 12.97C170.988 13.48 171.228 14.13 171.228 14.92C171.228 15.7 170.998 16.35 170.538 16.85C170.058 17.37 169.428 17.64 168.648 17.64C167.868 17.64 167.238 17.37 166.758 16.85C166.298 16.35 166.068 15.7 166.068 14.92C166.068 14.13 166.298 13.48 166.768 12.97C167.238 12.45 167.868 12.19 168.648 12.19ZM168.648 13.06C168.158 13.06 167.778 13.25 167.508 13.64C167.268 13.97 167.158 14.4 167.158 14.92C167.158 15.44 167.268 15.86 167.508 16.19C167.778 16.57 168.158 16.77 168.648 16.77C169.138 16.77 169.518 16.57 169.798 16.19C170.038 15.85 170.158 15.43 170.158 14.92C170.158 14.4 170.038 13.97 169.798 13.64C169.518 13.25 169.138 13.06 168.648 13.06ZM171.685 12.33H172.855L173.945 16.24L175.005 12.33H175.985L177.045 16.24L178.135 12.33H179.305L177.555 17.5H176.575L175.495 13.63L174.415 17.5H173.435L171.685 12.33ZM182.579 12.19C183.859 12.19 184.509 12.89 184.509 14.31V17.5H183.449V14.4C183.449 13.52 183.039 13.08 182.239 13.08C181.939 13.08 181.669 13.18 181.449 13.4C181.209 13.64 181.059 13.97 181.019 14.39V17.5H179.959V12.33H181.019V12.97C181.219 12.71 181.449 12.52 181.709 12.39C181.969 12.25 182.259 12.19 182.579 12.19ZM185.841 10.22H186.901V17.5H185.841V10.22ZM190.601 12.19C191.381 12.19 192.011 12.45 192.481 12.97C192.941 13.48 193.181 14.13 193.181 14.92C193.181 15.7 192.951 16.35 192.491 16.85C192.011 17.37 191.381 17.64 190.601 17.64C189.821 17.64 189.191 17.37 188.711 16.85C188.251 16.35 188.021 15.7 188.021 14.92C188.021 14.13 188.251 13.48 188.721 12.97C189.191 12.45 189.821 12.19 190.601 12.19ZM190.601 13.06C190.111 13.06 189.731 13.25 189.461 13.64C189.221 13.97 189.111 14.4 189.111 14.92C189.111 15.44 189.221 15.86 189.461 16.19C189.731 16.57 190.111 16.77 190.601 16.77C191.091 16.77 191.471 16.57 191.751 16.19C191.991 15.85 192.111 15.43 192.111 14.92C192.111 14.4 191.991 13.97 191.751 13.64C191.471 13.25 191.091 13.06 190.601 13.06ZM196.518 12.19C197.278 12.19 197.838 12.38 198.198 12.76C198.508 13.09 198.668 13.57 198.668 14.2V17.5H197.688V16.77C197.488 17.03 197.238 17.24 196.938 17.39C196.598 17.55 196.198 17.64 195.738 17.64C195.198 17.64 194.778 17.5 194.478 17.23C194.148 16.96 193.988 16.61 193.988 16.18C193.988 15.6 194.218 15.15 194.678 14.84C195.098 14.54 195.698 14.39 196.458 14.37L197.618 14.34V14.13C197.618 13.41 197.228 13.05 196.448 13.05C196.118 13.05 195.848 13.11 195.648 13.23C195.408 13.37 195.258 13.58 195.198 13.87L194.148 13.78C194.258 13.22 194.538 12.8 194.978 12.54C195.358 12.3 195.878 12.19 196.518 12.19ZM197.618 15.11L196.528 15.14C195.558 15.16 195.078 15.5 195.078 16.14C195.078 16.34 195.158 16.5 195.328 16.63C195.488 16.76 195.708 16.83 195.978 16.83C196.428 16.83 196.808 16.69 197.128 16.42C197.448 16.15 197.618 15.81 197.618 15.41V15.11ZM203.601 10.22H204.661V17.5H203.671V16.88C203.311 17.38 202.771 17.64 202.071 17.64C201.311 17.64 200.711 17.37 200.281 16.83C199.881 16.33 199.681 15.68 199.681 14.89C199.681 14.13 199.871 13.5 200.271 13C200.691 12.46 201.281 12.19 202.021 12.19C202.651 12.19 203.181 12.49 203.601 13.1V10.22ZM202.261 13.05C201.741 13.05 201.351 13.22 201.101 13.58C200.881 13.88 200.771 14.32 200.771 14.89C200.771 15.46 200.871 15.9 201.081 16.22C201.321 16.59 201.711 16.78 202.231 16.78C202.691 16.78 203.041 16.59 203.301 16.23C203.521 15.9 203.631 15.48 203.631 14.96V14.87C203.631 14.31 203.491 13.86 203.231 13.52C202.971 13.2 202.651 13.05 202.261 13.05ZM211.568 12.19C212.348 12.19 212.978 12.45 213.448 12.97C213.908 13.48 214.148 14.13 214.148 14.92C214.148 15.7 213.918 16.35 213.458 16.85C212.978 17.37 212.348 17.64 211.568 17.64C210.788 17.64 210.158 17.37 209.678 16.85C209.218 16.35 208.988 15.7 208.988 14.92C208.988 14.13 209.218 13.48 209.688 12.97C210.158 12.45 210.788 12.19 211.568 12.19ZM211.568 13.06C211.078 13.06 210.698 13.25 210.428 13.64C210.188 13.97 210.078 14.4 210.078 14.92C210.078 15.44 210.188 15.86 210.428 16.19C210.698 16.57 211.078 16.77 211.568 16.77C212.058 16.77 212.438 16.57 212.718 16.19C212.958 15.85 213.078 15.43 213.078 14.92C213.078 14.4 212.958 13.97 212.718 13.64C212.438 13.25 212.058 13.06 211.568 13.06ZM217.775 12.19C219.055 12.19 219.705 12.89 219.705 14.31V17.5H218.645V14.4C218.645 13.52 218.235 13.08 217.435 13.08C217.135 13.08 216.865 13.18 216.645 13.4C216.405 13.64 216.255 13.97 216.215 14.39V17.5H215.155V12.33H216.215V12.97C216.415 12.71 216.645 12.52 216.905 12.39C217.165 12.25 217.455 12.19 217.775 12.19ZM225.816 10.66V12.33H226.996V13.21H225.816V16.21C225.816 16.35 225.846 16.45 225.906 16.52C225.966 16.58 226.056 16.62 226.186 16.62H226.866V17.5H226.016C225.576 17.5 225.246 17.38 225.046 17.15C224.846 16.93 224.756 16.62 224.756 16.21V13.21H223.796V12.33H224.756V11.1L225.816 10.66ZM227.85 10.22H228.91V13.06C229.1 12.76 229.34 12.53 229.63 12.39C229.89 12.25 230.18 12.19 230.51 12.19C231.13 12.19 231.6 12.37 231.92 12.74C232.22 13.09 232.37 13.61 232.37 14.29V17.5H231.31V14.47C231.31 14.01 231.21 13.67 231.03 13.43C230.83 13.18 230.52 13.06 230.12 13.06C229.76 13.06 229.47 13.2 229.25 13.49C229.02 13.78 228.91 14.15 228.91 14.6V17.5H227.85V10.22ZM235.763 12.19C236.603 12.19 237.253 12.47 237.693 13.05C238.093 13.57 238.303 14.29 238.313 15.21H234.393C234.433 15.71 234.563 16.1 234.803 16.37C235.043 16.63 235.373 16.77 235.793 16.77C236.163 16.77 236.463 16.68 236.693 16.51C236.873 16.37 237.023 16.14 237.163 15.84H238.223C238.103 16.32 237.873 16.73 237.513 17.05C237.063 17.44 236.493 17.64 235.803 17.64C235.043 17.64 234.433 17.4 233.993 16.93C233.513 16.43 233.273 15.76 233.273 14.91C233.273 14.14 233.493 13.5 233.953 12.98C234.393 12.45 235.003 12.19 235.763 12.19ZM235.793 13.06C235.393 13.06 235.083 13.17 234.843 13.41C234.623 13.64 234.473 13.97 234.413 14.41H237.203C237.103 13.51 236.633 13.06 235.793 13.06Z" fill="#1D1E20"/>
<path d="M162.35 23.504H164.086L167.936 33.5H166.298L165.36 30.924H161.062L160.124 33.5H158.5L162.35 23.504ZM161.524 29.664H164.898L163.246 25.142H163.19L161.524 29.664ZM172.4 26.066C173.464 26.066 174.29 26.444 174.906 27.2C175.466 27.9 175.746 28.796 175.746 29.916C175.746 30.98 175.466 31.862 174.92 32.562C174.332 33.318 173.506 33.696 172.47 33.696C171.574 33.696 170.846 33.276 170.258 32.436V36.272H168.774V26.262H170.16V27.13C170.664 26.416 171.42 26.066 172.4 26.066ZM172.176 27.27C171.532 27.27 171.028 27.522 170.678 28.04C170.37 28.488 170.216 29.09 170.216 29.832V29.958C170.216 30.728 170.398 31.358 170.79 31.834C171.126 32.268 171.574 32.492 172.134 32.492C172.862 32.492 173.394 32.254 173.744 31.778C174.052 31.33 174.22 30.714 174.22 29.916C174.22 29.118 174.066 28.502 173.786 28.054C173.436 27.522 172.904 27.27 172.176 27.27ZM180.767 26.066C181.831 26.066 182.657 26.444 183.273 27.2C183.833 27.9 184.113 28.796 184.113 29.916C184.113 30.98 183.833 31.862 183.287 32.562C182.699 33.318 181.873 33.696 180.837 33.696C179.941 33.696 179.213 33.276 178.625 32.436V36.272H177.141V26.262H178.527V27.13C179.031 26.416 179.787 26.066 180.767 26.066ZM180.543 27.27C179.899 27.27 179.395 27.522 179.045 28.04C178.737 28.488 178.583 29.09 178.583 29.832V29.958C178.583 30.728 178.765 31.358 179.157 31.834C179.493 32.268 179.941 32.492 180.501 32.492C181.229 32.492 181.761 32.254 182.111 31.778C182.419 31.33 182.587 30.714 182.587 29.916C182.587 29.118 182.433 28.502 182.153 28.054C181.803 27.522 181.271 27.27 180.543 27.27ZM193.81 23.308C194.972 23.308 195.882 23.546 196.54 24.05C197.24 24.568 197.632 25.366 197.73 26.458H196.218C196.078 25.814 195.826 25.338 195.434 25.058C195.042 24.764 194.482 24.624 193.726 24.624C193.068 24.624 192.564 24.722 192.214 24.918C191.78 25.142 191.57 25.506 191.57 26.01C191.57 26.458 191.808 26.808 192.312 27.074C192.536 27.2 193.11 27.41 194.048 27.69C195.392 28.11 196.274 28.432 196.666 28.67C197.52 29.188 197.954 29.902 197.954 30.826C197.954 31.722 197.604 32.422 196.904 32.94C196.204 33.444 195.224 33.696 193.964 33.696C192.746 33.696 191.794 33.444 191.108 32.968C190.282 32.38 189.834 31.456 189.75 30.196H191.262C191.374 30.98 191.654 31.554 192.102 31.89C192.508 32.198 193.124 32.352 193.964 32.352C194.72 32.352 195.322 32.212 195.77 31.96C196.218 31.708 196.442 31.358 196.442 30.91C196.442 30.35 196.12 29.916 195.49 29.594C195.266 29.482 194.608 29.258 193.502 28.922C192.27 28.53 191.514 28.264 191.206 28.096C190.436 27.634 190.058 26.962 190.058 26.094C190.058 25.212 190.422 24.526 191.164 24.022C191.864 23.546 192.746 23.308 193.81 23.308ZM201.433 23.924V26.262H203.085V27.494H201.433V31.694C201.433 31.89 201.475 32.03 201.559 32.128C201.643 32.212 201.769 32.268 201.951 32.268H202.903V33.5H201.713C201.097 33.5 200.635 33.332 200.355 33.01C200.075 32.702 199.949 32.268 199.949 31.694V27.494H198.605V26.262H199.949V24.54L201.433 23.924ZM207.611 26.066C208.703 26.066 209.585 26.43 210.243 27.158C210.887 27.872 211.223 28.782 211.223 29.888C211.223 30.98 210.901 31.89 210.257 32.59C209.585 33.318 208.703 33.696 207.611 33.696C206.519 33.696 205.637 33.318 204.965 32.59C204.321 31.89 203.999 30.98 203.999 29.888C203.999 28.782 204.321 27.872 204.979 27.158C205.637 26.43 206.519 26.066 207.611 26.066ZM207.611 27.284C206.925 27.284 206.393 27.55 206.015 28.096C205.679 28.558 205.525 29.16 205.525 29.888C205.525 30.616 205.679 31.204 206.015 31.666C206.393 32.198 206.925 32.478 207.611 32.478C208.297 32.478 208.829 32.198 209.221 31.666C209.557 31.19 209.725 30.602 209.725 29.888C209.725 29.16 209.557 28.558 209.221 28.096C208.829 27.55 208.297 27.284 207.611 27.284ZM215.993 26.066C216.357 26.066 216.679 26.122 216.931 26.248V27.732C216.567 27.62 216.217 27.578 215.881 27.578C215.433 27.578 215.027 27.76 214.677 28.124C214.299 28.516 214.117 29.034 214.117 29.664V33.5H212.633V26.262H214.117V27.354C214.299 26.962 214.537 26.668 214.817 26.472C215.153 26.192 215.545 26.066 215.993 26.066ZM220.908 26.066C222.084 26.066 222.994 26.458 223.61 27.27C224.17 27.998 224.464 29.006 224.478 30.294H218.99C219.046 30.994 219.228 31.54 219.564 31.918C219.9 32.282 220.362 32.478 220.95 32.478C221.468 32.478 221.888 32.352 222.21 32.114C222.462 31.918 222.672 31.596 222.868 31.176H224.352C224.184 31.848 223.862 32.422 223.358 32.87C222.728 33.416 221.93 33.696 220.964 33.696C219.9 33.696 219.046 33.36 218.43 32.702C217.758 32.002 217.422 31.064 217.422 29.874C217.422 28.796 217.73 27.9 218.374 27.172C218.99 26.43 219.844 26.066 220.908 26.066ZM220.95 27.284C220.39 27.284 219.956 27.438 219.62 27.774C219.312 28.096 219.102 28.558 219.018 29.174H222.924C222.784 27.914 222.126 27.284 220.95 27.284Z" fill="#080B0E"/>
<defs>
<linearGradient id="paint0_linear_390_1823" x1="373.481" y1="58.1538" x2="321.573" y2="166.349" gradientUnits="userSpaceOnUse">
<stop offset="0.419543" stop-color="#E3FF57"/>
<stop offset="1" stop-color="#75EB36"/>
</linearGradient>
<clipPath id="clip0_390_1823">
<rect width="32" height="32" fill="white" transform="translate(118.5 8)"/>
</clipPath>
</defs>
</svg>
