<svg width="185" height="52" viewBox="0 0 185 52" fill="none" xmlns="http://www.w3.org/2000/svg">
<rect width="185" height="52" rx="8" fill="url(#paint0_linear_390_949)"/>
<g clip-path="url(#clip0_390_949)">
<path d="M47.1641 17.8648C47.2187 16.5218 47.6367 15.3421 48.4081 14.3559C49.1835 13.3648 50.4652 12.6607 52.2197 12.2617C52.2313 12.3105 52.2435 12.3593 52.2561 12.4079V12.6631C52.2561 13.2417 52.1006 13.9053 51.7937 14.6351C51.4721 15.3418 50.9695 16.0068 50.302 16.6071C49.6777 17.136 49.1001 17.4861 48.5896 17.6444C48.4211 17.6899 48.19 17.7346 47.9109 17.7749C47.6627 17.8098 47.4137 17.8398 47.1641 17.8648Z" fill="#080B0E"/>
<path d="M47.4568 19.8597C45.475 19.8597 44.099 18.2773 42.1442 18.2773C40.1894 18.2773 36.1621 19.8995 36.1621 25.4996C36.1621 31.0997 39.7384 34.7079 40.1384 35.1292C40.5383 35.5506 41.4634 36.6335 42.8965 36.6335C44.3297 36.6335 45.8987 35.6048 47.4568 35.6048C49.0148 35.6048 50.9758 36.6335 52.2561 36.6335C53.5364 36.6335 54.063 36.1623 54.9343 35.3497C55.8056 34.537 57.4675 32.0569 58.0479 30.5684C57.0919 30.0547 54.558 28.66 54.558 25.4996C54.558 23.3927 55.4109 21.6423 57.1167 20.2486C55.9976 18.9344 54.6998 18.2773 53.223 18.2773C51.0079 18.2773 49.4386 19.8597 47.4568 19.8597Z" fill="#080B0E" stroke="#080B0E" stroke-width="1.83333" stroke-linejoin="bevel"/>
</g>
<path d="M72.7 12.36H75.3C76.45 12.36 77.32 12.68 77.92 13.33C78.48 13.93 78.76 14.8 78.76 15.93C78.76 17.05 78.47 17.92 77.9 18.54C77.3 19.18 76.43 19.5 75.28 19.5H72.7V12.36ZM73.79 13.29V18.57H75.08C75.98 18.57 76.65 18.35 77.07 17.92C77.48 17.49 77.69 16.83 77.69 15.93C77.69 15.01 77.48 14.35 77.08 13.93C76.66 13.5 76 13.29 75.1 13.29H73.79ZM82.148 14.19C82.928 14.19 83.558 14.45 84.028 14.97C84.488 15.48 84.728 16.13 84.728 16.92C84.728 17.7 84.498 18.35 84.038 18.85C83.558 19.37 82.928 19.64 82.148 19.64C81.368 19.64 80.738 19.37 80.258 18.85C79.798 18.35 79.568 17.7 79.568 16.92C79.568 16.13 79.798 15.48 80.268 14.97C80.738 14.45 81.368 14.19 82.148 14.19ZM82.148 15.06C81.658 15.06 81.278 15.25 81.008 15.64C80.768 15.97 80.658 16.4 80.658 16.92C80.658 17.44 80.768 17.86 81.008 18.19C81.278 18.57 81.658 18.77 82.148 18.77C82.638 18.77 83.018 18.57 83.298 18.19C83.538 17.85 83.658 17.43 83.658 16.92C83.658 16.4 83.538 15.97 83.298 15.64C83.018 15.25 82.638 15.06 82.148 15.06ZM85.1848 14.33H86.3548L87.4448 18.24L88.5048 14.33H89.4848L90.5448 18.24L91.6348 14.33H92.8048L91.0548 19.5H90.0748L88.9948 15.63L87.9148 19.5H86.9348L85.1848 14.33ZM96.0794 14.19C97.3594 14.19 98.0094 14.89 98.0094 16.31V19.5H96.9494V16.4C96.9494 15.52 96.5394 15.08 95.7394 15.08C95.4394 15.08 95.1694 15.18 94.9494 15.4C94.7094 15.64 94.5594 15.97 94.5194 16.39V19.5H93.4594V14.33H94.5194V14.97C94.7194 14.71 94.9494 14.52 95.2094 14.39C95.4694 14.25 95.7594 14.19 96.0794 14.19ZM99.3411 12.22H100.401V19.5H99.3411V12.22ZM104.101 14.19C104.881 14.19 105.511 14.45 105.981 14.97C106.441 15.48 106.681 16.13 106.681 16.92C106.681 17.7 106.451 18.35 105.991 18.85C105.511 19.37 104.881 19.64 104.101 19.64C103.321 19.64 102.691 19.37 102.211 18.85C101.751 18.35 101.521 17.7 101.521 16.92C101.521 16.13 101.751 15.48 102.221 14.97C102.691 14.45 103.321 14.19 104.101 14.19ZM104.101 15.06C103.611 15.06 103.231 15.25 102.961 15.64C102.721 15.97 102.611 16.4 102.611 16.92C102.611 17.44 102.721 17.86 102.961 18.19C103.231 18.57 103.611 18.77 104.101 18.77C104.591 18.77 104.971 18.57 105.251 18.19C105.491 17.85 105.611 17.43 105.611 16.92C105.611 16.4 105.491 15.97 105.251 15.64C104.971 15.25 104.591 15.06 104.101 15.06ZM110.018 14.19C110.778 14.19 111.338 14.38 111.698 14.76C112.008 15.09 112.168 15.57 112.168 16.2V19.5H111.188V18.77C110.988 19.03 110.738 19.24 110.438 19.39C110.098 19.55 109.698 19.64 109.238 19.64C108.698 19.64 108.278 19.5 107.978 19.23C107.648 18.96 107.488 18.61 107.488 18.18C107.488 17.6 107.718 17.15 108.178 16.84C108.598 16.54 109.198 16.39 109.958 16.37L111.118 16.34V16.13C111.118 15.41 110.728 15.05 109.948 15.05C109.618 15.05 109.348 15.11 109.148 15.23C108.908 15.37 108.758 15.58 108.698 15.87L107.648 15.78C107.758 15.22 108.038 14.8 108.478 14.54C108.858 14.3 109.378 14.19 110.018 14.19ZM111.118 17.11L110.028 17.14C109.058 17.16 108.578 17.5 108.578 18.14C108.578 18.34 108.658 18.5 108.828 18.63C108.988 18.76 109.208 18.83 109.478 18.83C109.928 18.83 110.308 18.69 110.628 18.42C110.948 18.15 111.118 17.81 111.118 17.41V17.11ZM117.101 12.22H118.161V19.5H117.171V18.88C116.811 19.38 116.271 19.64 115.571 19.64C114.811 19.64 114.211 19.37 113.781 18.83C113.381 18.33 113.181 17.68 113.181 16.89C113.181 16.13 113.371 15.5 113.771 15C114.191 14.46 114.781 14.19 115.521 14.19C116.151 14.19 116.681 14.49 117.101 15.1V12.22ZM115.761 15.05C115.241 15.05 114.851 15.22 114.601 15.58C114.381 15.88 114.271 16.32 114.271 16.89C114.271 17.46 114.371 17.9 114.581 18.22C114.821 18.59 115.211 18.78 115.731 18.78C116.191 18.78 116.541 18.59 116.801 18.23C117.021 17.9 117.131 17.48 117.131 16.96V16.87C117.131 16.31 116.991 15.86 116.731 15.52C116.471 15.2 116.151 15.05 115.761 15.05ZM125.068 14.19C125.848 14.19 126.478 14.45 126.948 14.97C127.408 15.48 127.648 16.13 127.648 16.92C127.648 17.7 127.418 18.35 126.958 18.85C126.478 19.37 125.848 19.64 125.068 19.64C124.288 19.64 123.658 19.37 123.178 18.85C122.718 18.35 122.488 17.7 122.488 16.92C122.488 16.13 122.718 15.48 123.188 14.97C123.658 14.45 124.288 14.19 125.068 14.19ZM125.068 15.06C124.578 15.06 124.198 15.25 123.928 15.64C123.688 15.97 123.578 16.4 123.578 16.92C123.578 17.44 123.688 17.86 123.928 18.19C124.198 18.57 124.578 18.77 125.068 18.77C125.558 18.77 125.938 18.57 126.218 18.19C126.458 17.85 126.578 17.43 126.578 16.92C126.578 16.4 126.458 15.97 126.218 15.64C125.938 15.25 125.558 15.06 125.068 15.06ZM131.275 14.19C132.555 14.19 133.205 14.89 133.205 16.31V19.5H132.145V16.4C132.145 15.52 131.735 15.08 130.935 15.08C130.635 15.08 130.365 15.18 130.145 15.4C129.905 15.64 129.755 15.97 129.715 16.39V19.5H128.655V14.33H129.715V14.97C129.915 14.71 130.145 14.52 130.405 14.39C130.665 14.25 130.955 14.19 131.275 14.19ZM139.316 12.66V14.33H140.496V15.21H139.316V18.21C139.316 18.35 139.346 18.45 139.406 18.52C139.466 18.58 139.556 18.62 139.686 18.62H140.366V19.5H139.516C139.076 19.5 138.746 19.38 138.546 19.15C138.346 18.93 138.256 18.62 138.256 18.21V15.21H137.296V14.33H138.256V13.1L139.316 12.66ZM141.35 12.22H142.41V15.06C142.6 14.76 142.84 14.53 143.13 14.39C143.39 14.25 143.68 14.19 144.01 14.19C144.63 14.19 145.1 14.37 145.42 14.74C145.72 15.09 145.87 15.61 145.87 16.29V19.5H144.81V16.47C144.81 16.01 144.71 15.67 144.53 15.43C144.33 15.18 144.02 15.06 143.62 15.06C143.26 15.06 142.97 15.2 142.75 15.49C142.52 15.78 142.41 16.15 142.41 16.6V19.5H141.35V12.22ZM149.263 14.19C150.103 14.19 150.753 14.47 151.193 15.05C151.593 15.57 151.803 16.29 151.813 17.21H147.893C147.933 17.71 148.063 18.1 148.303 18.37C148.543 18.63 148.873 18.77 149.293 18.77C149.663 18.77 149.963 18.68 150.193 18.51C150.373 18.37 150.523 18.14 150.663 17.84H151.723C151.603 18.32 151.373 18.73 151.013 19.05C150.563 19.44 149.993 19.64 149.303 19.64C148.543 19.64 147.933 19.4 147.493 18.93C147.013 18.43 146.773 17.76 146.773 16.91C146.773 16.14 146.993 15.5 147.453 14.98C147.893 14.45 148.503 14.19 149.263 14.19ZM149.293 15.06C148.893 15.06 148.583 15.17 148.343 15.41C148.123 15.64 147.973 15.97 147.913 16.41H150.703C150.603 15.51 150.133 15.06 149.293 15.06Z" fill="#1D1E20"/>
<path d="M75.85 25.504H77.586L81.436 35.5H79.798L78.86 32.924H74.562L73.624 35.5H72L75.85 25.504ZM75.024 31.664H78.398L76.746 27.142H76.69L75.024 31.664ZM85.8996 28.066C86.9636 28.066 87.7896 28.444 88.4056 29.2C88.9656 29.9 89.2456 30.796 89.2456 31.916C89.2456 32.98 88.9656 33.862 88.4196 34.562C87.8316 35.318 87.0056 35.696 85.9696 35.696C85.0736 35.696 84.3456 35.276 83.7576 34.436V38.272H82.2736V28.262H83.6596V29.13C84.1636 28.416 84.9196 28.066 85.8996 28.066ZM85.6756 29.27C85.0316 29.27 84.5276 29.522 84.1776 30.04C83.8696 30.488 83.7156 31.09 83.7156 31.832V31.958C83.7156 32.728 83.8976 33.358 84.2896 33.834C84.6256 34.268 85.0736 34.492 85.6336 34.492C86.3616 34.492 86.8936 34.254 87.2436 33.778C87.5516 33.33 87.7196 32.714 87.7196 31.916C87.7196 31.118 87.5656 30.502 87.2856 30.054C86.9356 29.522 86.4036 29.27 85.6756 29.27ZM94.2668 28.066C95.3308 28.066 96.1568 28.444 96.7728 29.2C97.3328 29.9 97.6128 30.796 97.6128 31.916C97.6128 32.98 97.3328 33.862 96.7868 34.562C96.1988 35.318 95.3728 35.696 94.3368 35.696C93.4408 35.696 92.7128 35.276 92.1248 34.436V38.272H90.6408V28.262H92.0268V29.13C92.5308 28.416 93.2868 28.066 94.2668 28.066ZM94.0428 29.27C93.3988 29.27 92.8948 29.522 92.5448 30.04C92.2368 30.488 92.0828 31.09 92.0828 31.832V31.958C92.0828 32.728 92.2648 33.358 92.6568 33.834C92.9928 34.268 93.4408 34.492 94.0008 34.492C94.7288 34.492 95.2608 34.254 95.6108 33.778C95.9188 33.33 96.0868 32.714 96.0868 31.916C96.0868 31.118 95.9328 30.502 95.6528 30.054C95.3028 29.522 94.7708 29.27 94.0428 29.27ZM107.31 25.308C108.472 25.308 109.382 25.546 110.04 26.05C110.74 26.568 111.132 27.366 111.23 28.458H109.718C109.578 27.814 109.326 27.338 108.934 27.058C108.542 26.764 107.982 26.624 107.226 26.624C106.568 26.624 106.064 26.722 105.714 26.918C105.28 27.142 105.07 27.506 105.07 28.01C105.07 28.458 105.308 28.808 105.812 29.074C106.036 29.2 106.61 29.41 107.548 29.69C108.892 30.11 109.774 30.432 110.166 30.67C111.02 31.188 111.454 31.902 111.454 32.826C111.454 33.722 111.104 34.422 110.404 34.94C109.704 35.444 108.724 35.696 107.464 35.696C106.246 35.696 105.294 35.444 104.608 34.968C103.782 34.38 103.334 33.456 103.25 32.196H104.762C104.874 32.98 105.154 33.554 105.602 33.89C106.008 34.198 106.624 34.352 107.464 34.352C108.22 34.352 108.822 34.212 109.27 33.96C109.718 33.708 109.942 33.358 109.942 32.91C109.942 32.35 109.62 31.916 108.99 31.594C108.766 31.482 108.108 31.258 107.002 30.922C105.77 30.53 105.014 30.264 104.706 30.096C103.936 29.634 103.558 28.962 103.558 28.094C103.558 27.212 103.922 26.526 104.664 26.022C105.364 25.546 106.246 25.308 107.31 25.308ZM114.933 25.924V28.262H116.585V29.494H114.933V33.694C114.933 33.89 114.975 34.03 115.059 34.128C115.143 34.212 115.269 34.268 115.451 34.268H116.403V35.5H115.213C114.597 35.5 114.135 35.332 113.855 35.01C113.575 34.702 113.449 34.268 113.449 33.694V29.494H112.105V28.262H113.449V26.54L114.933 25.924ZM121.111 28.066C122.203 28.066 123.085 28.43 123.743 29.158C124.387 29.872 124.723 30.782 124.723 31.888C124.723 32.98 124.401 33.89 123.757 34.59C123.085 35.318 122.203 35.696 121.111 35.696C120.019 35.696 119.137 35.318 118.465 34.59C117.821 33.89 117.499 32.98 117.499 31.888C117.499 30.782 117.821 29.872 118.479 29.158C119.137 28.43 120.019 28.066 121.111 28.066ZM121.111 29.284C120.425 29.284 119.893 29.55 119.515 30.096C119.179 30.558 119.025 31.16 119.025 31.888C119.025 32.616 119.179 33.204 119.515 33.666C119.893 34.198 120.425 34.478 121.111 34.478C121.797 34.478 122.329 34.198 122.721 33.666C123.057 33.19 123.225 32.602 123.225 31.888C123.225 31.16 123.057 30.558 122.721 30.096C122.329 29.55 121.797 29.284 121.111 29.284ZM129.493 28.066C129.857 28.066 130.179 28.122 130.431 28.248V29.732C130.067 29.62 129.717 29.578 129.381 29.578C128.933 29.578 128.527 29.76 128.177 30.124C127.799 30.516 127.617 31.034 127.617 31.664V35.5H126.133V28.262H127.617V29.354C127.799 28.962 128.037 28.668 128.317 28.472C128.653 28.192 129.045 28.066 129.493 28.066ZM134.408 28.066C135.584 28.066 136.494 28.458 137.11 29.27C137.67 29.998 137.964 31.006 137.978 32.294H132.49C132.546 32.994 132.728 33.54 133.064 33.918C133.4 34.282 133.862 34.478 134.45 34.478C134.968 34.478 135.388 34.352 135.71 34.114C135.962 33.918 136.172 33.596 136.368 33.176H137.852C137.684 33.848 137.362 34.422 136.858 34.87C136.228 35.416 135.43 35.696 134.464 35.696C133.4 35.696 132.546 35.36 131.93 34.702C131.258 34.002 130.922 33.064 130.922 31.874C130.922 30.796 131.23 29.9 131.874 29.172C132.49 28.43 133.344 28.066 134.408 28.066ZM134.45 29.284C133.89 29.284 133.456 29.438 133.12 29.774C132.812 30.096 132.602 30.558 132.518 31.174H136.424C136.284 29.914 135.626 29.284 134.45 29.284Z" fill="#080B0E"/>
<defs>
<linearGradient id="paint0_linear_390_949" x1="193" y1="63" x2="120.906" y2="134.68" gradientUnits="userSpaceOnUse">
<stop offset="0.419543" stop-color="#E3FF57"/>
<stop offset="1" stop-color="#75EB36"/>
</linearGradient>
<clipPath id="clip0_390_949">
<rect width="32" height="32" fill="white" transform="translate(32 10)"/>
</clipPath>
</defs>
</svg>
