<svg width="204" height="52" viewBox="0 0 204 52" fill="none" xmlns="http://www.w3.org/2000/svg">
<rect width="204" height="52" rx="8" fill="white"/>
<path d="M60.2227 24.7947L47.96 12.5L63.56 21.456L60.2214 24.7947H60.2227Z" fill="#34A853"/>
<path d="M44.7606 11.7773C44.0406 12.156 43.5566 12.844 43.5566 13.7387V38.256C43.5566 39.1493 44.0393 39.8387 44.762 40.216L59.018 25.9947L44.7606 11.7773Z" fill="#4285F4"/>
<path d="M68.3846 24.3113L65.1112 22.418L61.4619 26.0006L65.1112 29.5833L68.4512 27.69C69.4512 26.8953 69.4512 25.106 68.3846 24.3113Z" fill="#FBBC04"/>
<path d="M47.96 39.5017L63.56 30.5457L60.2226 27.207L47.96 39.5017Z" fill="#EA4335"/>
<path d="M87.79 12.72C88.7 12.72 89.42 12.92 89.95 13.34C90.46 13.74 90.78 14.33 90.91 15.13H89.81C89.71 14.65 89.49 14.29 89.15 14.05C88.81 13.8 88.35 13.68 87.79 13.68C87.1 13.68 86.55 13.91 86.14 14.39C85.7 14.89 85.49 15.58 85.49 16.46C85.49 17.32 85.68 17.98 86.08 18.44C86.5 18.94 87.16 19.19 88.05 19.19C88.4 19.19 88.73 19.14 89.04 19.06C89.34 18.98 89.6 18.86 89.84 18.71V17.16H87.87V16.23H90.93V19.23C90.56 19.52 90.13 19.74 89.64 19.9C89.12 20.06 88.55 20.14 87.93 20.14C86.79 20.14 85.91 19.78 85.28 19.06C84.69 18.39 84.4 17.52 84.4 16.46C84.4 15.39 84.69 14.51 85.28 13.82C85.9 13.08 86.74 12.72 87.79 12.72ZM92.2391 12.86H97.3691V13.79H93.3291V15.87H97.1291V16.8H93.3291V19.07H97.5391V20H92.2391V12.86ZM98.0953 12.86H103.945V13.79H101.565V20H100.485V13.79H98.0953V12.86ZM108.158 12.86H109.238V20H108.158V12.86ZM110.107 12.86H115.957V13.79H113.577V20H112.497V13.79H110.107V12.86ZM123.309 12.72C124.389 12.72 125.249 13.07 125.879 13.78C126.479 14.45 126.779 15.34 126.779 16.44C126.779 17.53 126.479 18.41 125.879 19.09C125.249 19.79 124.389 20.14 123.309 20.14C122.219 20.14 121.359 19.78 120.739 19.08C120.139 18.4 119.849 17.52 119.849 16.44C119.849 15.35 120.139 14.47 120.739 13.79C121.359 13.07 122.219 12.72 123.309 12.72ZM123.309 13.68C122.549 13.68 121.959 13.93 121.539 14.45C121.139 14.94 120.939 15.6 120.939 16.44C120.939 17.27 121.139 17.93 121.539 18.42C121.959 18.92 122.549 19.18 123.309 19.18C124.069 19.18 124.659 18.93 125.069 18.44C125.469 17.96 125.679 17.29 125.679 16.44C125.679 15.58 125.469 14.91 125.069 14.42C124.659 13.92 124.069 13.68 123.309 13.68ZM127.884 12.86H128.984L132.634 18.17H132.674V12.86H133.764V20H132.704L129.014 14.63H128.974V20H127.884V12.86Z" fill="#1D1E20"/>
<path d="M89.306 27.808C90.58 27.808 91.588 28.088 92.33 28.676C93.044 29.236 93.492 30.062 93.674 31.182H92.134C91.994 30.51 91.686 30.006 91.21 29.67C90.734 29.32 90.09 29.152 89.306 29.152C88.34 29.152 87.57 29.474 86.996 30.146C86.38 30.846 86.086 31.812 86.086 33.044C86.086 34.248 86.352 35.172 86.912 35.816C87.5 36.516 88.424 36.866 89.67 36.866C90.16 36.866 90.622 36.796 91.056 36.684C91.476 36.572 91.84 36.404 92.176 36.194V34.024H89.418V32.722H93.702V36.922C93.184 37.328 92.582 37.636 91.896 37.86C91.168 38.084 90.37 38.196 89.502 38.196C87.906 38.196 86.674 37.692 85.792 36.684C84.966 35.746 84.56 34.528 84.56 33.044C84.56 31.546 84.966 30.314 85.792 29.348C86.66 28.312 87.836 27.808 89.306 27.808ZM98.7267 30.566C99.8187 30.566 100.701 30.93 101.359 31.658C102.003 32.372 102.339 33.282 102.339 34.388C102.339 35.48 102.017 36.39 101.373 37.09C100.701 37.818 99.8187 38.196 98.7267 38.196C97.6347 38.196 96.7527 37.818 96.0807 37.09C95.4367 36.39 95.1147 35.48 95.1147 34.388C95.1147 33.282 95.4367 32.372 96.0947 31.658C96.7527 30.93 97.6347 30.566 98.7267 30.566ZM98.7267 31.784C98.0407 31.784 97.5087 32.05 97.1307 32.596C96.7947 33.058 96.6407 33.66 96.6407 34.388C96.6407 35.116 96.7947 35.704 97.1307 36.166C97.5087 36.698 98.0407 36.978 98.7267 36.978C99.4127 36.978 99.9447 36.698 100.337 36.166C100.673 35.69 100.841 35.102 100.841 34.388C100.841 33.66 100.673 33.058 100.337 32.596C99.9447 32.05 99.4127 31.784 98.7267 31.784ZM107.08 30.566C108.172 30.566 109.054 30.93 109.712 31.658C110.356 32.372 110.692 33.282 110.692 34.388C110.692 35.48 110.37 36.39 109.726 37.09C109.054 37.818 108.172 38.196 107.08 38.196C105.988 38.196 105.106 37.818 104.434 37.09C103.79 36.39 103.468 35.48 103.468 34.388C103.468 33.282 103.79 32.372 104.448 31.658C105.106 30.93 105.988 30.566 107.08 30.566ZM107.08 31.784C106.394 31.784 105.862 32.05 105.484 32.596C105.148 33.058 104.994 33.66 104.994 34.388C104.994 35.116 105.148 35.704 105.484 36.166C105.862 36.698 106.394 36.978 107.08 36.978C107.766 36.978 108.298 36.698 108.69 36.166C109.026 35.69 109.194 35.102 109.194 34.388C109.194 33.66 109.026 33.058 108.69 32.596C108.298 32.05 107.766 31.784 107.08 31.784ZM115.112 30.566C116.064 30.566 116.792 30.944 117.324 31.728V30.762H118.808V37.524C118.808 39.82 117.674 40.968 115.434 40.968C114.426 40.968 113.656 40.772 113.124 40.394C112.592 40.002 112.27 39.414 112.13 38.616H113.614C113.698 39.036 113.866 39.344 114.146 39.526C114.412 39.694 114.846 39.792 115.434 39.792C116.694 39.792 117.324 39.106 117.324 37.748V36.628C116.792 37.426 116.064 37.832 115.112 37.832C114.132 37.832 113.334 37.496 112.732 36.838C112.116 36.18 111.822 35.312 111.822 34.22C111.822 33.128 112.116 32.26 112.732 31.588C113.334 30.902 114.132 30.566 115.112 30.566ZM115.336 31.77C114.706 31.77 114.216 31.98 113.88 32.428C113.516 32.848 113.348 33.45 113.348 34.22C113.348 34.92 113.488 35.48 113.768 35.886C114.09 36.362 114.608 36.614 115.336 36.614C115.966 36.614 116.456 36.404 116.82 35.984C117.156 35.55 117.338 34.962 117.338 34.22C117.338 33.464 117.156 32.862 116.82 32.428C116.456 31.98 115.966 31.77 115.336 31.77ZM120.651 27.808H122.135V38H120.651V27.808ZM127.049 30.566C128.225 30.566 129.135 30.958 129.751 31.77C130.311 32.498 130.605 33.506 130.619 34.794H125.131C125.187 35.494 125.369 36.04 125.705 36.418C126.041 36.782 126.503 36.978 127.091 36.978C127.609 36.978 128.029 36.852 128.351 36.614C128.603 36.418 128.813 36.096 129.009 35.676H130.493C130.325 36.348 130.003 36.922 129.499 37.37C128.869 37.916 128.071 38.196 127.105 38.196C126.041 38.196 125.187 37.86 124.571 37.202C123.899 36.502 123.563 35.564 123.563 34.374C123.563 33.296 123.871 32.4 124.515 31.672C125.131 30.93 125.985 30.566 127.049 30.566ZM127.091 31.784C126.531 31.784 126.097 31.938 125.761 32.274C125.453 32.596 125.243 33.058 125.159 33.674H129.065C128.925 32.414 128.267 31.784 127.091 31.784ZM136.687 28.004H140.831C143.211 28.004 144.401 29.012 144.401 31.042C144.401 33.086 143.197 34.108 140.803 34.108H138.213V38H136.687V28.004ZM138.213 29.306V32.806H140.705C141.461 32.806 142.007 32.666 142.357 32.386C142.693 32.106 142.875 31.658 142.875 31.042C142.875 30.426 142.693 29.978 142.343 29.726C141.993 29.446 141.447 29.306 140.705 29.306H138.213ZM145.848 27.808H147.332V38H145.848V27.808ZM152.442 30.566C153.506 30.566 154.29 30.832 154.794 31.364C155.228 31.826 155.452 32.498 155.452 33.38V38H154.08V36.978C153.8 37.342 153.45 37.636 153.03 37.846C152.554 38.07 151.994 38.196 151.35 38.196C150.594 38.196 150.006 38 149.586 37.622C149.124 37.244 148.9 36.754 148.9 36.152C148.9 35.34 149.222 34.71 149.866 34.276C150.454 33.856 151.294 33.646 152.358 33.618L153.982 33.576V33.282C153.982 32.274 153.436 31.77 152.344 31.77C151.882 31.77 151.504 31.854 151.224 32.022C150.888 32.218 150.678 32.512 150.594 32.918L149.124 32.792C149.278 32.008 149.67 31.42 150.286 31.056C150.818 30.72 151.546 30.566 152.442 30.566ZM153.982 34.654L152.456 34.696C151.098 34.724 150.426 35.2 150.426 36.096C150.426 36.376 150.538 36.6 150.776 36.782C151 36.964 151.308 37.062 151.686 37.062C152.316 37.062 152.848 36.866 153.296 36.488C153.744 36.11 153.982 35.634 153.982 35.074V34.654ZM156.381 30.762H157.991L159.979 36.04L161.883 30.762H163.507L159.573 40.772H157.991L159.251 37.832L156.381 30.762Z" fill="#080B0E"/>
</svg>
