<svg width="390" height="1145" viewBox="0 0 390 1145" fill="none" xmlns="http://www.w3.org/2000/svg">
<rect x="-576" y="352" width="1962" height="480" fill="url(#paint0_linear_390_883)"/>
<g filter="url(#filter0_f_390_883)">
<ellipse cx="306.5" cy="349.5" rx="1276.5" ry="481.5" fill="black"/>
</g>
<path opacity="0.1" d="M347.92 89.248C295.178 23.8543 242.166 -17.5012 239.932 -19.1814C216.947 -37.013 184.449 -37.9045 160.211 -20.0044C157.909 -18.3241 103.001 22.6198 48.229 86.6761C-29.4949 177.48 -69 268.18 -69 356.275C-69 505.751 47.5181 628 195.485 628C343.451 628 459.8 510.106 459.8 364.608C459.8 273.941 422.123 181.32 347.92 89.3508V89.2822V89.248ZM195.485 560.652C84.0781 560.652 -2.51494 468.134 -2.51494 356.275C-2.51494 184.201 199.479 34.3474 199.479 34.3474C199.479 34.3474 274.326 92.2313 330.994 179.366C251.408 146.103 164.679 159.991 103.543 216.263C49.9893 265.437 29.949 337.62 51.8173 404.42C103.137 560.755 329.403 527.218 339.626 383.022C344.805 309.536 283.026 275.382 227.001 288.549C163.698 303.501 146.162 370.677 200.495 393.035C200.732 335.46 274.563 332.785 274.563 382.851C274.563 417.417 238.815 438.471 207.773 441.798C114.545 451.742 74.1595 334.157 148.227 265.917C233.399 187.767 386.612 237.97 393.247 366.46C398.528 468.682 305.537 560.652 195.383 560.652H195.451H195.485Z" fill="url(#paint1_linear_390_883)"/>
<defs>
<filter id="filter0_f_390_883" x="-1284" y="-446" width="3181" height="1591" filterUnits="userSpaceOnUse" color-interpolation-filters="sRGB">
<feFlood flood-opacity="0" result="BackgroundImageFix"/>
<feBlend mode="normal" in="SourceGraphic" in2="BackgroundImageFix" result="shape"/>
<feGaussianBlur stdDeviation="157" result="effect1_foregroundBlur_390_883"/>
</filter>
<linearGradient id="paint0_linear_390_883" x1="-468.115" y1="568.247" x2="1384.96" y2="615.924" gradientUnits="userSpaceOnUse">
<stop stop-color="#76EC37"/>
<stop offset="1" stop-color="#B5F601" stop-opacity="0"/>
</linearGradient>
<linearGradient id="paint1_linear_390_883" x1="-15.5878" y1="628" x2="538.849" y2="49.4837" gradientUnits="userSpaceOnUse">
<stop offset="0.419543" stop-color="#E3FF57"/>
<stop offset="1" stop-color="#75EB36"/>
</linearGradient>
</defs>
</svg>
