<svg width="156" height="52" viewBox="0 0 156 52" fill="none" xmlns="http://www.w3.org/2000/svg">
<rect x="0.5" y="0.5" width="155" height="51" rx="7.5" stroke="white"/>
<path d="M52.7097 17.6546C52.7097 17.6546 54.6524 16.8973 54.491 18.7373C54.4377 19.4946 53.951 22.1466 53.5737 25.0133L52.279 33.508C52.279 33.508 52.171 34.752 51.2004 34.9693C50.2284 35.1853 48.7724 34.212 48.5017 33.996C48.2857 33.8333 44.455 31.3986 43.1057 30.208C42.7284 29.884 42.2964 29.2346 43.159 28.476L48.8257 23.0653C49.4737 22.416 50.1204 20.9013 47.423 22.7413L39.867 27.8813C39.867 27.8813 39.003 28.4226 37.3844 27.936L33.8777 26.8533C33.8777 26.8533 32.583 26.0413 34.795 25.2306C40.191 22.6866 46.8284 20.0893 52.7097 17.6546Z" fill="white"/>
<path d="M64.15 12.36H70V13.29H67.62V19.5H66.54V13.29H64.15V12.36ZM72.9521 14.19C73.7921 14.19 74.4421 14.47 74.8821 15.05C75.2821 15.57 75.4921 16.29 75.5021 17.21H71.5821C71.6221 17.71 71.7521 18.1 71.9921 18.37C72.2321 18.63 72.5621 18.77 72.9821 18.77C73.3521 18.77 73.6521 18.68 73.8821 18.51C74.0621 18.37 74.2121 18.14 74.3521 17.84H75.4121C75.2921 18.32 75.0621 18.73 74.7021 19.05C74.2521 19.44 73.6821 19.64 72.9921 19.64C72.2321 19.64 71.6221 19.4 71.1821 18.93C70.7021 18.43 70.4621 17.76 70.4621 16.91C70.4621 16.14 70.6821 15.5 71.1421 14.98C71.5821 14.45 72.1921 14.19 72.9521 14.19ZM72.9821 15.06C72.5821 15.06 72.2721 15.17 72.0321 15.41C71.8121 15.64 71.6621 15.97 71.6021 16.41H74.3921C74.2921 15.51 73.8221 15.06 72.9821 15.06ZM76.5266 12.22H77.5866V19.5H76.5266V12.22ZM81.0966 14.19C81.9366 14.19 82.5866 14.47 83.0266 15.05C83.4266 15.57 83.6366 16.29 83.6466 17.21H79.7266C79.7666 17.71 79.8966 18.1 80.1366 18.37C80.3766 18.63 80.7066 18.77 81.1266 18.77C81.4966 18.77 81.7966 18.68 82.0266 18.51C82.2066 18.37 82.3566 18.14 82.4966 17.84H83.5566C83.4366 18.32 83.2066 18.73 82.8466 19.05C82.3966 19.44 81.8266 19.64 81.1366 19.64C80.3766 19.64 79.7666 19.4 79.3266 18.93C78.8466 18.43 78.6066 17.76 78.6066 16.91C78.6066 16.14 78.8266 15.5 79.2866 14.98C79.7266 14.45 80.3366 14.19 81.0966 14.19ZM81.1266 15.06C80.7266 15.06 80.4166 15.17 80.1766 15.41C79.9566 15.64 79.8066 15.97 79.7466 16.41H82.5366C82.4366 15.51 81.9666 15.06 81.1266 15.06ZM86.7012 14.19C87.3812 14.19 87.9012 14.46 88.2812 15.02V14.33H89.3412V19.16C89.3412 20.8 88.5312 21.62 86.9312 21.62C86.2112 21.62 85.6612 21.48 85.2812 21.21C84.9012 20.93 84.6712 20.51 84.5712 19.94H85.6312C85.6912 20.24 85.8112 20.46 86.0112 20.59C86.2012 20.71 86.5112 20.78 86.9312 20.78C87.8312 20.78 88.2812 20.29 88.2812 19.32V18.52C87.9012 19.09 87.3812 19.38 86.7012 19.38C86.0012 19.38 85.4312 19.14 85.0012 18.67C84.5612 18.2 84.3512 17.58 84.3512 16.8C84.3512 16.02 84.5612 15.4 85.0012 14.92C85.4312 14.43 86.0012 14.19 86.7012 14.19ZM86.8612 15.05C86.4112 15.05 86.0612 15.2 85.8212 15.52C85.5612 15.82 85.4412 16.25 85.4412 16.8C85.4412 17.3 85.5412 17.7 85.7412 17.99C85.9712 18.33 86.3412 18.51 86.8612 18.51C87.3112 18.51 87.6612 18.36 87.9212 18.06C88.1612 17.75 88.2912 17.33 88.2912 16.8C88.2912 16.26 88.1612 15.83 87.9212 15.52C87.6612 15.2 87.3112 15.05 86.8612 15.05ZM92.9375 14.19C93.1975 14.19 93.4275 14.23 93.6075 14.32V15.38C93.3475 15.3 93.0975 15.27 92.8575 15.27C92.5375 15.27 92.2475 15.4 91.9975 15.66C91.7275 15.94 91.5975 16.31 91.5975 16.76V19.5H90.5375V14.33H91.5975V15.11C91.7275 14.83 91.8975 14.62 92.0975 14.48C92.3375 14.28 92.6175 14.19 92.9375 14.19ZM96.5882 14.19C97.3482 14.19 97.9082 14.38 98.2682 14.76C98.5782 15.09 98.7382 15.57 98.7382 16.2V19.5H97.7582V18.77C97.5582 19.03 97.3082 19.24 97.0082 19.39C96.6682 19.55 96.2682 19.64 95.8082 19.64C95.2682 19.64 94.8482 19.5 94.5482 19.23C94.2182 18.96 94.0582 18.61 94.0582 18.18C94.0582 17.6 94.2882 17.15 94.7482 16.84C95.1682 16.54 95.7682 16.39 96.5282 16.37L97.6882 16.34V16.13C97.6882 15.41 97.2982 15.05 96.5182 15.05C96.1882 15.05 95.9182 15.11 95.7182 15.23C95.4782 15.37 95.3282 15.58 95.2682 15.87L94.2182 15.78C94.3282 15.22 94.6082 14.8 95.0482 14.54C95.4282 14.3 95.9482 14.19 96.5882 14.19ZM97.6882 17.11L96.5982 17.14C95.6282 17.16 95.1482 17.5 95.1482 18.14C95.1482 18.34 95.2282 18.5 95.3982 18.63C95.5582 18.76 95.7782 18.83 96.0482 18.83C96.4982 18.83 96.8782 18.69 97.1982 18.42C97.5182 18.15 97.6882 17.81 97.6882 17.41V17.11ZM102.432 14.19C103.192 14.19 103.742 14.48 104.062 15.06C104.292 14.74 104.542 14.51 104.802 14.38C105.042 14.25 105.332 14.19 105.682 14.19C106.212 14.19 106.652 14.36 107.002 14.72C107.342 15.07 107.522 15.53 107.522 16.11V19.5H106.462V16.29C106.462 15.87 106.372 15.56 106.192 15.37C106.012 15.17 105.712 15.08 105.312 15.08C105.012 15.08 104.772 15.19 104.572 15.41C104.372 15.63 104.272 15.94 104.272 16.32V19.5H103.212V16.3C103.212 15.48 102.852 15.08 102.152 15.08C101.812 15.08 101.532 15.21 101.332 15.47C101.112 15.72 101.012 16.03 101.012 16.39V19.5H99.9516V14.33H101.012V14.9C101.432 14.42 101.912 14.19 102.432 14.19Z" fill="#D4D8DB"/>
<path d="M64.98 25.504H66.786L70.272 33.512H70.314L73.786 25.504H75.592V35.5H74.066V28.36H74.01L70.944 35.5H69.628L66.562 28.36H66.506V35.5H64.98V25.504ZM78.4681 25.364C78.7621 25.364 79.0141 25.448 79.2101 25.644C79.4061 25.826 79.5041 26.064 79.5041 26.358C79.5041 26.652 79.3921 26.89 79.1961 27.086C79.0001 27.268 78.7481 27.366 78.4681 27.366C78.1741 27.366 77.9361 27.268 77.7401 27.086C77.5441 26.89 77.4461 26.638 77.4461 26.358C77.4461 26.064 77.5441 25.826 77.7401 25.644C77.9361 25.448 78.1741 25.364 78.4681 25.364ZM77.7261 28.262H79.2101V35.5H77.7261V28.262ZM84.8869 28.066C86.6789 28.066 87.5889 29.046 87.5889 31.034V35.5H86.1049V31.16C86.1049 29.928 85.5309 29.312 84.4109 29.312C83.9909 29.312 83.6129 29.452 83.3049 29.76C82.9689 30.096 82.7589 30.558 82.7029 31.146V35.5H81.2189V28.262H82.7029V29.158C82.9829 28.794 83.3049 28.528 83.6689 28.346C84.0329 28.15 84.4389 28.066 84.8869 28.066ZM90.3353 25.364C90.6293 25.364 90.8813 25.448 91.0773 25.644C91.2733 25.826 91.3713 26.064 91.3713 26.358C91.3713 26.652 91.2593 26.89 91.0633 27.086C90.8673 27.268 90.6153 27.366 90.3353 27.366C90.0413 27.366 89.8033 27.268 89.6073 27.086C89.4113 26.89 89.3133 26.638 89.3133 26.358C89.3133 26.064 89.4113 25.826 89.6073 25.644C89.8033 25.448 90.0413 25.364 90.3353 25.364ZM89.5933 28.262H91.0773V35.5H89.5933V28.262ZM100.758 25.504H102.494L106.344 35.5H104.706L103.768 32.924H99.4702L98.5322 35.5H96.9082L100.758 25.504ZM99.9322 31.664H103.306L101.654 27.142H101.598L99.9322 31.664ZM110.808 28.066C111.872 28.066 112.698 28.444 113.314 29.2C113.874 29.9 114.154 30.796 114.154 31.916C114.154 32.98 113.874 33.862 113.328 34.562C112.74 35.318 111.914 35.696 110.878 35.696C109.982 35.696 109.254 35.276 108.666 34.436V38.272H107.182V28.262H108.568V29.13C109.072 28.416 109.828 28.066 110.808 28.066ZM110.584 29.27C109.94 29.27 109.436 29.522 109.086 30.04C108.778 30.488 108.624 31.09 108.624 31.832V31.958C108.624 32.728 108.806 33.358 109.198 33.834C109.534 34.268 109.982 34.492 110.542 34.492C111.27 34.492 111.802 34.254 112.152 33.778C112.46 33.33 112.628 32.714 112.628 31.916C112.628 31.118 112.474 30.502 112.194 30.054C111.844 29.522 111.312 29.27 110.584 29.27ZM119.175 28.066C120.239 28.066 121.065 28.444 121.681 29.2C122.241 29.9 122.521 30.796 122.521 31.916C122.521 32.98 122.241 33.862 121.695 34.562C121.107 35.318 120.281 35.696 119.245 35.696C118.349 35.696 117.621 35.276 117.033 34.436V38.272H115.549V28.262H116.935V29.13C117.439 28.416 118.195 28.066 119.175 28.066ZM118.951 29.27C118.307 29.27 117.803 29.522 117.453 30.04C117.145 30.488 116.991 31.09 116.991 31.832V31.958C116.991 32.728 117.173 33.358 117.565 33.834C117.901 34.268 118.349 34.492 118.909 34.492C119.637 34.492 120.169 34.254 120.519 33.778C120.827 33.33 120.995 32.714 120.995 31.916C120.995 31.118 120.841 30.502 120.561 30.054C120.211 29.522 119.679 29.27 118.951 29.27Z" fill="white"/>
</svg>
