<svg width="358" height="48" viewBox="0 0 358 48" fill="none" xmlns="http://www.w3.org/2000/svg">
<rect width="358" height="48" rx="8" fill="white"/>
<path d="M139.223 22.7947L126.96 10.5L142.56 19.456L139.221 22.7947H139.223Z" fill="#34A853"/>
<path d="M123.761 9.77734C123.041 10.156 122.557 10.844 122.557 11.7387V36.256C122.557 37.1493 123.039 37.8387 123.762 38.216L138.018 23.9947L123.761 9.77734Z" fill="#4285F4"/>
<path d="M147.385 22.3113L144.111 20.418L140.462 24.0006L144.111 27.5833L147.451 25.69C148.451 24.8953 148.451 23.106 147.385 22.3113Z" fill="#FBBC04"/>
<path d="M126.96 37.5017L142.56 28.5457L139.223 25.207L126.96 37.5017Z" fill="#EA4335"/>
<path d="M162.79 10.72C163.7 10.72 164.42 10.92 164.95 11.34C165.46 11.74 165.78 12.33 165.91 13.13H164.81C164.71 12.65 164.49 12.29 164.15 12.05C163.81 11.8 163.35 11.68 162.79 11.68C162.1 11.68 161.55 11.91 161.14 12.39C160.7 12.89 160.49 13.58 160.49 14.46C160.49 15.32 160.68 15.98 161.08 16.44C161.5 16.94 162.16 17.19 163.05 17.19C163.4 17.19 163.73 17.14 164.04 17.06C164.34 16.98 164.6 16.86 164.84 16.71V15.16H162.87V14.23H165.93V17.23C165.56 17.52 165.13 17.74 164.64 17.9C164.12 18.06 163.55 18.14 162.93 18.14C161.79 18.14 160.91 17.78 160.28 17.06C159.69 16.39 159.4 15.52 159.4 14.46C159.4 13.39 159.69 12.51 160.28 11.82C160.9 11.08 161.74 10.72 162.79 10.72ZM167.239 10.86H172.369V11.79H168.329V13.87H172.129V14.8H168.329V17.07H172.539V18H167.239V10.86ZM173.095 10.86H178.945V11.79H176.565V18H175.485V11.79H173.095V10.86ZM183.158 10.86H184.238V18H183.158V10.86ZM185.107 10.86H190.957V11.79H188.577V18H187.497V11.79H185.107V10.86ZM198.309 10.72C199.389 10.72 200.249 11.07 200.879 11.78C201.479 12.45 201.779 13.34 201.779 14.44C201.779 15.53 201.479 16.41 200.879 17.09C200.249 17.79 199.389 18.14 198.309 18.14C197.219 18.14 196.359 17.78 195.739 17.08C195.139 16.4 194.849 15.52 194.849 14.44C194.849 13.35 195.139 12.47 195.739 11.79C196.359 11.07 197.219 10.72 198.309 10.72ZM198.309 11.68C197.549 11.68 196.959 11.93 196.539 12.45C196.139 12.94 195.939 13.6 195.939 14.44C195.939 15.27 196.139 15.93 196.539 16.42C196.959 16.92 197.549 17.18 198.309 17.18C199.069 17.18 199.659 16.93 200.069 16.44C200.469 15.96 200.679 15.29 200.679 14.44C200.679 13.58 200.469 12.91 200.069 12.42C199.659 11.92 199.069 11.68 198.309 11.68ZM202.884 10.86H203.984L207.634 16.17H207.674V10.86H208.764V18H207.704L204.014 12.63H203.974V18H202.884V10.86Z" fill="#1D1E20"/>
<path d="M164.306 25.808C165.58 25.808 166.588 26.088 167.33 26.676C168.044 27.236 168.492 28.062 168.674 29.182H167.134C166.994 28.51 166.686 28.006 166.21 27.67C165.734 27.32 165.09 27.152 164.306 27.152C163.34 27.152 162.57 27.474 161.996 28.146C161.38 28.846 161.086 29.812 161.086 31.044C161.086 32.248 161.352 33.172 161.912 33.816C162.5 34.516 163.424 34.866 164.67 34.866C165.16 34.866 165.622 34.796 166.056 34.684C166.476 34.572 166.84 34.404 167.176 34.194V32.024H164.418V30.722H168.702V34.922C168.184 35.328 167.582 35.636 166.896 35.86C166.168 36.084 165.37 36.196 164.502 36.196C162.906 36.196 161.674 35.692 160.792 34.684C159.966 33.746 159.56 32.528 159.56 31.044C159.56 29.546 159.966 28.314 160.792 27.348C161.66 26.312 162.836 25.808 164.306 25.808ZM173.727 28.566C174.819 28.566 175.701 28.93 176.359 29.658C177.003 30.372 177.339 31.282 177.339 32.388C177.339 33.48 177.017 34.39 176.373 35.09C175.701 35.818 174.819 36.196 173.727 36.196C172.635 36.196 171.753 35.818 171.081 35.09C170.437 34.39 170.115 33.48 170.115 32.388C170.115 31.282 170.437 30.372 171.095 29.658C171.753 28.93 172.635 28.566 173.727 28.566ZM173.727 29.784C173.041 29.784 172.509 30.05 172.131 30.596C171.795 31.058 171.641 31.66 171.641 32.388C171.641 33.116 171.795 33.704 172.131 34.166C172.509 34.698 173.041 34.978 173.727 34.978C174.413 34.978 174.945 34.698 175.337 34.166C175.673 33.69 175.841 33.102 175.841 32.388C175.841 31.66 175.673 31.058 175.337 30.596C174.945 30.05 174.413 29.784 173.727 29.784ZM182.08 28.566C183.172 28.566 184.054 28.93 184.712 29.658C185.356 30.372 185.692 31.282 185.692 32.388C185.692 33.48 185.37 34.39 184.726 35.09C184.054 35.818 183.172 36.196 182.08 36.196C180.988 36.196 180.106 35.818 179.434 35.09C178.79 34.39 178.468 33.48 178.468 32.388C178.468 31.282 178.79 30.372 179.448 29.658C180.106 28.93 180.988 28.566 182.08 28.566ZM182.08 29.784C181.394 29.784 180.862 30.05 180.484 30.596C180.148 31.058 179.994 31.66 179.994 32.388C179.994 33.116 180.148 33.704 180.484 34.166C180.862 34.698 181.394 34.978 182.08 34.978C182.766 34.978 183.298 34.698 183.69 34.166C184.026 33.69 184.194 33.102 184.194 32.388C184.194 31.66 184.026 31.058 183.69 30.596C183.298 30.05 182.766 29.784 182.08 29.784ZM190.112 28.566C191.064 28.566 191.792 28.944 192.324 29.728V28.762H193.808V35.524C193.808 37.82 192.674 38.968 190.434 38.968C189.426 38.968 188.656 38.772 188.124 38.394C187.592 38.002 187.27 37.414 187.13 36.616H188.614C188.698 37.036 188.866 37.344 189.146 37.526C189.412 37.694 189.846 37.792 190.434 37.792C191.694 37.792 192.324 37.106 192.324 35.748V34.628C191.792 35.426 191.064 35.832 190.112 35.832C189.132 35.832 188.334 35.496 187.732 34.838C187.116 34.18 186.822 33.312 186.822 32.22C186.822 31.128 187.116 30.26 187.732 29.588C188.334 28.902 189.132 28.566 190.112 28.566ZM190.336 29.77C189.706 29.77 189.216 29.98 188.88 30.428C188.516 30.848 188.348 31.45 188.348 32.22C188.348 32.92 188.488 33.48 188.768 33.886C189.09 34.362 189.608 34.614 190.336 34.614C190.966 34.614 191.456 34.404 191.82 33.984C192.156 33.55 192.338 32.962 192.338 32.22C192.338 31.464 192.156 30.862 191.82 30.428C191.456 29.98 190.966 29.77 190.336 29.77ZM195.651 25.808H197.135V36H195.651V25.808ZM202.049 28.566C203.225 28.566 204.135 28.958 204.751 29.77C205.311 30.498 205.605 31.506 205.619 32.794H200.131C200.187 33.494 200.369 34.04 200.705 34.418C201.041 34.782 201.503 34.978 202.091 34.978C202.609 34.978 203.029 34.852 203.351 34.614C203.603 34.418 203.813 34.096 204.009 33.676H205.493C205.325 34.348 205.003 34.922 204.499 35.37C203.869 35.916 203.071 36.196 202.105 36.196C201.041 36.196 200.187 35.86 199.571 35.202C198.899 34.502 198.563 33.564 198.563 32.374C198.563 31.296 198.871 30.4 199.515 29.672C200.131 28.93 200.985 28.566 202.049 28.566ZM202.091 29.784C201.531 29.784 201.097 29.938 200.761 30.274C200.453 30.596 200.243 31.058 200.159 31.674H204.065C203.925 30.414 203.267 29.784 202.091 29.784ZM211.687 26.004H215.831C218.211 26.004 219.401 27.012 219.401 29.042C219.401 31.086 218.197 32.108 215.803 32.108H213.213V36H211.687V26.004ZM213.213 27.306V30.806H215.705C216.461 30.806 217.007 30.666 217.357 30.386C217.693 30.106 217.875 29.658 217.875 29.042C217.875 28.426 217.693 27.978 217.343 27.726C216.993 27.446 216.447 27.306 215.705 27.306H213.213ZM220.848 25.808H222.332V36H220.848V25.808ZM227.442 28.566C228.506 28.566 229.29 28.832 229.794 29.364C230.228 29.826 230.452 30.498 230.452 31.38V36H229.08V34.978C228.8 35.342 228.45 35.636 228.03 35.846C227.554 36.07 226.994 36.196 226.35 36.196C225.594 36.196 225.006 36 224.586 35.622C224.124 35.244 223.9 34.754 223.9 34.152C223.9 33.34 224.222 32.71 224.866 32.276C225.454 31.856 226.294 31.646 227.358 31.618L228.982 31.576V31.282C228.982 30.274 228.436 29.77 227.344 29.77C226.882 29.77 226.504 29.854 226.224 30.022C225.888 30.218 225.678 30.512 225.594 30.918L224.124 30.792C224.278 30.008 224.67 29.42 225.286 29.056C225.818 28.72 226.546 28.566 227.442 28.566ZM228.982 32.654L227.456 32.696C226.098 32.724 225.426 33.2 225.426 34.096C225.426 34.376 225.538 34.6 225.776 34.782C226 34.964 226.308 35.062 226.686 35.062C227.316 35.062 227.848 34.866 228.296 34.488C228.744 34.11 228.982 33.634 228.982 33.074V32.654ZM231.381 28.762H232.991L234.979 34.04L236.883 28.762H238.507L234.573 38.772H232.991L234.251 35.832L231.381 28.762Z" fill="#080B0E"/>
</svg>
