<svg width="358" height="48" viewBox="0 0 358 48" fill="none" xmlns="http://www.w3.org/2000/svg">
<rect x="0.5" y="0.5" width="357" height="47" rx="7.5" stroke="white"/>
<path d="M153.71 15.6544C153.71 15.6544 155.652 14.8971 155.491 16.7371C155.438 17.4944 154.951 20.1464 154.574 23.0131L153.279 31.5077C153.279 31.5077 153.171 32.7517 152.2 32.9691C151.228 33.1851 149.772 32.2117 149.502 31.9957C149.286 31.8331 145.455 29.3984 144.106 28.2077C143.728 27.8837 143.296 27.2344 144.159 26.4757L149.826 21.0651C150.474 20.4157 151.12 18.9011 148.423 20.7411L140.867 25.8811C140.867 25.8811 140.003 26.4224 138.384 25.9357L134.878 24.8531C134.878 24.8531 133.583 24.0411 135.795 23.2304C141.191 20.6864 147.828 18.0891 153.71 15.6544Z" fill="white"/>
<path d="M165.15 10.36H171V11.29H168.62V17.5H167.54V11.29H165.15V10.36ZM173.952 12.19C174.792 12.19 175.442 12.47 175.882 13.05C176.282 13.57 176.492 14.29 176.502 15.21H172.582C172.622 15.71 172.752 16.1 172.992 16.37C173.232 16.63 173.562 16.77 173.982 16.77C174.352 16.77 174.652 16.68 174.882 16.51C175.062 16.37 175.212 16.14 175.352 15.84H176.412C176.292 16.32 176.062 16.73 175.702 17.05C175.252 17.44 174.682 17.64 173.992 17.64C173.232 17.64 172.622 17.4 172.182 16.93C171.702 16.43 171.462 15.76 171.462 14.91C171.462 14.14 171.682 13.5 172.142 12.98C172.582 12.45 173.192 12.19 173.952 12.19ZM173.982 13.06C173.582 13.06 173.272 13.17 173.032 13.41C172.812 13.64 172.662 13.97 172.602 14.41H175.392C175.292 13.51 174.822 13.06 173.982 13.06ZM177.527 10.22H178.587V17.5H177.527V10.22ZM182.097 12.19C182.937 12.19 183.587 12.47 184.027 13.05C184.427 13.57 184.637 14.29 184.647 15.21H180.727C180.767 15.71 180.897 16.1 181.137 16.37C181.377 16.63 181.707 16.77 182.127 16.77C182.497 16.77 182.797 16.68 183.027 16.51C183.207 16.37 183.357 16.14 183.497 15.84H184.557C184.437 16.32 184.207 16.73 183.847 17.05C183.397 17.44 182.827 17.64 182.137 17.64C181.377 17.64 180.767 17.4 180.327 16.93C179.847 16.43 179.607 15.76 179.607 14.91C179.607 14.14 179.827 13.5 180.287 12.98C180.727 12.45 181.337 12.19 182.097 12.19ZM182.127 13.06C181.727 13.06 181.417 13.17 181.177 13.41C180.957 13.64 180.807 13.97 180.747 14.41H183.537C183.437 13.51 182.967 13.06 182.127 13.06ZM187.701 12.19C188.381 12.19 188.901 12.46 189.281 13.02V12.33H190.341V17.16C190.341 18.8 189.531 19.62 187.931 19.62C187.211 19.62 186.661 19.48 186.281 19.21C185.901 18.93 185.671 18.51 185.571 17.94H186.631C186.691 18.24 186.811 18.46 187.011 18.59C187.201 18.71 187.511 18.78 187.931 18.78C188.831 18.78 189.281 18.29 189.281 17.32V16.52C188.901 17.09 188.381 17.38 187.701 17.38C187.001 17.38 186.431 17.14 186.001 16.67C185.561 16.2 185.351 15.58 185.351 14.8C185.351 14.02 185.561 13.4 186.001 12.92C186.431 12.43 187.001 12.19 187.701 12.19ZM187.861 13.05C187.411 13.05 187.061 13.2 186.821 13.52C186.561 13.82 186.441 14.25 186.441 14.8C186.441 15.3 186.541 15.7 186.741 15.99C186.971 16.33 187.341 16.51 187.861 16.51C188.311 16.51 188.661 16.36 188.921 16.06C189.161 15.75 189.291 15.33 189.291 14.8C189.291 14.26 189.161 13.83 188.921 13.52C188.661 13.2 188.311 13.05 187.861 13.05ZM193.938 12.19C194.198 12.19 194.428 12.23 194.608 12.32V13.38C194.348 13.3 194.098 13.27 193.858 13.27C193.538 13.27 193.248 13.4 192.998 13.66C192.728 13.94 192.598 14.31 192.598 14.76V17.5H191.538V12.33H192.598V13.11C192.728 12.83 192.898 12.62 193.098 12.48C193.338 12.28 193.618 12.19 193.938 12.19ZM197.588 12.19C198.348 12.19 198.908 12.38 199.268 12.76C199.578 13.09 199.738 13.57 199.738 14.2V17.5H198.758V16.77C198.558 17.03 198.308 17.24 198.008 17.39C197.668 17.55 197.268 17.64 196.808 17.64C196.268 17.64 195.848 17.5 195.548 17.23C195.218 16.96 195.058 16.61 195.058 16.18C195.058 15.6 195.288 15.15 195.748 14.84C196.168 14.54 196.768 14.39 197.528 14.37L198.688 14.34V14.13C198.688 13.41 198.298 13.05 197.518 13.05C197.188 13.05 196.918 13.11 196.718 13.23C196.478 13.37 196.328 13.58 196.268 13.87L195.218 13.78C195.328 13.22 195.608 12.8 196.048 12.54C196.428 12.3 196.948 12.19 197.588 12.19ZM198.688 15.11L197.598 15.14C196.628 15.16 196.148 15.5 196.148 16.14C196.148 16.34 196.228 16.5 196.398 16.63C196.558 16.76 196.778 16.83 197.048 16.83C197.498 16.83 197.878 16.69 198.198 16.42C198.518 16.15 198.688 15.81 198.688 15.41V15.11ZM203.432 12.19C204.192 12.19 204.742 12.48 205.062 13.06C205.292 12.74 205.542 12.51 205.802 12.38C206.042 12.25 206.332 12.19 206.682 12.19C207.212 12.19 207.652 12.36 208.002 12.72C208.342 13.07 208.522 13.53 208.522 14.11V17.5H207.462V14.29C207.462 13.87 207.372 13.56 207.192 13.37C207.012 13.17 206.712 13.08 206.312 13.08C206.012 13.08 205.772 13.19 205.572 13.41C205.372 13.63 205.272 13.94 205.272 14.32V17.5H204.212V14.3C204.212 13.48 203.852 13.08 203.152 13.08C202.812 13.08 202.532 13.21 202.332 13.47C202.112 13.72 202.012 14.03 202.012 14.39V17.5H200.952V12.33H202.012V12.9C202.432 12.42 202.912 12.19 203.432 12.19Z" fill="#D4D8DB"/>
<path d="M165.98 23.504H167.786L171.272 31.512H171.314L174.786 23.504H176.592V33.5H175.066V26.36H175.01L171.944 33.5H170.628L167.562 26.36H167.506V33.5H165.98V23.504ZM179.468 23.364C179.762 23.364 180.014 23.448 180.21 23.644C180.406 23.826 180.504 24.064 180.504 24.358C180.504 24.652 180.392 24.89 180.196 25.086C180 25.268 179.748 25.366 179.468 25.366C179.174 25.366 178.936 25.268 178.74 25.086C178.544 24.89 178.446 24.638 178.446 24.358C178.446 24.064 178.544 23.826 178.74 23.644C178.936 23.448 179.174 23.364 179.468 23.364ZM178.726 26.262H180.21V33.5H178.726V26.262ZM185.887 26.066C187.679 26.066 188.589 27.046 188.589 29.034V33.5H187.105V29.16C187.105 27.928 186.531 27.312 185.411 27.312C184.991 27.312 184.613 27.452 184.305 27.76C183.969 28.096 183.759 28.558 183.703 29.146V33.5H182.219V26.262H183.703V27.158C183.983 26.794 184.305 26.528 184.669 26.346C185.033 26.15 185.439 26.066 185.887 26.066ZM191.335 23.364C191.629 23.364 191.881 23.448 192.077 23.644C192.273 23.826 192.371 24.064 192.371 24.358C192.371 24.652 192.259 24.89 192.063 25.086C191.867 25.268 191.615 25.366 191.335 25.366C191.041 25.366 190.803 25.268 190.607 25.086C190.411 24.89 190.313 24.638 190.313 24.358C190.313 24.064 190.411 23.826 190.607 23.644C190.803 23.448 191.041 23.364 191.335 23.364ZM190.593 26.262H192.077V33.5H190.593V26.262ZM201.758 23.504H203.494L207.344 33.5H205.706L204.768 30.924H200.47L199.532 33.5H197.908L201.758 23.504ZM200.932 29.664H204.306L202.654 25.142H202.598L200.932 29.664ZM211.808 26.066C212.872 26.066 213.698 26.444 214.314 27.2C214.874 27.9 215.154 28.796 215.154 29.916C215.154 30.98 214.874 31.862 214.328 32.562C213.74 33.318 212.914 33.696 211.878 33.696C210.982 33.696 210.254 33.276 209.666 32.436V36.272H208.182V26.262H209.568V27.13C210.072 26.416 210.828 26.066 211.808 26.066ZM211.584 27.27C210.94 27.27 210.436 27.522 210.086 28.04C209.778 28.488 209.624 29.09 209.624 29.832V29.958C209.624 30.728 209.806 31.358 210.198 31.834C210.534 32.268 210.982 32.492 211.542 32.492C212.27 32.492 212.802 32.254 213.152 31.778C213.46 31.33 213.628 30.714 213.628 29.916C213.628 29.118 213.474 28.502 213.194 28.054C212.844 27.522 212.312 27.27 211.584 27.27ZM220.175 26.066C221.239 26.066 222.065 26.444 222.681 27.2C223.241 27.9 223.521 28.796 223.521 29.916C223.521 30.98 223.241 31.862 222.695 32.562C222.107 33.318 221.281 33.696 220.245 33.696C219.349 33.696 218.621 33.276 218.033 32.436V36.272H216.549V26.262H217.935V27.13C218.439 26.416 219.195 26.066 220.175 26.066ZM219.951 27.27C219.307 27.27 218.803 27.522 218.453 28.04C218.145 28.488 217.991 29.09 217.991 29.832V29.958C217.991 30.728 218.173 31.358 218.565 31.834C218.901 32.268 219.349 32.492 219.909 32.492C220.637 32.492 221.169 32.254 221.519 31.778C221.827 31.33 221.995 30.714 221.995 29.916C221.995 29.118 221.841 28.502 221.561 28.054C221.211 27.522 220.679 27.27 219.951 27.27Z" fill="white"/>
</svg>
