<svg width="358" height="48" viewBox="0 0 358 48" fill="none" xmlns="http://www.w3.org/2000/svg">
<rect width="358" height="48" rx="8" fill="white"/>
<path d="M139.167 23.096L129.97 13.875L141.67 20.592L139.166 23.096H139.167Z" fill="#34A853"/>
<path d="M127.571 13.333C127.031 13.617 126.668 14.133 126.668 14.804V33.192C126.668 33.862 127.03 34.379 127.572 34.662L138.264 23.996L127.571 13.333Z" fill="#4285F4"/>
<path d="M145.289 22.733L142.834 21.313L140.097 24L142.834 26.687L145.339 25.267C146.089 24.671 146.089 23.329 145.289 22.733Z" fill="#FBBC04"/>
<path d="M129.97 34.1248L141.67 27.4078L139.167 24.9038L129.97 34.1248Z" fill="#EA4335"/>
<path d="M163.79 11.3714C164.7 11.3714 165.42 11.5714 165.95 11.9914C166.46 12.3914 166.78 12.9814 166.91 13.7814H165.81C165.71 13.3014 165.49 12.9414 165.15 12.7014C164.81 12.4514 164.35 12.3314 163.79 12.3314C163.1 12.3314 162.55 12.5614 162.14 13.0414C161.7 13.5414 161.49 14.2314 161.49 15.1114C161.49 15.9714 161.68 16.6314 162.08 17.0914C162.5 17.5914 163.16 17.8414 164.05 17.8414C164.4 17.8414 164.73 17.7914 165.04 17.7114C165.34 17.6314 165.6 17.5114 165.84 17.3614V15.8114H163.87V14.8814H166.93V17.8814C166.56 18.1714 166.13 18.3914 165.64 18.5514C165.12 18.7114 164.55 18.7914 163.93 18.7914C162.79 18.7914 161.91 18.4314 161.28 17.7114C160.69 17.0414 160.4 16.1714 160.4 15.1114C160.4 14.0414 160.69 13.1614 161.28 12.4714C161.9 11.7314 162.74 11.3714 163.79 11.3714ZM168.239 11.5114H173.369V12.4414H169.329V14.5214H173.129V15.4514H169.329V17.7214H173.539V18.6514H168.239V11.5114ZM174.095 11.5114H179.945V12.4414H177.565V18.6514H176.485V12.4414H174.095V11.5114ZM184.158 11.5114H185.238V18.6514H184.158V11.5114ZM186.107 11.5114H191.957V12.4414H189.577V18.6514H188.497V12.4414H186.107V11.5114ZM199.309 11.3714C200.389 11.3714 201.249 11.7214 201.879 12.4314C202.479 13.1014 202.779 13.9914 202.779 15.0914C202.779 16.1814 202.479 17.0614 201.879 17.7414C201.249 18.4414 200.389 18.7914 199.309 18.7914C198.219 18.7914 197.359 18.4314 196.739 17.7314C196.139 17.0514 195.849 16.1714 195.849 15.0914C195.849 14.0014 196.139 13.1214 196.739 12.4414C197.359 11.7214 198.219 11.3714 199.309 11.3714ZM199.309 12.3314C198.549 12.3314 197.959 12.5814 197.539 13.1014C197.139 13.5914 196.939 14.2514 196.939 15.0914C196.939 15.9214 197.139 16.5814 197.539 17.0714C197.959 17.5714 198.549 17.8314 199.309 17.8314C200.069 17.8314 200.659 17.5814 201.069 17.0914C201.469 16.6114 201.679 15.9414 201.679 15.0914C201.679 14.2314 201.469 13.5614 201.069 13.0714C200.659 12.5714 200.069 12.3314 199.309 12.3314ZM203.884 11.5114H204.984L208.634 16.8214H208.674V11.5114H209.764V18.6514H208.704L205.014 13.2814H204.974V18.6514H203.884V11.5114Z" fill="black"/>
<path d="M217.518 36.758H219.147V25.7465H217.518V36.758ZM232.189 29.713L230.322 34.4872H230.266L228.328 29.713H226.573L229.479 36.3854L227.823 40.0973H229.521L234 29.713H232.189ZM222.952 35.5072C222.418 35.5072 221.674 35.2386 221.674 34.5718C221.674 33.7226 222.6 33.3967 223.401 33.3967C224.116 33.3967 224.454 33.5526 224.889 33.7649C224.762 34.7849 223.892 35.5072 222.952 35.5072ZM223.148 29.4725C221.969 29.4725 220.747 29.9966 220.242 31.1585L221.688 31.7671C221.997 31.1585 222.572 30.9594 223.176 30.9594C224.019 30.9594 224.875 31.4694 224.889 32.3767V32.4894C224.594 32.3194 223.963 32.0649 223.19 32.0649C221.632 32.0649 220.045 32.929 220.045 34.5436C220.045 36.0172 221.323 36.9668 222.755 36.9668C223.85 36.9668 224.454 36.4709 224.833 35.8895H224.889V36.7395H226.461V32.5176C226.461 30.563 225.015 29.4725 223.148 29.4725ZM213.082 31.0537H210.765V27.2792H213.082C214.3 27.2792 214.991 28.2966 214.991 29.166C214.991 30.0195 214.3 31.0537 213.082 31.0537ZM213.04 25.7465H209.138V36.758H210.765V32.5863H213.04C214.845 32.5863 216.62 31.2668 216.62 29.166C216.62 27.0652 214.845 25.7465 213.04 25.7465ZM191.758 35.509C190.633 35.509 189.691 34.5586 189.691 33.2531C189.691 31.9336 190.633 30.9682 191.758 30.9682C192.869 30.9682 193.741 31.9336 193.741 33.2531C193.741 34.5586 192.869 35.509 191.758 35.509ZM193.629 30.3296H193.572C193.206 29.8901 192.504 29.4928 191.618 29.4928C189.761 29.4928 188.06 31.1382 188.06 33.2531C188.06 35.3531 189.761 36.9853 191.618 36.9853C192.504 36.9853 193.206 36.588 193.572 36.1335H193.629V36.6735C193.629 38.1066 192.869 38.873 191.646 38.873C190.647 38.873 190.028 38.1489 189.775 37.5385L188.355 38.1348C188.763 39.1284 189.846 40.3484 191.646 40.3484C193.558 40.3484 195.176 39.213 195.176 36.4462V29.7192H193.629V30.3296ZM196.301 36.758H197.932V25.7457H196.301V36.758ZM200.336 33.1254C200.294 31.6782 201.447 30.94 202.277 30.94C202.924 30.94 203.472 31.2659 203.655 31.7346L200.336 33.1254ZM205.399 31.8764C205.09 31.0396 204.147 29.4928 202.221 29.4928C200.308 29.4928 198.72 31.0105 198.72 33.239C198.72 35.339 200.294 36.9853 202.403 36.9853C204.105 36.9853 205.09 35.9353 205.498 35.3249L204.232 34.4731C203.81 35.0976 203.233 35.509 202.403 35.509C201.574 35.509 200.983 35.1258 200.603 34.3745L205.567 32.3018L205.399 31.8764ZM165.85 30.6423V32.2314H169.618C169.506 33.1254 169.211 33.7781 168.761 34.2318C168.212 34.7858 167.354 35.3962 165.85 35.3962C163.529 35.3962 161.715 33.5086 161.715 31.1673C161.715 28.8251 163.529 26.9383 165.85 26.9383C167.102 26.9383 168.016 27.4351 168.69 28.0737L169.802 26.9524C168.859 26.0443 167.608 25.3484 165.85 25.3484C162.672 25.3484 160 27.9601 160 31.1673C160 34.3745 162.672 36.9853 165.85 36.9853C167.565 36.9853 168.859 36.4172 169.871 35.3531C170.913 34.3031 171.236 32.8277 171.236 31.635C171.236 31.2659 171.208 30.9259 171.151 30.6423H165.85ZM175.521 35.509C174.396 35.509 173.425 34.5727 173.425 33.239C173.425 31.8905 174.396 30.9682 175.521 30.9682C176.645 30.9682 177.616 31.8905 177.616 33.239C177.616 34.5727 176.645 35.509 175.521 35.509ZM175.521 29.4928C173.467 29.4928 171.794 31.0677 171.794 33.239C171.794 35.3962 173.467 36.9853 175.521 36.9853C177.574 36.9853 179.247 35.3962 179.247 33.239C179.247 31.0677 177.574 29.4928 175.521 29.4928ZM183.65 35.509C182.525 35.509 181.554 34.5727 181.554 33.239C181.554 31.8905 182.525 30.9682 183.65 30.9682C184.775 30.9682 185.745 31.8905 185.745 33.239C185.745 34.5727 184.775 35.509 183.65 35.509ZM183.65 29.4928C181.597 29.4928 179.924 31.0677 179.924 33.239C179.924 35.3962 181.597 36.9853 183.65 36.9853C185.703 36.9853 187.376 35.3962 187.376 33.239C187.376 31.0677 185.703 29.4928 183.65 29.4928Z" fill="black"/>
</svg>
